G04 #@! TF.GenerationSoftware,KiCad,Pcbnew,(6.0.2)*
G04 #@! TF.CreationDate,2022-06-23T21:17:51+02:00*
G04 #@! TF.ProjectId,EightChannel,45696768-7443-4686-916e-6e656c2e6b69,rev?*
G04 #@! TF.SameCoordinates,Original*
G04 #@! TF.FileFunction,Soldermask,Bot*
G04 #@! TF.FilePolarity,Negative*
%FSLAX46Y46*%
G04 Gerber Fmt 4.6, Leading zero omitted, Abs format (unit mm)*
G04 Created by KiCad (PCBNEW (6.0.2)) date 2022-06-23 21:17:51*
%MOMM*%
%LPD*%
G01*
G04 APERTURE LIST*
%ADD10C,0.863600*%
%ADD11C,2.500000*%
%ADD12R,1.700000X1.700000*%
%ADD13O,1.700000X1.700000*%
%ADD14C,2.700000*%
%ADD15C,1.000000*%
G04 APERTURE END LIST*
D10*
X112834995Y-66510004D03*
X114104995Y-66510004D03*
X112834995Y-67780004D03*
X114104995Y-67780004D03*
X112834995Y-69050004D03*
X114104995Y-69050004D03*
D11*
X122020000Y-47730000D03*
X117020000Y-47730000D03*
X119520000Y-50430000D03*
D12*
X148320000Y-46830000D03*
D13*
X150860000Y-46830000D03*
X153400000Y-46830000D03*
X155940000Y-46830000D03*
X158480000Y-46830000D03*
X161020000Y-46830000D03*
X163560000Y-46830000D03*
D12*
X127520000Y-46830000D03*
D13*
X130060000Y-46830000D03*
X132600000Y-46830000D03*
X135140000Y-46830000D03*
X137680000Y-46830000D03*
X140220000Y-46830000D03*
X142760000Y-46830000D03*
D12*
X168670000Y-67280000D03*
D13*
X168670000Y-69820000D03*
X166130000Y-67280000D03*
X166130000Y-69820000D03*
X163590000Y-67280000D03*
X163590000Y-69820000D03*
X161050000Y-67280000D03*
X161050000Y-69820000D03*
X158510000Y-67280000D03*
X158510000Y-69820000D03*
X155970000Y-67280000D03*
X155970000Y-69820000D03*
X153430000Y-67280000D03*
X153430000Y-69820000D03*
X150890000Y-67280000D03*
X150890000Y-69820000D03*
X148350000Y-67280000D03*
X148350000Y-69820000D03*
X145810000Y-67280000D03*
X145810000Y-69820000D03*
X143270000Y-67280000D03*
X143270000Y-69820000D03*
X140730000Y-67280000D03*
X140730000Y-69820000D03*
X138190000Y-67280000D03*
X138190000Y-69820000D03*
X135650000Y-67280000D03*
X135650000Y-69820000D03*
X133110000Y-67280000D03*
X133110000Y-69820000D03*
X130570000Y-67280000D03*
X130570000Y-69820000D03*
D14*
X113620000Y-55280000D03*
X113670000Y-77480000D03*
D15*
X150670000Y-54980000D03*
D14*
X168320000Y-46180000D03*
M02*
