G04 #@! TF.GenerationSoftware,KiCad,Pcbnew,(6.0.2)*
G04 #@! TF.CreationDate,2022-06-23T21:17:50+02:00*
G04 #@! TF.ProjectId,EightChannel,45696768-7443-4686-916e-6e656c2e6b69,rev?*
G04 #@! TF.SameCoordinates,Original*
G04 #@! TF.FileFunction,Paste,Top*
G04 #@! TF.FilePolarity,Positive*
%FSLAX46Y46*%
G04 Gerber Fmt 4.6, Leading zero omitted, Abs format (unit mm)*
G04 Created by KiCad (PCBNEW (6.0.2)) date 2022-06-23 21:17:50*
%MOMM*%
%LPD*%
G01*
G04 APERTURE LIST*
G04 Aperture macros list*
%AMRoundRect*
0 Rectangle with rounded corners*
0 $1 Rounding radius*
0 $2 $3 $4 $5 $6 $7 $8 $9 X,Y pos of 4 corners*
0 Add a 4 corners polygon primitive as box body*
4,1,4,$2,$3,$4,$5,$6,$7,$8,$9,$2,$3,0*
0 Add four circle primitives for the rounded corners*
1,1,$1+$1,$2,$3*
1,1,$1+$1,$4,$5*
1,1,$1+$1,$6,$7*
1,1,$1+$1,$8,$9*
0 Add four rect primitives between the rounded corners*
20,1,$1+$1,$2,$3,$4,$5,0*
20,1,$1+$1,$4,$5,$6,$7,0*
20,1,$1+$1,$6,$7,$8,$9,0*
20,1,$1+$1,$8,$9,$2,$3,0*%
G04 Aperture macros list end*
%ADD10R,1.500000X1.250000*%
%ADD11R,1.100000X1.100000*%
%ADD12RoundRect,0.250000X-0.450000X0.262500X-0.450000X-0.262500X0.450000X-0.262500X0.450000X0.262500X0*%
%ADD13RoundRect,0.250000X0.450000X-0.262500X0.450000X0.262500X-0.450000X0.262500X-0.450000X-0.262500X0*%
%ADD14R,0.600000X1.500000*%
%ADD15RoundRect,0.150000X0.150000X-0.825000X0.150000X0.825000X-0.150000X0.825000X-0.150000X-0.825000X0*%
G04 APERTURE END LIST*
D10*
X121070000Y-60330000D03*
X123570000Y-60330000D03*
X144872000Y-49969600D03*
X147372000Y-49969600D03*
D11*
X118720000Y-60230000D03*
X115920000Y-60230000D03*
D12*
X121070000Y-55967500D03*
X121070000Y-57792500D03*
D13*
X133170000Y-64102500D03*
X133170000Y-62277500D03*
X138270000Y-64002500D03*
X138270000Y-62177500D03*
X143370000Y-64002500D03*
X143370000Y-62177500D03*
X148470000Y-63902500D03*
X148470000Y-62077500D03*
X153470000Y-64002499D03*
X153470000Y-62177499D03*
D12*
X131070000Y-62267500D03*
X131070000Y-64092500D03*
X136170000Y-62177500D03*
X136170000Y-64002500D03*
X141270000Y-62177500D03*
X141270000Y-64002500D03*
X146370000Y-62077500D03*
X146370000Y-63902500D03*
X151370000Y-62177500D03*
X151370000Y-64002500D03*
D14*
X139805000Y-57720000D03*
X141075000Y-57720000D03*
X142345000Y-57720000D03*
X143615000Y-57720000D03*
X144885000Y-57720000D03*
X146155000Y-57720000D03*
X147425000Y-57720000D03*
X148695000Y-57720000D03*
X148695000Y-52320000D03*
X147425000Y-52320000D03*
X146155000Y-52320000D03*
X144885000Y-52320000D03*
X143615000Y-52320000D03*
X142345000Y-52320000D03*
X141075000Y-52320000D03*
X139805000Y-52320000D03*
D15*
X127199000Y-57524600D03*
X128469000Y-57524600D03*
X129739000Y-57524600D03*
X131009000Y-57524600D03*
X132279000Y-57524600D03*
X133549000Y-57524600D03*
X134819000Y-57524600D03*
X134819000Y-52574600D03*
X133549000Y-52574600D03*
X132279000Y-52574600D03*
X131009000Y-52574600D03*
X129739000Y-52574600D03*
X128469000Y-52574600D03*
X127199000Y-52574600D03*
D12*
X156470000Y-62177500D03*
X156470000Y-64002500D03*
X161570000Y-62077500D03*
X161570000Y-63902500D03*
D13*
X163670000Y-63902500D03*
X163670000Y-62077500D03*
X158670000Y-64002500D03*
X158670000Y-62177500D03*
D12*
X168599289Y-62103947D03*
X168599289Y-63928947D03*
D13*
X166499290Y-63928947D03*
X166499290Y-62103947D03*
M02*
