M48
; DRILL file {KiCad (6.0.2)} date Thu Jun 23 21:18:25 2022
; FORMAT={-:-/ absolute / metric / decimal}
; #@! TF.CreationDate,2022-06-23T21:18:25+02:00
; #@! TF.GenerationSoftware,Kicad,Pcbnew,(6.0.2)
; #@! TF.FileFunction,Plated,1,2,PTH
FMAT,2
METRIC
; #@! TA.AperFunction,Plated,PTH,ViaDrill
T1C0.330
; #@! TA.AperFunction,Plated,PTH,ComponentDrill
T2C0.330
; #@! TA.AperFunction,Plated,PTH,ComponentDrill
T3C0.500
; #@! TA.AperFunction,Plated,PTH,ComponentDrill
T4C1.000
; #@! TA.AperFunction,Plated,PTH,ComponentDrill
T5C1.700
%
G90
G05
T1
X111.557Y-77.47
X111.76Y-44.45
X111.76Y-46.99
X111.76Y-49.53
X111.76Y-52.07
X111.76Y-57.15
X111.76Y-59.69
X111.76Y-62.23
X111.76Y-64.77
X111.76Y-67.31
X111.76Y-72.39
X111.76Y-74.93
X111.76Y-79.502
X114.3Y-44.45
X114.3Y-46.99
X114.3Y-49.53
X114.3Y-52.07
X114.3Y-59.69
X114.3Y-62.23
X114.3Y-72.39
X114.3Y-74.93
X114.3Y-79.502
X114.808Y-64.262
X116.84Y-44.45
X116.84Y-49.53
X116.84Y-52.07
X116.84Y-54.61
X116.84Y-64.77
X116.84Y-67.31
X116.84Y-69.85
X116.84Y-72.39
X116.84Y-74.93
X116.84Y-77.47
X116.84Y-79.502
X116.97Y-57.23
X117.094Y-59.69
X119.38Y-44.45
X119.38Y-46.99
X119.38Y-57.15
X119.38Y-62.23
X119.38Y-64.77
X119.38Y-67.31
X119.38Y-69.85
X119.38Y-72.39
X119.38Y-74.93
X119.38Y-77.47
X119.38Y-79.502
X119.634Y-58.928
X121.92Y-44.45
X121.92Y-62.23
X121.92Y-64.77
X121.92Y-67.31
X121.92Y-69.85
X121.92Y-72.39
X121.92Y-74.93
X121.92Y-77.47
X121.92Y-79.502
X122.174Y-59.182
X124.46Y-44.45
X124.46Y-46.99
X124.46Y-49.53
X124.46Y-52.07
X124.46Y-54.622
X124.46Y-62.23
X124.46Y-64.77
X124.46Y-67.31
X124.46Y-69.85
X124.46Y-72.39
X124.46Y-74.93
X124.46Y-77.47
X124.46Y-79.502
X124.636Y-56.877
X127.0Y-44.45
X127.0Y-64.77
X127.0Y-67.31
X127.0Y-69.85
X127.0Y-72.39
X127.0Y-74.93
X127.0Y-77.47
X127.0Y-79.502
X127.457Y-59.69
X128.168Y-54.813
X128.168Y-55.982
X129.032Y-68.58
X129.54Y-44.45
X129.54Y-59.69
X129.54Y-61.824
X129.54Y-72.39
X129.54Y-74.93
X129.54Y-77.47
X129.54Y-79.502
X131.445Y-44.45
X131.826Y-68.58
X132.08Y-59.69
X132.08Y-72.39
X132.08Y-74.93
X132.08Y-77.47
X132.08Y-79.502
X133.553Y-54.051
X133.604Y-49.022
X134.163Y-61.112
X134.62Y-44.704
X134.62Y-59.69
X134.62Y-62.23
X134.62Y-64.77
X134.62Y-68.58
X134.62Y-72.39
X134.62Y-74.93
X134.62Y-77.47
X134.62Y-79.502
X135.534Y-50.19
X136.652Y-57.404
X137.16Y-44.704
X137.16Y-59.69
X137.16Y-65.024
X137.16Y-68.58
X137.16Y-72.39
X137.16Y-74.93
X137.16Y-77.47
X137.16Y-79.502
X137.668Y-56.388
X137.973Y-52.781
X138.684Y-45.593
X138.684Y-53.746
X138.938Y-59.69
X139.446Y-48.209
X139.7Y-62.23
X139.7Y-64.77
X139.7Y-68.58
X139.7Y-72.39
X139.7Y-74.93
X139.7Y-77.47
X139.7Y-79.502
X140.411Y-50.19
X141.075Y-53.633
X141.478Y-46.228
X141.58Y-55.829
X141.844Y-48.605
X141.986Y-53.899
X142.24Y-59.69
X142.24Y-65.024
X142.24Y-68.58
X142.24Y-72.39
X142.24Y-74.93
X142.24Y-77.47
X142.24Y-79.502
X143.112Y-48.827
X143.252Y-44.953
X143.637Y-49.657
X144.12Y-55.829
X144.293Y-45.588
X144.526Y-53.899
X144.78Y-62.23
X144.78Y-64.77
X144.78Y-68.58
X144.78Y-72.39
X144.78Y-74.93
X144.78Y-77.47
X144.78Y-79.502
X145.034Y-44.323
X145.542Y-59.69
X146.66Y-55.829
X147.066Y-53.899
X147.32Y-44.323
X147.32Y-65.024
X147.32Y-68.58
X147.32Y-72.39
X147.32Y-74.93
X147.32Y-77.47
X147.32Y-79.502
X147.982Y-53.592
X149.07Y-50.88
X149.86Y-44.45
X149.86Y-59.944
X149.86Y-62.23
X149.86Y-64.77
X149.86Y-68.58
X149.86Y-72.39
X149.86Y-74.93
X149.86Y-77.47
X149.86Y-79.502
X151.739Y-49.594
X152.4Y-44.45
X152.4Y-52.07
X152.4Y-54.61
X152.4Y-57.15
X152.4Y-59.944
X152.4Y-65.024
X152.4Y-68.58
X152.4Y-72.39
X152.4Y-74.93
X152.4Y-77.47
X152.4Y-79.502
X154.686Y-49.53
X154.94Y-44.45
X154.94Y-52.07
X154.94Y-54.61
X154.94Y-57.15
X154.94Y-59.69
X154.94Y-62.23
X154.94Y-64.77
X154.94Y-68.58
X154.94Y-72.39
X154.94Y-74.93
X154.94Y-77.47
X154.94Y-79.502
X157.48Y-44.45
X157.48Y-49.53
X157.48Y-52.07
X157.48Y-54.61
X157.48Y-57.15
X157.48Y-59.69
X157.48Y-65.024
X157.48Y-68.58
X157.48Y-72.39
X157.48Y-74.93
X157.48Y-77.47
X157.48Y-79.502
X159.766Y-68.58
X160.02Y-44.45
X160.02Y-49.53
X160.02Y-52.07
X160.02Y-54.61
X160.02Y-57.15
X160.02Y-59.69
X160.02Y-62.23
X160.02Y-64.77
X160.02Y-72.39
X160.02Y-74.93
X160.02Y-77.47
X160.02Y-79.502
X162.306Y-68.58
X162.56Y-44.45
X162.56Y-49.53
X162.56Y-52.07
X162.56Y-54.61
X162.56Y-57.15
X162.56Y-59.69
X162.56Y-65.024
X162.56Y-72.39
X162.56Y-74.93
X162.56Y-77.47
X162.56Y-79.502
X164.846Y-68.58
X165.1Y-44.45
X165.1Y-46.99
X165.1Y-49.53
X165.1Y-52.07
X165.1Y-54.61
X165.1Y-57.15
X165.1Y-59.69
X165.1Y-62.23
X165.1Y-64.77
X165.1Y-72.39
X165.1Y-74.93
X165.1Y-77.47
X165.1Y-79.502
X167.335Y-65.075
X167.386Y-68.58
X167.488Y-44.145
X167.64Y-49.53
X167.64Y-52.07
X167.64Y-54.61
X167.64Y-57.15
X167.64Y-59.69
X167.64Y-72.39
X167.64Y-74.93
X167.64Y-77.47
X167.64Y-79.502
X170.18Y-44.45
X170.18Y-46.99
X170.18Y-49.53
X170.18Y-52.07
X170.18Y-54.61
X170.18Y-57.15
X170.18Y-59.69
X170.18Y-62.23
X170.18Y-64.77
X170.18Y-67.31
X170.18Y-69.85
X170.18Y-72.39
X170.18Y-74.93
X170.18Y-77.47
X170.18Y-79.502
T2
X112.835Y-66.51
X112.835Y-67.78
X112.835Y-69.05
X114.105Y-66.51
X114.105Y-67.78
X114.105Y-69.05
T3
X150.67Y-54.98
T4
X127.52Y-46.83
X130.06Y-46.83
X130.57Y-67.28
X130.57Y-69.82
X132.6Y-46.83
X133.11Y-67.28
X133.11Y-69.82
X135.14Y-46.83
X135.65Y-67.28
X135.65Y-69.82
X137.68Y-46.83
X138.19Y-67.28
X138.19Y-69.82
X140.22Y-46.83
X140.73Y-67.28
X140.73Y-69.82
X142.76Y-46.83
X143.27Y-67.28
X143.27Y-69.82
X145.81Y-67.28
X145.81Y-69.82
X148.32Y-46.83
X148.35Y-67.28
X148.35Y-69.82
X150.86Y-46.83
X150.89Y-67.28
X150.89Y-69.82
X153.4Y-46.83
X153.43Y-67.28
X153.43Y-69.82
X155.94Y-46.83
X155.97Y-67.28
X155.97Y-69.82
X158.48Y-46.83
X158.51Y-67.28
X158.51Y-69.82
X161.02Y-46.83
X161.05Y-67.28
X161.05Y-69.82
X163.56Y-46.83
X163.59Y-67.28
X163.59Y-69.82
X166.13Y-67.28
X166.13Y-69.82
X168.67Y-67.28
X168.67Y-69.82
T5
X117.02Y-47.73
X119.52Y-50.43
X122.02Y-47.73
T0
M30
