G04 #@! TF.FileFunction,Legend,Bot*
%FSLAX46Y46*%
G04 Gerber Fmt 4.6, Leading zero omitted, Abs format (unit mm)*
G04 Created by KiCad (PCBNEW 4.0.7) date 2017 November 14, Tuesday 05:37:29*
%MOMM*%
%LPD*%
G01*
G04 APERTURE LIST*
%ADD10C,0.076200*%
%ADD11C,0.100000*%
%ADD12C,0.120000*%
%ADD13C,0.150000*%
G04 APERTURE END LIST*
D10*
D11*
G36*
X135125622Y-103269418D02*
X135127762Y-103863076D01*
X135128000Y-104047945D01*
X135129968Y-104688217D01*
X135136635Y-105178453D01*
X135149144Y-105537914D01*
X135168639Y-105785861D01*
X135196265Y-105941554D01*
X135233165Y-106024252D01*
X135246169Y-106037670D01*
X135413404Y-106109142D01*
X135551333Y-106139474D01*
X135551333Y-105685748D01*
X135551333Y-104092371D01*
X135555389Y-103571909D01*
X135566750Y-103122332D01*
X135584205Y-102768665D01*
X135606547Y-102535937D01*
X135630725Y-102449926D01*
X135742173Y-102419092D01*
X135984448Y-102372619D01*
X136320507Y-102317095D01*
X136667892Y-102265485D01*
X137296360Y-102203536D01*
X138023949Y-102175245D01*
X138793863Y-102179497D01*
X139549308Y-102215179D01*
X140233486Y-102281176D01*
X140631333Y-102343237D01*
X141181667Y-102447859D01*
X141204634Y-104069143D01*
X141227601Y-105690426D01*
X140654301Y-105781198D01*
X140318387Y-105833928D01*
X140013576Y-105881002D01*
X139827000Y-105909091D01*
X139586831Y-105926739D01*
X139215475Y-105933161D01*
X138750617Y-105929617D01*
X138229943Y-105917364D01*
X137691138Y-105897660D01*
X137171888Y-105871761D01*
X136709878Y-105840926D01*
X136342794Y-105806412D01*
X136207500Y-105788306D01*
X135551333Y-105685748D01*
X135551333Y-106139474D01*
X135722725Y-106177166D01*
X136146887Y-106239037D01*
X136658644Y-106292051D01*
X137230751Y-106333504D01*
X137835961Y-106360692D01*
X138447031Y-106370910D01*
X138599333Y-106370483D01*
X139084331Y-106365260D01*
X139523111Y-106357201D01*
X139881846Y-106347183D01*
X140126708Y-106336080D01*
X140208000Y-106328816D01*
X140714572Y-106245236D01*
X141122361Y-106162708D01*
X141407538Y-106086632D01*
X141541500Y-106026674D01*
X141578535Y-105948849D01*
X141606694Y-105773790D01*
X141626802Y-105486075D01*
X141639683Y-105070284D01*
X141646163Y-104510996D01*
X141647333Y-104047945D01*
X141646382Y-103431599D01*
X141642423Y-102963164D01*
X141633800Y-102621224D01*
X141618856Y-102384362D01*
X141595934Y-102231160D01*
X141563378Y-102140203D01*
X141519532Y-102090073D01*
X141494688Y-102074597D01*
X141228800Y-101981179D01*
X140823239Y-101901175D01*
X140307227Y-101835830D01*
X139709985Y-101786389D01*
X139060736Y-101754099D01*
X138388702Y-101740204D01*
X137723104Y-101745950D01*
X137093166Y-101772582D01*
X136528109Y-101821346D01*
X136289807Y-101852783D01*
X135924342Y-101904423D01*
X135644238Y-101949352D01*
X135438234Y-102008847D01*
X135295071Y-102104182D01*
X135203488Y-102256632D01*
X135152225Y-102487471D01*
X135130023Y-102817975D01*
X135125622Y-103269418D01*
X135125622Y-103269418D01*
X135125622Y-103269418D01*
G37*
X135125622Y-103269418D02*
X135127762Y-103863076D01*
X135128000Y-104047945D01*
X135129968Y-104688217D01*
X135136635Y-105178453D01*
X135149144Y-105537914D01*
X135168639Y-105785861D01*
X135196265Y-105941554D01*
X135233165Y-106024252D01*
X135246169Y-106037670D01*
X135413404Y-106109142D01*
X135551333Y-106139474D01*
X135551333Y-105685748D01*
X135551333Y-104092371D01*
X135555389Y-103571909D01*
X135566750Y-103122332D01*
X135584205Y-102768665D01*
X135606547Y-102535937D01*
X135630725Y-102449926D01*
X135742173Y-102419092D01*
X135984448Y-102372619D01*
X136320507Y-102317095D01*
X136667892Y-102265485D01*
X137296360Y-102203536D01*
X138023949Y-102175245D01*
X138793863Y-102179497D01*
X139549308Y-102215179D01*
X140233486Y-102281176D01*
X140631333Y-102343237D01*
X141181667Y-102447859D01*
X141204634Y-104069143D01*
X141227601Y-105690426D01*
X140654301Y-105781198D01*
X140318387Y-105833928D01*
X140013576Y-105881002D01*
X139827000Y-105909091D01*
X139586831Y-105926739D01*
X139215475Y-105933161D01*
X138750617Y-105929617D01*
X138229943Y-105917364D01*
X137691138Y-105897660D01*
X137171888Y-105871761D01*
X136709878Y-105840926D01*
X136342794Y-105806412D01*
X136207500Y-105788306D01*
X135551333Y-105685748D01*
X135551333Y-106139474D01*
X135722725Y-106177166D01*
X136146887Y-106239037D01*
X136658644Y-106292051D01*
X137230751Y-106333504D01*
X137835961Y-106360692D01*
X138447031Y-106370910D01*
X138599333Y-106370483D01*
X139084331Y-106365260D01*
X139523111Y-106357201D01*
X139881846Y-106347183D01*
X140126708Y-106336080D01*
X140208000Y-106328816D01*
X140714572Y-106245236D01*
X141122361Y-106162708D01*
X141407538Y-106086632D01*
X141541500Y-106026674D01*
X141578535Y-105948849D01*
X141606694Y-105773790D01*
X141626802Y-105486075D01*
X141639683Y-105070284D01*
X141646163Y-104510996D01*
X141647333Y-104047945D01*
X141646382Y-103431599D01*
X141642423Y-102963164D01*
X141633800Y-102621224D01*
X141618856Y-102384362D01*
X141595934Y-102231160D01*
X141563378Y-102140203D01*
X141519532Y-102090073D01*
X141494688Y-102074597D01*
X141228800Y-101981179D01*
X140823239Y-101901175D01*
X140307227Y-101835830D01*
X139709985Y-101786389D01*
X139060736Y-101754099D01*
X138388702Y-101740204D01*
X137723104Y-101745950D01*
X137093166Y-101772582D01*
X136528109Y-101821346D01*
X136289807Y-101852783D01*
X135924342Y-101904423D01*
X135644238Y-101949352D01*
X135438234Y-102008847D01*
X135295071Y-102104182D01*
X135203488Y-102256632D01*
X135152225Y-102487471D01*
X135130023Y-102817975D01*
X135125622Y-103269418D01*
X135125622Y-103269418D01*
G36*
X138087330Y-104414396D02*
X138134811Y-104797950D01*
X138299553Y-105147481D01*
X138573839Y-105416811D01*
X138715097Y-105490168D01*
X138903433Y-105540105D01*
X139174285Y-105571878D01*
X139563089Y-105590742D01*
X139784667Y-105596393D01*
X140181061Y-105600691D01*
X140519353Y-105596729D01*
X140761130Y-105585450D01*
X140864167Y-105569953D01*
X140953029Y-105452885D01*
X140961116Y-105274760D01*
X140893306Y-105120596D01*
X140836075Y-105080391D01*
X140697273Y-105058378D01*
X140433201Y-105041077D01*
X140087907Y-105030813D01*
X139862409Y-105029000D01*
X139380865Y-105013429D01*
X139044329Y-104959481D01*
X138830728Y-104856299D01*
X138717987Y-104693028D01*
X138684033Y-104458811D01*
X138684000Y-104449455D01*
X138750498Y-104185492D01*
X138955142Y-103998644D01*
X139305658Y-103883320D01*
X139507076Y-103853904D01*
X139782639Y-103818063D01*
X139929307Y-103772056D01*
X139987127Y-103694255D01*
X139996333Y-103589666D01*
X139985369Y-103475268D01*
X139927036Y-103408955D01*
X139783176Y-103374166D01*
X139515631Y-103354341D01*
X139446000Y-103350817D01*
X139029720Y-103354844D01*
X138730020Y-103419245D01*
X138635721Y-103461786D01*
X138339058Y-103706094D01*
X138155837Y-104037037D01*
X138087330Y-104414396D01*
X138087330Y-104414396D01*
X138087330Y-104414396D01*
G37*
X138087330Y-104414396D02*
X138134811Y-104797950D01*
X138299553Y-105147481D01*
X138573839Y-105416811D01*
X138715097Y-105490168D01*
X138903433Y-105540105D01*
X139174285Y-105571878D01*
X139563089Y-105590742D01*
X139784667Y-105596393D01*
X140181061Y-105600691D01*
X140519353Y-105596729D01*
X140761130Y-105585450D01*
X140864167Y-105569953D01*
X140953029Y-105452885D01*
X140961116Y-105274760D01*
X140893306Y-105120596D01*
X140836075Y-105080391D01*
X140697273Y-105058378D01*
X140433201Y-105041077D01*
X140087907Y-105030813D01*
X139862409Y-105029000D01*
X139380865Y-105013429D01*
X139044329Y-104959481D01*
X138830728Y-104856299D01*
X138717987Y-104693028D01*
X138684033Y-104458811D01*
X138684000Y-104449455D01*
X138750498Y-104185492D01*
X138955142Y-103998644D01*
X139305658Y-103883320D01*
X139507076Y-103853904D01*
X139782639Y-103818063D01*
X139929307Y-103772056D01*
X139987127Y-103694255D01*
X139996333Y-103589666D01*
X139985369Y-103475268D01*
X139927036Y-103408955D01*
X139783176Y-103374166D01*
X139515631Y-103354341D01*
X139446000Y-103350817D01*
X139029720Y-103354844D01*
X138730020Y-103419245D01*
X138635721Y-103461786D01*
X138339058Y-103706094D01*
X138155837Y-104037037D01*
X138087330Y-104414396D01*
X138087330Y-104414396D01*
G36*
X135890932Y-104505399D02*
X135910862Y-105028157D01*
X135971661Y-105391069D01*
X136072706Y-105592846D01*
X136213376Y-105632203D01*
X136381067Y-105520066D01*
X136434318Y-105374488D01*
X136468314Y-105067882D01*
X136482324Y-104607537D01*
X136482667Y-104508050D01*
X136491236Y-104110735D01*
X136514370Y-103758407D01*
X136548210Y-103496877D01*
X136576759Y-103391124D01*
X136720325Y-103221654D01*
X136954672Y-103074565D01*
X137000092Y-103055284D01*
X137221162Y-102944786D01*
X137315993Y-102818972D01*
X137329333Y-102713685D01*
X137265361Y-102537243D01*
X137097431Y-102453667D01*
X136861525Y-102460481D01*
X136593626Y-102555205D01*
X136329716Y-102735361D01*
X136275722Y-102786255D01*
X136124440Y-102962985D01*
X136017784Y-103162797D01*
X135948483Y-103418186D01*
X135909263Y-103761649D01*
X135892851Y-104225682D01*
X135890932Y-104505399D01*
X135890932Y-104505399D01*
X135890932Y-104505399D01*
G37*
X135890932Y-104505399D02*
X135910862Y-105028157D01*
X135971661Y-105391069D01*
X136072706Y-105592846D01*
X136213376Y-105632203D01*
X136381067Y-105520066D01*
X136434318Y-105374488D01*
X136468314Y-105067882D01*
X136482324Y-104607537D01*
X136482667Y-104508050D01*
X136491236Y-104110735D01*
X136514370Y-103758407D01*
X136548210Y-103496877D01*
X136576759Y-103391124D01*
X136720325Y-103221654D01*
X136954672Y-103074565D01*
X137000092Y-103055284D01*
X137221162Y-102944786D01*
X137315993Y-102818972D01*
X137329333Y-102713685D01*
X137265361Y-102537243D01*
X137097431Y-102453667D01*
X136861525Y-102460481D01*
X136593626Y-102555205D01*
X136329716Y-102735361D01*
X136275722Y-102786255D01*
X136124440Y-102962985D01*
X136017784Y-103162797D01*
X135948483Y-103418186D01*
X135909263Y-103761649D01*
X135892851Y-104225682D01*
X135890932Y-104505399D01*
X135890932Y-104505399D01*
G36*
X137234801Y-104139520D02*
X137258826Y-104436519D01*
X137310783Y-104646327D01*
X137371667Y-104720951D01*
X137563695Y-104751023D01*
X137684143Y-104654621D01*
X137742889Y-104417874D01*
X137752667Y-104185909D01*
X137787746Y-103690412D01*
X137895015Y-103340937D01*
X138077521Y-103128931D01*
X138141865Y-103093336D01*
X138319306Y-103050401D01*
X138614414Y-103017319D01*
X138975592Y-102999058D01*
X139142233Y-102997000D01*
X139533858Y-103002548D01*
X139798654Y-103024080D01*
X139978902Y-103068927D01*
X140116886Y-103144422D01*
X140154249Y-103172478D01*
X140333246Y-103401739D01*
X140370798Y-103664950D01*
X140263614Y-103911950D01*
X140206688Y-103971854D01*
X139983794Y-104086454D01*
X139634358Y-104157508D01*
X139550521Y-104165644D01*
X139186152Y-104222077D01*
X138985352Y-104319606D01*
X138947192Y-104459155D01*
X139070743Y-104641647D01*
X139071048Y-104641952D01*
X139268147Y-104739949D01*
X139590777Y-104757715D01*
X140050879Y-104695860D01*
X140067249Y-104692719D01*
X140446998Y-104546080D01*
X140725444Y-104294501D01*
X140898504Y-103971686D01*
X140962099Y-103611335D01*
X140912146Y-103247151D01*
X140744565Y-102912837D01*
X140455274Y-102642094D01*
X140324472Y-102568569D01*
X140141140Y-102489187D01*
X139957711Y-102438824D01*
X139732663Y-102412875D01*
X139424472Y-102406734D01*
X138991616Y-102415796D01*
X138956509Y-102416852D01*
X138463514Y-102439266D01*
X138105565Y-102479823D01*
X137848477Y-102550716D01*
X137658068Y-102664137D01*
X137500155Y-102832277D01*
X137402375Y-102971171D01*
X137322495Y-103171154D01*
X137267418Y-103462259D01*
X137237926Y-103799907D01*
X137234801Y-104139520D01*
X137234801Y-104139520D01*
X137234801Y-104139520D01*
G37*
X137234801Y-104139520D02*
X137258826Y-104436519D01*
X137310783Y-104646327D01*
X137371667Y-104720951D01*
X137563695Y-104751023D01*
X137684143Y-104654621D01*
X137742889Y-104417874D01*
X137752667Y-104185909D01*
X137787746Y-103690412D01*
X137895015Y-103340937D01*
X138077521Y-103128931D01*
X138141865Y-103093336D01*
X138319306Y-103050401D01*
X138614414Y-103017319D01*
X138975592Y-102999058D01*
X139142233Y-102997000D01*
X139533858Y-103002548D01*
X139798654Y-103024080D01*
X139978902Y-103068927D01*
X140116886Y-103144422D01*
X140154249Y-103172478D01*
X140333246Y-103401739D01*
X140370798Y-103664950D01*
X140263614Y-103911950D01*
X140206688Y-103971854D01*
X139983794Y-104086454D01*
X139634358Y-104157508D01*
X139550521Y-104165644D01*
X139186152Y-104222077D01*
X138985352Y-104319606D01*
X138947192Y-104459155D01*
X139070743Y-104641647D01*
X139071048Y-104641952D01*
X139268147Y-104739949D01*
X139590777Y-104757715D01*
X140050879Y-104695860D01*
X140067249Y-104692719D01*
X140446998Y-104546080D01*
X140725444Y-104294501D01*
X140898504Y-103971686D01*
X140962099Y-103611335D01*
X140912146Y-103247151D01*
X140744565Y-102912837D01*
X140455274Y-102642094D01*
X140324472Y-102568569D01*
X140141140Y-102489187D01*
X139957711Y-102438824D01*
X139732663Y-102412875D01*
X139424472Y-102406734D01*
X138991616Y-102415796D01*
X138956509Y-102416852D01*
X138463514Y-102439266D01*
X138105565Y-102479823D01*
X137848477Y-102550716D01*
X137658068Y-102664137D01*
X137500155Y-102832277D01*
X137402375Y-102971171D01*
X137322495Y-103171154D01*
X137267418Y-103462259D01*
X137237926Y-103799907D01*
X137234801Y-104139520D01*
X137234801Y-104139520D01*
G36*
X160128102Y-105426053D02*
X160129542Y-105616921D01*
X160129666Y-105625623D01*
X160136417Y-106091070D01*
X160195805Y-106142118D01*
X160275749Y-106186807D01*
X160359288Y-106190865D01*
X160439209Y-106154589D01*
X160466515Y-106130908D01*
X160508312Y-106092367D01*
X160528000Y-106084766D01*
X160528000Y-105305792D01*
X160534662Y-105160606D01*
X160555994Y-105049007D01*
X160594015Y-104964181D01*
X160647671Y-104901982D01*
X160734076Y-104851882D01*
X160831272Y-104836518D01*
X160929077Y-104853853D01*
X161017306Y-104901852D01*
X161085776Y-104978479D01*
X161093014Y-104991022D01*
X161115878Y-105059736D01*
X161129680Y-105156279D01*
X161134541Y-105267657D01*
X161130577Y-105380874D01*
X161117908Y-105482938D01*
X161096651Y-105560855D01*
X161087651Y-105579261D01*
X161016658Y-105667490D01*
X160929798Y-105724675D01*
X160835057Y-105748873D01*
X160740419Y-105738136D01*
X160653871Y-105690519D01*
X160648808Y-105686183D01*
X160590022Y-105617541D01*
X160551935Y-105529453D01*
X160532190Y-105414495D01*
X160528000Y-105305792D01*
X160528000Y-106084766D01*
X160539755Y-106080229D01*
X160579544Y-106090107D01*
X160601790Y-106099158D01*
X160662355Y-106115161D01*
X160747227Y-106126109D01*
X160828945Y-106129649D01*
X160927674Y-106125682D01*
X161006660Y-106110629D01*
X161088018Y-106079727D01*
X161111876Y-106068703D01*
X161259228Y-105979487D01*
X161374911Y-105865457D01*
X161459766Y-105725038D01*
X161514634Y-105556654D01*
X161540356Y-105358730D01*
X161542657Y-105261833D01*
X161531489Y-105090444D01*
X161496955Y-104943671D01*
X161435155Y-104808537D01*
X161381041Y-104724353D01*
X161272491Y-104604247D01*
X161144814Y-104517668D01*
X161004053Y-104464105D01*
X160856252Y-104443047D01*
X160707456Y-104453985D01*
X160563709Y-104496407D01*
X160431055Y-104569805D01*
X160315538Y-104673667D01*
X160223202Y-104807482D01*
X160215336Y-104822773D01*
X160186145Y-104889150D01*
X160163679Y-104961103D01*
X160147289Y-105044701D01*
X160136328Y-105146012D01*
X160130148Y-105271106D01*
X160128102Y-105426053D01*
X160128102Y-105426053D01*
X160128102Y-105426053D01*
G37*
X160128102Y-105426053D02*
X160129542Y-105616921D01*
X160129666Y-105625623D01*
X160136417Y-106091070D01*
X160195805Y-106142118D01*
X160275749Y-106186807D01*
X160359288Y-106190865D01*
X160439209Y-106154589D01*
X160466515Y-106130908D01*
X160508312Y-106092367D01*
X160528000Y-106084766D01*
X160528000Y-105305792D01*
X160534662Y-105160606D01*
X160555994Y-105049007D01*
X160594015Y-104964181D01*
X160647671Y-104901982D01*
X160734076Y-104851882D01*
X160831272Y-104836518D01*
X160929077Y-104853853D01*
X161017306Y-104901852D01*
X161085776Y-104978479D01*
X161093014Y-104991022D01*
X161115878Y-105059736D01*
X161129680Y-105156279D01*
X161134541Y-105267657D01*
X161130577Y-105380874D01*
X161117908Y-105482938D01*
X161096651Y-105560855D01*
X161087651Y-105579261D01*
X161016658Y-105667490D01*
X160929798Y-105724675D01*
X160835057Y-105748873D01*
X160740419Y-105738136D01*
X160653871Y-105690519D01*
X160648808Y-105686183D01*
X160590022Y-105617541D01*
X160551935Y-105529453D01*
X160532190Y-105414495D01*
X160528000Y-105305792D01*
X160528000Y-106084766D01*
X160539755Y-106080229D01*
X160579544Y-106090107D01*
X160601790Y-106099158D01*
X160662355Y-106115161D01*
X160747227Y-106126109D01*
X160828945Y-106129649D01*
X160927674Y-106125682D01*
X161006660Y-106110629D01*
X161088018Y-106079727D01*
X161111876Y-106068703D01*
X161259228Y-105979487D01*
X161374911Y-105865457D01*
X161459766Y-105725038D01*
X161514634Y-105556654D01*
X161540356Y-105358730D01*
X161542657Y-105261833D01*
X161531489Y-105090444D01*
X161496955Y-104943671D01*
X161435155Y-104808537D01*
X161381041Y-104724353D01*
X161272491Y-104604247D01*
X161144814Y-104517668D01*
X161004053Y-104464105D01*
X160856252Y-104443047D01*
X160707456Y-104453985D01*
X160563709Y-104496407D01*
X160431055Y-104569805D01*
X160315538Y-104673667D01*
X160223202Y-104807482D01*
X160215336Y-104822773D01*
X160186145Y-104889150D01*
X160163679Y-104961103D01*
X160147289Y-105044701D01*
X160136328Y-105146012D01*
X160130148Y-105271106D01*
X160128102Y-105426053D01*
X160128102Y-105426053D01*
G36*
X164232167Y-105939302D02*
X164249683Y-106004936D01*
X164293903Y-106070875D01*
X164352333Y-106121436D01*
X164390676Y-106138298D01*
X164434046Y-106144501D01*
X164476326Y-106138163D01*
X164521385Y-106115898D01*
X164573092Y-106074318D01*
X164635314Y-106010039D01*
X164711919Y-105919672D01*
X164806775Y-105799832D01*
X164867733Y-105720646D01*
X164951494Y-105612383D01*
X165027545Y-105516418D01*
X165091903Y-105437586D01*
X165140586Y-105380723D01*
X165169613Y-105350667D01*
X165175223Y-105347175D01*
X165202255Y-105360907D01*
X165244268Y-105396310D01*
X165263317Y-105415291D01*
X165290405Y-105444797D01*
X165309010Y-105472237D01*
X165320989Y-105506218D01*
X165328197Y-105555349D01*
X165332491Y-105628235D01*
X165335728Y-105733483D01*
X165336261Y-105753488D01*
X165339689Y-105865405D01*
X165344029Y-105943319D01*
X165350855Y-105995555D01*
X165361743Y-106030438D01*
X165378269Y-106056293D01*
X165397471Y-106076936D01*
X165457364Y-106118484D01*
X165526128Y-106143084D01*
X165526857Y-106143204D01*
X165581524Y-106146095D01*
X165626577Y-106128866D01*
X165673886Y-106091367D01*
X165745583Y-106027305D01*
X165745583Y-104880563D01*
X165745583Y-103733820D01*
X165682083Y-103683015D01*
X165605342Y-103643831D01*
X165521382Y-103635543D01*
X165442349Y-103656228D01*
X165380388Y-103703963D01*
X165361286Y-103733811D01*
X165356311Y-103763772D01*
X165351092Y-103830194D01*
X165345899Y-103927209D01*
X165341001Y-104048948D01*
X165336667Y-104189543D01*
X165333166Y-104343124D01*
X165333050Y-104349296D01*
X165322250Y-104929010D01*
X164968302Y-104609140D01*
X164863204Y-104515683D01*
X164765634Y-104431769D01*
X164680876Y-104361718D01*
X164614212Y-104309848D01*
X164570925Y-104280476D01*
X164560433Y-104275737D01*
X164488473Y-104276128D01*
X164412909Y-104304020D01*
X164353536Y-104351636D01*
X164347740Y-104359293D01*
X164325972Y-104411557D01*
X164316834Y-104475588D01*
X164316833Y-104476014D01*
X164320187Y-104507684D01*
X164332670Y-104540884D01*
X164357913Y-104579725D01*
X164399551Y-104628318D01*
X164461214Y-104690775D01*
X164546536Y-104771207D01*
X164659149Y-104873727D01*
X164703213Y-104913370D01*
X164867343Y-105060750D01*
X164549755Y-105469968D01*
X164442428Y-105609602D01*
X164359950Y-105720193D01*
X164300004Y-105805163D01*
X164260273Y-105867938D01*
X164238440Y-105911941D01*
X164232167Y-105939302D01*
X164232167Y-105939302D01*
X164232167Y-105939302D01*
G37*
X164232167Y-105939302D02*
X164249683Y-106004936D01*
X164293903Y-106070875D01*
X164352333Y-106121436D01*
X164390676Y-106138298D01*
X164434046Y-106144501D01*
X164476326Y-106138163D01*
X164521385Y-106115898D01*
X164573092Y-106074318D01*
X164635314Y-106010039D01*
X164711919Y-105919672D01*
X164806775Y-105799832D01*
X164867733Y-105720646D01*
X164951494Y-105612383D01*
X165027545Y-105516418D01*
X165091903Y-105437586D01*
X165140586Y-105380723D01*
X165169613Y-105350667D01*
X165175223Y-105347175D01*
X165202255Y-105360907D01*
X165244268Y-105396310D01*
X165263317Y-105415291D01*
X165290405Y-105444797D01*
X165309010Y-105472237D01*
X165320989Y-105506218D01*
X165328197Y-105555349D01*
X165332491Y-105628235D01*
X165335728Y-105733483D01*
X165336261Y-105753488D01*
X165339689Y-105865405D01*
X165344029Y-105943319D01*
X165350855Y-105995555D01*
X165361743Y-106030438D01*
X165378269Y-106056293D01*
X165397471Y-106076936D01*
X165457364Y-106118484D01*
X165526128Y-106143084D01*
X165526857Y-106143204D01*
X165581524Y-106146095D01*
X165626577Y-106128866D01*
X165673886Y-106091367D01*
X165745583Y-106027305D01*
X165745583Y-104880563D01*
X165745583Y-103733820D01*
X165682083Y-103683015D01*
X165605342Y-103643831D01*
X165521382Y-103635543D01*
X165442349Y-103656228D01*
X165380388Y-103703963D01*
X165361286Y-103733811D01*
X165356311Y-103763772D01*
X165351092Y-103830194D01*
X165345899Y-103927209D01*
X165341001Y-104048948D01*
X165336667Y-104189543D01*
X165333166Y-104343124D01*
X165333050Y-104349296D01*
X165322250Y-104929010D01*
X164968302Y-104609140D01*
X164863204Y-104515683D01*
X164765634Y-104431769D01*
X164680876Y-104361718D01*
X164614212Y-104309848D01*
X164570925Y-104280476D01*
X164560433Y-104275737D01*
X164488473Y-104276128D01*
X164412909Y-104304020D01*
X164353536Y-104351636D01*
X164347740Y-104359293D01*
X164325972Y-104411557D01*
X164316834Y-104475588D01*
X164316833Y-104476014D01*
X164320187Y-104507684D01*
X164332670Y-104540884D01*
X164357913Y-104579725D01*
X164399551Y-104628318D01*
X164461214Y-104690775D01*
X164546536Y-104771207D01*
X164659149Y-104873727D01*
X164703213Y-104913370D01*
X164867343Y-105060750D01*
X164549755Y-105469968D01*
X164442428Y-105609602D01*
X164359950Y-105720193D01*
X164300004Y-105805163D01*
X164260273Y-105867938D01*
X164238440Y-105911941D01*
X164232167Y-105939302D01*
X164232167Y-105939302D01*
G36*
X163557091Y-104981501D02*
X163558091Y-105171914D01*
X163559100Y-105294904D01*
X163565417Y-106022926D01*
X163618333Y-106075783D01*
X163688265Y-106122763D01*
X163768414Y-106142583D01*
X163840583Y-106131624D01*
X163886419Y-106102277D01*
X163925250Y-106066468D01*
X163936491Y-106052231D01*
X163945603Y-106034133D01*
X163952856Y-106007789D01*
X163958516Y-105968816D01*
X163962852Y-105912828D01*
X163966131Y-105835441D01*
X163968621Y-105732271D01*
X163970591Y-105598933D01*
X163972308Y-105431042D01*
X163973634Y-105274476D01*
X163979684Y-104529511D01*
X163931300Y-104458095D01*
X163865420Y-104388663D01*
X163790202Y-104360233D01*
X163706723Y-104373147D01*
X163688585Y-104380981D01*
X163654405Y-104398741D01*
X163626494Y-104419023D01*
X163604262Y-104445992D01*
X163587120Y-104483813D01*
X163574477Y-104536653D01*
X163565743Y-104608676D01*
X163560327Y-104704048D01*
X163557640Y-104826934D01*
X163557091Y-104981501D01*
X163557091Y-104981501D01*
X163557091Y-104981501D01*
G37*
X163557091Y-104981501D02*
X163558091Y-105171914D01*
X163559100Y-105294904D01*
X163565417Y-106022926D01*
X163618333Y-106075783D01*
X163688265Y-106122763D01*
X163768414Y-106142583D01*
X163840583Y-106131624D01*
X163886419Y-106102277D01*
X163925250Y-106066468D01*
X163936491Y-106052231D01*
X163945603Y-106034133D01*
X163952856Y-106007789D01*
X163958516Y-105968816D01*
X163962852Y-105912828D01*
X163966131Y-105835441D01*
X163968621Y-105732271D01*
X163970591Y-105598933D01*
X163972308Y-105431042D01*
X163973634Y-105274476D01*
X163979684Y-104529511D01*
X163931300Y-104458095D01*
X163865420Y-104388663D01*
X163790202Y-104360233D01*
X163706723Y-104373147D01*
X163688585Y-104380981D01*
X163654405Y-104398741D01*
X163626494Y-104419023D01*
X163604262Y-104445992D01*
X163587120Y-104483813D01*
X163574477Y-104536653D01*
X163565743Y-104608676D01*
X163560327Y-104704048D01*
X163557640Y-104826934D01*
X163557091Y-104981501D01*
X163557091Y-104981501D01*
G36*
X161882667Y-105875577D02*
X161902625Y-105936699D01*
X161957687Y-105994341D01*
X162040635Y-106045951D01*
X162144247Y-106088978D01*
X162261306Y-106120871D01*
X162384592Y-106139079D01*
X162506886Y-106141052D01*
X162599990Y-106129053D01*
X162762292Y-106074410D01*
X162906192Y-105984608D01*
X163025907Y-105864873D01*
X163115656Y-105720425D01*
X163150292Y-105631894D01*
X163197850Y-105418995D01*
X163207994Y-105204987D01*
X163181095Y-104997234D01*
X163117518Y-104803100D01*
X163107765Y-104781752D01*
X163018372Y-104639766D01*
X162899468Y-104523462D01*
X162757466Y-104436127D01*
X162598778Y-104381046D01*
X162429816Y-104361507D01*
X162306500Y-104371114D01*
X162162527Y-104404485D01*
X162046403Y-104452047D01*
X161960595Y-104510865D01*
X161907570Y-104578002D01*
X161889797Y-104650522D01*
X161909742Y-104725489D01*
X161956649Y-104787406D01*
X162010670Y-104825000D01*
X162076484Y-104836277D01*
X162162225Y-104821490D01*
X162237436Y-104796155D01*
X162345681Y-104763137D01*
X162437437Y-104756083D01*
X162528876Y-104774021D01*
X162540967Y-104777932D01*
X162638563Y-104825604D01*
X162710488Y-104896768D01*
X162758742Y-104995277D01*
X162785323Y-105124985D01*
X162792369Y-105262640D01*
X162784299Y-105413483D01*
X162757808Y-105531124D01*
X162710643Y-105621484D01*
X162640551Y-105690485D01*
X162625662Y-105700870D01*
X162538874Y-105736984D01*
X162432091Y-105750059D01*
X162320969Y-105739884D01*
X162221333Y-105706333D01*
X162160057Y-105679838D01*
X162107799Y-105665088D01*
X162096173Y-105664000D01*
X162013195Y-105683228D01*
X161943154Y-105734082D01*
X161896392Y-105806313D01*
X161882667Y-105875577D01*
X161882667Y-105875577D01*
X161882667Y-105875577D01*
G37*
X161882667Y-105875577D02*
X161902625Y-105936699D01*
X161957687Y-105994341D01*
X162040635Y-106045951D01*
X162144247Y-106088978D01*
X162261306Y-106120871D01*
X162384592Y-106139079D01*
X162506886Y-106141052D01*
X162599990Y-106129053D01*
X162762292Y-106074410D01*
X162906192Y-105984608D01*
X163025907Y-105864873D01*
X163115656Y-105720425D01*
X163150292Y-105631894D01*
X163197850Y-105418995D01*
X163207994Y-105204987D01*
X163181095Y-104997234D01*
X163117518Y-104803100D01*
X163107765Y-104781752D01*
X163018372Y-104639766D01*
X162899468Y-104523462D01*
X162757466Y-104436127D01*
X162598778Y-104381046D01*
X162429816Y-104361507D01*
X162306500Y-104371114D01*
X162162527Y-104404485D01*
X162046403Y-104452047D01*
X161960595Y-104510865D01*
X161907570Y-104578002D01*
X161889797Y-104650522D01*
X161909742Y-104725489D01*
X161956649Y-104787406D01*
X162010670Y-104825000D01*
X162076484Y-104836277D01*
X162162225Y-104821490D01*
X162237436Y-104796155D01*
X162345681Y-104763137D01*
X162437437Y-104756083D01*
X162528876Y-104774021D01*
X162540967Y-104777932D01*
X162638563Y-104825604D01*
X162710488Y-104896768D01*
X162758742Y-104995277D01*
X162785323Y-105124985D01*
X162792369Y-105262640D01*
X162784299Y-105413483D01*
X162757808Y-105531124D01*
X162710643Y-105621484D01*
X162640551Y-105690485D01*
X162625662Y-105700870D01*
X162538874Y-105736984D01*
X162432091Y-105750059D01*
X162320969Y-105739884D01*
X162221333Y-105706333D01*
X162160057Y-105679838D01*
X162107799Y-105665088D01*
X162096173Y-105664000D01*
X162013195Y-105683228D01*
X161943154Y-105734082D01*
X161896392Y-105806313D01*
X161882667Y-105875577D01*
X161882667Y-105875577D01*
G36*
X158281798Y-103800612D02*
X158288652Y-104684681D01*
X158290385Y-104901448D01*
X158292068Y-105080221D01*
X158293947Y-105225336D01*
X158296263Y-105341131D01*
X158299262Y-105431943D01*
X158303187Y-105502110D01*
X158308283Y-105555970D01*
X158314792Y-105597859D01*
X158322960Y-105632115D01*
X158333029Y-105663076D01*
X158345245Y-105695078D01*
X158345509Y-105695750D01*
X158406194Y-105825755D01*
X158476382Y-105924882D01*
X158564578Y-106004575D01*
X158586593Y-106020193D01*
X158686500Y-106071286D01*
X158686500Y-105225381D01*
X158686500Y-104940099D01*
X158756570Y-104870029D01*
X158826197Y-104817069D01*
X158906211Y-104778934D01*
X158918691Y-104775173D01*
X159038603Y-104760800D01*
X159143317Y-104784237D01*
X159230454Y-104842944D01*
X159297636Y-104934385D01*
X159342485Y-105056023D01*
X159362622Y-105205321D01*
X159363515Y-105249728D01*
X159349540Y-105407548D01*
X159309965Y-105540353D01*
X159247229Y-105645069D01*
X159163774Y-105718619D01*
X159062039Y-105757929D01*
X158957366Y-105761546D01*
X158884310Y-105742423D01*
X158815961Y-105708065D01*
X158814038Y-105706716D01*
X158766812Y-105666045D01*
X158732435Y-105616676D01*
X158709064Y-105551657D01*
X158694858Y-105464034D01*
X158687974Y-105346855D01*
X158686500Y-105225381D01*
X158686500Y-106071286D01*
X158734492Y-106095830D01*
X158901614Y-106134520D01*
X159085692Y-106135788D01*
X159120417Y-106132009D01*
X159231723Y-106104307D01*
X159352280Y-106052230D01*
X159464693Y-105984297D01*
X159529410Y-105931694D01*
X159572856Y-105880000D01*
X159623249Y-105804406D01*
X159670752Y-105719878D01*
X159677520Y-105706333D01*
X159755304Y-105547583D01*
X159754814Y-105261833D01*
X159753666Y-105138913D01*
X159749911Y-105048189D01*
X159742353Y-104979548D01*
X159729798Y-104922875D01*
X159711049Y-104868057D01*
X159707077Y-104857987D01*
X159624265Y-104704097D01*
X159512989Y-104577455D01*
X159378935Y-104480562D01*
X159227788Y-104415923D01*
X159065233Y-104386040D01*
X158896953Y-104393417D01*
X158744708Y-104434211D01*
X158686500Y-104456452D01*
X158686500Y-104130516D01*
X158686254Y-104006257D01*
X158684815Y-103916817D01*
X158681130Y-103854685D01*
X158674146Y-103812347D01*
X158662811Y-103782291D01*
X158646071Y-103757004D01*
X158631702Y-103739457D01*
X158562850Y-103685977D01*
X158483912Y-103670720D01*
X158403117Y-103693743D01*
X158344938Y-103737472D01*
X158281798Y-103800612D01*
X158281798Y-103800612D01*
X158281798Y-103800612D01*
G37*
X158281798Y-103800612D02*
X158288652Y-104684681D01*
X158290385Y-104901448D01*
X158292068Y-105080221D01*
X158293947Y-105225336D01*
X158296263Y-105341131D01*
X158299262Y-105431943D01*
X158303187Y-105502110D01*
X158308283Y-105555970D01*
X158314792Y-105597859D01*
X158322960Y-105632115D01*
X158333029Y-105663076D01*
X158345245Y-105695078D01*
X158345509Y-105695750D01*
X158406194Y-105825755D01*
X158476382Y-105924882D01*
X158564578Y-106004575D01*
X158586593Y-106020193D01*
X158686500Y-106071286D01*
X158686500Y-105225381D01*
X158686500Y-104940099D01*
X158756570Y-104870029D01*
X158826197Y-104817069D01*
X158906211Y-104778934D01*
X158918691Y-104775173D01*
X159038603Y-104760800D01*
X159143317Y-104784237D01*
X159230454Y-104842944D01*
X159297636Y-104934385D01*
X159342485Y-105056023D01*
X159362622Y-105205321D01*
X159363515Y-105249728D01*
X159349540Y-105407548D01*
X159309965Y-105540353D01*
X159247229Y-105645069D01*
X159163774Y-105718619D01*
X159062039Y-105757929D01*
X158957366Y-105761546D01*
X158884310Y-105742423D01*
X158815961Y-105708065D01*
X158814038Y-105706716D01*
X158766812Y-105666045D01*
X158732435Y-105616676D01*
X158709064Y-105551657D01*
X158694858Y-105464034D01*
X158687974Y-105346855D01*
X158686500Y-105225381D01*
X158686500Y-106071286D01*
X158734492Y-106095830D01*
X158901614Y-106134520D01*
X159085692Y-106135788D01*
X159120417Y-106132009D01*
X159231723Y-106104307D01*
X159352280Y-106052230D01*
X159464693Y-105984297D01*
X159529410Y-105931694D01*
X159572856Y-105880000D01*
X159623249Y-105804406D01*
X159670752Y-105719878D01*
X159677520Y-105706333D01*
X159755304Y-105547583D01*
X159754814Y-105261833D01*
X159753666Y-105138913D01*
X159749911Y-105048189D01*
X159742353Y-104979548D01*
X159729798Y-104922875D01*
X159711049Y-104868057D01*
X159707077Y-104857987D01*
X159624265Y-104704097D01*
X159512989Y-104577455D01*
X159378935Y-104480562D01*
X159227788Y-104415923D01*
X159065233Y-104386040D01*
X158896953Y-104393417D01*
X158744708Y-104434211D01*
X158686500Y-104456452D01*
X158686500Y-104130516D01*
X158686254Y-104006257D01*
X158684815Y-103916817D01*
X158681130Y-103854685D01*
X158674146Y-103812347D01*
X158662811Y-103782291D01*
X158646071Y-103757004D01*
X158631702Y-103739457D01*
X158562850Y-103685977D01*
X158483912Y-103670720D01*
X158403117Y-103693743D01*
X158344938Y-103737472D01*
X158281798Y-103800612D01*
X158281798Y-103800612D01*
G36*
X166200658Y-104603873D02*
X166200663Y-104843676D01*
X166200667Y-104903065D01*
X166200667Y-105985733D01*
X166272633Y-106057699D01*
X166344600Y-106129666D01*
X166433500Y-106129666D01*
X166433500Y-105896833D01*
X166433500Y-104874373D01*
X166433500Y-103851913D01*
X166872708Y-103417230D01*
X166995776Y-103295643D01*
X167118988Y-103174300D01*
X167236296Y-103059129D01*
X167341653Y-102956059D01*
X167429008Y-102871017D01*
X167491833Y-102810394D01*
X167671750Y-102638240D01*
X168417875Y-102637703D01*
X169164000Y-102637166D01*
X169164000Y-104267000D01*
X169164000Y-105896833D01*
X167798750Y-105896833D01*
X166433500Y-105896833D01*
X166433500Y-106129666D01*
X167796300Y-106129666D01*
X169247999Y-106129666D01*
X169317125Y-106067902D01*
X169386250Y-106006139D01*
X169386250Y-104303690D01*
X169386149Y-103987281D01*
X169385816Y-103710595D01*
X169385207Y-103471023D01*
X169384279Y-103265955D01*
X169382987Y-103092781D01*
X169381288Y-102948891D01*
X169379139Y-102831676D01*
X169376494Y-102738527D01*
X169373311Y-102666833D01*
X169369545Y-102613985D01*
X169365153Y-102577373D01*
X169360091Y-102554388D01*
X169356728Y-102546078D01*
X169338989Y-102515892D01*
X169318450Y-102491212D01*
X169290955Y-102471502D01*
X169252346Y-102456227D01*
X169198466Y-102444849D01*
X169125158Y-102436834D01*
X169028266Y-102431644D01*
X168903632Y-102428745D01*
X168747100Y-102427599D01*
X168554512Y-102427671D01*
X168441135Y-102428004D01*
X168264928Y-102428959D01*
X168100288Y-102430547D01*
X167952475Y-102432665D01*
X167826748Y-102435210D01*
X167728366Y-102438077D01*
X167662588Y-102441163D01*
X167636247Y-102443879D01*
X167619773Y-102448484D01*
X167602216Y-102456048D01*
X167580708Y-102469146D01*
X167552379Y-102490353D01*
X167514360Y-102522244D01*
X167463783Y-102567395D01*
X167397780Y-102628381D01*
X167313480Y-102707776D01*
X167208016Y-102808157D01*
X167078519Y-102932099D01*
X166922119Y-103082176D01*
X166878000Y-103124541D01*
X166756835Y-103240707D01*
X166642395Y-103350066D01*
X166539091Y-103448429D01*
X166451337Y-103531607D01*
X166383545Y-103595411D01*
X166340127Y-103635652D01*
X166330831Y-103643988D01*
X166302547Y-103668576D01*
X166278684Y-103691143D01*
X166258867Y-103715317D01*
X166242719Y-103744727D01*
X166229867Y-103783000D01*
X166219935Y-103833765D01*
X166212548Y-103900650D01*
X166207331Y-103987284D01*
X166203908Y-104097295D01*
X166201905Y-104234311D01*
X166200947Y-104401961D01*
X166200658Y-104603873D01*
X166200658Y-104603873D01*
X166200658Y-104603873D01*
G37*
X166200658Y-104603873D02*
X166200663Y-104843676D01*
X166200667Y-104903065D01*
X166200667Y-105985733D01*
X166272633Y-106057699D01*
X166344600Y-106129666D01*
X166433500Y-106129666D01*
X166433500Y-105896833D01*
X166433500Y-104874373D01*
X166433500Y-103851913D01*
X166872708Y-103417230D01*
X166995776Y-103295643D01*
X167118988Y-103174300D01*
X167236296Y-103059129D01*
X167341653Y-102956059D01*
X167429008Y-102871017D01*
X167491833Y-102810394D01*
X167671750Y-102638240D01*
X168417875Y-102637703D01*
X169164000Y-102637166D01*
X169164000Y-104267000D01*
X169164000Y-105896833D01*
X167798750Y-105896833D01*
X166433500Y-105896833D01*
X166433500Y-106129666D01*
X167796300Y-106129666D01*
X169247999Y-106129666D01*
X169317125Y-106067902D01*
X169386250Y-106006139D01*
X169386250Y-104303690D01*
X169386149Y-103987281D01*
X169385816Y-103710595D01*
X169385207Y-103471023D01*
X169384279Y-103265955D01*
X169382987Y-103092781D01*
X169381288Y-102948891D01*
X169379139Y-102831676D01*
X169376494Y-102738527D01*
X169373311Y-102666833D01*
X169369545Y-102613985D01*
X169365153Y-102577373D01*
X169360091Y-102554388D01*
X169356728Y-102546078D01*
X169338989Y-102515892D01*
X169318450Y-102491212D01*
X169290955Y-102471502D01*
X169252346Y-102456227D01*
X169198466Y-102444849D01*
X169125158Y-102436834D01*
X169028266Y-102431644D01*
X168903632Y-102428745D01*
X168747100Y-102427599D01*
X168554512Y-102427671D01*
X168441135Y-102428004D01*
X168264928Y-102428959D01*
X168100288Y-102430547D01*
X167952475Y-102432665D01*
X167826748Y-102435210D01*
X167728366Y-102438077D01*
X167662588Y-102441163D01*
X167636247Y-102443879D01*
X167619773Y-102448484D01*
X167602216Y-102456048D01*
X167580708Y-102469146D01*
X167552379Y-102490353D01*
X167514360Y-102522244D01*
X167463783Y-102567395D01*
X167397780Y-102628381D01*
X167313480Y-102707776D01*
X167208016Y-102808157D01*
X167078519Y-102932099D01*
X166922119Y-103082176D01*
X166878000Y-103124541D01*
X166756835Y-103240707D01*
X166642395Y-103350066D01*
X166539091Y-103448429D01*
X166451337Y-103531607D01*
X166383545Y-103595411D01*
X166340127Y-103635652D01*
X166330831Y-103643988D01*
X166302547Y-103668576D01*
X166278684Y-103691143D01*
X166258867Y-103715317D01*
X166242719Y-103744727D01*
X166229867Y-103783000D01*
X166219935Y-103833765D01*
X166212548Y-103900650D01*
X166207331Y-103987284D01*
X166203908Y-104097295D01*
X166201905Y-104234311D01*
X166200947Y-104401961D01*
X166200658Y-104603873D01*
X166200658Y-104603873D01*
G36*
X163568883Y-103799876D02*
X163568930Y-103885914D01*
X163598611Y-103965634D01*
X163650923Y-104022186D01*
X163729941Y-104051204D01*
X163817518Y-104048934D01*
X163895066Y-104016130D01*
X163900442Y-104012082D01*
X163953160Y-103947629D01*
X163972768Y-103871338D01*
X163962807Y-103792560D01*
X163926816Y-103720645D01*
X163868335Y-103664943D01*
X163790905Y-103634805D01*
X163756545Y-103632000D01*
X163695701Y-103649799D01*
X163634461Y-103694815D01*
X163586881Y-103754474D01*
X163568883Y-103799876D01*
X163568883Y-103799876D01*
X163568883Y-103799876D01*
G37*
X163568883Y-103799876D02*
X163568930Y-103885914D01*
X163598611Y-103965634D01*
X163650923Y-104022186D01*
X163729941Y-104051204D01*
X163817518Y-104048934D01*
X163895066Y-104016130D01*
X163900442Y-104012082D01*
X163953160Y-103947629D01*
X163972768Y-103871338D01*
X163962807Y-103792560D01*
X163926816Y-103720645D01*
X163868335Y-103664943D01*
X163790905Y-103634805D01*
X163756545Y-103632000D01*
X163695701Y-103649799D01*
X163634461Y-103694815D01*
X163586881Y-103754474D01*
X163568883Y-103799876D01*
X163568883Y-103799876D01*
G36*
X166200667Y-102905050D02*
X166200943Y-103042365D01*
X166202173Y-103143376D01*
X166204960Y-103214112D01*
X166209910Y-103260603D01*
X166217626Y-103288877D01*
X166228712Y-103304962D01*
X166241609Y-103313755D01*
X166275045Y-103328803D01*
X166307324Y-103334042D01*
X166342816Y-103326573D01*
X166385895Y-103303492D01*
X166440932Y-103261898D01*
X166512301Y-103198891D01*
X166604373Y-103111568D01*
X166721522Y-102997028D01*
X166726924Y-102991708D01*
X166827912Y-102892355D01*
X166919885Y-102802072D01*
X166998196Y-102725406D01*
X167058195Y-102666905D01*
X167095234Y-102631114D01*
X167104083Y-102622803D01*
X167128803Y-102577061D01*
X167130502Y-102518521D01*
X167110873Y-102466569D01*
X167088633Y-102446113D01*
X167047382Y-102436837D01*
X166965321Y-102430859D01*
X166843849Y-102428232D01*
X166684363Y-102429009D01*
X166652970Y-102429493D01*
X166514028Y-102432145D01*
X166411323Y-102435215D01*
X166338760Y-102439390D01*
X166290244Y-102445359D01*
X166259681Y-102453810D01*
X166240974Y-102465432D01*
X166230671Y-102477170D01*
X166219351Y-102502414D01*
X166211080Y-102546226D01*
X166205481Y-102614015D01*
X166202172Y-102711191D01*
X166200775Y-102843165D01*
X166200667Y-102905050D01*
X166200667Y-102905050D01*
X166200667Y-102905050D01*
G37*
X166200667Y-102905050D02*
X166200943Y-103042365D01*
X166202173Y-103143376D01*
X166204960Y-103214112D01*
X166209910Y-103260603D01*
X166217626Y-103288877D01*
X166228712Y-103304962D01*
X166241609Y-103313755D01*
X166275045Y-103328803D01*
X166307324Y-103334042D01*
X166342816Y-103326573D01*
X166385895Y-103303492D01*
X166440932Y-103261898D01*
X166512301Y-103198891D01*
X166604373Y-103111568D01*
X166721522Y-102997028D01*
X166726924Y-102991708D01*
X166827912Y-102892355D01*
X166919885Y-102802072D01*
X166998196Y-102725406D01*
X167058195Y-102666905D01*
X167095234Y-102631114D01*
X167104083Y-102622803D01*
X167128803Y-102577061D01*
X167130502Y-102518521D01*
X167110873Y-102466569D01*
X167088633Y-102446113D01*
X167047382Y-102436837D01*
X166965321Y-102430859D01*
X166843849Y-102428232D01*
X166684363Y-102429009D01*
X166652970Y-102429493D01*
X166514028Y-102432145D01*
X166411323Y-102435215D01*
X166338760Y-102439390D01*
X166290244Y-102445359D01*
X166259681Y-102453810D01*
X166240974Y-102465432D01*
X166230671Y-102477170D01*
X166219351Y-102502414D01*
X166211080Y-102546226D01*
X166205481Y-102614015D01*
X166202172Y-102711191D01*
X166200775Y-102843165D01*
X166200667Y-102905050D01*
X166200667Y-102905050D01*
G36*
X166581667Y-105050166D02*
X166583301Y-105064392D01*
X166591796Y-105075014D01*
X166612541Y-105082557D01*
X166650924Y-105087548D01*
X166712333Y-105090511D01*
X166802158Y-105091972D01*
X166925786Y-105092458D01*
X167015583Y-105092500D01*
X167449500Y-105092500D01*
X167449500Y-105346500D01*
X167449916Y-105453720D01*
X167451941Y-105525625D01*
X167456746Y-105569229D01*
X167465499Y-105591548D01*
X167479371Y-105599597D01*
X167491833Y-105600500D01*
X167508585Y-105598301D01*
X167520219Y-105587369D01*
X167527665Y-105561198D01*
X167531850Y-105513282D01*
X167533706Y-105437115D01*
X167534162Y-105326192D01*
X167534167Y-105304166D01*
X167534167Y-105007833D01*
X167057917Y-105007833D01*
X166904243Y-105007968D01*
X166787758Y-105008680D01*
X166703315Y-105010424D01*
X166645770Y-105013659D01*
X166609978Y-105018842D01*
X166590794Y-105026431D01*
X166583072Y-105036881D01*
X166581667Y-105050166D01*
X166581667Y-105050166D01*
X166581667Y-105050166D01*
G37*
X166581667Y-105050166D02*
X166583301Y-105064392D01*
X166591796Y-105075014D01*
X166612541Y-105082557D01*
X166650924Y-105087548D01*
X166712333Y-105090511D01*
X166802158Y-105091972D01*
X166925786Y-105092458D01*
X167015583Y-105092500D01*
X167449500Y-105092500D01*
X167449500Y-105346500D01*
X167449916Y-105453720D01*
X167451941Y-105525625D01*
X167456746Y-105569229D01*
X167465499Y-105591548D01*
X167479371Y-105599597D01*
X167491833Y-105600500D01*
X167508585Y-105598301D01*
X167520219Y-105587369D01*
X167527665Y-105561198D01*
X167531850Y-105513282D01*
X167533706Y-105437115D01*
X167534162Y-105326192D01*
X167534167Y-105304166D01*
X167534167Y-105007833D01*
X167057917Y-105007833D01*
X166904243Y-105007968D01*
X166787758Y-105008680D01*
X166703315Y-105010424D01*
X166645770Y-105013659D01*
X166609978Y-105018842D01*
X166590794Y-105026431D01*
X166583072Y-105036881D01*
X166581667Y-105050166D01*
X166581667Y-105050166D01*
G36*
X166560443Y-104300139D02*
X166672262Y-104410569D01*
X166731081Y-104467155D01*
X166773957Y-104500104D01*
X166776177Y-104500957D01*
X166776177Y-104308556D01*
X166783232Y-104275407D01*
X166785475Y-104271722D01*
X166802489Y-104255158D01*
X166833984Y-104243772D01*
X166887598Y-104236312D01*
X166970966Y-104231525D01*
X167044299Y-104229265D01*
X167280167Y-104223280D01*
X167280167Y-104298056D01*
X167280167Y-104372833D01*
X167063208Y-104372160D01*
X166949718Y-104369689D01*
X166871661Y-104362547D01*
X166822313Y-104349893D01*
X166804384Y-104339840D01*
X166776177Y-104308556D01*
X166776177Y-104500957D01*
X166814790Y-104515805D01*
X166867478Y-104520647D01*
X166912456Y-104521000D01*
X166995409Y-104519384D01*
X167100877Y-104515096D01*
X167209186Y-104508977D01*
X167234582Y-104507247D01*
X167428333Y-104493494D01*
X167428333Y-104432612D01*
X167428333Y-104371730D01*
X167751125Y-104377573D01*
X168073917Y-104383416D01*
X168074634Y-104452263D01*
X168081321Y-104494565D01*
X168104390Y-104538928D01*
X168149740Y-104594492D01*
X168200971Y-104648054D01*
X168326592Y-104775000D01*
X168202096Y-104900808D01*
X168143966Y-104961106D01*
X168105527Y-105009462D01*
X168082579Y-105057394D01*
X168070920Y-105116418D01*
X168066348Y-105198052D01*
X168065097Y-105276367D01*
X168063333Y-105428484D01*
X167994542Y-105435117D01*
X167946869Y-105444662D01*
X167928371Y-105469366D01*
X167925750Y-105505250D01*
X167925750Y-105568750D01*
X168121542Y-105574835D01*
X168317333Y-105580921D01*
X168317333Y-105506044D01*
X168313889Y-105455922D01*
X168296329Y-105435224D01*
X168253833Y-105431166D01*
X168190333Y-105431166D01*
X168190333Y-105265793D01*
X168191526Y-105180664D01*
X168197266Y-105125704D01*
X168210798Y-105088765D01*
X168235366Y-105057704D01*
X168249700Y-105043543D01*
X168298251Y-105000972D01*
X168325192Y-104991629D01*
X168336560Y-105016684D01*
X168338500Y-105060750D01*
X168342069Y-105110541D01*
X168359991Y-105130962D01*
X168401073Y-105134833D01*
X168463646Y-105134833D01*
X168469865Y-104981375D01*
X168476083Y-104827916D01*
X168724792Y-104821953D01*
X168973500Y-104815989D01*
X168973500Y-104753161D01*
X168973500Y-104690333D01*
X168719500Y-104690333D01*
X168465500Y-104690333D01*
X168465500Y-104542166D01*
X168465500Y-104394000D01*
X168402000Y-104394000D01*
X168361283Y-104397343D01*
X168343183Y-104415461D01*
X168338600Y-104460486D01*
X168338500Y-104478666D01*
X168334026Y-104539136D01*
X168317876Y-104559759D01*
X168285964Y-104542337D01*
X168257523Y-104514344D01*
X168235846Y-104486640D01*
X168222216Y-104452889D01*
X168214831Y-104403139D01*
X168211886Y-104327438D01*
X168211500Y-104260344D01*
X168211500Y-104055333D01*
X168275000Y-104055333D01*
X168338500Y-104055333D01*
X168338500Y-103716666D01*
X168338500Y-103378000D01*
X168277356Y-103378000D01*
X168235104Y-103372317D01*
X168213343Y-103347006D01*
X168202032Y-103302414D01*
X168196070Y-103246692D01*
X168192444Y-103163535D01*
X168191695Y-103067801D01*
X168192245Y-103032539D01*
X168196639Y-102838250D01*
X168129986Y-102831617D01*
X168063333Y-102824984D01*
X168063333Y-103101492D01*
X168063333Y-103378000D01*
X167999833Y-103378000D01*
X167936333Y-103378000D01*
X167936333Y-103715325D01*
X167936333Y-104052651D01*
X168005125Y-104059283D01*
X168048686Y-104066924D01*
X168063333Y-104080912D01*
X168063333Y-103928333D01*
X168063333Y-103716666D01*
X168063333Y-103505000D01*
X168126833Y-103505000D01*
X168190333Y-103505000D01*
X168190333Y-103716666D01*
X168190333Y-103928333D01*
X168126833Y-103928333D01*
X168063333Y-103928333D01*
X168063333Y-104080912D01*
X168069855Y-104087141D01*
X168078562Y-104132668D01*
X168080426Y-104155875D01*
X168086934Y-104245833D01*
X167757634Y-104245833D01*
X167428333Y-104245833D01*
X167428333Y-104161166D01*
X167428333Y-104076500D01*
X167104819Y-104076500D01*
X166781304Y-104076500D01*
X166670873Y-104188319D01*
X166560443Y-104300139D01*
X166560443Y-104300139D01*
X166560443Y-104300139D01*
G37*
X166560443Y-104300139D02*
X166672262Y-104410569D01*
X166731081Y-104467155D01*
X166773957Y-104500104D01*
X166776177Y-104500957D01*
X166776177Y-104308556D01*
X166783232Y-104275407D01*
X166785475Y-104271722D01*
X166802489Y-104255158D01*
X166833984Y-104243772D01*
X166887598Y-104236312D01*
X166970966Y-104231525D01*
X167044299Y-104229265D01*
X167280167Y-104223280D01*
X167280167Y-104298056D01*
X167280167Y-104372833D01*
X167063208Y-104372160D01*
X166949718Y-104369689D01*
X166871661Y-104362547D01*
X166822313Y-104349893D01*
X166804384Y-104339840D01*
X166776177Y-104308556D01*
X166776177Y-104500957D01*
X166814790Y-104515805D01*
X166867478Y-104520647D01*
X166912456Y-104521000D01*
X166995409Y-104519384D01*
X167100877Y-104515096D01*
X167209186Y-104508977D01*
X167234582Y-104507247D01*
X167428333Y-104493494D01*
X167428333Y-104432612D01*
X167428333Y-104371730D01*
X167751125Y-104377573D01*
X168073917Y-104383416D01*
X168074634Y-104452263D01*
X168081321Y-104494565D01*
X168104390Y-104538928D01*
X168149740Y-104594492D01*
X168200971Y-104648054D01*
X168326592Y-104775000D01*
X168202096Y-104900808D01*
X168143966Y-104961106D01*
X168105527Y-105009462D01*
X168082579Y-105057394D01*
X168070920Y-105116418D01*
X168066348Y-105198052D01*
X168065097Y-105276367D01*
X168063333Y-105428484D01*
X167994542Y-105435117D01*
X167946869Y-105444662D01*
X167928371Y-105469366D01*
X167925750Y-105505250D01*
X167925750Y-105568750D01*
X168121542Y-105574835D01*
X168317333Y-105580921D01*
X168317333Y-105506044D01*
X168313889Y-105455922D01*
X168296329Y-105435224D01*
X168253833Y-105431166D01*
X168190333Y-105431166D01*
X168190333Y-105265793D01*
X168191526Y-105180664D01*
X168197266Y-105125704D01*
X168210798Y-105088765D01*
X168235366Y-105057704D01*
X168249700Y-105043543D01*
X168298251Y-105000972D01*
X168325192Y-104991629D01*
X168336560Y-105016684D01*
X168338500Y-105060750D01*
X168342069Y-105110541D01*
X168359991Y-105130962D01*
X168401073Y-105134833D01*
X168463646Y-105134833D01*
X168469865Y-104981375D01*
X168476083Y-104827916D01*
X168724792Y-104821953D01*
X168973500Y-104815989D01*
X168973500Y-104753161D01*
X168973500Y-104690333D01*
X168719500Y-104690333D01*
X168465500Y-104690333D01*
X168465500Y-104542166D01*
X168465500Y-104394000D01*
X168402000Y-104394000D01*
X168361283Y-104397343D01*
X168343183Y-104415461D01*
X168338600Y-104460486D01*
X168338500Y-104478666D01*
X168334026Y-104539136D01*
X168317876Y-104559759D01*
X168285964Y-104542337D01*
X168257523Y-104514344D01*
X168235846Y-104486640D01*
X168222216Y-104452889D01*
X168214831Y-104403139D01*
X168211886Y-104327438D01*
X168211500Y-104260344D01*
X168211500Y-104055333D01*
X168275000Y-104055333D01*
X168338500Y-104055333D01*
X168338500Y-103716666D01*
X168338500Y-103378000D01*
X168277356Y-103378000D01*
X168235104Y-103372317D01*
X168213343Y-103347006D01*
X168202032Y-103302414D01*
X168196070Y-103246692D01*
X168192444Y-103163535D01*
X168191695Y-103067801D01*
X168192245Y-103032539D01*
X168196639Y-102838250D01*
X168129986Y-102831617D01*
X168063333Y-102824984D01*
X168063333Y-103101492D01*
X168063333Y-103378000D01*
X167999833Y-103378000D01*
X167936333Y-103378000D01*
X167936333Y-103715325D01*
X167936333Y-104052651D01*
X168005125Y-104059283D01*
X168048686Y-104066924D01*
X168063333Y-104080912D01*
X168063333Y-103928333D01*
X168063333Y-103716666D01*
X168063333Y-103505000D01*
X168126833Y-103505000D01*
X168190333Y-103505000D01*
X168190333Y-103716666D01*
X168190333Y-103928333D01*
X168126833Y-103928333D01*
X168063333Y-103928333D01*
X168063333Y-104080912D01*
X168069855Y-104087141D01*
X168078562Y-104132668D01*
X168080426Y-104155875D01*
X168086934Y-104245833D01*
X167757634Y-104245833D01*
X167428333Y-104245833D01*
X167428333Y-104161166D01*
X167428333Y-104076500D01*
X167104819Y-104076500D01*
X166781304Y-104076500D01*
X166670873Y-104188319D01*
X166560443Y-104300139D01*
X166560443Y-104300139D01*
G36*
X166602833Y-105579333D02*
X166729833Y-105579333D01*
X166856833Y-105579333D01*
X166856833Y-105505250D01*
X166856833Y-105431166D01*
X166729833Y-105431166D01*
X166602833Y-105431166D01*
X166602833Y-105505250D01*
X166602833Y-105579333D01*
X166602833Y-105579333D01*
X166602833Y-105579333D01*
G37*
X166602833Y-105579333D02*
X166729833Y-105579333D01*
X166856833Y-105579333D01*
X166856833Y-105505250D01*
X166856833Y-105431166D01*
X166729833Y-105431166D01*
X166602833Y-105431166D01*
X166602833Y-105505250D01*
X166602833Y-105579333D01*
X166602833Y-105579333D01*
G36*
X167132000Y-105505250D02*
X167134413Y-105533695D01*
X167148026Y-105549539D01*
X167182405Y-105556460D01*
X167247113Y-105558136D01*
X167269583Y-105558166D01*
X167343542Y-105557238D01*
X167384737Y-105552002D01*
X167402730Y-105538780D01*
X167407087Y-105513892D01*
X167407167Y-105505250D01*
X167404754Y-105476804D01*
X167391141Y-105460960D01*
X167356762Y-105454039D01*
X167292054Y-105452363D01*
X167269583Y-105452333D01*
X167195625Y-105453261D01*
X167154430Y-105458497D01*
X167136437Y-105471719D01*
X167132080Y-105496607D01*
X167132000Y-105505250D01*
X167132000Y-105505250D01*
X167132000Y-105505250D01*
G37*
X167132000Y-105505250D02*
X167134413Y-105533695D01*
X167148026Y-105549539D01*
X167182405Y-105556460D01*
X167247113Y-105558136D01*
X167269583Y-105558166D01*
X167343542Y-105557238D01*
X167384737Y-105552002D01*
X167402730Y-105538780D01*
X167407087Y-105513892D01*
X167407167Y-105505250D01*
X167404754Y-105476804D01*
X167391141Y-105460960D01*
X167356762Y-105454039D01*
X167292054Y-105452363D01*
X167269583Y-105452333D01*
X167195625Y-105453261D01*
X167154430Y-105458497D01*
X167136437Y-105471719D01*
X167132080Y-105496607D01*
X167132000Y-105505250D01*
X167132000Y-105505250D01*
G36*
X167132000Y-105208916D02*
X167134689Y-105238243D01*
X167149383Y-105254077D01*
X167186023Y-105260559D01*
X167254549Y-105261832D01*
X167259000Y-105261833D01*
X167329385Y-105260712D01*
X167367386Y-105254590D01*
X167382943Y-105239323D01*
X167385997Y-105210771D01*
X167386000Y-105208916D01*
X167383311Y-105179589D01*
X167368617Y-105163755D01*
X167331977Y-105157273D01*
X167263452Y-105156001D01*
X167259000Y-105156000D01*
X167188615Y-105157120D01*
X167150614Y-105163242D01*
X167135057Y-105178509D01*
X167132003Y-105207061D01*
X167132000Y-105208916D01*
X167132000Y-105208916D01*
X167132000Y-105208916D01*
G37*
X167132000Y-105208916D02*
X167134689Y-105238243D01*
X167149383Y-105254077D01*
X167186023Y-105260559D01*
X167254549Y-105261832D01*
X167259000Y-105261833D01*
X167329385Y-105260712D01*
X167367386Y-105254590D01*
X167382943Y-105239323D01*
X167385997Y-105210771D01*
X167386000Y-105208916D01*
X167383311Y-105179589D01*
X167368617Y-105163755D01*
X167331977Y-105157273D01*
X167263452Y-105156001D01*
X167259000Y-105156000D01*
X167188615Y-105157120D01*
X167150614Y-105163242D01*
X167135057Y-105178509D01*
X167132003Y-105207061D01*
X167132000Y-105208916D01*
X167132000Y-105208916D01*
G36*
X166605391Y-105236684D02*
X166614589Y-105250676D01*
X166642058Y-105258192D01*
X166695607Y-105261242D01*
X166783045Y-105261832D01*
X166791861Y-105261833D01*
X166882457Y-105261438D01*
X166938835Y-105258738D01*
X166969111Y-105251462D01*
X166981401Y-105237337D01*
X166983820Y-105214092D01*
X166983833Y-105208092D01*
X166983833Y-105154351D01*
X166798625Y-105160467D01*
X166709552Y-105164141D01*
X166654272Y-105169570D01*
X166624251Y-105179143D01*
X166610953Y-105195250D01*
X166606653Y-105214208D01*
X166605391Y-105236684D01*
X166605391Y-105236684D01*
X166605391Y-105236684D01*
G37*
X166605391Y-105236684D02*
X166614589Y-105250676D01*
X166642058Y-105258192D01*
X166695607Y-105261242D01*
X166783045Y-105261832D01*
X166791861Y-105261833D01*
X166882457Y-105261438D01*
X166938835Y-105258738D01*
X166969111Y-105251462D01*
X166981401Y-105237337D01*
X166983820Y-105214092D01*
X166983833Y-105208092D01*
X166983833Y-105154351D01*
X166798625Y-105160467D01*
X166709552Y-105164141D01*
X166654272Y-105169570D01*
X166624251Y-105179143D01*
X166610953Y-105195250D01*
X166606653Y-105214208D01*
X166605391Y-105236684D01*
X166605391Y-105236684D01*
D12*
X142380000Y-93000000D02*
X144440000Y-93000000D01*
X145060000Y-97960000D02*
X146860000Y-97960000D01*
X145960000Y-98860000D02*
X145960000Y-97060000D01*
X144440000Y-102000000D02*
X144440000Y-89000000D01*
X165560000Y-102000000D02*
X165560000Y-89000000D01*
X144440000Y-102000000D02*
X146240000Y-102000000D01*
X146250000Y-102000000D02*
X147150000Y-101100000D01*
X147150000Y-101100000D02*
X148050000Y-102000000D01*
X148040000Y-102000000D02*
X165560000Y-102000000D01*
X144440000Y-89000000D02*
X146240000Y-89000000D01*
X146230000Y-89000000D02*
X147130000Y-89900000D01*
X147130000Y-89900000D02*
X148030000Y-89000000D01*
X148040000Y-89000000D02*
X165560000Y-89000000D01*
X142380000Y-98000000D02*
X144440000Y-98000000D01*
D13*
X156119047Y-95857143D02*
X156166666Y-95904762D01*
X156309523Y-95952381D01*
X156404761Y-95952381D01*
X156547619Y-95904762D01*
X156642857Y-95809524D01*
X156690476Y-95714286D01*
X156738095Y-95523810D01*
X156738095Y-95380952D01*
X156690476Y-95190476D01*
X156642857Y-95095238D01*
X156547619Y-95000000D01*
X156404761Y-94952381D01*
X156309523Y-94952381D01*
X156166666Y-95000000D01*
X156119047Y-95047619D01*
X155166666Y-95952381D02*
X155738095Y-95952381D01*
X155452381Y-95952381D02*
X155452381Y-94952381D01*
X155547619Y-95095238D01*
X155642857Y-95190476D01*
X155738095Y-95238095D01*
X154547619Y-94952381D02*
X154452380Y-94952381D01*
X154357142Y-95000000D01*
X154309523Y-95047619D01*
X154261904Y-95142857D01*
X154214285Y-95333333D01*
X154214285Y-95571429D01*
X154261904Y-95761905D01*
X154309523Y-95857143D01*
X154357142Y-95904762D01*
X154452380Y-95952381D01*
X154547619Y-95952381D01*
X154642857Y-95904762D01*
X154690476Y-95857143D01*
X154738095Y-95761905D01*
X154785714Y-95571429D01*
X154785714Y-95333333D01*
X154738095Y-95142857D01*
X154690476Y-95047619D01*
X154642857Y-95000000D01*
X154547619Y-94952381D01*
X153833333Y-95047619D02*
X153785714Y-95000000D01*
X153690476Y-94952381D01*
X153452380Y-94952381D01*
X153357142Y-95000000D01*
X153309523Y-95047619D01*
X153261904Y-95142857D01*
X153261904Y-95238095D01*
X153309523Y-95380952D01*
X153880952Y-95952381D01*
X153261904Y-95952381D01*
M02*
