M48
;DRILL file {KiCad 4.0.7} date 2017 November 14, Tuesday 05:37:34
;FORMAT={2:4/ absolute / inch / suppress leading zeros}
FMAT,2
INCH,TZ
T1C0.013
T2C0.039
T3C0.047
T4C0.067
T5C0.042
%
G90
G05
M72
T1
X58800Y-36700
X61798Y-36733
X63650Y-36400
T2
X58268Y-41142
X59268Y-41142
X59500Y-33950
X60268Y-41142
X60500Y-33950
X61268Y-41142
X61500Y-33950
X62900Y-33950
X63900Y-33950
X64900Y-33950
X65900Y-33950
X66100Y-36600
X66100Y-37600
X66100Y-38600
X66100Y-39600
T3
X55512Y-36614
X55512Y-38583
T4
X55531Y-34300
X56516Y-35363
X57500Y-34300
T5
X62870Y-40795
X62870Y-41595
X64870Y-41195
T0
M30
