G04 #@! TF.FileFunction,Legend,Top*
%FSLAX46Y46*%
G04 Gerber Fmt 4.6, Leading zero omitted, Abs format (unit mm)*
G04 Created by KiCad (PCBNEW 4.0.7) date 2017 November 14, Tuesday 05:37:29*
%MOMM*%
%LPD*%
G01*
G04 APERTURE LIST*
%ADD10C,0.076200*%
%ADD11C,0.127000*%
%ADD12C,0.150000*%
%ADD13C,0.120000*%
%ADD14C,0.100000*%
G04 APERTURE END LIST*
D10*
D11*
X139192000Y-93036572D02*
X139228286Y-92964001D01*
X139228286Y-92855144D01*
X139192000Y-92746287D01*
X139119429Y-92673715D01*
X139046857Y-92637430D01*
X138901714Y-92601144D01*
X138792857Y-92601144D01*
X138647714Y-92637430D01*
X138575143Y-92673715D01*
X138502571Y-92746287D01*
X138466286Y-92855144D01*
X138466286Y-92927715D01*
X138502571Y-93036572D01*
X138538857Y-93072858D01*
X138792857Y-93072858D01*
X138792857Y-92927715D01*
X138466286Y-93399430D02*
X139228286Y-93399430D01*
X138466286Y-93834858D01*
X139228286Y-93834858D01*
X138466286Y-94197716D02*
X139228286Y-94197716D01*
X139228286Y-94379144D01*
X139192000Y-94488001D01*
X139119429Y-94560573D01*
X139046857Y-94596858D01*
X138901714Y-94633144D01*
X138792857Y-94633144D01*
X138647714Y-94596858D01*
X138575143Y-94560573D01*
X138502571Y-94488001D01*
X138466286Y-94379144D01*
X138466286Y-94197716D01*
X138756571Y-97282000D02*
X138756571Y-97862571D01*
X138466286Y-97572285D02*
X139046857Y-97572285D01*
X147410716Y-102616000D02*
X147773573Y-102616000D01*
X147338144Y-102833714D02*
X147592144Y-102071714D01*
X147846144Y-102833714D01*
X148426716Y-102325714D02*
X148426716Y-102833714D01*
X148245287Y-102035429D02*
X148063859Y-102579714D01*
X148535573Y-102579714D01*
X149950715Y-102616000D02*
X150313572Y-102616000D01*
X149878143Y-102833714D02*
X150132143Y-102071714D01*
X150386143Y-102833714D01*
X151003001Y-102071714D02*
X150640144Y-102071714D01*
X150603858Y-102434571D01*
X150640144Y-102398286D01*
X150712715Y-102362000D01*
X150894144Y-102362000D01*
X150966715Y-102398286D01*
X151003001Y-102434571D01*
X151039286Y-102507143D01*
X151039286Y-102688571D01*
X151003001Y-102761143D01*
X150966715Y-102797429D01*
X150894144Y-102833714D01*
X150712715Y-102833714D01*
X150640144Y-102797429D01*
X150603858Y-102761143D01*
X152490714Y-102616000D02*
X152853571Y-102616000D01*
X152418142Y-102833714D02*
X152672142Y-102071714D01*
X152926142Y-102833714D01*
X153506714Y-102071714D02*
X153361571Y-102071714D01*
X153289000Y-102108000D01*
X153252714Y-102144286D01*
X153180143Y-102253143D01*
X153143857Y-102398286D01*
X153143857Y-102688571D01*
X153180143Y-102761143D01*
X153216428Y-102797429D01*
X153289000Y-102833714D01*
X153434143Y-102833714D01*
X153506714Y-102797429D01*
X153543000Y-102761143D01*
X153579285Y-102688571D01*
X153579285Y-102507143D01*
X153543000Y-102434571D01*
X153506714Y-102398286D01*
X153434143Y-102362000D01*
X153289000Y-102362000D01*
X153216428Y-102398286D01*
X153180143Y-102434571D01*
X153143857Y-102507143D01*
X155030713Y-102616000D02*
X155393570Y-102616000D01*
X154958141Y-102833714D02*
X155212141Y-102071714D01*
X155466141Y-102833714D01*
X155647570Y-102071714D02*
X156155570Y-102071714D01*
X155828999Y-102833714D01*
X159294288Y-88083571D02*
X159403145Y-88119857D01*
X159439430Y-88156143D01*
X159475716Y-88228714D01*
X159475716Y-88337571D01*
X159439430Y-88410143D01*
X159403145Y-88446429D01*
X159330573Y-88482714D01*
X159040288Y-88482714D01*
X159040288Y-87720714D01*
X159294288Y-87720714D01*
X159366859Y-87757000D01*
X159403145Y-87793286D01*
X159439430Y-87865857D01*
X159439430Y-87938429D01*
X159403145Y-88011000D01*
X159366859Y-88047286D01*
X159294288Y-88083571D01*
X159040288Y-88083571D01*
X159729716Y-87720714D02*
X160201430Y-87720714D01*
X159947430Y-88011000D01*
X160056288Y-88011000D01*
X160128859Y-88047286D01*
X160165145Y-88083571D01*
X160201430Y-88156143D01*
X160201430Y-88337571D01*
X160165145Y-88410143D01*
X160128859Y-88446429D01*
X160056288Y-88482714D01*
X159838573Y-88482714D01*
X159766002Y-88446429D01*
X159729716Y-88410143D01*
X161943144Y-88083571D02*
X162052001Y-88119857D01*
X162088286Y-88156143D01*
X162124572Y-88228714D01*
X162124572Y-88337571D01*
X162088286Y-88410143D01*
X162052001Y-88446429D01*
X161979429Y-88482714D01*
X161689144Y-88482714D01*
X161689144Y-87720714D01*
X161943144Y-87720714D01*
X162015715Y-87757000D01*
X162052001Y-87793286D01*
X162088286Y-87865857D01*
X162088286Y-87938429D01*
X162052001Y-88011000D01*
X162015715Y-88047286D01*
X161943144Y-88083571D01*
X161689144Y-88083571D01*
X162414858Y-87793286D02*
X162451144Y-87757000D01*
X162523715Y-87720714D01*
X162705144Y-87720714D01*
X162777715Y-87757000D01*
X162814001Y-87793286D01*
X162850286Y-87865857D01*
X162850286Y-87938429D01*
X162814001Y-88047286D01*
X162378572Y-88482714D01*
X162850286Y-88482714D01*
X164592000Y-88083571D02*
X164700857Y-88119857D01*
X164737142Y-88156143D01*
X164773428Y-88228714D01*
X164773428Y-88337571D01*
X164737142Y-88410143D01*
X164700857Y-88446429D01*
X164628285Y-88482714D01*
X164338000Y-88482714D01*
X164338000Y-87720714D01*
X164592000Y-87720714D01*
X164664571Y-87757000D01*
X164700857Y-87793286D01*
X164737142Y-87865857D01*
X164737142Y-87938429D01*
X164700857Y-88011000D01*
X164664571Y-88047286D01*
X164592000Y-88083571D01*
X164338000Y-88083571D01*
X165499142Y-88482714D02*
X165063714Y-88482714D01*
X165281428Y-88482714D02*
X165281428Y-87720714D01*
X165208857Y-87829571D01*
X165136285Y-87902143D01*
X165063714Y-87938429D01*
X167240856Y-88083571D02*
X167349713Y-88119857D01*
X167385998Y-88156143D01*
X167422284Y-88228714D01*
X167422284Y-88337571D01*
X167385998Y-88410143D01*
X167349713Y-88446429D01*
X167277141Y-88482714D01*
X166986856Y-88482714D01*
X166986856Y-87720714D01*
X167240856Y-87720714D01*
X167313427Y-87757000D01*
X167349713Y-87793286D01*
X167385998Y-87865857D01*
X167385998Y-87938429D01*
X167349713Y-88011000D01*
X167313427Y-88047286D01*
X167240856Y-88083571D01*
X166986856Y-88083571D01*
X167893998Y-87720714D02*
X167966570Y-87720714D01*
X168039141Y-87757000D01*
X168075427Y-87793286D01*
X168111713Y-87865857D01*
X168147998Y-88011000D01*
X168147998Y-88192429D01*
X168111713Y-88337571D01*
X168075427Y-88410143D01*
X168039141Y-88446429D01*
X167966570Y-88482714D01*
X167893998Y-88482714D01*
X167821427Y-88446429D01*
X167785141Y-88410143D01*
X167748856Y-88337571D01*
X167712570Y-88192429D01*
X167712570Y-88011000D01*
X167748856Y-87865857D01*
X167785141Y-87793286D01*
X167821427Y-87757000D01*
X167893998Y-87720714D01*
X150585716Y-88265000D02*
X150948573Y-88265000D01*
X150513144Y-88482714D02*
X150767144Y-87720714D01*
X151021144Y-88482714D01*
X151202573Y-87720714D02*
X151674287Y-87720714D01*
X151420287Y-88011000D01*
X151529145Y-88011000D01*
X151601716Y-88047286D01*
X151638002Y-88083571D01*
X151674287Y-88156143D01*
X151674287Y-88337571D01*
X151638002Y-88410143D01*
X151601716Y-88446429D01*
X151529145Y-88482714D01*
X151311430Y-88482714D01*
X151238859Y-88446429D01*
X151202573Y-88410143D01*
X153125715Y-88265000D02*
X153488572Y-88265000D01*
X153053143Y-88482714D02*
X153307143Y-87720714D01*
X153561143Y-88482714D01*
X153778858Y-87793286D02*
X153815144Y-87757000D01*
X153887715Y-87720714D01*
X154069144Y-87720714D01*
X154141715Y-87757000D01*
X154178001Y-87793286D01*
X154214286Y-87865857D01*
X154214286Y-87938429D01*
X154178001Y-88047286D01*
X153742572Y-88482714D01*
X154214286Y-88482714D01*
X155665714Y-88265000D02*
X156028571Y-88265000D01*
X155593142Y-88482714D02*
X155847142Y-87720714D01*
X156101142Y-88482714D01*
X156754285Y-88482714D02*
X156318857Y-88482714D01*
X156536571Y-88482714D02*
X156536571Y-87720714D01*
X156464000Y-87829571D01*
X156391428Y-87902143D01*
X156318857Y-87938429D01*
X141852952Y-104941310D02*
X141852952Y-104433310D01*
X142143238Y-104941310D01*
X142143238Y-104433310D01*
X142578666Y-104917119D02*
X142530285Y-104941310D01*
X142433523Y-104941310D01*
X142385142Y-104917119D01*
X142360952Y-104868738D01*
X142360952Y-104675214D01*
X142385142Y-104626833D01*
X142433523Y-104602643D01*
X142530285Y-104602643D01*
X142578666Y-104626833D01*
X142602857Y-104675214D01*
X142602857Y-104723595D01*
X142360952Y-104771976D01*
X142893143Y-104941310D02*
X142844762Y-104917119D01*
X142820571Y-104892929D01*
X142796381Y-104844548D01*
X142796381Y-104699405D01*
X142820571Y-104651024D01*
X142844762Y-104626833D01*
X142893143Y-104602643D01*
X142965714Y-104602643D01*
X143014095Y-104626833D01*
X143038286Y-104651024D01*
X143062476Y-104699405D01*
X143062476Y-104844548D01*
X143038286Y-104892929D01*
X143014095Y-104917119D01*
X142965714Y-104941310D01*
X142893143Y-104941310D01*
X143280190Y-104941310D02*
X143280190Y-104433310D01*
X143473714Y-104433310D01*
X143522095Y-104457500D01*
X143546286Y-104481690D01*
X143570476Y-104530071D01*
X143570476Y-104602643D01*
X143546286Y-104651024D01*
X143522095Y-104675214D01*
X143473714Y-104699405D01*
X143280190Y-104699405D01*
X143788190Y-104941310D02*
X143788190Y-104602643D01*
X143788190Y-104433310D02*
X143764000Y-104457500D01*
X143788190Y-104481690D01*
X143812381Y-104457500D01*
X143788190Y-104433310D01*
X143788190Y-104481690D01*
X143981714Y-104941310D02*
X144247810Y-104602643D01*
X143981714Y-104602643D02*
X144247810Y-104941310D01*
X144634857Y-104917119D02*
X144586476Y-104941310D01*
X144489714Y-104941310D01*
X144441333Y-104917119D01*
X144417143Y-104868738D01*
X144417143Y-104675214D01*
X144441333Y-104626833D01*
X144489714Y-104602643D01*
X144586476Y-104602643D01*
X144634857Y-104626833D01*
X144659048Y-104675214D01*
X144659048Y-104723595D01*
X144417143Y-104771976D01*
X144949334Y-104941310D02*
X144900953Y-104917119D01*
X144876762Y-104868738D01*
X144876762Y-104433310D01*
X141852952Y-105830310D02*
X141852952Y-105322310D01*
X141973905Y-105322310D01*
X142046476Y-105346500D01*
X142094857Y-105394881D01*
X142119048Y-105443262D01*
X142143238Y-105540024D01*
X142143238Y-105612595D01*
X142119048Y-105709357D01*
X142094857Y-105757738D01*
X142046476Y-105806119D01*
X141973905Y-105830310D01*
X141852952Y-105830310D01*
X142360952Y-105830310D02*
X142360952Y-105491643D01*
X142360952Y-105588405D02*
X142385143Y-105540024D01*
X142409333Y-105515833D01*
X142457714Y-105491643D01*
X142506095Y-105491643D01*
X142675428Y-105830310D02*
X142675428Y-105491643D01*
X142675428Y-105322310D02*
X142651238Y-105346500D01*
X142675428Y-105370690D01*
X142699619Y-105346500D01*
X142675428Y-105322310D01*
X142675428Y-105370690D01*
X142868952Y-105491643D02*
X142989905Y-105830310D01*
X143110857Y-105491643D01*
X143497905Y-105806119D02*
X143449524Y-105830310D01*
X143352762Y-105830310D01*
X143304381Y-105806119D01*
X143280191Y-105757738D01*
X143280191Y-105564214D01*
X143304381Y-105515833D01*
X143352762Y-105491643D01*
X143449524Y-105491643D01*
X143497905Y-105515833D01*
X143522096Y-105564214D01*
X143522096Y-105612595D01*
X143280191Y-105660976D01*
X143739810Y-105830310D02*
X143739810Y-105491643D01*
X143739810Y-105588405D02*
X143764001Y-105540024D01*
X143788191Y-105515833D01*
X143836572Y-105491643D01*
X143884953Y-105491643D01*
X144417144Y-105370690D02*
X144441334Y-105346500D01*
X144489715Y-105322310D01*
X144610668Y-105322310D01*
X144659049Y-105346500D01*
X144683239Y-105370690D01*
X144707430Y-105419071D01*
X144707430Y-105467452D01*
X144683239Y-105540024D01*
X144392953Y-105830310D01*
X144707430Y-105830310D01*
X145167049Y-105830310D02*
X144925144Y-105830310D01*
X144925144Y-105322310D01*
X145215430Y-105878690D02*
X145602478Y-105878690D01*
X145989526Y-105830310D02*
X145699240Y-105830310D01*
X145844383Y-105830310D02*
X145844383Y-105322310D01*
X145796002Y-105394881D01*
X145747621Y-105443262D01*
X145699240Y-105467452D01*
X160709429Y-102198714D02*
X160709429Y-102815571D01*
X160745714Y-102888143D01*
X160782000Y-102924429D01*
X160854571Y-102960714D01*
X160999714Y-102960714D01*
X161072286Y-102924429D01*
X161108571Y-102888143D01*
X161144857Y-102815571D01*
X161144857Y-102198714D01*
X161507715Y-102960714D02*
X161507715Y-102198714D01*
X161689143Y-102198714D01*
X161798000Y-102235000D01*
X161870572Y-102307571D01*
X161906857Y-102380143D01*
X161943143Y-102525286D01*
X161943143Y-102634143D01*
X161906857Y-102779286D01*
X161870572Y-102851857D01*
X161798000Y-102924429D01*
X161689143Y-102960714D01*
X161507715Y-102960714D01*
X162269715Y-102960714D02*
X162269715Y-102198714D01*
X162560000Y-102198714D01*
X162632572Y-102235000D01*
X162668857Y-102271286D01*
X162705143Y-102343857D01*
X162705143Y-102452714D01*
X162668857Y-102525286D01*
X162632572Y-102561571D01*
X162560000Y-102597857D01*
X162269715Y-102597857D01*
X163031715Y-102960714D02*
X163031715Y-102198714D01*
X165390286Y-92256429D02*
X166152286Y-92256429D01*
X166152286Y-92437857D01*
X166116000Y-92546714D01*
X166043429Y-92619286D01*
X165970857Y-92655571D01*
X165825714Y-92691857D01*
X165716857Y-92691857D01*
X165571714Y-92655571D01*
X165499143Y-92619286D01*
X165426571Y-92546714D01*
X165390286Y-92437857D01*
X165390286Y-92256429D01*
X165390286Y-93345000D02*
X165789429Y-93345000D01*
X165862000Y-93308714D01*
X165898286Y-93236143D01*
X165898286Y-93091000D01*
X165862000Y-93018429D01*
X165426571Y-93345000D02*
X165390286Y-93272429D01*
X165390286Y-93091000D01*
X165426571Y-93018429D01*
X165499143Y-92982143D01*
X165571714Y-92982143D01*
X165644286Y-93018429D01*
X165680571Y-93091000D01*
X165680571Y-93272429D01*
X165716857Y-93345000D01*
X165898286Y-93599000D02*
X165898286Y-93889286D01*
X166152286Y-93707858D02*
X165499143Y-93707858D01*
X165426571Y-93744143D01*
X165390286Y-93816715D01*
X165390286Y-93889286D01*
X165390286Y-94469858D02*
X165789429Y-94469858D01*
X165862000Y-94433572D01*
X165898286Y-94361001D01*
X165898286Y-94215858D01*
X165862000Y-94143287D01*
X165426571Y-94469858D02*
X165390286Y-94397287D01*
X165390286Y-94215858D01*
X165426571Y-94143287D01*
X165499143Y-94107001D01*
X165571714Y-94107001D01*
X165644286Y-94143287D01*
X165680571Y-94215858D01*
X165680571Y-94397287D01*
X165716857Y-94469858D01*
X166116000Y-95812429D02*
X166152286Y-95739858D01*
X166152286Y-95631001D01*
X166116000Y-95522144D01*
X166043429Y-95449572D01*
X165970857Y-95413287D01*
X165825714Y-95377001D01*
X165716857Y-95377001D01*
X165571714Y-95413287D01*
X165499143Y-95449572D01*
X165426571Y-95522144D01*
X165390286Y-95631001D01*
X165390286Y-95703572D01*
X165426571Y-95812429D01*
X165462857Y-95848715D01*
X165716857Y-95848715D01*
X165716857Y-95703572D01*
X165390286Y-96175287D02*
X166152286Y-96175287D01*
X165390286Y-96610715D01*
X166152286Y-96610715D01*
X165390286Y-96973573D02*
X166152286Y-96973573D01*
X166152286Y-97155001D01*
X166116000Y-97263858D01*
X166043429Y-97336430D01*
X165970857Y-97372715D01*
X165825714Y-97409001D01*
X165716857Y-97409001D01*
X165571714Y-97372715D01*
X165499143Y-97336430D01*
X165426571Y-97263858D01*
X165390286Y-97155001D01*
X165390286Y-96973573D01*
X164882286Y-92401571D02*
X164882286Y-92546714D01*
X164846000Y-92619286D01*
X164773429Y-92691857D01*
X164628286Y-92728143D01*
X164374286Y-92728143D01*
X164229143Y-92691857D01*
X164156571Y-92619286D01*
X164120286Y-92546714D01*
X164120286Y-92401571D01*
X164156571Y-92329000D01*
X164229143Y-92256429D01*
X164374286Y-92220143D01*
X164628286Y-92220143D01*
X164773429Y-92256429D01*
X164846000Y-92329000D01*
X164882286Y-92401571D01*
X164628286Y-93381286D02*
X164120286Y-93381286D01*
X164628286Y-93054715D02*
X164229143Y-93054715D01*
X164156571Y-93091000D01*
X164120286Y-93163572D01*
X164120286Y-93272429D01*
X164156571Y-93345000D01*
X164192857Y-93381286D01*
X164628286Y-93635286D02*
X164628286Y-93925572D01*
X164882286Y-93744144D02*
X164229143Y-93744144D01*
X164156571Y-93780429D01*
X164120286Y-93853001D01*
X164120286Y-93925572D01*
X166061571Y-98479429D02*
X166061571Y-99060000D01*
X165771286Y-98769714D02*
X166351857Y-98769714D01*
X165263286Y-98842286D02*
X165263286Y-98479429D01*
X164900429Y-98443143D01*
X164936714Y-98479429D01*
X164973000Y-98552000D01*
X164973000Y-98733429D01*
X164936714Y-98806000D01*
X164900429Y-98842286D01*
X164827857Y-98878571D01*
X164646429Y-98878571D01*
X164573857Y-98842286D01*
X164537571Y-98806000D01*
X164501286Y-98733429D01*
X164501286Y-98552000D01*
X164537571Y-98479429D01*
X164573857Y-98443143D01*
X165263286Y-99096285D02*
X164501286Y-99350285D01*
X165263286Y-99604285D01*
X165263286Y-100583999D02*
X165263286Y-100729142D01*
X165227000Y-100801714D01*
X165154429Y-100874285D01*
X165009286Y-100910571D01*
X164755286Y-100910571D01*
X164610143Y-100874285D01*
X164537571Y-100801714D01*
X164501286Y-100729142D01*
X164501286Y-100583999D01*
X164537571Y-100511428D01*
X164610143Y-100438857D01*
X164755286Y-100402571D01*
X165009286Y-100402571D01*
X165154429Y-100438857D01*
X165227000Y-100511428D01*
X165263286Y-100583999D01*
X165009286Y-101563714D02*
X164501286Y-101563714D01*
X165009286Y-101237143D02*
X164610143Y-101237143D01*
X164537571Y-101273428D01*
X164501286Y-101346000D01*
X164501286Y-101454857D01*
X164537571Y-101527428D01*
X164573857Y-101563714D01*
X165009286Y-101817714D02*
X165009286Y-102108000D01*
X165263286Y-101926572D02*
X164610143Y-101926572D01*
X164537571Y-101962857D01*
X164501286Y-102035429D01*
X164501286Y-102108000D01*
X135672286Y-90260714D02*
X135309429Y-90260714D01*
X135273143Y-90623571D01*
X135309429Y-90587286D01*
X135382000Y-90551000D01*
X135563429Y-90551000D01*
X135636000Y-90587286D01*
X135672286Y-90623571D01*
X135708571Y-90696143D01*
X135708571Y-90877571D01*
X135672286Y-90950143D01*
X135636000Y-90986429D01*
X135563429Y-91022714D01*
X135382000Y-91022714D01*
X135309429Y-90986429D01*
X135273143Y-90950143D01*
X135926285Y-90260714D02*
X136180285Y-91022714D01*
X136434285Y-90260714D01*
X137268857Y-91022714D02*
X137268857Y-90260714D01*
X137631714Y-90514714D02*
X137631714Y-91022714D01*
X137631714Y-90587286D02*
X137667999Y-90551000D01*
X137740571Y-90514714D01*
X137849428Y-90514714D01*
X137921999Y-90551000D01*
X137958285Y-90623571D01*
X137958285Y-91022714D01*
D12*
X144650000Y-94000000D02*
X144650000Y-95000000D01*
X146350000Y-95000000D02*
X146350000Y-94000000D01*
X149500000Y-99150000D02*
X148500000Y-99150000D01*
X148500000Y-100850000D02*
X149500000Y-100850000D01*
D13*
X146000000Y-100850000D02*
X146000000Y-99150000D01*
X146000000Y-99150000D02*
X143450000Y-99150000D01*
X146000000Y-100850000D02*
X143450000Y-100850000D01*
X166564000Y-96834000D02*
X169224000Y-96834000D01*
X166564000Y-94234000D02*
X166564000Y-96834000D01*
X169224000Y-94234000D02*
X169224000Y-96834000D01*
X166564000Y-94234000D02*
X169224000Y-94234000D01*
X166564000Y-92964000D02*
X166564000Y-91634000D01*
X166564000Y-91634000D02*
X167894000Y-91634000D01*
X166564000Y-101914000D02*
X169224000Y-101914000D01*
X166564000Y-99314000D02*
X166564000Y-101914000D01*
X169224000Y-99314000D02*
X169224000Y-101914000D01*
X166564000Y-99314000D02*
X169224000Y-99314000D01*
X166564000Y-98044000D02*
X166564000Y-96714000D01*
X166564000Y-96714000D02*
X167894000Y-96714000D01*
X149800000Y-84903000D02*
X149800000Y-87563000D01*
X154940000Y-84903000D02*
X149800000Y-84903000D01*
X154940000Y-87563000D02*
X149800000Y-87563000D01*
X154940000Y-84903000D02*
X154940000Y-87563000D01*
X156210000Y-84903000D02*
X157540000Y-84903000D01*
X157540000Y-84903000D02*
X157540000Y-86233000D01*
X156950000Y-105830000D02*
X156950000Y-103170000D01*
X149270000Y-105830000D02*
X156950000Y-105830000D01*
X149270000Y-103170000D02*
X156950000Y-103170000D01*
X149270000Y-105830000D02*
X149270000Y-103170000D01*
X148000000Y-105830000D02*
X146670000Y-105830000D01*
X146670000Y-105830000D02*
X146670000Y-104500000D01*
X158436000Y-84903000D02*
X158436000Y-87563000D01*
X166116000Y-84903000D02*
X158436000Y-84903000D01*
X166116000Y-87563000D02*
X158436000Y-87563000D01*
X166116000Y-84903000D02*
X166116000Y-87563000D01*
X167386000Y-84903000D02*
X168716000Y-84903000D01*
X168716000Y-84903000D02*
X168716000Y-86233000D01*
D12*
X164100000Y-91875000D02*
X162900000Y-91875000D01*
X162900000Y-90125000D02*
X164100000Y-90125000D01*
X147125000Y-95100000D02*
X147125000Y-93900000D01*
X148875000Y-93900000D02*
X148875000Y-95100000D01*
X161080000Y-92714000D02*
X161080000Y-97540000D01*
X161080000Y-97540000D02*
X150920000Y-97540000D01*
X150920000Y-97540000D02*
X150920000Y-92714000D01*
X150920000Y-92714000D02*
X161080000Y-92714000D01*
X150920000Y-94492000D02*
X151555000Y-94492000D01*
X151555000Y-94492000D02*
X151555000Y-95762000D01*
X151555000Y-95762000D02*
X150920000Y-95762000D01*
D14*
G36*
X141353378Y-103269418D02*
X141351238Y-103863076D01*
X141351000Y-104047945D01*
X141349032Y-104688217D01*
X141342365Y-105178453D01*
X141329856Y-105537914D01*
X141310361Y-105785861D01*
X141282735Y-105941554D01*
X141245835Y-106024252D01*
X141232831Y-106037670D01*
X141065596Y-106109142D01*
X140927667Y-106139474D01*
X140927667Y-105685748D01*
X140927667Y-104092371D01*
X140923611Y-103571909D01*
X140912250Y-103122332D01*
X140894795Y-102768665D01*
X140872453Y-102535937D01*
X140848275Y-102449926D01*
X140736827Y-102419092D01*
X140494552Y-102372619D01*
X140158493Y-102317095D01*
X139811108Y-102265485D01*
X139182640Y-102203536D01*
X138455051Y-102175245D01*
X137685137Y-102179497D01*
X136929692Y-102215179D01*
X136245514Y-102281176D01*
X135847667Y-102343237D01*
X135297333Y-102447859D01*
X135274366Y-104069143D01*
X135251399Y-105690426D01*
X135824699Y-105781198D01*
X136160613Y-105833928D01*
X136465424Y-105881002D01*
X136652000Y-105909091D01*
X136892169Y-105926739D01*
X137263525Y-105933161D01*
X137728383Y-105929617D01*
X138249057Y-105917364D01*
X138787862Y-105897660D01*
X139307112Y-105871761D01*
X139769122Y-105840926D01*
X140136206Y-105806412D01*
X140271500Y-105788306D01*
X140927667Y-105685748D01*
X140927667Y-106139474D01*
X140756275Y-106177166D01*
X140332113Y-106239037D01*
X139820356Y-106292051D01*
X139248249Y-106333504D01*
X138643039Y-106360692D01*
X138031969Y-106370910D01*
X137879667Y-106370483D01*
X137394669Y-106365260D01*
X136955889Y-106357201D01*
X136597154Y-106347183D01*
X136352292Y-106336080D01*
X136271000Y-106328816D01*
X135764428Y-106245236D01*
X135356639Y-106162708D01*
X135071462Y-106086632D01*
X134937500Y-106026674D01*
X134900465Y-105948849D01*
X134872306Y-105773790D01*
X134852198Y-105486075D01*
X134839317Y-105070284D01*
X134832837Y-104510996D01*
X134831667Y-104047945D01*
X134832618Y-103431599D01*
X134836577Y-102963164D01*
X134845200Y-102621224D01*
X134860144Y-102384362D01*
X134883066Y-102231160D01*
X134915622Y-102140203D01*
X134959468Y-102090073D01*
X134984312Y-102074597D01*
X135250200Y-101981179D01*
X135655761Y-101901175D01*
X136171773Y-101835830D01*
X136769015Y-101786389D01*
X137418264Y-101754099D01*
X138090298Y-101740204D01*
X138755896Y-101745950D01*
X139385834Y-101772582D01*
X139950891Y-101821346D01*
X140189193Y-101852783D01*
X140554658Y-101904423D01*
X140834762Y-101949352D01*
X141040766Y-102008847D01*
X141183929Y-102104182D01*
X141275512Y-102256632D01*
X141326775Y-102487471D01*
X141348977Y-102817975D01*
X141353378Y-103269418D01*
X141353378Y-103269418D01*
X141353378Y-103269418D01*
G37*
X141353378Y-103269418D02*
X141351238Y-103863076D01*
X141351000Y-104047945D01*
X141349032Y-104688217D01*
X141342365Y-105178453D01*
X141329856Y-105537914D01*
X141310361Y-105785861D01*
X141282735Y-105941554D01*
X141245835Y-106024252D01*
X141232831Y-106037670D01*
X141065596Y-106109142D01*
X140927667Y-106139474D01*
X140927667Y-105685748D01*
X140927667Y-104092371D01*
X140923611Y-103571909D01*
X140912250Y-103122332D01*
X140894795Y-102768665D01*
X140872453Y-102535937D01*
X140848275Y-102449926D01*
X140736827Y-102419092D01*
X140494552Y-102372619D01*
X140158493Y-102317095D01*
X139811108Y-102265485D01*
X139182640Y-102203536D01*
X138455051Y-102175245D01*
X137685137Y-102179497D01*
X136929692Y-102215179D01*
X136245514Y-102281176D01*
X135847667Y-102343237D01*
X135297333Y-102447859D01*
X135274366Y-104069143D01*
X135251399Y-105690426D01*
X135824699Y-105781198D01*
X136160613Y-105833928D01*
X136465424Y-105881002D01*
X136652000Y-105909091D01*
X136892169Y-105926739D01*
X137263525Y-105933161D01*
X137728383Y-105929617D01*
X138249057Y-105917364D01*
X138787862Y-105897660D01*
X139307112Y-105871761D01*
X139769122Y-105840926D01*
X140136206Y-105806412D01*
X140271500Y-105788306D01*
X140927667Y-105685748D01*
X140927667Y-106139474D01*
X140756275Y-106177166D01*
X140332113Y-106239037D01*
X139820356Y-106292051D01*
X139248249Y-106333504D01*
X138643039Y-106360692D01*
X138031969Y-106370910D01*
X137879667Y-106370483D01*
X137394669Y-106365260D01*
X136955889Y-106357201D01*
X136597154Y-106347183D01*
X136352292Y-106336080D01*
X136271000Y-106328816D01*
X135764428Y-106245236D01*
X135356639Y-106162708D01*
X135071462Y-106086632D01*
X134937500Y-106026674D01*
X134900465Y-105948849D01*
X134872306Y-105773790D01*
X134852198Y-105486075D01*
X134839317Y-105070284D01*
X134832837Y-104510996D01*
X134831667Y-104047945D01*
X134832618Y-103431599D01*
X134836577Y-102963164D01*
X134845200Y-102621224D01*
X134860144Y-102384362D01*
X134883066Y-102231160D01*
X134915622Y-102140203D01*
X134959468Y-102090073D01*
X134984312Y-102074597D01*
X135250200Y-101981179D01*
X135655761Y-101901175D01*
X136171773Y-101835830D01*
X136769015Y-101786389D01*
X137418264Y-101754099D01*
X138090298Y-101740204D01*
X138755896Y-101745950D01*
X139385834Y-101772582D01*
X139950891Y-101821346D01*
X140189193Y-101852783D01*
X140554658Y-101904423D01*
X140834762Y-101949352D01*
X141040766Y-102008847D01*
X141183929Y-102104182D01*
X141275512Y-102256632D01*
X141326775Y-102487471D01*
X141348977Y-102817975D01*
X141353378Y-103269418D01*
X141353378Y-103269418D01*
G36*
X138391670Y-104414396D02*
X138344189Y-104797950D01*
X138179447Y-105147481D01*
X137905161Y-105416811D01*
X137763903Y-105490168D01*
X137575567Y-105540105D01*
X137304715Y-105571878D01*
X136915911Y-105590742D01*
X136694333Y-105596393D01*
X136297939Y-105600691D01*
X135959647Y-105596729D01*
X135717870Y-105585450D01*
X135614833Y-105569953D01*
X135525971Y-105452885D01*
X135517884Y-105274760D01*
X135585694Y-105120596D01*
X135642925Y-105080391D01*
X135781727Y-105058378D01*
X136045799Y-105041077D01*
X136391093Y-105030813D01*
X136616591Y-105029000D01*
X137098135Y-105013429D01*
X137434671Y-104959481D01*
X137648272Y-104856299D01*
X137761013Y-104693028D01*
X137794967Y-104458811D01*
X137795000Y-104449455D01*
X137728502Y-104185492D01*
X137523858Y-103998644D01*
X137173342Y-103883320D01*
X136971924Y-103853904D01*
X136696361Y-103818063D01*
X136549693Y-103772056D01*
X136491873Y-103694255D01*
X136482667Y-103589666D01*
X136493631Y-103475268D01*
X136551964Y-103408955D01*
X136695824Y-103374166D01*
X136963369Y-103354341D01*
X137033000Y-103350817D01*
X137449280Y-103354844D01*
X137748980Y-103419245D01*
X137843279Y-103461786D01*
X138139942Y-103706094D01*
X138323163Y-104037037D01*
X138391670Y-104414396D01*
X138391670Y-104414396D01*
X138391670Y-104414396D01*
G37*
X138391670Y-104414396D02*
X138344189Y-104797950D01*
X138179447Y-105147481D01*
X137905161Y-105416811D01*
X137763903Y-105490168D01*
X137575567Y-105540105D01*
X137304715Y-105571878D01*
X136915911Y-105590742D01*
X136694333Y-105596393D01*
X136297939Y-105600691D01*
X135959647Y-105596729D01*
X135717870Y-105585450D01*
X135614833Y-105569953D01*
X135525971Y-105452885D01*
X135517884Y-105274760D01*
X135585694Y-105120596D01*
X135642925Y-105080391D01*
X135781727Y-105058378D01*
X136045799Y-105041077D01*
X136391093Y-105030813D01*
X136616591Y-105029000D01*
X137098135Y-105013429D01*
X137434671Y-104959481D01*
X137648272Y-104856299D01*
X137761013Y-104693028D01*
X137794967Y-104458811D01*
X137795000Y-104449455D01*
X137728502Y-104185492D01*
X137523858Y-103998644D01*
X137173342Y-103883320D01*
X136971924Y-103853904D01*
X136696361Y-103818063D01*
X136549693Y-103772056D01*
X136491873Y-103694255D01*
X136482667Y-103589666D01*
X136493631Y-103475268D01*
X136551964Y-103408955D01*
X136695824Y-103374166D01*
X136963369Y-103354341D01*
X137033000Y-103350817D01*
X137449280Y-103354844D01*
X137748980Y-103419245D01*
X137843279Y-103461786D01*
X138139942Y-103706094D01*
X138323163Y-104037037D01*
X138391670Y-104414396D01*
X138391670Y-104414396D01*
G36*
X140588068Y-104505399D02*
X140568138Y-105028157D01*
X140507339Y-105391069D01*
X140406294Y-105592846D01*
X140265624Y-105632203D01*
X140097933Y-105520066D01*
X140044682Y-105374488D01*
X140010686Y-105067882D01*
X139996676Y-104607537D01*
X139996333Y-104508050D01*
X139987764Y-104110735D01*
X139964630Y-103758407D01*
X139930790Y-103496877D01*
X139902241Y-103391124D01*
X139758675Y-103221654D01*
X139524328Y-103074565D01*
X139478908Y-103055284D01*
X139257838Y-102944786D01*
X139163007Y-102818972D01*
X139149667Y-102713685D01*
X139213639Y-102537243D01*
X139381569Y-102453667D01*
X139617475Y-102460481D01*
X139885374Y-102555205D01*
X140149284Y-102735361D01*
X140203278Y-102786255D01*
X140354560Y-102962985D01*
X140461216Y-103162797D01*
X140530517Y-103418186D01*
X140569737Y-103761649D01*
X140586149Y-104225682D01*
X140588068Y-104505399D01*
X140588068Y-104505399D01*
X140588068Y-104505399D01*
G37*
X140588068Y-104505399D02*
X140568138Y-105028157D01*
X140507339Y-105391069D01*
X140406294Y-105592846D01*
X140265624Y-105632203D01*
X140097933Y-105520066D01*
X140044682Y-105374488D01*
X140010686Y-105067882D01*
X139996676Y-104607537D01*
X139996333Y-104508050D01*
X139987764Y-104110735D01*
X139964630Y-103758407D01*
X139930790Y-103496877D01*
X139902241Y-103391124D01*
X139758675Y-103221654D01*
X139524328Y-103074565D01*
X139478908Y-103055284D01*
X139257838Y-102944786D01*
X139163007Y-102818972D01*
X139149667Y-102713685D01*
X139213639Y-102537243D01*
X139381569Y-102453667D01*
X139617475Y-102460481D01*
X139885374Y-102555205D01*
X140149284Y-102735361D01*
X140203278Y-102786255D01*
X140354560Y-102962985D01*
X140461216Y-103162797D01*
X140530517Y-103418186D01*
X140569737Y-103761649D01*
X140586149Y-104225682D01*
X140588068Y-104505399D01*
X140588068Y-104505399D01*
G36*
X139244199Y-104139520D02*
X139220174Y-104436519D01*
X139168217Y-104646327D01*
X139107333Y-104720951D01*
X138915305Y-104751023D01*
X138794857Y-104654621D01*
X138736111Y-104417874D01*
X138726333Y-104185909D01*
X138691254Y-103690412D01*
X138583985Y-103340937D01*
X138401479Y-103128931D01*
X138337135Y-103093336D01*
X138159694Y-103050401D01*
X137864586Y-103017319D01*
X137503408Y-102999058D01*
X137336767Y-102997000D01*
X136945142Y-103002548D01*
X136680346Y-103024080D01*
X136500098Y-103068927D01*
X136362114Y-103144422D01*
X136324751Y-103172478D01*
X136145754Y-103401739D01*
X136108202Y-103664950D01*
X136215386Y-103911950D01*
X136272312Y-103971854D01*
X136495206Y-104086454D01*
X136844642Y-104157508D01*
X136928479Y-104165644D01*
X137292848Y-104222077D01*
X137493648Y-104319606D01*
X137531808Y-104459155D01*
X137408257Y-104641647D01*
X137407952Y-104641952D01*
X137210853Y-104739949D01*
X136888223Y-104757715D01*
X136428121Y-104695860D01*
X136411751Y-104692719D01*
X136032002Y-104546080D01*
X135753556Y-104294501D01*
X135580496Y-103971686D01*
X135516901Y-103611335D01*
X135566854Y-103247151D01*
X135734435Y-102912837D01*
X136023726Y-102642094D01*
X136154528Y-102568569D01*
X136337860Y-102489187D01*
X136521289Y-102438824D01*
X136746337Y-102412875D01*
X137054528Y-102406734D01*
X137487384Y-102415796D01*
X137522491Y-102416852D01*
X138015486Y-102439266D01*
X138373435Y-102479823D01*
X138630523Y-102550716D01*
X138820932Y-102664137D01*
X138978845Y-102832277D01*
X139076625Y-102971171D01*
X139156505Y-103171154D01*
X139211582Y-103462259D01*
X139241074Y-103799907D01*
X139244199Y-104139520D01*
X139244199Y-104139520D01*
X139244199Y-104139520D01*
G37*
X139244199Y-104139520D02*
X139220174Y-104436519D01*
X139168217Y-104646327D01*
X139107333Y-104720951D01*
X138915305Y-104751023D01*
X138794857Y-104654621D01*
X138736111Y-104417874D01*
X138726333Y-104185909D01*
X138691254Y-103690412D01*
X138583985Y-103340937D01*
X138401479Y-103128931D01*
X138337135Y-103093336D01*
X138159694Y-103050401D01*
X137864586Y-103017319D01*
X137503408Y-102999058D01*
X137336767Y-102997000D01*
X136945142Y-103002548D01*
X136680346Y-103024080D01*
X136500098Y-103068927D01*
X136362114Y-103144422D01*
X136324751Y-103172478D01*
X136145754Y-103401739D01*
X136108202Y-103664950D01*
X136215386Y-103911950D01*
X136272312Y-103971854D01*
X136495206Y-104086454D01*
X136844642Y-104157508D01*
X136928479Y-104165644D01*
X137292848Y-104222077D01*
X137493648Y-104319606D01*
X137531808Y-104459155D01*
X137408257Y-104641647D01*
X137407952Y-104641952D01*
X137210853Y-104739949D01*
X136888223Y-104757715D01*
X136428121Y-104695860D01*
X136411751Y-104692719D01*
X136032002Y-104546080D01*
X135753556Y-104294501D01*
X135580496Y-103971686D01*
X135516901Y-103611335D01*
X135566854Y-103247151D01*
X135734435Y-102912837D01*
X136023726Y-102642094D01*
X136154528Y-102568569D01*
X136337860Y-102489187D01*
X136521289Y-102438824D01*
X136746337Y-102412875D01*
X137054528Y-102406734D01*
X137487384Y-102415796D01*
X137522491Y-102416852D01*
X138015486Y-102439266D01*
X138373435Y-102479823D01*
X138630523Y-102550716D01*
X138820932Y-102664137D01*
X138978845Y-102832277D01*
X139076625Y-102971171D01*
X139156505Y-103171154D01*
X139211582Y-103462259D01*
X139241074Y-103799907D01*
X139244199Y-104139520D01*
X139244199Y-104139520D01*
D12*
X134850000Y-89822000D02*
X146250000Y-89822000D01*
X146250000Y-84622000D02*
X146250000Y-89822000D01*
X134850000Y-84622000D02*
X146250000Y-84622000D01*
X134850000Y-84622000D02*
X134850000Y-89822000D01*
D11*
X144072429Y-95056477D02*
X144096619Y-95080667D01*
X144120810Y-95153239D01*
X144120810Y-95201620D01*
X144096619Y-95274191D01*
X144048238Y-95322572D01*
X143999857Y-95346763D01*
X143903095Y-95370953D01*
X143830524Y-95370953D01*
X143733762Y-95346763D01*
X143685381Y-95322572D01*
X143637000Y-95274191D01*
X143612810Y-95201620D01*
X143612810Y-95153239D01*
X143637000Y-95080667D01*
X143661190Y-95056477D01*
X144120810Y-94572667D02*
X144120810Y-94862953D01*
X144120810Y-94717810D02*
X143612810Y-94717810D01*
X143685381Y-94766191D01*
X143733762Y-94814572D01*
X143757952Y-94862953D01*
X143612810Y-94258191D02*
X143612810Y-94209810D01*
X143637000Y-94161429D01*
X143661190Y-94137238D01*
X143709571Y-94113048D01*
X143806333Y-94088857D01*
X143927286Y-94088857D01*
X144024048Y-94113048D01*
X144072429Y-94137238D01*
X144096619Y-94161429D01*
X144120810Y-94209810D01*
X144120810Y-94258191D01*
X144096619Y-94306572D01*
X144072429Y-94330762D01*
X144024048Y-94354953D01*
X143927286Y-94379143D01*
X143806333Y-94379143D01*
X143709571Y-94354953D01*
X143661190Y-94330762D01*
X143637000Y-94306572D01*
X143612810Y-94258191D01*
X144120810Y-93605047D02*
X144120810Y-93895333D01*
X144120810Y-93750190D02*
X143612810Y-93750190D01*
X143685381Y-93798571D01*
X143733762Y-93846952D01*
X143757952Y-93895333D01*
X148402523Y-98606429D02*
X148378333Y-98630619D01*
X148305761Y-98654810D01*
X148257380Y-98654810D01*
X148184809Y-98630619D01*
X148136428Y-98582238D01*
X148112237Y-98533857D01*
X148088047Y-98437095D01*
X148088047Y-98364524D01*
X148112237Y-98267762D01*
X148136428Y-98219381D01*
X148184809Y-98171000D01*
X148257380Y-98146810D01*
X148305761Y-98146810D01*
X148378333Y-98171000D01*
X148402523Y-98195190D01*
X148886333Y-98654810D02*
X148596047Y-98654810D01*
X148741190Y-98654810D02*
X148741190Y-98146810D01*
X148692809Y-98219381D01*
X148644428Y-98267762D01*
X148596047Y-98291952D01*
X149200809Y-98146810D02*
X149249190Y-98146810D01*
X149297571Y-98171000D01*
X149321762Y-98195190D01*
X149345952Y-98243571D01*
X149370143Y-98340333D01*
X149370143Y-98461286D01*
X149345952Y-98558048D01*
X149321762Y-98606429D01*
X149297571Y-98630619D01*
X149249190Y-98654810D01*
X149200809Y-98654810D01*
X149152428Y-98630619D01*
X149128238Y-98606429D01*
X149104047Y-98558048D01*
X149079857Y-98461286D01*
X149079857Y-98340333D01*
X149104047Y-98243571D01*
X149128238Y-98195190D01*
X149152428Y-98171000D01*
X149200809Y-98146810D01*
X149539476Y-98146810D02*
X149853953Y-98146810D01*
X149684619Y-98340333D01*
X149757191Y-98340333D01*
X149805572Y-98364524D01*
X149829762Y-98388714D01*
X149853953Y-98437095D01*
X149853953Y-98558048D01*
X149829762Y-98606429D01*
X149805572Y-98630619D01*
X149757191Y-98654810D01*
X149612048Y-98654810D01*
X149563667Y-98630619D01*
X149539476Y-98606429D01*
X143667237Y-98654810D02*
X143667237Y-98146810D01*
X143788190Y-98146810D01*
X143860761Y-98171000D01*
X143909142Y-98219381D01*
X143933333Y-98267762D01*
X143957523Y-98364524D01*
X143957523Y-98437095D01*
X143933333Y-98533857D01*
X143909142Y-98582238D01*
X143860761Y-98630619D01*
X143788190Y-98654810D01*
X143667237Y-98654810D01*
X144441333Y-98654810D02*
X144151047Y-98654810D01*
X144296190Y-98654810D02*
X144296190Y-98146810D01*
X144247809Y-98219381D01*
X144199428Y-98267762D01*
X144151047Y-98291952D01*
X144755809Y-98146810D02*
X144804190Y-98146810D01*
X144852571Y-98171000D01*
X144876762Y-98195190D01*
X144900952Y-98243571D01*
X144925143Y-98340333D01*
X144925143Y-98461286D01*
X144900952Y-98558048D01*
X144876762Y-98606429D01*
X144852571Y-98630619D01*
X144804190Y-98654810D01*
X144755809Y-98654810D01*
X144707428Y-98630619D01*
X144683238Y-98606429D01*
X144659047Y-98558048D01*
X144634857Y-98461286D01*
X144634857Y-98340333D01*
X144659047Y-98243571D01*
X144683238Y-98195190D01*
X144707428Y-98171000D01*
X144755809Y-98146810D01*
X145408953Y-98654810D02*
X145118667Y-98654810D01*
X145263810Y-98654810D02*
X145263810Y-98146810D01*
X145215429Y-98219381D01*
X145167048Y-98267762D01*
X145118667Y-98291952D01*
X167240856Y-90780810D02*
X167240856Y-91143667D01*
X167216666Y-91216238D01*
X167168285Y-91264619D01*
X167095713Y-91288810D01*
X167047332Y-91288810D01*
X167748857Y-91288810D02*
X167458571Y-91288810D01*
X167603714Y-91288810D02*
X167603714Y-90780810D01*
X167555333Y-90853381D01*
X167506952Y-90901762D01*
X167458571Y-90925952D01*
X168063333Y-90780810D02*
X168111714Y-90780810D01*
X168160095Y-90805000D01*
X168184286Y-90829190D01*
X168208476Y-90877571D01*
X168232667Y-90974333D01*
X168232667Y-91095286D01*
X168208476Y-91192048D01*
X168184286Y-91240429D01*
X168160095Y-91264619D01*
X168111714Y-91288810D01*
X168063333Y-91288810D01*
X168014952Y-91264619D01*
X167990762Y-91240429D01*
X167966571Y-91192048D01*
X167942381Y-91095286D01*
X167942381Y-90974333D01*
X167966571Y-90877571D01*
X167990762Y-90829190D01*
X168014952Y-90805000D01*
X168063333Y-90780810D01*
X168426191Y-90829190D02*
X168450381Y-90805000D01*
X168498762Y-90780810D01*
X168619715Y-90780810D01*
X168668096Y-90805000D01*
X168692286Y-90829190D01*
X168716477Y-90877571D01*
X168716477Y-90925952D01*
X168692286Y-90998524D01*
X168402000Y-91288810D01*
X168716477Y-91288810D01*
X167240856Y-102210810D02*
X167240856Y-102573667D01*
X167216666Y-102646238D01*
X167168285Y-102694619D01*
X167095713Y-102718810D01*
X167047332Y-102718810D01*
X167748857Y-102718810D02*
X167458571Y-102718810D01*
X167603714Y-102718810D02*
X167603714Y-102210810D01*
X167555333Y-102283381D01*
X167506952Y-102331762D01*
X167458571Y-102355952D01*
X168063333Y-102210810D02*
X168111714Y-102210810D01*
X168160095Y-102235000D01*
X168184286Y-102259190D01*
X168208476Y-102307571D01*
X168232667Y-102404333D01*
X168232667Y-102525286D01*
X168208476Y-102622048D01*
X168184286Y-102670429D01*
X168160095Y-102694619D01*
X168111714Y-102718810D01*
X168063333Y-102718810D01*
X168014952Y-102694619D01*
X167990762Y-102670429D01*
X167966571Y-102622048D01*
X167942381Y-102525286D01*
X167942381Y-102404333D01*
X167966571Y-102307571D01*
X167990762Y-102259190D01*
X168014952Y-102235000D01*
X168063333Y-102210810D01*
X168402000Y-102210810D02*
X168716477Y-102210810D01*
X168547143Y-102404333D01*
X168619715Y-102404333D01*
X168668096Y-102428524D01*
X168692286Y-102452714D01*
X168716477Y-102501095D01*
X168716477Y-102622048D01*
X168692286Y-102670429D01*
X168668096Y-102694619D01*
X168619715Y-102718810D01*
X168474572Y-102718810D01*
X168426191Y-102694619D01*
X168402000Y-102670429D01*
X149073810Y-86759144D02*
X149436667Y-86759144D01*
X149509238Y-86783334D01*
X149557619Y-86831715D01*
X149581810Y-86904287D01*
X149581810Y-86952668D01*
X149581810Y-86251143D02*
X149581810Y-86541429D01*
X149581810Y-86396286D02*
X149073810Y-86396286D01*
X149146381Y-86444667D01*
X149194762Y-86493048D01*
X149218952Y-86541429D01*
X149073810Y-85936667D02*
X149073810Y-85888286D01*
X149098000Y-85839905D01*
X149122190Y-85815714D01*
X149170571Y-85791524D01*
X149267333Y-85767333D01*
X149388286Y-85767333D01*
X149485048Y-85791524D01*
X149533429Y-85815714D01*
X149557619Y-85839905D01*
X149581810Y-85888286D01*
X149581810Y-85936667D01*
X149557619Y-85985048D01*
X149533429Y-86009238D01*
X149485048Y-86033429D01*
X149388286Y-86057619D01*
X149267333Y-86057619D01*
X149170571Y-86033429D01*
X149122190Y-86009238D01*
X149098000Y-85985048D01*
X149073810Y-85936667D01*
X149073810Y-85307714D02*
X149073810Y-85549619D01*
X149315714Y-85573809D01*
X149291524Y-85549619D01*
X149267333Y-85501238D01*
X149267333Y-85380285D01*
X149291524Y-85331904D01*
X149315714Y-85307714D01*
X149364095Y-85283523D01*
X149485048Y-85283523D01*
X149533429Y-85307714D01*
X149557619Y-85331904D01*
X149581810Y-85380285D01*
X149581810Y-85501238D01*
X149557619Y-85549619D01*
X149533429Y-85573809D01*
X157201810Y-105174144D02*
X157564667Y-105174144D01*
X157637238Y-105198334D01*
X157685619Y-105246715D01*
X157709810Y-105319287D01*
X157709810Y-105367668D01*
X157709810Y-104666143D02*
X157709810Y-104956429D01*
X157709810Y-104811286D02*
X157201810Y-104811286D01*
X157274381Y-104859667D01*
X157322762Y-104908048D01*
X157346952Y-104956429D01*
X157201810Y-104351667D02*
X157201810Y-104303286D01*
X157226000Y-104254905D01*
X157250190Y-104230714D01*
X157298571Y-104206524D01*
X157395333Y-104182333D01*
X157516286Y-104182333D01*
X157613048Y-104206524D01*
X157661429Y-104230714D01*
X157685619Y-104254905D01*
X157709810Y-104303286D01*
X157709810Y-104351667D01*
X157685619Y-104400048D01*
X157661429Y-104424238D01*
X157613048Y-104448429D01*
X157516286Y-104472619D01*
X157395333Y-104472619D01*
X157298571Y-104448429D01*
X157250190Y-104424238D01*
X157226000Y-104400048D01*
X157201810Y-104351667D01*
X157201810Y-103746904D02*
X157201810Y-103843666D01*
X157226000Y-103892047D01*
X157250190Y-103916238D01*
X157322762Y-103964619D01*
X157419524Y-103988809D01*
X157613048Y-103988809D01*
X157661429Y-103964619D01*
X157685619Y-103940428D01*
X157709810Y-103892047D01*
X157709810Y-103795285D01*
X157685619Y-103746904D01*
X157661429Y-103722714D01*
X157613048Y-103698523D01*
X157492095Y-103698523D01*
X157443714Y-103722714D01*
X157419524Y-103746904D01*
X157395333Y-103795285D01*
X157395333Y-103892047D01*
X157419524Y-103940428D01*
X157443714Y-103964619D01*
X157492095Y-103988809D01*
X169012810Y-86886144D02*
X169375667Y-86886144D01*
X169448238Y-86910334D01*
X169496619Y-86958715D01*
X169520810Y-87031287D01*
X169520810Y-87079668D01*
X169520810Y-86378143D02*
X169520810Y-86668429D01*
X169520810Y-86523286D02*
X169012810Y-86523286D01*
X169085381Y-86571667D01*
X169133762Y-86620048D01*
X169157952Y-86668429D01*
X169012810Y-86063667D02*
X169012810Y-86015286D01*
X169037000Y-85966905D01*
X169061190Y-85942714D01*
X169109571Y-85918524D01*
X169206333Y-85894333D01*
X169327286Y-85894333D01*
X169424048Y-85918524D01*
X169472429Y-85942714D01*
X169496619Y-85966905D01*
X169520810Y-86015286D01*
X169520810Y-86063667D01*
X169496619Y-86112048D01*
X169472429Y-86136238D01*
X169424048Y-86160429D01*
X169327286Y-86184619D01*
X169206333Y-86184619D01*
X169109571Y-86160429D01*
X169061190Y-86136238D01*
X169037000Y-86112048D01*
X169012810Y-86063667D01*
X169012810Y-85725000D02*
X169012810Y-85386333D01*
X169520810Y-85604047D01*
X162880523Y-89764810D02*
X162711190Y-89522905D01*
X162590237Y-89764810D02*
X162590237Y-89256810D01*
X162783761Y-89256810D01*
X162832142Y-89281000D01*
X162856333Y-89305190D01*
X162880523Y-89353571D01*
X162880523Y-89426143D01*
X162856333Y-89474524D01*
X162832142Y-89498714D01*
X162783761Y-89522905D01*
X162590237Y-89522905D01*
X163364333Y-89764810D02*
X163074047Y-89764810D01*
X163219190Y-89764810D02*
X163219190Y-89256810D01*
X163170809Y-89329381D01*
X163122428Y-89377762D01*
X163074047Y-89401952D01*
X163678809Y-89256810D02*
X163727190Y-89256810D01*
X163775571Y-89281000D01*
X163799762Y-89305190D01*
X163823952Y-89353571D01*
X163848143Y-89450333D01*
X163848143Y-89571286D01*
X163823952Y-89668048D01*
X163799762Y-89716429D01*
X163775571Y-89740619D01*
X163727190Y-89764810D01*
X163678809Y-89764810D01*
X163630428Y-89740619D01*
X163606238Y-89716429D01*
X163582047Y-89668048D01*
X163557857Y-89571286D01*
X163557857Y-89450333D01*
X163582047Y-89353571D01*
X163606238Y-89305190D01*
X163630428Y-89281000D01*
X163678809Y-89256810D01*
X164331953Y-89764810D02*
X164041667Y-89764810D01*
X164186810Y-89764810D02*
X164186810Y-89256810D01*
X164138429Y-89329381D01*
X164090048Y-89377762D01*
X164041667Y-89401952D01*
X149835810Y-95056477D02*
X149593905Y-95225810D01*
X149835810Y-95346763D02*
X149327810Y-95346763D01*
X149327810Y-95153239D01*
X149352000Y-95104858D01*
X149376190Y-95080667D01*
X149424571Y-95056477D01*
X149497143Y-95056477D01*
X149545524Y-95080667D01*
X149569714Y-95104858D01*
X149593905Y-95153239D01*
X149593905Y-95346763D01*
X149835810Y-94572667D02*
X149835810Y-94862953D01*
X149835810Y-94717810D02*
X149327810Y-94717810D01*
X149400381Y-94766191D01*
X149448762Y-94814572D01*
X149472952Y-94862953D01*
X149327810Y-94258191D02*
X149327810Y-94209810D01*
X149352000Y-94161429D01*
X149376190Y-94137238D01*
X149424571Y-94113048D01*
X149521333Y-94088857D01*
X149642286Y-94088857D01*
X149739048Y-94113048D01*
X149787429Y-94137238D01*
X149811619Y-94161429D01*
X149835810Y-94209810D01*
X149835810Y-94258191D01*
X149811619Y-94306572D01*
X149787429Y-94330762D01*
X149739048Y-94354953D01*
X149642286Y-94379143D01*
X149521333Y-94379143D01*
X149424571Y-94354953D01*
X149376190Y-94330762D01*
X149352000Y-94306572D01*
X149327810Y-94258191D01*
X149376190Y-93895333D02*
X149352000Y-93871143D01*
X149327810Y-93822762D01*
X149327810Y-93701809D01*
X149352000Y-93653428D01*
X149376190Y-93629238D01*
X149424571Y-93605047D01*
X149472952Y-93605047D01*
X149545524Y-93629238D01*
X149835810Y-93919524D01*
X149835810Y-93605047D01*
X150089810Y-97898858D02*
X150501048Y-97898858D01*
X150549429Y-97874667D01*
X150573619Y-97850477D01*
X150597810Y-97802096D01*
X150597810Y-97705334D01*
X150573619Y-97656953D01*
X150549429Y-97632762D01*
X150501048Y-97608572D01*
X150089810Y-97608572D01*
X150597810Y-97100572D02*
X150597810Y-97390858D01*
X150597810Y-97245715D02*
X150089810Y-97245715D01*
X150162381Y-97294096D01*
X150210762Y-97342477D01*
X150234952Y-97390858D01*
X150089810Y-96786096D02*
X150089810Y-96737715D01*
X150114000Y-96689334D01*
X150138190Y-96665143D01*
X150186571Y-96640953D01*
X150283333Y-96616762D01*
X150404286Y-96616762D01*
X150501048Y-96640953D01*
X150549429Y-96665143D01*
X150573619Y-96689334D01*
X150597810Y-96737715D01*
X150597810Y-96786096D01*
X150573619Y-96834477D01*
X150549429Y-96858667D01*
X150501048Y-96882858D01*
X150404286Y-96907048D01*
X150283333Y-96907048D01*
X150186571Y-96882858D01*
X150138190Y-96858667D01*
X150114000Y-96834477D01*
X150089810Y-96786096D01*
X150597810Y-96132952D02*
X150597810Y-96423238D01*
X150597810Y-96278095D02*
X150089810Y-96278095D01*
X150162381Y-96326476D01*
X150210762Y-96374857D01*
X150234952Y-96423238D01*
X165970856Y-104369810D02*
X165970856Y-104732667D01*
X165946666Y-104805238D01*
X165898285Y-104853619D01*
X165825713Y-104877810D01*
X165777332Y-104877810D01*
X166478857Y-104877810D02*
X166188571Y-104877810D01*
X166333714Y-104877810D02*
X166333714Y-104369810D01*
X166285333Y-104442381D01*
X166236952Y-104490762D01*
X166188571Y-104514952D01*
X166793333Y-104369810D02*
X166841714Y-104369810D01*
X166890095Y-104394000D01*
X166914286Y-104418190D01*
X166938476Y-104466571D01*
X166962667Y-104563333D01*
X166962667Y-104684286D01*
X166938476Y-104781048D01*
X166914286Y-104829429D01*
X166890095Y-104853619D01*
X166841714Y-104877810D01*
X166793333Y-104877810D01*
X166744952Y-104853619D01*
X166720762Y-104829429D01*
X166696571Y-104781048D01*
X166672381Y-104684286D01*
X166672381Y-104563333D01*
X166696571Y-104466571D01*
X166720762Y-104418190D01*
X166744952Y-104394000D01*
X166793333Y-104369810D01*
X167446477Y-104877810D02*
X167156191Y-104877810D01*
X167301334Y-104877810D02*
X167301334Y-104369810D01*
X167252953Y-104442381D01*
X167204572Y-104490762D01*
X167156191Y-104514952D01*
X146406810Y-89934144D02*
X146769667Y-89934144D01*
X146842238Y-89958334D01*
X146890619Y-90006715D01*
X146914810Y-90079287D01*
X146914810Y-90127668D01*
X146914810Y-89426143D02*
X146914810Y-89716429D01*
X146914810Y-89571286D02*
X146406810Y-89571286D01*
X146479381Y-89619667D01*
X146527762Y-89668048D01*
X146551952Y-89716429D01*
X146406810Y-89111667D02*
X146406810Y-89063286D01*
X146431000Y-89014905D01*
X146455190Y-88990714D01*
X146503571Y-88966524D01*
X146600333Y-88942333D01*
X146721286Y-88942333D01*
X146818048Y-88966524D01*
X146866429Y-88990714D01*
X146890619Y-89014905D01*
X146914810Y-89063286D01*
X146914810Y-89111667D01*
X146890619Y-89160048D01*
X146866429Y-89184238D01*
X146818048Y-89208429D01*
X146721286Y-89232619D01*
X146600333Y-89232619D01*
X146503571Y-89208429D01*
X146455190Y-89184238D01*
X146431000Y-89160048D01*
X146406810Y-89111667D01*
X146576143Y-88506904D02*
X146914810Y-88506904D01*
X146382619Y-88627857D02*
X146745476Y-88748809D01*
X146745476Y-88434333D01*
M02*
