G04 #@! TF.FileFunction,Copper,L1,Top,Signal*
%FSLAX46Y46*%
G04 Gerber Fmt 4.6, Leading zero omitted, Abs format (unit mm)*
G04 Created by KiCad (PCBNEW 4.0.7) date 01/22/18 19:47:42*
%MOMM*%
%LPD*%
G01*
G04 APERTURE LIST*
%ADD10C,0.100000*%
%ADD11C,0.508000*%
%ADD12R,2.400000X2.400000*%
%ADD13O,2.400000X2.400000*%
%ADD14R,1.700000X1.700000*%
%ADD15O,1.700000X1.700000*%
%ADD16R,1.300000X1.500000*%
%ADD17R,1.500000X1.250000*%
%ADD18R,1.100000X1.100000*%
%ADD19C,0.863600*%
%ADD20C,2.500000*%
%ADD21R,0.600000X1.500000*%
%ADD22R,0.508000X1.143000*%
%ADD23C,0.685800*%
%ADD24C,1.219200*%
%ADD25C,0.152400*%
%ADD26C,0.304800*%
%ADD27C,0.609600*%
%ADD28C,0.254000*%
G04 APERTURE END LIST*
D10*
D11*
X135737600Y-74574400D03*
X154952700Y-59601100D03*
X143903700Y-61582300D03*
X173139100Y-78193900D03*
X170599100Y-78193900D03*
X168059100Y-78193900D03*
X165519100Y-78193900D03*
X162979100Y-78193900D03*
X160439100Y-78193900D03*
X157899100Y-78193900D03*
X155359100Y-78193900D03*
X152819100Y-78193900D03*
X150279100Y-78193900D03*
X147739100Y-78193900D03*
X145199100Y-78193900D03*
X142659100Y-78193900D03*
X140131800Y-78536800D03*
X137591800Y-78536800D03*
X135039100Y-78193900D03*
X132499100Y-78193900D03*
X129959100Y-78193900D03*
X127419100Y-78193900D03*
X173139100Y-75653900D03*
X170611800Y-74942700D03*
X168071800Y-74942700D03*
X165531800Y-74942700D03*
X162991800Y-74942700D03*
X160451800Y-74942700D03*
X157911800Y-74942700D03*
X155371800Y-74942700D03*
X152831800Y-74942700D03*
X150291800Y-74942700D03*
X147751800Y-74942700D03*
X145211800Y-74942700D03*
X140893800Y-76403200D03*
X140576300Y-74523600D03*
X135991600Y-72402700D03*
X132499100Y-75653900D03*
X129959100Y-75653900D03*
X127419100Y-75653900D03*
X173139100Y-73113900D03*
X170599100Y-73113900D03*
X168059100Y-73113900D03*
X142633700Y-72377300D03*
X140119100Y-73113900D03*
X137363200Y-74587100D03*
X132499100Y-73113900D03*
X129959100Y-73113900D03*
X127419100Y-73113900D03*
X173139100Y-70573900D03*
X170599100Y-70573900D03*
X168059100Y-70573900D03*
X165519100Y-70573900D03*
X162979100Y-70573900D03*
X160439100Y-70573900D03*
X157899100Y-70573900D03*
X155359100Y-70573900D03*
X152819100Y-70573900D03*
X150279100Y-70573900D03*
X147739100Y-70573900D03*
X145199100Y-70573900D03*
X140119100Y-70573900D03*
X137579100Y-70573900D03*
X132499100Y-70573900D03*
X129959100Y-70573900D03*
X127419100Y-70573900D03*
X173139100Y-68033900D03*
X170599100Y-68033900D03*
X168046400Y-69253100D03*
X165506400Y-69253100D03*
X162966400Y-69253100D03*
X160426400Y-69253100D03*
X157886400Y-69253100D03*
X155346400Y-69253100D03*
X152806400Y-69253100D03*
X150266400Y-69253100D03*
X147726400Y-69253100D03*
X143827500Y-69240400D03*
X142659100Y-68033900D03*
X137579100Y-68033900D03*
X135877300Y-68605400D03*
X132499100Y-68033900D03*
X173139100Y-65493900D03*
X170599100Y-65493900D03*
X168059100Y-65493900D03*
X165519100Y-65493900D03*
X162458400Y-65963800D03*
X160147000Y-65938400D03*
X157365700Y-65468500D03*
X154622500Y-64922400D03*
X152819100Y-65493900D03*
X149885400Y-66230500D03*
X140119100Y-65493900D03*
X135039100Y-65493900D03*
X173139100Y-62953900D03*
X170599100Y-62953900D03*
X168059100Y-62953900D03*
X165519100Y-62953900D03*
X162979100Y-62953900D03*
X161264600Y-62090300D03*
X157873700Y-62293500D03*
X155625800Y-61391800D03*
X153136600Y-63220600D03*
X146380200Y-62890400D03*
X142659100Y-62953900D03*
X140119100Y-62953900D03*
X136931400Y-63411100D03*
X132499100Y-62953900D03*
X129959100Y-62953900D03*
X127419100Y-62953900D03*
X173139100Y-60413900D03*
X170599100Y-60413900D03*
X168059100Y-60413900D03*
X166281100Y-60413900D03*
X163626800Y-60147200D03*
X160299400Y-60032900D03*
X150914100Y-59778900D03*
X148856700Y-60413900D03*
X145199100Y-60413900D03*
X142659100Y-60413900D03*
X135039100Y-60413900D03*
X132499100Y-60413900D03*
X129959100Y-60413900D03*
X127419100Y-60413900D03*
X173139100Y-57873900D03*
X170599100Y-57873900D03*
X168440100Y-57886600D03*
X165519100Y-57873900D03*
X160121600Y-57581800D03*
X154978100Y-58140600D03*
X152019000Y-58445400D03*
X150787100Y-57086500D03*
X147916900Y-56845200D03*
X144983200Y-56870600D03*
X142455900Y-56857900D03*
X140119100Y-57873900D03*
X137579100Y-57873900D03*
X135039100Y-57873900D03*
X132499100Y-57873900D03*
X129959100Y-57873900D03*
X127419100Y-57873900D03*
X173139100Y-55333900D03*
X168059100Y-55333900D03*
X165519100Y-55333900D03*
X162979100Y-55333900D03*
X159524700Y-56070500D03*
X156324300Y-56769000D03*
X155295600Y-54889400D03*
X153466800Y-56705500D03*
X149542500Y-55714900D03*
X147739100Y-55333900D03*
X144983200Y-55206900D03*
X142659100Y-55333900D03*
X140119100Y-55333900D03*
X154647900Y-52108100D03*
X157429200Y-52641500D03*
X132499100Y-55333900D03*
X129959100Y-55333900D03*
X127419100Y-55333900D03*
X173139100Y-52793900D03*
X170599100Y-52793900D03*
X168059100Y-52793900D03*
X162979100Y-52793900D03*
X159969200Y-54292500D03*
X129959100Y-52793900D03*
X127419100Y-52793900D03*
X173139100Y-50253900D03*
X170599100Y-50253900D03*
X168059100Y-50253900D03*
X165519100Y-50253900D03*
X162979100Y-50253900D03*
X160439100Y-50253900D03*
X158089600Y-49936400D03*
X155371800Y-49936400D03*
X152831800Y-49923700D03*
X150139400Y-49923700D03*
X147739100Y-50253900D03*
X145199100Y-50253900D03*
X142659100Y-50253900D03*
X140119100Y-50253900D03*
X137579100Y-50253900D03*
X135039100Y-50253900D03*
X132499100Y-50253900D03*
X129959100Y-50253900D03*
D12*
X128950000Y-66850000D03*
D13*
X128950000Y-61850000D03*
D14*
X143450000Y-53350000D03*
D15*
X145990000Y-53350000D03*
X148530000Y-53350000D03*
X151070000Y-53350000D03*
X153610000Y-53350000D03*
X156150000Y-53350000D03*
X158690000Y-53350000D03*
D16*
X154070000Y-68050000D03*
X154070000Y-70750000D03*
X159170000Y-68050000D03*
X159170000Y-70750000D03*
D17*
X137000000Y-66850000D03*
X139500000Y-66850000D03*
X160802000Y-56489600D03*
X163302000Y-56489600D03*
D18*
X134650000Y-66750000D03*
X131850000Y-66750000D03*
D19*
X138670000Y-75219000D03*
X138670000Y-73949000D03*
X139940000Y-73949000D03*
X139940000Y-75219000D03*
X141210000Y-75219000D03*
X141210000Y-73949000D03*
D20*
X136350000Y-54800000D03*
X138850000Y-52100000D03*
X133850000Y-52100000D03*
D14*
X164250000Y-53350000D03*
D15*
X166790000Y-53350000D03*
X169330000Y-53350000D03*
X171870000Y-53350000D03*
D14*
X169320000Y-73710000D03*
D15*
X169320000Y-76250000D03*
X166780000Y-73710000D03*
X166780000Y-76250000D03*
X164240000Y-73710000D03*
X164240000Y-76250000D03*
X161700000Y-73710000D03*
X161700000Y-76250000D03*
X159160000Y-73710000D03*
X159160000Y-76250000D03*
X156620000Y-73710000D03*
X156620000Y-76250000D03*
X154080000Y-73710000D03*
X154080000Y-76250000D03*
X151540000Y-73710000D03*
X151540000Y-76250000D03*
X149000000Y-73710000D03*
X149000000Y-76250000D03*
X146460000Y-73710000D03*
X146460000Y-76250000D03*
D16*
X137000000Y-62050000D03*
X137000000Y-64750000D03*
X169320000Y-68040000D03*
X169320000Y-70740000D03*
X166800000Y-68030000D03*
X166800000Y-70730000D03*
X164280000Y-68030000D03*
X164280000Y-70730000D03*
X161720000Y-68050000D03*
X161720000Y-70750000D03*
X156620000Y-68050000D03*
X156620000Y-70750000D03*
X151550000Y-68040000D03*
X151550000Y-70740000D03*
X149000000Y-68040000D03*
X149000000Y-70740000D03*
X146450000Y-68050000D03*
X146450000Y-70750000D03*
D21*
X155735000Y-64240000D03*
X157005000Y-64240000D03*
X158275000Y-64240000D03*
X159545000Y-64240000D03*
X160815000Y-64240000D03*
X162085000Y-64240000D03*
X163355000Y-64240000D03*
X164625000Y-64240000D03*
X164625000Y-58840000D03*
X163355000Y-58840000D03*
X162085000Y-58840000D03*
X160815000Y-58840000D03*
X159545000Y-58840000D03*
X158275000Y-58840000D03*
X157005000Y-58840000D03*
X155735000Y-58840000D03*
D22*
X143129000Y-64871600D03*
X144399000Y-64871600D03*
X145669000Y-64871600D03*
X146939000Y-64871600D03*
X148209000Y-64871600D03*
X149479000Y-64871600D03*
X150749000Y-64871600D03*
X150749000Y-58521600D03*
X149479000Y-58521600D03*
X146939000Y-58521600D03*
X145669000Y-58521600D03*
X144399000Y-58521600D03*
X143129000Y-58521600D03*
X148209000Y-58521600D03*
D11*
X127419100Y-50253900D03*
D23*
X154254200Y-58801000D03*
X143497300Y-63614300D03*
X159042100Y-55346600D03*
X159181800Y-51473100D03*
X160223200Y-52108100D03*
X157138620Y-56060254D03*
X158093987Y-55486475D03*
X158254700Y-60121800D03*
X166801800Y-66484500D03*
X157784800Y-66294000D03*
X154305000Y-66294000D03*
D24*
X128950000Y-66850000D02*
X131750000Y-66850000D01*
X131750000Y-66850000D02*
X131850000Y-66750000D01*
D25*
X157447618Y-60744100D02*
X161900900Y-60744100D01*
X161900900Y-60744100D02*
X163355000Y-59290000D01*
X163355000Y-59290000D02*
X163355000Y-58840000D01*
X155735000Y-59031482D02*
X157447618Y-60744100D01*
X155735000Y-58840000D02*
X155735000Y-59031482D01*
D26*
X154254200Y-58801000D02*
X155696000Y-58801000D01*
X155696000Y-58801000D02*
X155735000Y-58840000D01*
X155793811Y-58898811D02*
X155793811Y-59039957D01*
X155735000Y-58840000D02*
X155793811Y-58898811D01*
X143129000Y-64871600D02*
X143129000Y-63982600D01*
X143129000Y-63982600D02*
X143497300Y-63614300D01*
X138984411Y-77444589D02*
X140778201Y-75650799D01*
X140778201Y-75650799D02*
X141210000Y-75219000D01*
X136403419Y-77444589D02*
X138984411Y-77444589D01*
X134645400Y-75686570D02*
X136403419Y-77444589D01*
X134645400Y-67609400D02*
X134645400Y-75686570D01*
X134650000Y-67604800D02*
X134645400Y-67609400D01*
X134650000Y-66750000D02*
X134650000Y-67604800D01*
D27*
X137000000Y-64750000D02*
X143007400Y-64750000D01*
X143007400Y-64750000D02*
X143129000Y-64871600D01*
D24*
X137000000Y-66850000D02*
X137000000Y-64750000D01*
X134650000Y-66750000D02*
X136900000Y-66750000D01*
X136900000Y-66750000D02*
X137000000Y-66850000D01*
D25*
X159042100Y-55346600D02*
X160436400Y-55346600D01*
X160436400Y-55346600D02*
X160802000Y-55712200D01*
X160802000Y-55712200D02*
X160802000Y-56489600D01*
D26*
X160820100Y-56471500D02*
X160802000Y-56489600D01*
D25*
X144399000Y-58521600D02*
X144399000Y-54299000D01*
X144399000Y-54299000D02*
X143450000Y-53350000D01*
D26*
X160815000Y-58840000D02*
X160815000Y-56502600D01*
X160815000Y-56502600D02*
X160802000Y-56489600D01*
X137954800Y-62050000D02*
X140225911Y-59778889D01*
X147269211Y-59778889D02*
X148209000Y-58839100D01*
X148209000Y-58839100D02*
X148209000Y-58521600D01*
X137000000Y-62050000D02*
X137954800Y-62050000D01*
X140225911Y-59778889D02*
X147269211Y-59778889D01*
D25*
X137000000Y-62050000D02*
X136197600Y-62050000D01*
X133705600Y-75285600D02*
X136245600Y-77825600D01*
X136197600Y-62050000D02*
X133705600Y-64542000D01*
X136245600Y-77825600D02*
X140366162Y-77825600D01*
X133705600Y-64542000D02*
X133705600Y-75285600D01*
X140366162Y-77825600D02*
X143242001Y-74949761D01*
X143242001Y-74949761D02*
X143242001Y-74218239D01*
X143242001Y-74218239D02*
X142540963Y-73517201D01*
X142540963Y-73517201D02*
X141641799Y-73517201D01*
X141641799Y-73517201D02*
X141210000Y-73949000D01*
D26*
X137000000Y-62050000D02*
X137000000Y-62150000D01*
D25*
X149479000Y-58521600D02*
X149479000Y-56537330D01*
X149479000Y-56537330D02*
X152531399Y-53484931D01*
X152531399Y-53484931D02*
X152531399Y-52832271D01*
X152531399Y-52832271D02*
X153890570Y-51473100D01*
X153890570Y-51473100D02*
X159181800Y-51473100D01*
X150749000Y-58521600D02*
X150749000Y-58204100D01*
X150749000Y-58204100D02*
X155071399Y-53881701D01*
X155071399Y-53881701D02*
X155071399Y-52832271D01*
X155071399Y-52832271D02*
X155795570Y-52108100D01*
X155795570Y-52108100D02*
X160223200Y-52108100D01*
X171020001Y-54249999D02*
X171870000Y-53400000D01*
X162190212Y-61353722D02*
X162431521Y-61112413D01*
X157224511Y-61353722D02*
X162190212Y-61353722D01*
X162431521Y-61112413D02*
X164197554Y-61112413D01*
X164197554Y-61112413D02*
X169634811Y-55675156D01*
X169634811Y-55635189D02*
X171020001Y-54249999D01*
X169634811Y-55675156D02*
X169634811Y-55635189D01*
X150749000Y-64871600D02*
X153706633Y-64871600D01*
X153706633Y-64871600D02*
X157224511Y-61353722D01*
X169330000Y-55548900D02*
X169330000Y-54602081D01*
X162305265Y-60807602D02*
X164071298Y-60807602D01*
X157321362Y-61048911D02*
X162063956Y-61048911D01*
X149479000Y-64871600D02*
X149479000Y-64554100D01*
X153936700Y-60096400D02*
X156368851Y-60096400D01*
X162063956Y-61048911D02*
X162305265Y-60807602D01*
X164071298Y-60807602D02*
X169330000Y-55548900D01*
X156368851Y-60096400D02*
X157321362Y-61048911D01*
X149479000Y-64554100D02*
X153936700Y-60096400D01*
X169330000Y-54602081D02*
X169330000Y-53400000D01*
X158275000Y-58840000D02*
X158275000Y-57196634D01*
X158275000Y-57196634D02*
X157481519Y-56403153D01*
X157481519Y-56403153D02*
X157138620Y-56060254D01*
X146939000Y-58521600D02*
X146939000Y-54941000D01*
X146939000Y-54941000D02*
X148530000Y-53350000D01*
X162085000Y-57937600D02*
X162085000Y-58840000D01*
X162085000Y-55148670D02*
X162085000Y-57937600D01*
X160807402Y-51821078D02*
X160807402Y-53871072D01*
X159494211Y-50507887D02*
X160807402Y-51821078D01*
X148832113Y-50507887D02*
X159494211Y-50507887D01*
X145990000Y-53350000D02*
X148832113Y-50507887D01*
X160807402Y-53871072D02*
X162085000Y-55148670D01*
X145669000Y-58521600D02*
X145669000Y-53671000D01*
X145669000Y-53671000D02*
X145990000Y-53350000D01*
X144399000Y-64147700D02*
X148996399Y-59550301D01*
X150220001Y-54199999D02*
X151070000Y-53350000D01*
X148996399Y-55423601D02*
X150220001Y-54199999D01*
X148996399Y-59550301D02*
X148996399Y-55423601D01*
X144399000Y-64871600D02*
X144399000Y-64147700D01*
X158436886Y-55829374D02*
X158093987Y-55486475D01*
X159545000Y-56937488D02*
X158436886Y-55829374D01*
X159545000Y-58840000D02*
X159545000Y-56937488D01*
X145669000Y-64554100D02*
X150266399Y-59956701D01*
X145669000Y-64871600D02*
X145669000Y-64554100D01*
X152760001Y-54199999D02*
X153610000Y-53350000D01*
X150266399Y-56693601D02*
X152760001Y-54199999D01*
X150266399Y-59956701D02*
X150266399Y-56693601D01*
X146939000Y-64554100D02*
X156999999Y-54493101D01*
X156999999Y-54199999D02*
X156150000Y-53350000D01*
X156999999Y-54493101D02*
X156999999Y-54199999D01*
X146939000Y-64871600D02*
X146939000Y-64554100D01*
X148209000Y-64871600D02*
X148209000Y-63831000D01*
X157840001Y-54199999D02*
X158690000Y-53350000D01*
X148209000Y-63831000D02*
X157840001Y-54199999D01*
D26*
X169320000Y-70740000D02*
X169320000Y-73710000D01*
X164280000Y-70730000D02*
X164280000Y-73670000D01*
X164280000Y-73670000D02*
X164240000Y-73710000D01*
X164240000Y-70770000D02*
X164280000Y-70730000D01*
X159170000Y-70750000D02*
X159170000Y-73700000D01*
X159170000Y-73700000D02*
X159160000Y-73710000D01*
X159160000Y-70760000D02*
X159170000Y-70750000D01*
X154070000Y-70750000D02*
X154070000Y-73700000D01*
X154070000Y-73700000D02*
X154080000Y-73710000D01*
X154080000Y-70760000D02*
X154070000Y-70750000D01*
X149000000Y-70740000D02*
X149000000Y-73710000D01*
D25*
X157005000Y-58840000D02*
X157005000Y-59357033D01*
X157005000Y-59357033D02*
X157769767Y-60121800D01*
X157769767Y-60121800D02*
X158254700Y-60121800D01*
X157005000Y-58840000D02*
X157005000Y-59290000D01*
X166801800Y-66484500D02*
X166801800Y-68028200D01*
X166801800Y-68028200D02*
X166800000Y-68030000D01*
D26*
X166800000Y-68030000D02*
X169310000Y-68030000D01*
X169310000Y-68030000D02*
X169320000Y-68040000D01*
D25*
X161556399Y-63519917D02*
X161556399Y-66983999D01*
X159526666Y-63261399D02*
X161297881Y-63261399D01*
X159104856Y-62839589D02*
X159526666Y-63261399D01*
X161720000Y-67147600D02*
X161720000Y-68050000D01*
X161297881Y-63261399D02*
X161556399Y-63519917D01*
X156185344Y-62839589D02*
X159104856Y-62839589D01*
X155735000Y-63289933D02*
X156185344Y-62839589D01*
X155735000Y-64240000D02*
X155735000Y-63289933D01*
X161556399Y-66983999D02*
X161720000Y-67147600D01*
D26*
X161720000Y-68050000D02*
X164260000Y-68050000D01*
X164260000Y-68050000D02*
X164280000Y-68030000D01*
D25*
X156620000Y-68050000D02*
X156620000Y-64625000D01*
X156620000Y-64625000D02*
X157005000Y-64240000D01*
X157005000Y-67665000D02*
X156620000Y-68050000D01*
D26*
X156620000Y-68050000D02*
X159170000Y-68050000D01*
D25*
X157784800Y-66294000D02*
X158275000Y-65803800D01*
X158275000Y-65803800D02*
X158275000Y-64240000D01*
X154070000Y-66529000D02*
X154305000Y-66294000D01*
X154070000Y-68050000D02*
X154070000Y-66529000D01*
X158275000Y-64240000D02*
X158275000Y-64690000D01*
X158275000Y-64240000D02*
X158275000Y-64647400D01*
D26*
X151550000Y-68040000D02*
X154060000Y-68040000D01*
X154060000Y-68040000D02*
X154070000Y-68050000D01*
D25*
X150781001Y-67061399D02*
X149802400Y-68040000D01*
X152691777Y-67061399D02*
X150781001Y-67061399D01*
X159545000Y-64240000D02*
X159545000Y-63790000D01*
X149802400Y-68040000D02*
X149000000Y-68040000D01*
X154030678Y-65722498D02*
X152691777Y-67061399D01*
X155713984Y-65722498D02*
X154030678Y-65722498D01*
X156263601Y-63519917D02*
X156263601Y-65172881D01*
X156639118Y-63144400D02*
X156263601Y-63519917D01*
X156263601Y-65172881D02*
X155713984Y-65722498D01*
X158899400Y-63144400D02*
X156639118Y-63144400D01*
X159545000Y-63790000D02*
X158899400Y-63144400D01*
D26*
X146450000Y-68050000D02*
X148990000Y-68050000D01*
X148990000Y-68050000D02*
X149000000Y-68040000D01*
D28*
G36*
X173346400Y-80546400D02*
X126953600Y-80546400D01*
X126953600Y-65650000D01*
X127465127Y-65650000D01*
X127465127Y-68050000D01*
X127484609Y-68153539D01*
X127545801Y-68248634D01*
X127639168Y-68312429D01*
X127750000Y-68334873D01*
X130150000Y-68334873D01*
X130253539Y-68315391D01*
X130348634Y-68254199D01*
X130412429Y-68160832D01*
X130434873Y-68050000D01*
X130434873Y-67739000D01*
X131750000Y-67739000D01*
X132090206Y-67671329D01*
X132219596Y-67584873D01*
X132400000Y-67584873D01*
X132503539Y-67565391D01*
X132598634Y-67504199D01*
X132662429Y-67410832D01*
X132684873Y-67300000D01*
X132684873Y-67022116D01*
X132739000Y-66750000D01*
X132684873Y-66477885D01*
X132684873Y-66200000D01*
X132665391Y-66096461D01*
X132604199Y-66001366D01*
X132510832Y-65937571D01*
X132400000Y-65915127D01*
X132122115Y-65915127D01*
X131850000Y-65861000D01*
X131577884Y-65915127D01*
X131300000Y-65915127D01*
X131196461Y-65934609D01*
X131155448Y-65961000D01*
X130434873Y-65961000D01*
X130434873Y-65650000D01*
X130415391Y-65546461D01*
X130354199Y-65451366D01*
X130260832Y-65387571D01*
X130150000Y-65365127D01*
X127750000Y-65365127D01*
X127646461Y-65384609D01*
X127551366Y-65445801D01*
X127487571Y-65539168D01*
X127465127Y-65650000D01*
X126953600Y-65650000D01*
X126953600Y-64542000D01*
X133350000Y-64542000D01*
X133350000Y-75285600D01*
X133377068Y-75421683D01*
X133454153Y-75537047D01*
X135994153Y-78077047D01*
X136109518Y-78154132D01*
X136245600Y-78181200D01*
X140366162Y-78181200D01*
X140502245Y-78154132D01*
X140617609Y-78077047D01*
X142151661Y-76542995D01*
X145421944Y-76542995D01*
X145613086Y-76917939D01*
X145933163Y-77191195D01*
X146167007Y-77288043D01*
X146333000Y-77263524D01*
X146333000Y-76377000D01*
X146587000Y-76377000D01*
X146587000Y-77263524D01*
X146752993Y-77288043D01*
X146986837Y-77191195D01*
X147306914Y-76917939D01*
X147498056Y-76542995D01*
X147961944Y-76542995D01*
X148153086Y-76917939D01*
X148473163Y-77191195D01*
X148707007Y-77288043D01*
X148873000Y-77263524D01*
X148873000Y-76377000D01*
X149127000Y-76377000D01*
X149127000Y-77263524D01*
X149292993Y-77288043D01*
X149526837Y-77191195D01*
X149846914Y-76917939D01*
X150038056Y-76542995D01*
X150501944Y-76542995D01*
X150693086Y-76917939D01*
X151013163Y-77191195D01*
X151247007Y-77288043D01*
X151413000Y-77263524D01*
X151413000Y-76377000D01*
X151667000Y-76377000D01*
X151667000Y-77263524D01*
X151832993Y-77288043D01*
X152066837Y-77191195D01*
X152386914Y-76917939D01*
X152578056Y-76542995D01*
X153041944Y-76542995D01*
X153233086Y-76917939D01*
X153553163Y-77191195D01*
X153787007Y-77288043D01*
X153953000Y-77263524D01*
X153953000Y-76377000D01*
X154207000Y-76377000D01*
X154207000Y-77263524D01*
X154372993Y-77288043D01*
X154606837Y-77191195D01*
X154926914Y-76917939D01*
X155118056Y-76542995D01*
X155581944Y-76542995D01*
X155773086Y-76917939D01*
X156093163Y-77191195D01*
X156327007Y-77288043D01*
X156493000Y-77263524D01*
X156493000Y-76377000D01*
X156747000Y-76377000D01*
X156747000Y-77263524D01*
X156912993Y-77288043D01*
X157146837Y-77191195D01*
X157466914Y-76917939D01*
X157658056Y-76542995D01*
X158121944Y-76542995D01*
X158313086Y-76917939D01*
X158633163Y-77191195D01*
X158867007Y-77288043D01*
X159033000Y-77263524D01*
X159033000Y-76377000D01*
X159287000Y-76377000D01*
X159287000Y-77263524D01*
X159452993Y-77288043D01*
X159686837Y-77191195D01*
X160006914Y-76917939D01*
X160198056Y-76542995D01*
X160661944Y-76542995D01*
X160853086Y-76917939D01*
X161173163Y-77191195D01*
X161407007Y-77288043D01*
X161573000Y-77263524D01*
X161573000Y-76377000D01*
X161827000Y-76377000D01*
X161827000Y-77263524D01*
X161992993Y-77288043D01*
X162226837Y-77191195D01*
X162546914Y-76917939D01*
X162738056Y-76542995D01*
X163201944Y-76542995D01*
X163393086Y-76917939D01*
X163713163Y-77191195D01*
X163947007Y-77288043D01*
X164113000Y-77263524D01*
X164113000Y-76377000D01*
X164367000Y-76377000D01*
X164367000Y-77263524D01*
X164532993Y-77288043D01*
X164766837Y-77191195D01*
X165086914Y-76917939D01*
X165278056Y-76542995D01*
X165741944Y-76542995D01*
X165933086Y-76917939D01*
X166253163Y-77191195D01*
X166487007Y-77288043D01*
X166653000Y-77263524D01*
X166653000Y-76377000D01*
X166907000Y-76377000D01*
X166907000Y-77263524D01*
X167072993Y-77288043D01*
X167306837Y-77191195D01*
X167626914Y-76917939D01*
X167818056Y-76542995D01*
X168281944Y-76542995D01*
X168473086Y-76917939D01*
X168793163Y-77191195D01*
X169027007Y-77288043D01*
X169193000Y-77263524D01*
X169193000Y-76377000D01*
X169447000Y-76377000D01*
X169447000Y-77263524D01*
X169612993Y-77288043D01*
X169846837Y-77191195D01*
X170166914Y-76917939D01*
X170358056Y-76542995D01*
X170333960Y-76377000D01*
X169447000Y-76377000D01*
X169193000Y-76377000D01*
X168306040Y-76377000D01*
X168281944Y-76542995D01*
X167818056Y-76542995D01*
X167793960Y-76377000D01*
X166907000Y-76377000D01*
X166653000Y-76377000D01*
X165766040Y-76377000D01*
X165741944Y-76542995D01*
X165278056Y-76542995D01*
X165253960Y-76377000D01*
X164367000Y-76377000D01*
X164113000Y-76377000D01*
X163226040Y-76377000D01*
X163201944Y-76542995D01*
X162738056Y-76542995D01*
X162713960Y-76377000D01*
X161827000Y-76377000D01*
X161573000Y-76377000D01*
X160686040Y-76377000D01*
X160661944Y-76542995D01*
X160198056Y-76542995D01*
X160173960Y-76377000D01*
X159287000Y-76377000D01*
X159033000Y-76377000D01*
X158146040Y-76377000D01*
X158121944Y-76542995D01*
X157658056Y-76542995D01*
X157633960Y-76377000D01*
X156747000Y-76377000D01*
X156493000Y-76377000D01*
X155606040Y-76377000D01*
X155581944Y-76542995D01*
X155118056Y-76542995D01*
X155093960Y-76377000D01*
X154207000Y-76377000D01*
X153953000Y-76377000D01*
X153066040Y-76377000D01*
X153041944Y-76542995D01*
X152578056Y-76542995D01*
X152553960Y-76377000D01*
X151667000Y-76377000D01*
X151413000Y-76377000D01*
X150526040Y-76377000D01*
X150501944Y-76542995D01*
X150038056Y-76542995D01*
X150013960Y-76377000D01*
X149127000Y-76377000D01*
X148873000Y-76377000D01*
X147986040Y-76377000D01*
X147961944Y-76542995D01*
X147498056Y-76542995D01*
X147473960Y-76377000D01*
X146587000Y-76377000D01*
X146333000Y-76377000D01*
X145446040Y-76377000D01*
X145421944Y-76542995D01*
X142151661Y-76542995D01*
X142737651Y-75957005D01*
X145421944Y-75957005D01*
X145446040Y-76123000D01*
X146333000Y-76123000D01*
X146333000Y-75236476D01*
X146587000Y-75236476D01*
X146587000Y-76123000D01*
X147473960Y-76123000D01*
X147498056Y-75957005D01*
X147961944Y-75957005D01*
X147986040Y-76123000D01*
X148873000Y-76123000D01*
X148873000Y-75236476D01*
X149127000Y-75236476D01*
X149127000Y-76123000D01*
X150013960Y-76123000D01*
X150038056Y-75957005D01*
X150501944Y-75957005D01*
X150526040Y-76123000D01*
X151413000Y-76123000D01*
X151413000Y-75236476D01*
X151667000Y-75236476D01*
X151667000Y-76123000D01*
X152553960Y-76123000D01*
X152578056Y-75957005D01*
X153041944Y-75957005D01*
X153066040Y-76123000D01*
X153953000Y-76123000D01*
X153953000Y-75236476D01*
X154207000Y-75236476D01*
X154207000Y-76123000D01*
X155093960Y-76123000D01*
X155118056Y-75957005D01*
X155581944Y-75957005D01*
X155606040Y-76123000D01*
X156493000Y-76123000D01*
X156493000Y-75236476D01*
X156747000Y-75236476D01*
X156747000Y-76123000D01*
X157633960Y-76123000D01*
X157658056Y-75957005D01*
X158121944Y-75957005D01*
X158146040Y-76123000D01*
X159033000Y-76123000D01*
X159033000Y-75236476D01*
X159287000Y-75236476D01*
X159287000Y-76123000D01*
X160173960Y-76123000D01*
X160198056Y-75957005D01*
X160661944Y-75957005D01*
X160686040Y-76123000D01*
X161573000Y-76123000D01*
X161573000Y-75236476D01*
X161827000Y-75236476D01*
X161827000Y-76123000D01*
X162713960Y-76123000D01*
X162738056Y-75957005D01*
X163201944Y-75957005D01*
X163226040Y-76123000D01*
X164113000Y-76123000D01*
X164113000Y-75236476D01*
X164367000Y-75236476D01*
X164367000Y-76123000D01*
X165253960Y-76123000D01*
X165278056Y-75957005D01*
X165741944Y-75957005D01*
X165766040Y-76123000D01*
X166653000Y-76123000D01*
X166653000Y-75236476D01*
X166907000Y-75236476D01*
X166907000Y-76123000D01*
X167793960Y-76123000D01*
X167818056Y-75957005D01*
X168281944Y-75957005D01*
X168306040Y-76123000D01*
X169193000Y-76123000D01*
X169193000Y-75236476D01*
X169447000Y-75236476D01*
X169447000Y-76123000D01*
X170333960Y-76123000D01*
X170358056Y-75957005D01*
X170166914Y-75582061D01*
X169846837Y-75308805D01*
X169612993Y-75211957D01*
X169447000Y-75236476D01*
X169193000Y-75236476D01*
X169027007Y-75211957D01*
X168793163Y-75308805D01*
X168473086Y-75582061D01*
X168281944Y-75957005D01*
X167818056Y-75957005D01*
X167626914Y-75582061D01*
X167306837Y-75308805D01*
X167072993Y-75211957D01*
X166907000Y-75236476D01*
X166653000Y-75236476D01*
X166487007Y-75211957D01*
X166253163Y-75308805D01*
X165933086Y-75582061D01*
X165741944Y-75957005D01*
X165278056Y-75957005D01*
X165086914Y-75582061D01*
X164766837Y-75308805D01*
X164532993Y-75211957D01*
X164367000Y-75236476D01*
X164113000Y-75236476D01*
X163947007Y-75211957D01*
X163713163Y-75308805D01*
X163393086Y-75582061D01*
X163201944Y-75957005D01*
X162738056Y-75957005D01*
X162546914Y-75582061D01*
X162226837Y-75308805D01*
X161992993Y-75211957D01*
X161827000Y-75236476D01*
X161573000Y-75236476D01*
X161407007Y-75211957D01*
X161173163Y-75308805D01*
X160853086Y-75582061D01*
X160661944Y-75957005D01*
X160198056Y-75957005D01*
X160006914Y-75582061D01*
X159686837Y-75308805D01*
X159452993Y-75211957D01*
X159287000Y-75236476D01*
X159033000Y-75236476D01*
X158867007Y-75211957D01*
X158633163Y-75308805D01*
X158313086Y-75582061D01*
X158121944Y-75957005D01*
X157658056Y-75957005D01*
X157466914Y-75582061D01*
X157146837Y-75308805D01*
X156912993Y-75211957D01*
X156747000Y-75236476D01*
X156493000Y-75236476D01*
X156327007Y-75211957D01*
X156093163Y-75308805D01*
X155773086Y-75582061D01*
X155581944Y-75957005D01*
X155118056Y-75957005D01*
X154926914Y-75582061D01*
X154606837Y-75308805D01*
X154372993Y-75211957D01*
X154207000Y-75236476D01*
X153953000Y-75236476D01*
X153787007Y-75211957D01*
X153553163Y-75308805D01*
X153233086Y-75582061D01*
X153041944Y-75957005D01*
X152578056Y-75957005D01*
X152386914Y-75582061D01*
X152066837Y-75308805D01*
X151832993Y-75211957D01*
X151667000Y-75236476D01*
X151413000Y-75236476D01*
X151247007Y-75211957D01*
X151013163Y-75308805D01*
X150693086Y-75582061D01*
X150501944Y-75957005D01*
X150038056Y-75957005D01*
X149846914Y-75582061D01*
X149526837Y-75308805D01*
X149292993Y-75211957D01*
X149127000Y-75236476D01*
X148873000Y-75236476D01*
X148707007Y-75211957D01*
X148473163Y-75308805D01*
X148153086Y-75582061D01*
X147961944Y-75957005D01*
X147498056Y-75957005D01*
X147306914Y-75582061D01*
X146986837Y-75308805D01*
X146752993Y-75211957D01*
X146587000Y-75236476D01*
X146333000Y-75236476D01*
X146167007Y-75211957D01*
X145933163Y-75308805D01*
X145613086Y-75582061D01*
X145421944Y-75957005D01*
X142737651Y-75957005D01*
X143493449Y-75201208D01*
X143570533Y-75085843D01*
X143597601Y-74949761D01*
X143597601Y-74218239D01*
X143570533Y-74082157D01*
X143493448Y-73966792D01*
X143214530Y-73687874D01*
X145330600Y-73687874D01*
X145330600Y-73732126D01*
X145416570Y-74164329D01*
X145661394Y-74530732D01*
X146027797Y-74775556D01*
X146460000Y-74861526D01*
X146892203Y-74775556D01*
X147258606Y-74530732D01*
X147503430Y-74164329D01*
X147589400Y-73732126D01*
X147589400Y-73687874D01*
X147870600Y-73687874D01*
X147870600Y-73732126D01*
X147956570Y-74164329D01*
X148201394Y-74530732D01*
X148567797Y-74775556D01*
X149000000Y-74861526D01*
X149432203Y-74775556D01*
X149798606Y-74530732D01*
X150043430Y-74164329D01*
X150129400Y-73732126D01*
X150129400Y-73687874D01*
X150410600Y-73687874D01*
X150410600Y-73732126D01*
X150496570Y-74164329D01*
X150741394Y-74530732D01*
X151107797Y-74775556D01*
X151540000Y-74861526D01*
X151972203Y-74775556D01*
X152338606Y-74530732D01*
X152583430Y-74164329D01*
X152669400Y-73732126D01*
X152669400Y-73687874D01*
X152950600Y-73687874D01*
X152950600Y-73732126D01*
X153036570Y-74164329D01*
X153281394Y-74530732D01*
X153647797Y-74775556D01*
X154080000Y-74861526D01*
X154512203Y-74775556D01*
X154878606Y-74530732D01*
X155123430Y-74164329D01*
X155209400Y-73732126D01*
X155209400Y-73687874D01*
X155490600Y-73687874D01*
X155490600Y-73732126D01*
X155576570Y-74164329D01*
X155821394Y-74530732D01*
X156187797Y-74775556D01*
X156620000Y-74861526D01*
X157052203Y-74775556D01*
X157418606Y-74530732D01*
X157663430Y-74164329D01*
X157749400Y-73732126D01*
X157749400Y-73687874D01*
X158030600Y-73687874D01*
X158030600Y-73732126D01*
X158116570Y-74164329D01*
X158361394Y-74530732D01*
X158727797Y-74775556D01*
X159160000Y-74861526D01*
X159592203Y-74775556D01*
X159958606Y-74530732D01*
X160203430Y-74164329D01*
X160289400Y-73732126D01*
X160289400Y-73687874D01*
X160570600Y-73687874D01*
X160570600Y-73732126D01*
X160656570Y-74164329D01*
X160901394Y-74530732D01*
X161267797Y-74775556D01*
X161700000Y-74861526D01*
X162132203Y-74775556D01*
X162498606Y-74530732D01*
X162743430Y-74164329D01*
X162829400Y-73732126D01*
X162829400Y-73687874D01*
X163110600Y-73687874D01*
X163110600Y-73732126D01*
X163196570Y-74164329D01*
X163441394Y-74530732D01*
X163807797Y-74775556D01*
X164240000Y-74861526D01*
X164672203Y-74775556D01*
X165038606Y-74530732D01*
X165283430Y-74164329D01*
X165369400Y-73732126D01*
X165369400Y-73687874D01*
X165650600Y-73687874D01*
X165650600Y-73732126D01*
X165736570Y-74164329D01*
X165981394Y-74530732D01*
X166347797Y-74775556D01*
X166780000Y-74861526D01*
X167212203Y-74775556D01*
X167578606Y-74530732D01*
X167823430Y-74164329D01*
X167909400Y-73732126D01*
X167909400Y-73687874D01*
X167823430Y-73255671D01*
X167578606Y-72889268D01*
X167534804Y-72860000D01*
X168185127Y-72860000D01*
X168185127Y-74560000D01*
X168204609Y-74663539D01*
X168265801Y-74758634D01*
X168359168Y-74822429D01*
X168470000Y-74844873D01*
X170170000Y-74844873D01*
X170273539Y-74825391D01*
X170368634Y-74764199D01*
X170432429Y-74670832D01*
X170454873Y-74560000D01*
X170454873Y-72860000D01*
X170435391Y-72756461D01*
X170374199Y-72661366D01*
X170280832Y-72597571D01*
X170170000Y-72575127D01*
X169751800Y-72575127D01*
X169751800Y-71774873D01*
X169970000Y-71774873D01*
X170073539Y-71755391D01*
X170168634Y-71694199D01*
X170232429Y-71600832D01*
X170254873Y-71490000D01*
X170254873Y-69990000D01*
X170235391Y-69886461D01*
X170174199Y-69791366D01*
X170080832Y-69727571D01*
X169970000Y-69705127D01*
X168670000Y-69705127D01*
X168566461Y-69724609D01*
X168471366Y-69785801D01*
X168407571Y-69879168D01*
X168385127Y-69990000D01*
X168385127Y-71490000D01*
X168404609Y-71593539D01*
X168465801Y-71688634D01*
X168559168Y-71752429D01*
X168670000Y-71774873D01*
X168888200Y-71774873D01*
X168888200Y-72575127D01*
X168470000Y-72575127D01*
X168366461Y-72594609D01*
X168271366Y-72655801D01*
X168207571Y-72749168D01*
X168185127Y-72860000D01*
X167534804Y-72860000D01*
X167212203Y-72644444D01*
X166780000Y-72558474D01*
X166347797Y-72644444D01*
X165981394Y-72889268D01*
X165736570Y-73255671D01*
X165650600Y-73687874D01*
X165369400Y-73687874D01*
X165283430Y-73255671D01*
X165038606Y-72889268D01*
X164711800Y-72670902D01*
X164711800Y-71764873D01*
X164930000Y-71764873D01*
X165033539Y-71745391D01*
X165128634Y-71684199D01*
X165192429Y-71590832D01*
X165214873Y-71480000D01*
X165214873Y-70914150D01*
X165921400Y-70914150D01*
X165921400Y-71525471D01*
X165956202Y-71609491D01*
X166020508Y-71673797D01*
X166104528Y-71708600D01*
X166615850Y-71708600D01*
X166673000Y-71651450D01*
X166673000Y-70857000D01*
X166927000Y-70857000D01*
X166927000Y-71651450D01*
X166984150Y-71708600D01*
X167495472Y-71708600D01*
X167579492Y-71673797D01*
X167643798Y-71609491D01*
X167678600Y-71525471D01*
X167678600Y-70914150D01*
X167621450Y-70857000D01*
X166927000Y-70857000D01*
X166673000Y-70857000D01*
X165978550Y-70857000D01*
X165921400Y-70914150D01*
X165214873Y-70914150D01*
X165214873Y-69980000D01*
X165206318Y-69934529D01*
X165921400Y-69934529D01*
X165921400Y-70545850D01*
X165978550Y-70603000D01*
X166673000Y-70603000D01*
X166673000Y-69808550D01*
X166927000Y-69808550D01*
X166927000Y-70603000D01*
X167621450Y-70603000D01*
X167678600Y-70545850D01*
X167678600Y-69934529D01*
X167643798Y-69850509D01*
X167579492Y-69786203D01*
X167495472Y-69751400D01*
X166984150Y-69751400D01*
X166927000Y-69808550D01*
X166673000Y-69808550D01*
X166615850Y-69751400D01*
X166104528Y-69751400D01*
X166020508Y-69786203D01*
X165956202Y-69850509D01*
X165921400Y-69934529D01*
X165206318Y-69934529D01*
X165195391Y-69876461D01*
X165134199Y-69781366D01*
X165040832Y-69717571D01*
X164930000Y-69695127D01*
X163630000Y-69695127D01*
X163526461Y-69714609D01*
X163431366Y-69775801D01*
X163367571Y-69869168D01*
X163345127Y-69980000D01*
X163345127Y-71480000D01*
X163364609Y-71583539D01*
X163425801Y-71678634D01*
X163519168Y-71742429D01*
X163630000Y-71764873D01*
X163848200Y-71764873D01*
X163848200Y-72636407D01*
X163807797Y-72644444D01*
X163441394Y-72889268D01*
X163196570Y-73255671D01*
X163110600Y-73687874D01*
X162829400Y-73687874D01*
X162743430Y-73255671D01*
X162498606Y-72889268D01*
X162132203Y-72644444D01*
X161700000Y-72558474D01*
X161267797Y-72644444D01*
X160901394Y-72889268D01*
X160656570Y-73255671D01*
X160570600Y-73687874D01*
X160289400Y-73687874D01*
X160203430Y-73255671D01*
X159958606Y-72889268D01*
X159601800Y-72650857D01*
X159601800Y-71784873D01*
X159820000Y-71784873D01*
X159923539Y-71765391D01*
X160018634Y-71704199D01*
X160082429Y-71610832D01*
X160104873Y-71500000D01*
X160104873Y-70934150D01*
X160841400Y-70934150D01*
X160841400Y-71545471D01*
X160876202Y-71629491D01*
X160940508Y-71693797D01*
X161024528Y-71728600D01*
X161535850Y-71728600D01*
X161593000Y-71671450D01*
X161593000Y-70877000D01*
X161847000Y-70877000D01*
X161847000Y-71671450D01*
X161904150Y-71728600D01*
X162415472Y-71728600D01*
X162499492Y-71693797D01*
X162563798Y-71629491D01*
X162598600Y-71545471D01*
X162598600Y-70934150D01*
X162541450Y-70877000D01*
X161847000Y-70877000D01*
X161593000Y-70877000D01*
X160898550Y-70877000D01*
X160841400Y-70934150D01*
X160104873Y-70934150D01*
X160104873Y-70000000D01*
X160096318Y-69954529D01*
X160841400Y-69954529D01*
X160841400Y-70565850D01*
X160898550Y-70623000D01*
X161593000Y-70623000D01*
X161593000Y-69828550D01*
X161847000Y-69828550D01*
X161847000Y-70623000D01*
X162541450Y-70623000D01*
X162598600Y-70565850D01*
X162598600Y-69954529D01*
X162563798Y-69870509D01*
X162499492Y-69806203D01*
X162415472Y-69771400D01*
X161904150Y-69771400D01*
X161847000Y-69828550D01*
X161593000Y-69828550D01*
X161535850Y-69771400D01*
X161024528Y-69771400D01*
X160940508Y-69806203D01*
X160876202Y-69870509D01*
X160841400Y-69954529D01*
X160096318Y-69954529D01*
X160085391Y-69896461D01*
X160024199Y-69801366D01*
X159930832Y-69737571D01*
X159820000Y-69715127D01*
X158520000Y-69715127D01*
X158416461Y-69734609D01*
X158321366Y-69795801D01*
X158257571Y-69889168D01*
X158235127Y-70000000D01*
X158235127Y-71500000D01*
X158254609Y-71603539D01*
X158315801Y-71698634D01*
X158409168Y-71762429D01*
X158520000Y-71784873D01*
X158738200Y-71784873D01*
X158738200Y-72642375D01*
X158727797Y-72644444D01*
X158361394Y-72889268D01*
X158116570Y-73255671D01*
X158030600Y-73687874D01*
X157749400Y-73687874D01*
X157663430Y-73255671D01*
X157418606Y-72889268D01*
X157052203Y-72644444D01*
X156620000Y-72558474D01*
X156187797Y-72644444D01*
X155821394Y-72889268D01*
X155576570Y-73255671D01*
X155490600Y-73687874D01*
X155209400Y-73687874D01*
X155123430Y-73255671D01*
X154878606Y-72889268D01*
X154512203Y-72644444D01*
X154501800Y-72642375D01*
X154501800Y-71784873D01*
X154720000Y-71784873D01*
X154823539Y-71765391D01*
X154918634Y-71704199D01*
X154982429Y-71610832D01*
X155004873Y-71500000D01*
X155004873Y-70934150D01*
X155741400Y-70934150D01*
X155741400Y-71545471D01*
X155776202Y-71629491D01*
X155840508Y-71693797D01*
X155924528Y-71728600D01*
X156435850Y-71728600D01*
X156493000Y-71671450D01*
X156493000Y-70877000D01*
X156747000Y-70877000D01*
X156747000Y-71671450D01*
X156804150Y-71728600D01*
X157315472Y-71728600D01*
X157399492Y-71693797D01*
X157463798Y-71629491D01*
X157498600Y-71545471D01*
X157498600Y-70934150D01*
X157441450Y-70877000D01*
X156747000Y-70877000D01*
X156493000Y-70877000D01*
X155798550Y-70877000D01*
X155741400Y-70934150D01*
X155004873Y-70934150D01*
X155004873Y-70000000D01*
X154996318Y-69954529D01*
X155741400Y-69954529D01*
X155741400Y-70565850D01*
X155798550Y-70623000D01*
X156493000Y-70623000D01*
X156493000Y-69828550D01*
X156747000Y-69828550D01*
X156747000Y-70623000D01*
X157441450Y-70623000D01*
X157498600Y-70565850D01*
X157498600Y-69954529D01*
X157463798Y-69870509D01*
X157399492Y-69806203D01*
X157315472Y-69771400D01*
X156804150Y-69771400D01*
X156747000Y-69828550D01*
X156493000Y-69828550D01*
X156435850Y-69771400D01*
X155924528Y-69771400D01*
X155840508Y-69806203D01*
X155776202Y-69870509D01*
X155741400Y-69954529D01*
X154996318Y-69954529D01*
X154985391Y-69896461D01*
X154924199Y-69801366D01*
X154830832Y-69737571D01*
X154720000Y-69715127D01*
X153420000Y-69715127D01*
X153316461Y-69734609D01*
X153221366Y-69795801D01*
X153157571Y-69889168D01*
X153135127Y-70000000D01*
X153135127Y-71500000D01*
X153154609Y-71603539D01*
X153215801Y-71698634D01*
X153309168Y-71762429D01*
X153420000Y-71784873D01*
X153638200Y-71784873D01*
X153638200Y-72650857D01*
X153281394Y-72889268D01*
X153036570Y-73255671D01*
X152950600Y-73687874D01*
X152669400Y-73687874D01*
X152583430Y-73255671D01*
X152338606Y-72889268D01*
X151972203Y-72644444D01*
X151540000Y-72558474D01*
X151107797Y-72644444D01*
X150741394Y-72889268D01*
X150496570Y-73255671D01*
X150410600Y-73687874D01*
X150129400Y-73687874D01*
X150043430Y-73255671D01*
X149798606Y-72889268D01*
X149432203Y-72644444D01*
X149431800Y-72644364D01*
X149431800Y-71774873D01*
X149650000Y-71774873D01*
X149753539Y-71755391D01*
X149848634Y-71694199D01*
X149912429Y-71600832D01*
X149934873Y-71490000D01*
X149934873Y-70924150D01*
X150671400Y-70924150D01*
X150671400Y-71535471D01*
X150706202Y-71619491D01*
X150770508Y-71683797D01*
X150854528Y-71718600D01*
X151365850Y-71718600D01*
X151423000Y-71661450D01*
X151423000Y-70867000D01*
X151677000Y-70867000D01*
X151677000Y-71661450D01*
X151734150Y-71718600D01*
X152245472Y-71718600D01*
X152329492Y-71683797D01*
X152393798Y-71619491D01*
X152428600Y-71535471D01*
X152428600Y-70924150D01*
X152371450Y-70867000D01*
X151677000Y-70867000D01*
X151423000Y-70867000D01*
X150728550Y-70867000D01*
X150671400Y-70924150D01*
X149934873Y-70924150D01*
X149934873Y-69990000D01*
X149926318Y-69944529D01*
X150671400Y-69944529D01*
X150671400Y-70555850D01*
X150728550Y-70613000D01*
X151423000Y-70613000D01*
X151423000Y-69818550D01*
X151677000Y-69818550D01*
X151677000Y-70613000D01*
X152371450Y-70613000D01*
X152428600Y-70555850D01*
X152428600Y-69944529D01*
X152393798Y-69860509D01*
X152329492Y-69796203D01*
X152245472Y-69761400D01*
X151734150Y-69761400D01*
X151677000Y-69818550D01*
X151423000Y-69818550D01*
X151365850Y-69761400D01*
X150854528Y-69761400D01*
X150770508Y-69796203D01*
X150706202Y-69860509D01*
X150671400Y-69944529D01*
X149926318Y-69944529D01*
X149915391Y-69886461D01*
X149854199Y-69791366D01*
X149760832Y-69727571D01*
X149650000Y-69705127D01*
X148350000Y-69705127D01*
X148246461Y-69724609D01*
X148151366Y-69785801D01*
X148087571Y-69879168D01*
X148065127Y-69990000D01*
X148065127Y-71490000D01*
X148084609Y-71593539D01*
X148145801Y-71688634D01*
X148239168Y-71752429D01*
X148350000Y-71774873D01*
X148568200Y-71774873D01*
X148568200Y-72644364D01*
X148567797Y-72644444D01*
X148201394Y-72889268D01*
X147956570Y-73255671D01*
X147870600Y-73687874D01*
X147589400Y-73687874D01*
X147503430Y-73255671D01*
X147258606Y-72889268D01*
X146892203Y-72644444D01*
X146460000Y-72558474D01*
X146027797Y-72644444D01*
X145661394Y-72889268D01*
X145416570Y-73255671D01*
X145330600Y-73687874D01*
X143214530Y-73687874D01*
X142792410Y-73265754D01*
X142677046Y-73188669D01*
X142540963Y-73161601D01*
X141641799Y-73161601D01*
X141505716Y-73188669D01*
X141401373Y-73258390D01*
X141352087Y-73237924D01*
X141069154Y-73237677D01*
X140807664Y-73345723D01*
X140607426Y-73545612D01*
X140575054Y-73623571D01*
X140543277Y-73546664D01*
X140343388Y-73346426D01*
X140082087Y-73237924D01*
X139799154Y-73237677D01*
X139537664Y-73345723D01*
X139337426Y-73545612D01*
X139305054Y-73623571D01*
X139273277Y-73546664D01*
X139073388Y-73346426D01*
X138812087Y-73237924D01*
X138529154Y-73237677D01*
X138267664Y-73345723D01*
X138210986Y-73402302D01*
X138089460Y-73108187D01*
X137861016Y-72879343D01*
X137562385Y-72755341D01*
X137239033Y-72755059D01*
X136940187Y-72878540D01*
X136711343Y-73106984D01*
X136587341Y-73405615D01*
X136587059Y-73728967D01*
X136710540Y-74027813D01*
X136938984Y-74256657D01*
X137237615Y-74380659D01*
X137560967Y-74380941D01*
X137859813Y-74257460D01*
X137978839Y-74138642D01*
X138066723Y-74351336D01*
X138266612Y-74551574D01*
X138394968Y-74604872D01*
X138384070Y-74609386D01*
X138333447Y-74702842D01*
X138670000Y-75039395D01*
X139006553Y-74702842D01*
X138955930Y-74609386D01*
X138942283Y-74606014D01*
X139072336Y-74552277D01*
X139272574Y-74352388D01*
X139304946Y-74274429D01*
X139336723Y-74351336D01*
X139536612Y-74551574D01*
X139614571Y-74583946D01*
X139537664Y-74615723D01*
X139337426Y-74815612D01*
X139284128Y-74943968D01*
X139279614Y-74933070D01*
X139186158Y-74882447D01*
X138849605Y-75219000D01*
X139186158Y-75555553D01*
X139279614Y-75504930D01*
X139282986Y-75491283D01*
X139336723Y-75621336D01*
X139536612Y-75821574D01*
X139797913Y-75930076D01*
X139888187Y-75930155D01*
X138805553Y-77012789D01*
X136582276Y-77012789D01*
X135330455Y-75760967D01*
X136587059Y-75760967D01*
X136710540Y-76059813D01*
X136938984Y-76288657D01*
X137237615Y-76412659D01*
X137560967Y-76412941D01*
X137859813Y-76289460D01*
X138088657Y-76061016D01*
X138212659Y-75762385D01*
X138212704Y-75710430D01*
X138285441Y-75783167D01*
X138333448Y-75735160D01*
X138384070Y-75828614D01*
X138639124Y-75891630D01*
X138898879Y-75852245D01*
X138955930Y-75828614D01*
X139006553Y-75735158D01*
X138670000Y-75398605D01*
X138655858Y-75412748D01*
X138476253Y-75233143D01*
X138490395Y-75219000D01*
X138153842Y-74882447D01*
X138060386Y-74933070D01*
X138025134Y-75075749D01*
X137861016Y-74911343D01*
X137562385Y-74787341D01*
X137239033Y-74787059D01*
X136940187Y-74910540D01*
X136711343Y-75138984D01*
X136587341Y-75437615D01*
X136587059Y-75760967D01*
X135330455Y-75760967D01*
X135077200Y-75507712D01*
X135077200Y-70934150D01*
X145571400Y-70934150D01*
X145571400Y-71545471D01*
X145606202Y-71629491D01*
X145670508Y-71693797D01*
X145754528Y-71728600D01*
X146265850Y-71728600D01*
X146323000Y-71671450D01*
X146323000Y-70877000D01*
X146577000Y-70877000D01*
X146577000Y-71671450D01*
X146634150Y-71728600D01*
X147145472Y-71728600D01*
X147229492Y-71693797D01*
X147293798Y-71629491D01*
X147328600Y-71545471D01*
X147328600Y-70934150D01*
X147271450Y-70877000D01*
X146577000Y-70877000D01*
X146323000Y-70877000D01*
X145628550Y-70877000D01*
X145571400Y-70934150D01*
X135077200Y-70934150D01*
X135077200Y-69954529D01*
X145571400Y-69954529D01*
X145571400Y-70565850D01*
X145628550Y-70623000D01*
X146323000Y-70623000D01*
X146323000Y-69828550D01*
X146577000Y-69828550D01*
X146577000Y-70623000D01*
X147271450Y-70623000D01*
X147328600Y-70565850D01*
X147328600Y-69954529D01*
X147293798Y-69870509D01*
X147229492Y-69806203D01*
X147145472Y-69771400D01*
X146634150Y-69771400D01*
X146577000Y-69828550D01*
X146323000Y-69828550D01*
X146265850Y-69771400D01*
X145754528Y-69771400D01*
X145670508Y-69806203D01*
X145606202Y-69870509D01*
X145571400Y-69954529D01*
X135077200Y-69954529D01*
X135077200Y-67639000D01*
X136023515Y-67639000D01*
X136045801Y-67673634D01*
X136139168Y-67737429D01*
X136250000Y-67759873D01*
X137750000Y-67759873D01*
X137853539Y-67740391D01*
X137948634Y-67679199D01*
X138012429Y-67585832D01*
X138034873Y-67475000D01*
X138034873Y-67034150D01*
X138521400Y-67034150D01*
X138521400Y-67520472D01*
X138556203Y-67604492D01*
X138620509Y-67668798D01*
X138704529Y-67703600D01*
X139315850Y-67703600D01*
X139373000Y-67646450D01*
X139373000Y-66977000D01*
X139627000Y-66977000D01*
X139627000Y-67646450D01*
X139684150Y-67703600D01*
X140295471Y-67703600D01*
X140379491Y-67668798D01*
X140443797Y-67604492D01*
X140478600Y-67520472D01*
X140478600Y-67034150D01*
X140421450Y-66977000D01*
X139627000Y-66977000D01*
X139373000Y-66977000D01*
X138578550Y-66977000D01*
X138521400Y-67034150D01*
X138034873Y-67034150D01*
X138034873Y-66225000D01*
X138026317Y-66179528D01*
X138521400Y-66179528D01*
X138521400Y-66665850D01*
X138578550Y-66723000D01*
X139373000Y-66723000D01*
X139373000Y-66053550D01*
X139627000Y-66053550D01*
X139627000Y-66723000D01*
X140421450Y-66723000D01*
X140478600Y-66665850D01*
X140478600Y-66179528D01*
X140443797Y-66095508D01*
X140379491Y-66031202D01*
X140295471Y-65996400D01*
X139684150Y-65996400D01*
X139627000Y-66053550D01*
X139373000Y-66053550D01*
X139315850Y-65996400D01*
X138704529Y-65996400D01*
X138620509Y-66031202D01*
X138556203Y-66095508D01*
X138521400Y-66179528D01*
X138026317Y-66179528D01*
X138015391Y-66121461D01*
X137954199Y-66026366D01*
X137889000Y-65981817D01*
X137889000Y-65645121D01*
X137912429Y-65610832D01*
X137934873Y-65500000D01*
X137934873Y-65334200D01*
X142590127Y-65334200D01*
X142590127Y-65443100D01*
X142609609Y-65546639D01*
X142670801Y-65641734D01*
X142764168Y-65705529D01*
X142875000Y-65727973D01*
X143383000Y-65727973D01*
X143486539Y-65708491D01*
X143581634Y-65647299D01*
X143645429Y-65553932D01*
X143667873Y-65443100D01*
X143667873Y-65096446D01*
X143668730Y-65095163D01*
X143713200Y-64871600D01*
X143668730Y-64648037D01*
X143667873Y-64646754D01*
X143667873Y-64300100D01*
X143653391Y-64223134D01*
X143849344Y-64142168D01*
X144024553Y-63967265D01*
X144119492Y-63738626D01*
X144119708Y-63491060D01*
X144025168Y-63262256D01*
X143850265Y-63087047D01*
X143621626Y-62992108D01*
X143374060Y-62991892D01*
X143145256Y-63086432D01*
X142970047Y-63261335D01*
X142875108Y-63489974D01*
X142874989Y-63625953D01*
X142823671Y-63677271D01*
X142730069Y-63817357D01*
X142697200Y-63982600D01*
X142697200Y-64082495D01*
X142676366Y-64095901D01*
X142628606Y-64165800D01*
X137934873Y-64165800D01*
X137934873Y-64000000D01*
X137915391Y-63896461D01*
X137854199Y-63801366D01*
X137760832Y-63737571D01*
X137650000Y-63715127D01*
X136350000Y-63715127D01*
X136246461Y-63734609D01*
X136151366Y-63795801D01*
X136087571Y-63889168D01*
X136065127Y-64000000D01*
X136065127Y-65500000D01*
X136084609Y-65603539D01*
X136111000Y-65644552D01*
X136111000Y-65861000D01*
X134650000Y-65861000D01*
X134377884Y-65915127D01*
X134100000Y-65915127D01*
X134061200Y-65922428D01*
X134061200Y-64689294D01*
X136065127Y-62685367D01*
X136065127Y-62800000D01*
X136084609Y-62903539D01*
X136145801Y-62998634D01*
X136239168Y-63062429D01*
X136350000Y-63084873D01*
X137650000Y-63084873D01*
X137753539Y-63065391D01*
X137848634Y-63004199D01*
X137912429Y-62910832D01*
X137934873Y-62800000D01*
X137934873Y-62481800D01*
X137954800Y-62481800D01*
X138120043Y-62448931D01*
X138260129Y-62355329D01*
X140404769Y-60210689D01*
X147269211Y-60210689D01*
X147434454Y-60177820D01*
X147574540Y-60084218D01*
X148280784Y-59377973D01*
X148463000Y-59377973D01*
X148566539Y-59358491D01*
X148640799Y-59310706D01*
X148640799Y-59403007D01*
X144147553Y-63896253D01*
X144070468Y-64011617D01*
X144070468Y-64011618D01*
X144066824Y-64029937D01*
X144041461Y-64034709D01*
X143946366Y-64095901D01*
X143882571Y-64189268D01*
X143860127Y-64300100D01*
X143860127Y-65443100D01*
X143879609Y-65546639D01*
X143940801Y-65641734D01*
X144034168Y-65705529D01*
X144145000Y-65727973D01*
X144653000Y-65727973D01*
X144756539Y-65708491D01*
X144851634Y-65647299D01*
X144915429Y-65553932D01*
X144937873Y-65443100D01*
X144937873Y-64300100D01*
X144918391Y-64196561D01*
X144892801Y-64156793D01*
X149247846Y-59801748D01*
X149324931Y-59686384D01*
X149351999Y-59550301D01*
X149351999Y-59377973D01*
X149733000Y-59377973D01*
X149836539Y-59358491D01*
X149910799Y-59310706D01*
X149910799Y-59809407D01*
X145704979Y-64015227D01*
X145415000Y-64015227D01*
X145311461Y-64034709D01*
X145216366Y-64095901D01*
X145152571Y-64189268D01*
X145130127Y-64300100D01*
X145130127Y-65443100D01*
X145149609Y-65546639D01*
X145210801Y-65641734D01*
X145304168Y-65705529D01*
X145415000Y-65727973D01*
X145923000Y-65727973D01*
X146026539Y-65708491D01*
X146121634Y-65647299D01*
X146185429Y-65553932D01*
X146207873Y-65443100D01*
X146207873Y-64518121D01*
X146400127Y-64325867D01*
X146400127Y-65443100D01*
X146419609Y-65546639D01*
X146480801Y-65641734D01*
X146574168Y-65705529D01*
X146685000Y-65727973D01*
X147193000Y-65727973D01*
X147296539Y-65708491D01*
X147391634Y-65647299D01*
X147455429Y-65553932D01*
X147477873Y-65443100D01*
X147477873Y-64518121D01*
X147670127Y-64325867D01*
X147670127Y-65443100D01*
X147689609Y-65546639D01*
X147750801Y-65641734D01*
X147844168Y-65705529D01*
X147955000Y-65727973D01*
X148463000Y-65727973D01*
X148566539Y-65708491D01*
X148661634Y-65647299D01*
X148725429Y-65553932D01*
X148747873Y-65443100D01*
X148747873Y-64300100D01*
X148728391Y-64196561D01*
X148667199Y-64101466D01*
X148573832Y-64037671D01*
X148564600Y-64035801D01*
X148564600Y-63978294D01*
X153631803Y-58911091D01*
X153631792Y-58924240D01*
X153726332Y-59153044D01*
X153901235Y-59328253D01*
X154129874Y-59423192D01*
X154377440Y-59423408D01*
X154606244Y-59328868D01*
X154702480Y-59232800D01*
X155150127Y-59232800D01*
X155150127Y-59590000D01*
X155169609Y-59693539D01*
X155200021Y-59740800D01*
X153936700Y-59740800D01*
X153800617Y-59767868D01*
X153685253Y-59844953D01*
X149514979Y-64015227D01*
X149225000Y-64015227D01*
X149121461Y-64034709D01*
X149026366Y-64095901D01*
X148962571Y-64189268D01*
X148940127Y-64300100D01*
X148940127Y-65443100D01*
X148959609Y-65546639D01*
X149020801Y-65641734D01*
X149114168Y-65705529D01*
X149225000Y-65727973D01*
X149733000Y-65727973D01*
X149836539Y-65708491D01*
X149931634Y-65647299D01*
X149995429Y-65553932D01*
X150017873Y-65443100D01*
X150017873Y-64518121D01*
X150210127Y-64325867D01*
X150210127Y-65443100D01*
X150229609Y-65546639D01*
X150290801Y-65641734D01*
X150384168Y-65705529D01*
X150495000Y-65727973D01*
X151003000Y-65727973D01*
X151106539Y-65708491D01*
X151201634Y-65647299D01*
X151265429Y-65553932D01*
X151287873Y-65443100D01*
X151287873Y-65227200D01*
X153706633Y-65227200D01*
X153842716Y-65200132D01*
X153958080Y-65123047D01*
X155150127Y-63931000D01*
X155150127Y-64990000D01*
X155169609Y-65093539D01*
X155230801Y-65188634D01*
X155324168Y-65252429D01*
X155435000Y-65274873D01*
X155658715Y-65274873D01*
X155566690Y-65366898D01*
X154030678Y-65366898D01*
X153894595Y-65393966D01*
X153779231Y-65471051D01*
X152544483Y-66705799D01*
X150781001Y-66705799D01*
X150644918Y-66732867D01*
X150529554Y-66809952D01*
X149934873Y-67404633D01*
X149934873Y-67290000D01*
X149915391Y-67186461D01*
X149854199Y-67091366D01*
X149760832Y-67027571D01*
X149650000Y-67005127D01*
X148350000Y-67005127D01*
X148246461Y-67024609D01*
X148151366Y-67085801D01*
X148087571Y-67179168D01*
X148065127Y-67290000D01*
X148065127Y-67618200D01*
X147384873Y-67618200D01*
X147384873Y-67300000D01*
X147365391Y-67196461D01*
X147304199Y-67101366D01*
X147210832Y-67037571D01*
X147100000Y-67015127D01*
X145800000Y-67015127D01*
X145696461Y-67034609D01*
X145601366Y-67095801D01*
X145537571Y-67189168D01*
X145515127Y-67300000D01*
X145515127Y-68800000D01*
X145534609Y-68903539D01*
X145595801Y-68998634D01*
X145689168Y-69062429D01*
X145800000Y-69084873D01*
X147100000Y-69084873D01*
X147203539Y-69065391D01*
X147298634Y-69004199D01*
X147362429Y-68910832D01*
X147384873Y-68800000D01*
X147384873Y-68481800D01*
X148065127Y-68481800D01*
X148065127Y-68790000D01*
X148084609Y-68893539D01*
X148145801Y-68988634D01*
X148239168Y-69052429D01*
X148350000Y-69074873D01*
X149650000Y-69074873D01*
X149753539Y-69055391D01*
X149848634Y-68994199D01*
X149912429Y-68900832D01*
X149934873Y-68790000D01*
X149934873Y-68369250D01*
X149938483Y-68368532D01*
X150053847Y-68291447D01*
X150615127Y-67730167D01*
X150615127Y-68790000D01*
X150634609Y-68893539D01*
X150695801Y-68988634D01*
X150789168Y-69052429D01*
X150900000Y-69074873D01*
X152200000Y-69074873D01*
X152303539Y-69055391D01*
X152398634Y-68994199D01*
X152462429Y-68900832D01*
X152484873Y-68790000D01*
X152484873Y-68471800D01*
X153135127Y-68471800D01*
X153135127Y-68800000D01*
X153154609Y-68903539D01*
X153215801Y-68998634D01*
X153309168Y-69062429D01*
X153420000Y-69084873D01*
X154720000Y-69084873D01*
X154823539Y-69065391D01*
X154918634Y-69004199D01*
X154982429Y-68910832D01*
X155004873Y-68800000D01*
X155004873Y-67300000D01*
X154985391Y-67196461D01*
X154924199Y-67101366D01*
X154830832Y-67037571D01*
X154720000Y-67015127D01*
X154425600Y-67015127D01*
X154425600Y-66916406D01*
X154428240Y-66916408D01*
X154657044Y-66821868D01*
X154832253Y-66646965D01*
X154927192Y-66418326D01*
X154927408Y-66170760D01*
X154889121Y-66078098D01*
X155713984Y-66078098D01*
X155850067Y-66051030D01*
X155965431Y-65973945D01*
X156264400Y-65674976D01*
X156264400Y-67015127D01*
X155970000Y-67015127D01*
X155866461Y-67034609D01*
X155771366Y-67095801D01*
X155707571Y-67189168D01*
X155685127Y-67300000D01*
X155685127Y-68800000D01*
X155704609Y-68903539D01*
X155765801Y-68998634D01*
X155859168Y-69062429D01*
X155970000Y-69084873D01*
X157270000Y-69084873D01*
X157373539Y-69065391D01*
X157468634Y-69004199D01*
X157532429Y-68910832D01*
X157554873Y-68800000D01*
X157554873Y-68481800D01*
X158235127Y-68481800D01*
X158235127Y-68800000D01*
X158254609Y-68903539D01*
X158315801Y-68998634D01*
X158409168Y-69062429D01*
X158520000Y-69084873D01*
X159820000Y-69084873D01*
X159923539Y-69065391D01*
X160018634Y-69004199D01*
X160082429Y-68910832D01*
X160104873Y-68800000D01*
X160104873Y-67300000D01*
X160085391Y-67196461D01*
X160024199Y-67101366D01*
X159930832Y-67037571D01*
X159820000Y-67015127D01*
X158520000Y-67015127D01*
X158416461Y-67034609D01*
X158321366Y-67095801D01*
X158257571Y-67189168D01*
X158235127Y-67300000D01*
X158235127Y-67618200D01*
X157554873Y-67618200D01*
X157554873Y-67300000D01*
X157535391Y-67196461D01*
X157474199Y-67101366D01*
X157380832Y-67037571D01*
X157270000Y-67015127D01*
X156975600Y-67015127D01*
X156975600Y-65274873D01*
X157305000Y-65274873D01*
X157408539Y-65255391D01*
X157503634Y-65194199D01*
X157567429Y-65100832D01*
X157589873Y-64990000D01*
X157589873Y-63500000D01*
X157690127Y-63500000D01*
X157690127Y-64990000D01*
X157709609Y-65093539D01*
X157770801Y-65188634D01*
X157864168Y-65252429D01*
X157919400Y-65263614D01*
X157919400Y-65656505D01*
X157904102Y-65671804D01*
X157661560Y-65671592D01*
X157432756Y-65766132D01*
X157257547Y-65941035D01*
X157162608Y-66169674D01*
X157162392Y-66417240D01*
X157256932Y-66646044D01*
X157431835Y-66821253D01*
X157660474Y-66916192D01*
X157908040Y-66916408D01*
X158136844Y-66821868D01*
X158312053Y-66646965D01*
X158406992Y-66418326D01*
X158407205Y-66174490D01*
X158526447Y-66055248D01*
X158586436Y-65965468D01*
X158603532Y-65939882D01*
X158630600Y-65803800D01*
X158630600Y-65264411D01*
X158678539Y-65255391D01*
X158773634Y-65194199D01*
X158837429Y-65100832D01*
X158859873Y-64990000D01*
X158859873Y-63607767D01*
X158960127Y-63708021D01*
X158960127Y-64990000D01*
X158979609Y-65093539D01*
X159040801Y-65188634D01*
X159134168Y-65252429D01*
X159245000Y-65274873D01*
X159845000Y-65274873D01*
X159948539Y-65255391D01*
X160043634Y-65194199D01*
X160107429Y-65100832D01*
X160129873Y-64990000D01*
X160129873Y-63616999D01*
X160230127Y-63616999D01*
X160230127Y-64990000D01*
X160249609Y-65093539D01*
X160310801Y-65188634D01*
X160404168Y-65252429D01*
X160515000Y-65274873D01*
X161115000Y-65274873D01*
X161200799Y-65258729D01*
X161200799Y-66983999D01*
X161206991Y-67015127D01*
X161070000Y-67015127D01*
X160966461Y-67034609D01*
X160871366Y-67095801D01*
X160807571Y-67189168D01*
X160785127Y-67300000D01*
X160785127Y-68800000D01*
X160804609Y-68903539D01*
X160865801Y-68998634D01*
X160959168Y-69062429D01*
X161070000Y-69084873D01*
X162370000Y-69084873D01*
X162473539Y-69065391D01*
X162568634Y-69004199D01*
X162632429Y-68910832D01*
X162654873Y-68800000D01*
X162654873Y-68481800D01*
X163345127Y-68481800D01*
X163345127Y-68780000D01*
X163364609Y-68883539D01*
X163425801Y-68978634D01*
X163519168Y-69042429D01*
X163630000Y-69064873D01*
X164930000Y-69064873D01*
X165033539Y-69045391D01*
X165128634Y-68984199D01*
X165192429Y-68890832D01*
X165214873Y-68780000D01*
X165214873Y-67280000D01*
X165865127Y-67280000D01*
X165865127Y-68780000D01*
X165884609Y-68883539D01*
X165945801Y-68978634D01*
X166039168Y-69042429D01*
X166150000Y-69064873D01*
X167450000Y-69064873D01*
X167553539Y-69045391D01*
X167648634Y-68984199D01*
X167712429Y-68890832D01*
X167734873Y-68780000D01*
X167734873Y-68461800D01*
X168385127Y-68461800D01*
X168385127Y-68790000D01*
X168404609Y-68893539D01*
X168465801Y-68988634D01*
X168559168Y-69052429D01*
X168670000Y-69074873D01*
X169970000Y-69074873D01*
X170073539Y-69055391D01*
X170168634Y-68994199D01*
X170232429Y-68900832D01*
X170254873Y-68790000D01*
X170254873Y-67290000D01*
X170235391Y-67186461D01*
X170174199Y-67091366D01*
X170080832Y-67027571D01*
X169970000Y-67005127D01*
X168670000Y-67005127D01*
X168566461Y-67024609D01*
X168471366Y-67085801D01*
X168407571Y-67179168D01*
X168385127Y-67290000D01*
X168385127Y-67598200D01*
X167734873Y-67598200D01*
X167734873Y-67280000D01*
X167715391Y-67176461D01*
X167654199Y-67081366D01*
X167560832Y-67017571D01*
X167450000Y-66995127D01*
X167171115Y-66995127D01*
X167329053Y-66837465D01*
X167423992Y-66608826D01*
X167424208Y-66361260D01*
X167329668Y-66132456D01*
X167154765Y-65957247D01*
X166926126Y-65862308D01*
X166678560Y-65862092D01*
X166449756Y-65956632D01*
X166274547Y-66131535D01*
X166179608Y-66360174D01*
X166179392Y-66607740D01*
X166273932Y-66836544D01*
X166432238Y-66995127D01*
X166150000Y-66995127D01*
X166046461Y-67014609D01*
X165951366Y-67075801D01*
X165887571Y-67169168D01*
X165865127Y-67280000D01*
X165214873Y-67280000D01*
X165195391Y-67176461D01*
X165134199Y-67081366D01*
X165040832Y-67017571D01*
X164930000Y-66995127D01*
X163630000Y-66995127D01*
X163526461Y-67014609D01*
X163431366Y-67075801D01*
X163367571Y-67169168D01*
X163345127Y-67280000D01*
X163345127Y-67618200D01*
X162654873Y-67618200D01*
X162654873Y-67300000D01*
X162635391Y-67196461D01*
X162574199Y-67101366D01*
X162480832Y-67037571D01*
X162370000Y-67015127D01*
X162049250Y-67015127D01*
X162048532Y-67011517D01*
X161971447Y-66896153D01*
X161911999Y-66836705D01*
X161911999Y-65274873D01*
X162385000Y-65274873D01*
X162488539Y-65255391D01*
X162583634Y-65194199D01*
X162647429Y-65100832D01*
X162669873Y-64990000D01*
X162669873Y-63490000D01*
X162770127Y-63490000D01*
X162770127Y-64990000D01*
X162789609Y-65093539D01*
X162850801Y-65188634D01*
X162944168Y-65252429D01*
X163055000Y-65274873D01*
X163655000Y-65274873D01*
X163758539Y-65255391D01*
X163853634Y-65194199D01*
X163917429Y-65100832D01*
X163939873Y-64990000D01*
X163939873Y-64424150D01*
X164096400Y-64424150D01*
X164096400Y-65035471D01*
X164131202Y-65119491D01*
X164195508Y-65183797D01*
X164279528Y-65218600D01*
X164440850Y-65218600D01*
X164498000Y-65161450D01*
X164498000Y-64367000D01*
X164752000Y-64367000D01*
X164752000Y-65161450D01*
X164809150Y-65218600D01*
X164970472Y-65218600D01*
X165054492Y-65183797D01*
X165118798Y-65119491D01*
X165153600Y-65035471D01*
X165153600Y-64424150D01*
X165096450Y-64367000D01*
X164752000Y-64367000D01*
X164498000Y-64367000D01*
X164153550Y-64367000D01*
X164096400Y-64424150D01*
X163939873Y-64424150D01*
X163939873Y-63490000D01*
X163931318Y-63444529D01*
X164096400Y-63444529D01*
X164096400Y-64055850D01*
X164153550Y-64113000D01*
X164498000Y-64113000D01*
X164498000Y-63318550D01*
X164752000Y-63318550D01*
X164752000Y-64113000D01*
X165096450Y-64113000D01*
X165153600Y-64055850D01*
X165153600Y-63444529D01*
X165118798Y-63360509D01*
X165054492Y-63296203D01*
X164970472Y-63261400D01*
X164809150Y-63261400D01*
X164752000Y-63318550D01*
X164498000Y-63318550D01*
X164440850Y-63261400D01*
X164279528Y-63261400D01*
X164195508Y-63296203D01*
X164131202Y-63360509D01*
X164096400Y-63444529D01*
X163931318Y-63444529D01*
X163920391Y-63386461D01*
X163859199Y-63291366D01*
X163765832Y-63227571D01*
X163655000Y-63205127D01*
X163055000Y-63205127D01*
X162951461Y-63224609D01*
X162856366Y-63285801D01*
X162792571Y-63379168D01*
X162770127Y-63490000D01*
X162669873Y-63490000D01*
X162650391Y-63386461D01*
X162589199Y-63291366D01*
X162495832Y-63227571D01*
X162385000Y-63205127D01*
X161785000Y-63205127D01*
X161750916Y-63211540D01*
X161549328Y-63009952D01*
X161433964Y-62932867D01*
X161297881Y-62905799D01*
X159673960Y-62905799D01*
X159356303Y-62588142D01*
X159240939Y-62511057D01*
X159104856Y-62483989D01*
X156597138Y-62483989D01*
X157371805Y-61709322D01*
X162190212Y-61709322D01*
X162326295Y-61682254D01*
X162441659Y-61605169D01*
X162578815Y-61468013D01*
X164197554Y-61468013D01*
X164333637Y-61440945D01*
X164449001Y-61363860D01*
X169886258Y-55926603D01*
X169963343Y-55811238D01*
X169963762Y-55809132D01*
X171271448Y-54501447D01*
X171271450Y-54501444D01*
X171389565Y-54383329D01*
X171437797Y-54415556D01*
X171870000Y-54501526D01*
X172302203Y-54415556D01*
X172668606Y-54170732D01*
X172913430Y-53804329D01*
X172999400Y-53372126D01*
X172999400Y-53327874D01*
X172913430Y-52895671D01*
X172668606Y-52529268D01*
X172302203Y-52284444D01*
X171870000Y-52198474D01*
X171437797Y-52284444D01*
X171071394Y-52529268D01*
X170826570Y-52895671D01*
X170740600Y-53327874D01*
X170740600Y-53372126D01*
X170826570Y-53804329D01*
X170881127Y-53885979D01*
X170768556Y-53998550D01*
X170768553Y-53998552D01*
X169685600Y-55081506D01*
X169685600Y-54430793D01*
X169762203Y-54415556D01*
X170128606Y-54170732D01*
X170373430Y-53804329D01*
X170459400Y-53372126D01*
X170459400Y-53327874D01*
X170373430Y-52895671D01*
X170128606Y-52529268D01*
X169762203Y-52284444D01*
X169330000Y-52198474D01*
X168897797Y-52284444D01*
X168531394Y-52529268D01*
X168286570Y-52895671D01*
X168200600Y-53327874D01*
X168200600Y-53372126D01*
X168286570Y-53804329D01*
X168531394Y-54170732D01*
X168897797Y-54415556D01*
X168974400Y-54430793D01*
X168974400Y-55401606D01*
X165209873Y-59166133D01*
X165209873Y-58090000D01*
X165190391Y-57986461D01*
X165129199Y-57891366D01*
X165035832Y-57827571D01*
X164925000Y-57805127D01*
X164325000Y-57805127D01*
X164221461Y-57824609D01*
X164126366Y-57885801D01*
X164062571Y-57979168D01*
X164040127Y-58090000D01*
X164040127Y-59590000D01*
X164059609Y-59693539D01*
X164120801Y-59788634D01*
X164214168Y-59852429D01*
X164325000Y-59874873D01*
X164501133Y-59874873D01*
X163924004Y-60452002D01*
X162695892Y-60452002D01*
X163273021Y-59874873D01*
X163655000Y-59874873D01*
X163758539Y-59855391D01*
X163853634Y-59794199D01*
X163917429Y-59700832D01*
X163939873Y-59590000D01*
X163939873Y-58090000D01*
X163920391Y-57986461D01*
X163859199Y-57891366D01*
X163765832Y-57827571D01*
X163655000Y-57805127D01*
X163055000Y-57805127D01*
X162951461Y-57824609D01*
X162856366Y-57885801D01*
X162792571Y-57979168D01*
X162770127Y-58090000D01*
X162770127Y-59371979D01*
X162669873Y-59472233D01*
X162669873Y-58090000D01*
X162650391Y-57986461D01*
X162589199Y-57891366D01*
X162495832Y-57827571D01*
X162440600Y-57816386D01*
X162440600Y-57315891D01*
X162506529Y-57343200D01*
X163117850Y-57343200D01*
X163175000Y-57286050D01*
X163175000Y-56616600D01*
X163429000Y-56616600D01*
X163429000Y-57286050D01*
X163486150Y-57343200D01*
X164097471Y-57343200D01*
X164181491Y-57308398D01*
X164245797Y-57244092D01*
X164280600Y-57160072D01*
X164280600Y-56673750D01*
X164223450Y-56616600D01*
X163429000Y-56616600D01*
X163175000Y-56616600D01*
X163155000Y-56616600D01*
X163155000Y-56362600D01*
X163175000Y-56362600D01*
X163175000Y-55693150D01*
X163429000Y-55693150D01*
X163429000Y-56362600D01*
X164223450Y-56362600D01*
X164280600Y-56305450D01*
X164280600Y-55819128D01*
X164245797Y-55735108D01*
X164181491Y-55670802D01*
X164097471Y-55636000D01*
X163486150Y-55636000D01*
X163429000Y-55693150D01*
X163175000Y-55693150D01*
X163117850Y-55636000D01*
X162506529Y-55636000D01*
X162440600Y-55663309D01*
X162440600Y-55148670D01*
X162413532Y-55012588D01*
X162336447Y-54897223D01*
X161163002Y-53723778D01*
X161163002Y-52500000D01*
X163115127Y-52500000D01*
X163115127Y-54200000D01*
X163134609Y-54303539D01*
X163195801Y-54398634D01*
X163289168Y-54462429D01*
X163400000Y-54484873D01*
X165100000Y-54484873D01*
X165203539Y-54465391D01*
X165298634Y-54404199D01*
X165362429Y-54310832D01*
X165384873Y-54200000D01*
X165384873Y-53327874D01*
X165660600Y-53327874D01*
X165660600Y-53372126D01*
X165746570Y-53804329D01*
X165991394Y-54170732D01*
X166357797Y-54415556D01*
X166790000Y-54501526D01*
X167222203Y-54415556D01*
X167588606Y-54170732D01*
X167833430Y-53804329D01*
X167919400Y-53372126D01*
X167919400Y-53327874D01*
X167833430Y-52895671D01*
X167588606Y-52529268D01*
X167222203Y-52284444D01*
X166790000Y-52198474D01*
X166357797Y-52284444D01*
X165991394Y-52529268D01*
X165746570Y-52895671D01*
X165660600Y-53327874D01*
X165384873Y-53327874D01*
X165384873Y-52500000D01*
X165365391Y-52396461D01*
X165304199Y-52301366D01*
X165210832Y-52237571D01*
X165100000Y-52215127D01*
X163400000Y-52215127D01*
X163296461Y-52234609D01*
X163201366Y-52295801D01*
X163137571Y-52389168D01*
X163115127Y-52500000D01*
X161163002Y-52500000D01*
X161163002Y-51821078D01*
X161135934Y-51684996D01*
X161058850Y-51569631D01*
X159745658Y-50256440D01*
X159630294Y-50179355D01*
X159494211Y-50152287D01*
X148832113Y-50152287D01*
X148696030Y-50179355D01*
X148580666Y-50256440D01*
X146500407Y-52336699D01*
X146422203Y-52284444D01*
X145990000Y-52198474D01*
X145557797Y-52284444D01*
X145191394Y-52529268D01*
X144946570Y-52895671D01*
X144860600Y-53327874D01*
X144860600Y-53372126D01*
X144946570Y-53804329D01*
X145191394Y-54170732D01*
X145313400Y-54252254D01*
X145313400Y-57684344D01*
X145311461Y-57684709D01*
X145216366Y-57745901D01*
X145152571Y-57839268D01*
X145130127Y-57950100D01*
X145130127Y-59093100D01*
X145149609Y-59196639D01*
X145210801Y-59291734D01*
X145291816Y-59347089D01*
X144774258Y-59347089D01*
X144851634Y-59297299D01*
X144915429Y-59203932D01*
X144937873Y-59093100D01*
X144937873Y-57950100D01*
X144918391Y-57846561D01*
X144857199Y-57751466D01*
X144763832Y-57687671D01*
X144754600Y-57685801D01*
X144754600Y-54299000D01*
X144727532Y-54162918D01*
X144650447Y-54047553D01*
X144584873Y-53981979D01*
X144584873Y-52500000D01*
X144565391Y-52396461D01*
X144504199Y-52301366D01*
X144410832Y-52237571D01*
X144300000Y-52215127D01*
X142600000Y-52215127D01*
X142496461Y-52234609D01*
X142401366Y-52295801D01*
X142337571Y-52389168D01*
X142315127Y-52500000D01*
X142315127Y-54200000D01*
X142334609Y-54303539D01*
X142395801Y-54398634D01*
X142489168Y-54462429D01*
X142600000Y-54484873D01*
X144043400Y-54484873D01*
X144043400Y-57684344D01*
X144041461Y-57684709D01*
X143946366Y-57745901D01*
X143882571Y-57839268D01*
X143860127Y-57950100D01*
X143860127Y-59093100D01*
X143879609Y-59196639D01*
X143940801Y-59291734D01*
X144021816Y-59347089D01*
X140225911Y-59347089D01*
X140060668Y-59379958D01*
X139991637Y-59426083D01*
X139920582Y-59473560D01*
X137934873Y-61459269D01*
X137934873Y-61300000D01*
X137915391Y-61196461D01*
X137854199Y-61101366D01*
X137760832Y-61037571D01*
X137650000Y-61015127D01*
X136350000Y-61015127D01*
X136246461Y-61034609D01*
X136151366Y-61095801D01*
X136087571Y-61189168D01*
X136065127Y-61300000D01*
X136065127Y-61720750D01*
X136061517Y-61721468D01*
X135946153Y-61798553D01*
X133454153Y-64290553D01*
X133377068Y-64405917D01*
X133360055Y-64491447D01*
X133350000Y-64542000D01*
X126953600Y-64542000D01*
X126953600Y-62198034D01*
X127564442Y-62198034D01*
X127724158Y-62583647D01*
X128098224Y-62996911D01*
X128601965Y-63235568D01*
X128823000Y-63215804D01*
X128823000Y-61977000D01*
X129077000Y-61977000D01*
X129077000Y-63215804D01*
X129298035Y-63235568D01*
X129801776Y-62996911D01*
X130175842Y-62583647D01*
X130335558Y-62198034D01*
X130315557Y-61977000D01*
X129077000Y-61977000D01*
X128823000Y-61977000D01*
X127584443Y-61977000D01*
X127564442Y-62198034D01*
X126953600Y-62198034D01*
X126953600Y-61501966D01*
X127564442Y-61501966D01*
X127584443Y-61723000D01*
X128823000Y-61723000D01*
X128823000Y-60484196D01*
X129077000Y-60484196D01*
X129077000Y-61723000D01*
X130315557Y-61723000D01*
X130335558Y-61501966D01*
X130175842Y-61116353D01*
X129801776Y-60703089D01*
X129298035Y-60464432D01*
X129077000Y-60484196D01*
X128823000Y-60484196D01*
X128601965Y-60464432D01*
X128098224Y-60703089D01*
X127724158Y-61116353D01*
X127564442Y-61501966D01*
X126953600Y-61501966D01*
X126953600Y-58705750D01*
X142646400Y-58705750D01*
X142646400Y-59138572D01*
X142681203Y-59222592D01*
X142745509Y-59286898D01*
X142829529Y-59321700D01*
X142944850Y-59321700D01*
X143002000Y-59264550D01*
X143002000Y-58648600D01*
X143256000Y-58648600D01*
X143256000Y-59264550D01*
X143313150Y-59321700D01*
X143428471Y-59321700D01*
X143512491Y-59286898D01*
X143576797Y-59222592D01*
X143611600Y-59138572D01*
X143611600Y-58705750D01*
X143554450Y-58648600D01*
X143256000Y-58648600D01*
X143002000Y-58648600D01*
X142703550Y-58648600D01*
X142646400Y-58705750D01*
X126953600Y-58705750D01*
X126953600Y-57904628D01*
X142646400Y-57904628D01*
X142646400Y-58337450D01*
X142703550Y-58394600D01*
X143002000Y-58394600D01*
X143002000Y-57778650D01*
X143256000Y-57778650D01*
X143256000Y-58394600D01*
X143554450Y-58394600D01*
X143611600Y-58337450D01*
X143611600Y-57904628D01*
X143576797Y-57820608D01*
X143512491Y-57756302D01*
X143428471Y-57721500D01*
X143313150Y-57721500D01*
X143256000Y-57778650D01*
X143002000Y-57778650D01*
X142944850Y-57721500D01*
X142829529Y-57721500D01*
X142745509Y-57756302D01*
X142681203Y-57820608D01*
X142646400Y-57904628D01*
X126953600Y-57904628D01*
X126953600Y-55102882D01*
X134820335Y-55102882D01*
X135052682Y-55665204D01*
X135482533Y-56095806D01*
X136044449Y-56329134D01*
X136652882Y-56329665D01*
X137215204Y-56097318D01*
X137645806Y-55667467D01*
X137879134Y-55105551D01*
X137879665Y-54497118D01*
X137647318Y-53934796D01*
X137217467Y-53504194D01*
X136655551Y-53270866D01*
X136047118Y-53270335D01*
X135484796Y-53502682D01*
X135054194Y-53932533D01*
X134820866Y-54494449D01*
X134820335Y-55102882D01*
X126953600Y-55102882D01*
X126953600Y-53211463D01*
X132918142Y-53211463D01*
X133069770Y-53389961D01*
X133622808Y-53590349D01*
X134210434Y-53563845D01*
X134630230Y-53389961D01*
X134781858Y-53211463D01*
X133850000Y-52279605D01*
X132918142Y-53211463D01*
X126953600Y-53211463D01*
X126953600Y-51872808D01*
X132359651Y-51872808D01*
X132386155Y-52460434D01*
X132560039Y-52880230D01*
X132738537Y-53031858D01*
X133670395Y-52100000D01*
X134029605Y-52100000D01*
X134961463Y-53031858D01*
X135139961Y-52880230D01*
X135312923Y-52402882D01*
X137320335Y-52402882D01*
X137552682Y-52965204D01*
X137982533Y-53395806D01*
X138544449Y-53629134D01*
X139152882Y-53629665D01*
X139715204Y-53397318D01*
X140145806Y-52967467D01*
X140379134Y-52405551D01*
X140379665Y-51797118D01*
X140147318Y-51234796D01*
X139717467Y-50804194D01*
X139155551Y-50570866D01*
X138547118Y-50570335D01*
X137984796Y-50802682D01*
X137554194Y-51232533D01*
X137320866Y-51794449D01*
X137320335Y-52402882D01*
X135312923Y-52402882D01*
X135340349Y-52327192D01*
X135313845Y-51739566D01*
X135139961Y-51319770D01*
X134961463Y-51168142D01*
X134029605Y-52100000D01*
X133670395Y-52100000D01*
X132738537Y-51168142D01*
X132560039Y-51319770D01*
X132359651Y-51872808D01*
X126953600Y-51872808D01*
X126953600Y-50988537D01*
X132918142Y-50988537D01*
X133850000Y-51920395D01*
X134781858Y-50988537D01*
X134630230Y-50810039D01*
X134077192Y-50609651D01*
X133489566Y-50636155D01*
X133069770Y-50810039D01*
X132918142Y-50988537D01*
X126953600Y-50988537D01*
X126953600Y-49703600D01*
X173346400Y-49703600D01*
X173346400Y-80546400D01*
X173346400Y-80546400D01*
G37*
X173346400Y-80546400D02*
X126953600Y-80546400D01*
X126953600Y-65650000D01*
X127465127Y-65650000D01*
X127465127Y-68050000D01*
X127484609Y-68153539D01*
X127545801Y-68248634D01*
X127639168Y-68312429D01*
X127750000Y-68334873D01*
X130150000Y-68334873D01*
X130253539Y-68315391D01*
X130348634Y-68254199D01*
X130412429Y-68160832D01*
X130434873Y-68050000D01*
X130434873Y-67739000D01*
X131750000Y-67739000D01*
X132090206Y-67671329D01*
X132219596Y-67584873D01*
X132400000Y-67584873D01*
X132503539Y-67565391D01*
X132598634Y-67504199D01*
X132662429Y-67410832D01*
X132684873Y-67300000D01*
X132684873Y-67022116D01*
X132739000Y-66750000D01*
X132684873Y-66477885D01*
X132684873Y-66200000D01*
X132665391Y-66096461D01*
X132604199Y-66001366D01*
X132510832Y-65937571D01*
X132400000Y-65915127D01*
X132122115Y-65915127D01*
X131850000Y-65861000D01*
X131577884Y-65915127D01*
X131300000Y-65915127D01*
X131196461Y-65934609D01*
X131155448Y-65961000D01*
X130434873Y-65961000D01*
X130434873Y-65650000D01*
X130415391Y-65546461D01*
X130354199Y-65451366D01*
X130260832Y-65387571D01*
X130150000Y-65365127D01*
X127750000Y-65365127D01*
X127646461Y-65384609D01*
X127551366Y-65445801D01*
X127487571Y-65539168D01*
X127465127Y-65650000D01*
X126953600Y-65650000D01*
X126953600Y-64542000D01*
X133350000Y-64542000D01*
X133350000Y-75285600D01*
X133377068Y-75421683D01*
X133454153Y-75537047D01*
X135994153Y-78077047D01*
X136109518Y-78154132D01*
X136245600Y-78181200D01*
X140366162Y-78181200D01*
X140502245Y-78154132D01*
X140617609Y-78077047D01*
X142151661Y-76542995D01*
X145421944Y-76542995D01*
X145613086Y-76917939D01*
X145933163Y-77191195D01*
X146167007Y-77288043D01*
X146333000Y-77263524D01*
X146333000Y-76377000D01*
X146587000Y-76377000D01*
X146587000Y-77263524D01*
X146752993Y-77288043D01*
X146986837Y-77191195D01*
X147306914Y-76917939D01*
X147498056Y-76542995D01*
X147961944Y-76542995D01*
X148153086Y-76917939D01*
X148473163Y-77191195D01*
X148707007Y-77288043D01*
X148873000Y-77263524D01*
X148873000Y-76377000D01*
X149127000Y-76377000D01*
X149127000Y-77263524D01*
X149292993Y-77288043D01*
X149526837Y-77191195D01*
X149846914Y-76917939D01*
X150038056Y-76542995D01*
X150501944Y-76542995D01*
X150693086Y-76917939D01*
X151013163Y-77191195D01*
X151247007Y-77288043D01*
X151413000Y-77263524D01*
X151413000Y-76377000D01*
X151667000Y-76377000D01*
X151667000Y-77263524D01*
X151832993Y-77288043D01*
X152066837Y-77191195D01*
X152386914Y-76917939D01*
X152578056Y-76542995D01*
X153041944Y-76542995D01*
X153233086Y-76917939D01*
X153553163Y-77191195D01*
X153787007Y-77288043D01*
X153953000Y-77263524D01*
X153953000Y-76377000D01*
X154207000Y-76377000D01*
X154207000Y-77263524D01*
X154372993Y-77288043D01*
X154606837Y-77191195D01*
X154926914Y-76917939D01*
X155118056Y-76542995D01*
X155581944Y-76542995D01*
X155773086Y-76917939D01*
X156093163Y-77191195D01*
X156327007Y-77288043D01*
X156493000Y-77263524D01*
X156493000Y-76377000D01*
X156747000Y-76377000D01*
X156747000Y-77263524D01*
X156912993Y-77288043D01*
X157146837Y-77191195D01*
X157466914Y-76917939D01*
X157658056Y-76542995D01*
X158121944Y-76542995D01*
X158313086Y-76917939D01*
X158633163Y-77191195D01*
X158867007Y-77288043D01*
X159033000Y-77263524D01*
X159033000Y-76377000D01*
X159287000Y-76377000D01*
X159287000Y-77263524D01*
X159452993Y-77288043D01*
X159686837Y-77191195D01*
X160006914Y-76917939D01*
X160198056Y-76542995D01*
X160661944Y-76542995D01*
X160853086Y-76917939D01*
X161173163Y-77191195D01*
X161407007Y-77288043D01*
X161573000Y-77263524D01*
X161573000Y-76377000D01*
X161827000Y-76377000D01*
X161827000Y-77263524D01*
X161992993Y-77288043D01*
X162226837Y-77191195D01*
X162546914Y-76917939D01*
X162738056Y-76542995D01*
X163201944Y-76542995D01*
X163393086Y-76917939D01*
X163713163Y-77191195D01*
X163947007Y-77288043D01*
X164113000Y-77263524D01*
X164113000Y-76377000D01*
X164367000Y-76377000D01*
X164367000Y-77263524D01*
X164532993Y-77288043D01*
X164766837Y-77191195D01*
X165086914Y-76917939D01*
X165278056Y-76542995D01*
X165741944Y-76542995D01*
X165933086Y-76917939D01*
X166253163Y-77191195D01*
X166487007Y-77288043D01*
X166653000Y-77263524D01*
X166653000Y-76377000D01*
X166907000Y-76377000D01*
X166907000Y-77263524D01*
X167072993Y-77288043D01*
X167306837Y-77191195D01*
X167626914Y-76917939D01*
X167818056Y-76542995D01*
X168281944Y-76542995D01*
X168473086Y-76917939D01*
X168793163Y-77191195D01*
X169027007Y-77288043D01*
X169193000Y-77263524D01*
X169193000Y-76377000D01*
X169447000Y-76377000D01*
X169447000Y-77263524D01*
X169612993Y-77288043D01*
X169846837Y-77191195D01*
X170166914Y-76917939D01*
X170358056Y-76542995D01*
X170333960Y-76377000D01*
X169447000Y-76377000D01*
X169193000Y-76377000D01*
X168306040Y-76377000D01*
X168281944Y-76542995D01*
X167818056Y-76542995D01*
X167793960Y-76377000D01*
X166907000Y-76377000D01*
X166653000Y-76377000D01*
X165766040Y-76377000D01*
X165741944Y-76542995D01*
X165278056Y-76542995D01*
X165253960Y-76377000D01*
X164367000Y-76377000D01*
X164113000Y-76377000D01*
X163226040Y-76377000D01*
X163201944Y-76542995D01*
X162738056Y-76542995D01*
X162713960Y-76377000D01*
X161827000Y-76377000D01*
X161573000Y-76377000D01*
X160686040Y-76377000D01*
X160661944Y-76542995D01*
X160198056Y-76542995D01*
X160173960Y-76377000D01*
X159287000Y-76377000D01*
X159033000Y-76377000D01*
X158146040Y-76377000D01*
X158121944Y-76542995D01*
X157658056Y-76542995D01*
X157633960Y-76377000D01*
X156747000Y-76377000D01*
X156493000Y-76377000D01*
X155606040Y-76377000D01*
X155581944Y-76542995D01*
X155118056Y-76542995D01*
X155093960Y-76377000D01*
X154207000Y-76377000D01*
X153953000Y-76377000D01*
X153066040Y-76377000D01*
X153041944Y-76542995D01*
X152578056Y-76542995D01*
X152553960Y-76377000D01*
X151667000Y-76377000D01*
X151413000Y-76377000D01*
X150526040Y-76377000D01*
X150501944Y-76542995D01*
X150038056Y-76542995D01*
X150013960Y-76377000D01*
X149127000Y-76377000D01*
X148873000Y-76377000D01*
X147986040Y-76377000D01*
X147961944Y-76542995D01*
X147498056Y-76542995D01*
X147473960Y-76377000D01*
X146587000Y-76377000D01*
X146333000Y-76377000D01*
X145446040Y-76377000D01*
X145421944Y-76542995D01*
X142151661Y-76542995D01*
X142737651Y-75957005D01*
X145421944Y-75957005D01*
X145446040Y-76123000D01*
X146333000Y-76123000D01*
X146333000Y-75236476D01*
X146587000Y-75236476D01*
X146587000Y-76123000D01*
X147473960Y-76123000D01*
X147498056Y-75957005D01*
X147961944Y-75957005D01*
X147986040Y-76123000D01*
X148873000Y-76123000D01*
X148873000Y-75236476D01*
X149127000Y-75236476D01*
X149127000Y-76123000D01*
X150013960Y-76123000D01*
X150038056Y-75957005D01*
X150501944Y-75957005D01*
X150526040Y-76123000D01*
X151413000Y-76123000D01*
X151413000Y-75236476D01*
X151667000Y-75236476D01*
X151667000Y-76123000D01*
X152553960Y-76123000D01*
X152578056Y-75957005D01*
X153041944Y-75957005D01*
X153066040Y-76123000D01*
X153953000Y-76123000D01*
X153953000Y-75236476D01*
X154207000Y-75236476D01*
X154207000Y-76123000D01*
X155093960Y-76123000D01*
X155118056Y-75957005D01*
X155581944Y-75957005D01*
X155606040Y-76123000D01*
X156493000Y-76123000D01*
X156493000Y-75236476D01*
X156747000Y-75236476D01*
X156747000Y-76123000D01*
X157633960Y-76123000D01*
X157658056Y-75957005D01*
X158121944Y-75957005D01*
X158146040Y-76123000D01*
X159033000Y-76123000D01*
X159033000Y-75236476D01*
X159287000Y-75236476D01*
X159287000Y-76123000D01*
X160173960Y-76123000D01*
X160198056Y-75957005D01*
X160661944Y-75957005D01*
X160686040Y-76123000D01*
X161573000Y-76123000D01*
X161573000Y-75236476D01*
X161827000Y-75236476D01*
X161827000Y-76123000D01*
X162713960Y-76123000D01*
X162738056Y-75957005D01*
X163201944Y-75957005D01*
X163226040Y-76123000D01*
X164113000Y-76123000D01*
X164113000Y-75236476D01*
X164367000Y-75236476D01*
X164367000Y-76123000D01*
X165253960Y-76123000D01*
X165278056Y-75957005D01*
X165741944Y-75957005D01*
X165766040Y-76123000D01*
X166653000Y-76123000D01*
X166653000Y-75236476D01*
X166907000Y-75236476D01*
X166907000Y-76123000D01*
X167793960Y-76123000D01*
X167818056Y-75957005D01*
X168281944Y-75957005D01*
X168306040Y-76123000D01*
X169193000Y-76123000D01*
X169193000Y-75236476D01*
X169447000Y-75236476D01*
X169447000Y-76123000D01*
X170333960Y-76123000D01*
X170358056Y-75957005D01*
X170166914Y-75582061D01*
X169846837Y-75308805D01*
X169612993Y-75211957D01*
X169447000Y-75236476D01*
X169193000Y-75236476D01*
X169027007Y-75211957D01*
X168793163Y-75308805D01*
X168473086Y-75582061D01*
X168281944Y-75957005D01*
X167818056Y-75957005D01*
X167626914Y-75582061D01*
X167306837Y-75308805D01*
X167072993Y-75211957D01*
X166907000Y-75236476D01*
X166653000Y-75236476D01*
X166487007Y-75211957D01*
X166253163Y-75308805D01*
X165933086Y-75582061D01*
X165741944Y-75957005D01*
X165278056Y-75957005D01*
X165086914Y-75582061D01*
X164766837Y-75308805D01*
X164532993Y-75211957D01*
X164367000Y-75236476D01*
X164113000Y-75236476D01*
X163947007Y-75211957D01*
X163713163Y-75308805D01*
X163393086Y-75582061D01*
X163201944Y-75957005D01*
X162738056Y-75957005D01*
X162546914Y-75582061D01*
X162226837Y-75308805D01*
X161992993Y-75211957D01*
X161827000Y-75236476D01*
X161573000Y-75236476D01*
X161407007Y-75211957D01*
X161173163Y-75308805D01*
X160853086Y-75582061D01*
X160661944Y-75957005D01*
X160198056Y-75957005D01*
X160006914Y-75582061D01*
X159686837Y-75308805D01*
X159452993Y-75211957D01*
X159287000Y-75236476D01*
X159033000Y-75236476D01*
X158867007Y-75211957D01*
X158633163Y-75308805D01*
X158313086Y-75582061D01*
X158121944Y-75957005D01*
X157658056Y-75957005D01*
X157466914Y-75582061D01*
X157146837Y-75308805D01*
X156912993Y-75211957D01*
X156747000Y-75236476D01*
X156493000Y-75236476D01*
X156327007Y-75211957D01*
X156093163Y-75308805D01*
X155773086Y-75582061D01*
X155581944Y-75957005D01*
X155118056Y-75957005D01*
X154926914Y-75582061D01*
X154606837Y-75308805D01*
X154372993Y-75211957D01*
X154207000Y-75236476D01*
X153953000Y-75236476D01*
X153787007Y-75211957D01*
X153553163Y-75308805D01*
X153233086Y-75582061D01*
X153041944Y-75957005D01*
X152578056Y-75957005D01*
X152386914Y-75582061D01*
X152066837Y-75308805D01*
X151832993Y-75211957D01*
X151667000Y-75236476D01*
X151413000Y-75236476D01*
X151247007Y-75211957D01*
X151013163Y-75308805D01*
X150693086Y-75582061D01*
X150501944Y-75957005D01*
X150038056Y-75957005D01*
X149846914Y-75582061D01*
X149526837Y-75308805D01*
X149292993Y-75211957D01*
X149127000Y-75236476D01*
X148873000Y-75236476D01*
X148707007Y-75211957D01*
X148473163Y-75308805D01*
X148153086Y-75582061D01*
X147961944Y-75957005D01*
X147498056Y-75957005D01*
X147306914Y-75582061D01*
X146986837Y-75308805D01*
X146752993Y-75211957D01*
X146587000Y-75236476D01*
X146333000Y-75236476D01*
X146167007Y-75211957D01*
X145933163Y-75308805D01*
X145613086Y-75582061D01*
X145421944Y-75957005D01*
X142737651Y-75957005D01*
X143493449Y-75201208D01*
X143570533Y-75085843D01*
X143597601Y-74949761D01*
X143597601Y-74218239D01*
X143570533Y-74082157D01*
X143493448Y-73966792D01*
X143214530Y-73687874D01*
X145330600Y-73687874D01*
X145330600Y-73732126D01*
X145416570Y-74164329D01*
X145661394Y-74530732D01*
X146027797Y-74775556D01*
X146460000Y-74861526D01*
X146892203Y-74775556D01*
X147258606Y-74530732D01*
X147503430Y-74164329D01*
X147589400Y-73732126D01*
X147589400Y-73687874D01*
X147870600Y-73687874D01*
X147870600Y-73732126D01*
X147956570Y-74164329D01*
X148201394Y-74530732D01*
X148567797Y-74775556D01*
X149000000Y-74861526D01*
X149432203Y-74775556D01*
X149798606Y-74530732D01*
X150043430Y-74164329D01*
X150129400Y-73732126D01*
X150129400Y-73687874D01*
X150410600Y-73687874D01*
X150410600Y-73732126D01*
X150496570Y-74164329D01*
X150741394Y-74530732D01*
X151107797Y-74775556D01*
X151540000Y-74861526D01*
X151972203Y-74775556D01*
X152338606Y-74530732D01*
X152583430Y-74164329D01*
X152669400Y-73732126D01*
X152669400Y-73687874D01*
X152950600Y-73687874D01*
X152950600Y-73732126D01*
X153036570Y-74164329D01*
X153281394Y-74530732D01*
X153647797Y-74775556D01*
X154080000Y-74861526D01*
X154512203Y-74775556D01*
X154878606Y-74530732D01*
X155123430Y-74164329D01*
X155209400Y-73732126D01*
X155209400Y-73687874D01*
X155490600Y-73687874D01*
X155490600Y-73732126D01*
X155576570Y-74164329D01*
X155821394Y-74530732D01*
X156187797Y-74775556D01*
X156620000Y-74861526D01*
X157052203Y-74775556D01*
X157418606Y-74530732D01*
X157663430Y-74164329D01*
X157749400Y-73732126D01*
X157749400Y-73687874D01*
X158030600Y-73687874D01*
X158030600Y-73732126D01*
X158116570Y-74164329D01*
X158361394Y-74530732D01*
X158727797Y-74775556D01*
X159160000Y-74861526D01*
X159592203Y-74775556D01*
X159958606Y-74530732D01*
X160203430Y-74164329D01*
X160289400Y-73732126D01*
X160289400Y-73687874D01*
X160570600Y-73687874D01*
X160570600Y-73732126D01*
X160656570Y-74164329D01*
X160901394Y-74530732D01*
X161267797Y-74775556D01*
X161700000Y-74861526D01*
X162132203Y-74775556D01*
X162498606Y-74530732D01*
X162743430Y-74164329D01*
X162829400Y-73732126D01*
X162829400Y-73687874D01*
X163110600Y-73687874D01*
X163110600Y-73732126D01*
X163196570Y-74164329D01*
X163441394Y-74530732D01*
X163807797Y-74775556D01*
X164240000Y-74861526D01*
X164672203Y-74775556D01*
X165038606Y-74530732D01*
X165283430Y-74164329D01*
X165369400Y-73732126D01*
X165369400Y-73687874D01*
X165650600Y-73687874D01*
X165650600Y-73732126D01*
X165736570Y-74164329D01*
X165981394Y-74530732D01*
X166347797Y-74775556D01*
X166780000Y-74861526D01*
X167212203Y-74775556D01*
X167578606Y-74530732D01*
X167823430Y-74164329D01*
X167909400Y-73732126D01*
X167909400Y-73687874D01*
X167823430Y-73255671D01*
X167578606Y-72889268D01*
X167534804Y-72860000D01*
X168185127Y-72860000D01*
X168185127Y-74560000D01*
X168204609Y-74663539D01*
X168265801Y-74758634D01*
X168359168Y-74822429D01*
X168470000Y-74844873D01*
X170170000Y-74844873D01*
X170273539Y-74825391D01*
X170368634Y-74764199D01*
X170432429Y-74670832D01*
X170454873Y-74560000D01*
X170454873Y-72860000D01*
X170435391Y-72756461D01*
X170374199Y-72661366D01*
X170280832Y-72597571D01*
X170170000Y-72575127D01*
X169751800Y-72575127D01*
X169751800Y-71774873D01*
X169970000Y-71774873D01*
X170073539Y-71755391D01*
X170168634Y-71694199D01*
X170232429Y-71600832D01*
X170254873Y-71490000D01*
X170254873Y-69990000D01*
X170235391Y-69886461D01*
X170174199Y-69791366D01*
X170080832Y-69727571D01*
X169970000Y-69705127D01*
X168670000Y-69705127D01*
X168566461Y-69724609D01*
X168471366Y-69785801D01*
X168407571Y-69879168D01*
X168385127Y-69990000D01*
X168385127Y-71490000D01*
X168404609Y-71593539D01*
X168465801Y-71688634D01*
X168559168Y-71752429D01*
X168670000Y-71774873D01*
X168888200Y-71774873D01*
X168888200Y-72575127D01*
X168470000Y-72575127D01*
X168366461Y-72594609D01*
X168271366Y-72655801D01*
X168207571Y-72749168D01*
X168185127Y-72860000D01*
X167534804Y-72860000D01*
X167212203Y-72644444D01*
X166780000Y-72558474D01*
X166347797Y-72644444D01*
X165981394Y-72889268D01*
X165736570Y-73255671D01*
X165650600Y-73687874D01*
X165369400Y-73687874D01*
X165283430Y-73255671D01*
X165038606Y-72889268D01*
X164711800Y-72670902D01*
X164711800Y-71764873D01*
X164930000Y-71764873D01*
X165033539Y-71745391D01*
X165128634Y-71684199D01*
X165192429Y-71590832D01*
X165214873Y-71480000D01*
X165214873Y-70914150D01*
X165921400Y-70914150D01*
X165921400Y-71525471D01*
X165956202Y-71609491D01*
X166020508Y-71673797D01*
X166104528Y-71708600D01*
X166615850Y-71708600D01*
X166673000Y-71651450D01*
X166673000Y-70857000D01*
X166927000Y-70857000D01*
X166927000Y-71651450D01*
X166984150Y-71708600D01*
X167495472Y-71708600D01*
X167579492Y-71673797D01*
X167643798Y-71609491D01*
X167678600Y-71525471D01*
X167678600Y-70914150D01*
X167621450Y-70857000D01*
X166927000Y-70857000D01*
X166673000Y-70857000D01*
X165978550Y-70857000D01*
X165921400Y-70914150D01*
X165214873Y-70914150D01*
X165214873Y-69980000D01*
X165206318Y-69934529D01*
X165921400Y-69934529D01*
X165921400Y-70545850D01*
X165978550Y-70603000D01*
X166673000Y-70603000D01*
X166673000Y-69808550D01*
X166927000Y-69808550D01*
X166927000Y-70603000D01*
X167621450Y-70603000D01*
X167678600Y-70545850D01*
X167678600Y-69934529D01*
X167643798Y-69850509D01*
X167579492Y-69786203D01*
X167495472Y-69751400D01*
X166984150Y-69751400D01*
X166927000Y-69808550D01*
X166673000Y-69808550D01*
X166615850Y-69751400D01*
X166104528Y-69751400D01*
X166020508Y-69786203D01*
X165956202Y-69850509D01*
X165921400Y-69934529D01*
X165206318Y-69934529D01*
X165195391Y-69876461D01*
X165134199Y-69781366D01*
X165040832Y-69717571D01*
X164930000Y-69695127D01*
X163630000Y-69695127D01*
X163526461Y-69714609D01*
X163431366Y-69775801D01*
X163367571Y-69869168D01*
X163345127Y-69980000D01*
X163345127Y-71480000D01*
X163364609Y-71583539D01*
X163425801Y-71678634D01*
X163519168Y-71742429D01*
X163630000Y-71764873D01*
X163848200Y-71764873D01*
X163848200Y-72636407D01*
X163807797Y-72644444D01*
X163441394Y-72889268D01*
X163196570Y-73255671D01*
X163110600Y-73687874D01*
X162829400Y-73687874D01*
X162743430Y-73255671D01*
X162498606Y-72889268D01*
X162132203Y-72644444D01*
X161700000Y-72558474D01*
X161267797Y-72644444D01*
X160901394Y-72889268D01*
X160656570Y-73255671D01*
X160570600Y-73687874D01*
X160289400Y-73687874D01*
X160203430Y-73255671D01*
X159958606Y-72889268D01*
X159601800Y-72650857D01*
X159601800Y-71784873D01*
X159820000Y-71784873D01*
X159923539Y-71765391D01*
X160018634Y-71704199D01*
X160082429Y-71610832D01*
X160104873Y-71500000D01*
X160104873Y-70934150D01*
X160841400Y-70934150D01*
X160841400Y-71545471D01*
X160876202Y-71629491D01*
X160940508Y-71693797D01*
X161024528Y-71728600D01*
X161535850Y-71728600D01*
X161593000Y-71671450D01*
X161593000Y-70877000D01*
X161847000Y-70877000D01*
X161847000Y-71671450D01*
X161904150Y-71728600D01*
X162415472Y-71728600D01*
X162499492Y-71693797D01*
X162563798Y-71629491D01*
X162598600Y-71545471D01*
X162598600Y-70934150D01*
X162541450Y-70877000D01*
X161847000Y-70877000D01*
X161593000Y-70877000D01*
X160898550Y-70877000D01*
X160841400Y-70934150D01*
X160104873Y-70934150D01*
X160104873Y-70000000D01*
X160096318Y-69954529D01*
X160841400Y-69954529D01*
X160841400Y-70565850D01*
X160898550Y-70623000D01*
X161593000Y-70623000D01*
X161593000Y-69828550D01*
X161847000Y-69828550D01*
X161847000Y-70623000D01*
X162541450Y-70623000D01*
X162598600Y-70565850D01*
X162598600Y-69954529D01*
X162563798Y-69870509D01*
X162499492Y-69806203D01*
X162415472Y-69771400D01*
X161904150Y-69771400D01*
X161847000Y-69828550D01*
X161593000Y-69828550D01*
X161535850Y-69771400D01*
X161024528Y-69771400D01*
X160940508Y-69806203D01*
X160876202Y-69870509D01*
X160841400Y-69954529D01*
X160096318Y-69954529D01*
X160085391Y-69896461D01*
X160024199Y-69801366D01*
X159930832Y-69737571D01*
X159820000Y-69715127D01*
X158520000Y-69715127D01*
X158416461Y-69734609D01*
X158321366Y-69795801D01*
X158257571Y-69889168D01*
X158235127Y-70000000D01*
X158235127Y-71500000D01*
X158254609Y-71603539D01*
X158315801Y-71698634D01*
X158409168Y-71762429D01*
X158520000Y-71784873D01*
X158738200Y-71784873D01*
X158738200Y-72642375D01*
X158727797Y-72644444D01*
X158361394Y-72889268D01*
X158116570Y-73255671D01*
X158030600Y-73687874D01*
X157749400Y-73687874D01*
X157663430Y-73255671D01*
X157418606Y-72889268D01*
X157052203Y-72644444D01*
X156620000Y-72558474D01*
X156187797Y-72644444D01*
X155821394Y-72889268D01*
X155576570Y-73255671D01*
X155490600Y-73687874D01*
X155209400Y-73687874D01*
X155123430Y-73255671D01*
X154878606Y-72889268D01*
X154512203Y-72644444D01*
X154501800Y-72642375D01*
X154501800Y-71784873D01*
X154720000Y-71784873D01*
X154823539Y-71765391D01*
X154918634Y-71704199D01*
X154982429Y-71610832D01*
X155004873Y-71500000D01*
X155004873Y-70934150D01*
X155741400Y-70934150D01*
X155741400Y-71545471D01*
X155776202Y-71629491D01*
X155840508Y-71693797D01*
X155924528Y-71728600D01*
X156435850Y-71728600D01*
X156493000Y-71671450D01*
X156493000Y-70877000D01*
X156747000Y-70877000D01*
X156747000Y-71671450D01*
X156804150Y-71728600D01*
X157315472Y-71728600D01*
X157399492Y-71693797D01*
X157463798Y-71629491D01*
X157498600Y-71545471D01*
X157498600Y-70934150D01*
X157441450Y-70877000D01*
X156747000Y-70877000D01*
X156493000Y-70877000D01*
X155798550Y-70877000D01*
X155741400Y-70934150D01*
X155004873Y-70934150D01*
X155004873Y-70000000D01*
X154996318Y-69954529D01*
X155741400Y-69954529D01*
X155741400Y-70565850D01*
X155798550Y-70623000D01*
X156493000Y-70623000D01*
X156493000Y-69828550D01*
X156747000Y-69828550D01*
X156747000Y-70623000D01*
X157441450Y-70623000D01*
X157498600Y-70565850D01*
X157498600Y-69954529D01*
X157463798Y-69870509D01*
X157399492Y-69806203D01*
X157315472Y-69771400D01*
X156804150Y-69771400D01*
X156747000Y-69828550D01*
X156493000Y-69828550D01*
X156435850Y-69771400D01*
X155924528Y-69771400D01*
X155840508Y-69806203D01*
X155776202Y-69870509D01*
X155741400Y-69954529D01*
X154996318Y-69954529D01*
X154985391Y-69896461D01*
X154924199Y-69801366D01*
X154830832Y-69737571D01*
X154720000Y-69715127D01*
X153420000Y-69715127D01*
X153316461Y-69734609D01*
X153221366Y-69795801D01*
X153157571Y-69889168D01*
X153135127Y-70000000D01*
X153135127Y-71500000D01*
X153154609Y-71603539D01*
X153215801Y-71698634D01*
X153309168Y-71762429D01*
X153420000Y-71784873D01*
X153638200Y-71784873D01*
X153638200Y-72650857D01*
X153281394Y-72889268D01*
X153036570Y-73255671D01*
X152950600Y-73687874D01*
X152669400Y-73687874D01*
X152583430Y-73255671D01*
X152338606Y-72889268D01*
X151972203Y-72644444D01*
X151540000Y-72558474D01*
X151107797Y-72644444D01*
X150741394Y-72889268D01*
X150496570Y-73255671D01*
X150410600Y-73687874D01*
X150129400Y-73687874D01*
X150043430Y-73255671D01*
X149798606Y-72889268D01*
X149432203Y-72644444D01*
X149431800Y-72644364D01*
X149431800Y-71774873D01*
X149650000Y-71774873D01*
X149753539Y-71755391D01*
X149848634Y-71694199D01*
X149912429Y-71600832D01*
X149934873Y-71490000D01*
X149934873Y-70924150D01*
X150671400Y-70924150D01*
X150671400Y-71535471D01*
X150706202Y-71619491D01*
X150770508Y-71683797D01*
X150854528Y-71718600D01*
X151365850Y-71718600D01*
X151423000Y-71661450D01*
X151423000Y-70867000D01*
X151677000Y-70867000D01*
X151677000Y-71661450D01*
X151734150Y-71718600D01*
X152245472Y-71718600D01*
X152329492Y-71683797D01*
X152393798Y-71619491D01*
X152428600Y-71535471D01*
X152428600Y-70924150D01*
X152371450Y-70867000D01*
X151677000Y-70867000D01*
X151423000Y-70867000D01*
X150728550Y-70867000D01*
X150671400Y-70924150D01*
X149934873Y-70924150D01*
X149934873Y-69990000D01*
X149926318Y-69944529D01*
X150671400Y-69944529D01*
X150671400Y-70555850D01*
X150728550Y-70613000D01*
X151423000Y-70613000D01*
X151423000Y-69818550D01*
X151677000Y-69818550D01*
X151677000Y-70613000D01*
X152371450Y-70613000D01*
X152428600Y-70555850D01*
X152428600Y-69944529D01*
X152393798Y-69860509D01*
X152329492Y-69796203D01*
X152245472Y-69761400D01*
X151734150Y-69761400D01*
X151677000Y-69818550D01*
X151423000Y-69818550D01*
X151365850Y-69761400D01*
X150854528Y-69761400D01*
X150770508Y-69796203D01*
X150706202Y-69860509D01*
X150671400Y-69944529D01*
X149926318Y-69944529D01*
X149915391Y-69886461D01*
X149854199Y-69791366D01*
X149760832Y-69727571D01*
X149650000Y-69705127D01*
X148350000Y-69705127D01*
X148246461Y-69724609D01*
X148151366Y-69785801D01*
X148087571Y-69879168D01*
X148065127Y-69990000D01*
X148065127Y-71490000D01*
X148084609Y-71593539D01*
X148145801Y-71688634D01*
X148239168Y-71752429D01*
X148350000Y-71774873D01*
X148568200Y-71774873D01*
X148568200Y-72644364D01*
X148567797Y-72644444D01*
X148201394Y-72889268D01*
X147956570Y-73255671D01*
X147870600Y-73687874D01*
X147589400Y-73687874D01*
X147503430Y-73255671D01*
X147258606Y-72889268D01*
X146892203Y-72644444D01*
X146460000Y-72558474D01*
X146027797Y-72644444D01*
X145661394Y-72889268D01*
X145416570Y-73255671D01*
X145330600Y-73687874D01*
X143214530Y-73687874D01*
X142792410Y-73265754D01*
X142677046Y-73188669D01*
X142540963Y-73161601D01*
X141641799Y-73161601D01*
X141505716Y-73188669D01*
X141401373Y-73258390D01*
X141352087Y-73237924D01*
X141069154Y-73237677D01*
X140807664Y-73345723D01*
X140607426Y-73545612D01*
X140575054Y-73623571D01*
X140543277Y-73546664D01*
X140343388Y-73346426D01*
X140082087Y-73237924D01*
X139799154Y-73237677D01*
X139537664Y-73345723D01*
X139337426Y-73545612D01*
X139305054Y-73623571D01*
X139273277Y-73546664D01*
X139073388Y-73346426D01*
X138812087Y-73237924D01*
X138529154Y-73237677D01*
X138267664Y-73345723D01*
X138210986Y-73402302D01*
X138089460Y-73108187D01*
X137861016Y-72879343D01*
X137562385Y-72755341D01*
X137239033Y-72755059D01*
X136940187Y-72878540D01*
X136711343Y-73106984D01*
X136587341Y-73405615D01*
X136587059Y-73728967D01*
X136710540Y-74027813D01*
X136938984Y-74256657D01*
X137237615Y-74380659D01*
X137560967Y-74380941D01*
X137859813Y-74257460D01*
X137978839Y-74138642D01*
X138066723Y-74351336D01*
X138266612Y-74551574D01*
X138394968Y-74604872D01*
X138384070Y-74609386D01*
X138333447Y-74702842D01*
X138670000Y-75039395D01*
X139006553Y-74702842D01*
X138955930Y-74609386D01*
X138942283Y-74606014D01*
X139072336Y-74552277D01*
X139272574Y-74352388D01*
X139304946Y-74274429D01*
X139336723Y-74351336D01*
X139536612Y-74551574D01*
X139614571Y-74583946D01*
X139537664Y-74615723D01*
X139337426Y-74815612D01*
X139284128Y-74943968D01*
X139279614Y-74933070D01*
X139186158Y-74882447D01*
X138849605Y-75219000D01*
X139186158Y-75555553D01*
X139279614Y-75504930D01*
X139282986Y-75491283D01*
X139336723Y-75621336D01*
X139536612Y-75821574D01*
X139797913Y-75930076D01*
X139888187Y-75930155D01*
X138805553Y-77012789D01*
X136582276Y-77012789D01*
X135330455Y-75760967D01*
X136587059Y-75760967D01*
X136710540Y-76059813D01*
X136938984Y-76288657D01*
X137237615Y-76412659D01*
X137560967Y-76412941D01*
X137859813Y-76289460D01*
X138088657Y-76061016D01*
X138212659Y-75762385D01*
X138212704Y-75710430D01*
X138285441Y-75783167D01*
X138333448Y-75735160D01*
X138384070Y-75828614D01*
X138639124Y-75891630D01*
X138898879Y-75852245D01*
X138955930Y-75828614D01*
X139006553Y-75735158D01*
X138670000Y-75398605D01*
X138655858Y-75412748D01*
X138476253Y-75233143D01*
X138490395Y-75219000D01*
X138153842Y-74882447D01*
X138060386Y-74933070D01*
X138025134Y-75075749D01*
X137861016Y-74911343D01*
X137562385Y-74787341D01*
X137239033Y-74787059D01*
X136940187Y-74910540D01*
X136711343Y-75138984D01*
X136587341Y-75437615D01*
X136587059Y-75760967D01*
X135330455Y-75760967D01*
X135077200Y-75507712D01*
X135077200Y-70934150D01*
X145571400Y-70934150D01*
X145571400Y-71545471D01*
X145606202Y-71629491D01*
X145670508Y-71693797D01*
X145754528Y-71728600D01*
X146265850Y-71728600D01*
X146323000Y-71671450D01*
X146323000Y-70877000D01*
X146577000Y-70877000D01*
X146577000Y-71671450D01*
X146634150Y-71728600D01*
X147145472Y-71728600D01*
X147229492Y-71693797D01*
X147293798Y-71629491D01*
X147328600Y-71545471D01*
X147328600Y-70934150D01*
X147271450Y-70877000D01*
X146577000Y-70877000D01*
X146323000Y-70877000D01*
X145628550Y-70877000D01*
X145571400Y-70934150D01*
X135077200Y-70934150D01*
X135077200Y-69954529D01*
X145571400Y-69954529D01*
X145571400Y-70565850D01*
X145628550Y-70623000D01*
X146323000Y-70623000D01*
X146323000Y-69828550D01*
X146577000Y-69828550D01*
X146577000Y-70623000D01*
X147271450Y-70623000D01*
X147328600Y-70565850D01*
X147328600Y-69954529D01*
X147293798Y-69870509D01*
X147229492Y-69806203D01*
X147145472Y-69771400D01*
X146634150Y-69771400D01*
X146577000Y-69828550D01*
X146323000Y-69828550D01*
X146265850Y-69771400D01*
X145754528Y-69771400D01*
X145670508Y-69806203D01*
X145606202Y-69870509D01*
X145571400Y-69954529D01*
X135077200Y-69954529D01*
X135077200Y-67639000D01*
X136023515Y-67639000D01*
X136045801Y-67673634D01*
X136139168Y-67737429D01*
X136250000Y-67759873D01*
X137750000Y-67759873D01*
X137853539Y-67740391D01*
X137948634Y-67679199D01*
X138012429Y-67585832D01*
X138034873Y-67475000D01*
X138034873Y-67034150D01*
X138521400Y-67034150D01*
X138521400Y-67520472D01*
X138556203Y-67604492D01*
X138620509Y-67668798D01*
X138704529Y-67703600D01*
X139315850Y-67703600D01*
X139373000Y-67646450D01*
X139373000Y-66977000D01*
X139627000Y-66977000D01*
X139627000Y-67646450D01*
X139684150Y-67703600D01*
X140295471Y-67703600D01*
X140379491Y-67668798D01*
X140443797Y-67604492D01*
X140478600Y-67520472D01*
X140478600Y-67034150D01*
X140421450Y-66977000D01*
X139627000Y-66977000D01*
X139373000Y-66977000D01*
X138578550Y-66977000D01*
X138521400Y-67034150D01*
X138034873Y-67034150D01*
X138034873Y-66225000D01*
X138026317Y-66179528D01*
X138521400Y-66179528D01*
X138521400Y-66665850D01*
X138578550Y-66723000D01*
X139373000Y-66723000D01*
X139373000Y-66053550D01*
X139627000Y-66053550D01*
X139627000Y-66723000D01*
X140421450Y-66723000D01*
X140478600Y-66665850D01*
X140478600Y-66179528D01*
X140443797Y-66095508D01*
X140379491Y-66031202D01*
X140295471Y-65996400D01*
X139684150Y-65996400D01*
X139627000Y-66053550D01*
X139373000Y-66053550D01*
X139315850Y-65996400D01*
X138704529Y-65996400D01*
X138620509Y-66031202D01*
X138556203Y-66095508D01*
X138521400Y-66179528D01*
X138026317Y-66179528D01*
X138015391Y-66121461D01*
X137954199Y-66026366D01*
X137889000Y-65981817D01*
X137889000Y-65645121D01*
X137912429Y-65610832D01*
X137934873Y-65500000D01*
X137934873Y-65334200D01*
X142590127Y-65334200D01*
X142590127Y-65443100D01*
X142609609Y-65546639D01*
X142670801Y-65641734D01*
X142764168Y-65705529D01*
X142875000Y-65727973D01*
X143383000Y-65727973D01*
X143486539Y-65708491D01*
X143581634Y-65647299D01*
X143645429Y-65553932D01*
X143667873Y-65443100D01*
X143667873Y-65096446D01*
X143668730Y-65095163D01*
X143713200Y-64871600D01*
X143668730Y-64648037D01*
X143667873Y-64646754D01*
X143667873Y-64300100D01*
X143653391Y-64223134D01*
X143849344Y-64142168D01*
X144024553Y-63967265D01*
X144119492Y-63738626D01*
X144119708Y-63491060D01*
X144025168Y-63262256D01*
X143850265Y-63087047D01*
X143621626Y-62992108D01*
X143374060Y-62991892D01*
X143145256Y-63086432D01*
X142970047Y-63261335D01*
X142875108Y-63489974D01*
X142874989Y-63625953D01*
X142823671Y-63677271D01*
X142730069Y-63817357D01*
X142697200Y-63982600D01*
X142697200Y-64082495D01*
X142676366Y-64095901D01*
X142628606Y-64165800D01*
X137934873Y-64165800D01*
X137934873Y-64000000D01*
X137915391Y-63896461D01*
X137854199Y-63801366D01*
X137760832Y-63737571D01*
X137650000Y-63715127D01*
X136350000Y-63715127D01*
X136246461Y-63734609D01*
X136151366Y-63795801D01*
X136087571Y-63889168D01*
X136065127Y-64000000D01*
X136065127Y-65500000D01*
X136084609Y-65603539D01*
X136111000Y-65644552D01*
X136111000Y-65861000D01*
X134650000Y-65861000D01*
X134377884Y-65915127D01*
X134100000Y-65915127D01*
X134061200Y-65922428D01*
X134061200Y-64689294D01*
X136065127Y-62685367D01*
X136065127Y-62800000D01*
X136084609Y-62903539D01*
X136145801Y-62998634D01*
X136239168Y-63062429D01*
X136350000Y-63084873D01*
X137650000Y-63084873D01*
X137753539Y-63065391D01*
X137848634Y-63004199D01*
X137912429Y-62910832D01*
X137934873Y-62800000D01*
X137934873Y-62481800D01*
X137954800Y-62481800D01*
X138120043Y-62448931D01*
X138260129Y-62355329D01*
X140404769Y-60210689D01*
X147269211Y-60210689D01*
X147434454Y-60177820D01*
X147574540Y-60084218D01*
X148280784Y-59377973D01*
X148463000Y-59377973D01*
X148566539Y-59358491D01*
X148640799Y-59310706D01*
X148640799Y-59403007D01*
X144147553Y-63896253D01*
X144070468Y-64011617D01*
X144070468Y-64011618D01*
X144066824Y-64029937D01*
X144041461Y-64034709D01*
X143946366Y-64095901D01*
X143882571Y-64189268D01*
X143860127Y-64300100D01*
X143860127Y-65443100D01*
X143879609Y-65546639D01*
X143940801Y-65641734D01*
X144034168Y-65705529D01*
X144145000Y-65727973D01*
X144653000Y-65727973D01*
X144756539Y-65708491D01*
X144851634Y-65647299D01*
X144915429Y-65553932D01*
X144937873Y-65443100D01*
X144937873Y-64300100D01*
X144918391Y-64196561D01*
X144892801Y-64156793D01*
X149247846Y-59801748D01*
X149324931Y-59686384D01*
X149351999Y-59550301D01*
X149351999Y-59377973D01*
X149733000Y-59377973D01*
X149836539Y-59358491D01*
X149910799Y-59310706D01*
X149910799Y-59809407D01*
X145704979Y-64015227D01*
X145415000Y-64015227D01*
X145311461Y-64034709D01*
X145216366Y-64095901D01*
X145152571Y-64189268D01*
X145130127Y-64300100D01*
X145130127Y-65443100D01*
X145149609Y-65546639D01*
X145210801Y-65641734D01*
X145304168Y-65705529D01*
X145415000Y-65727973D01*
X145923000Y-65727973D01*
X146026539Y-65708491D01*
X146121634Y-65647299D01*
X146185429Y-65553932D01*
X146207873Y-65443100D01*
X146207873Y-64518121D01*
X146400127Y-64325867D01*
X146400127Y-65443100D01*
X146419609Y-65546639D01*
X146480801Y-65641734D01*
X146574168Y-65705529D01*
X146685000Y-65727973D01*
X147193000Y-65727973D01*
X147296539Y-65708491D01*
X147391634Y-65647299D01*
X147455429Y-65553932D01*
X147477873Y-65443100D01*
X147477873Y-64518121D01*
X147670127Y-64325867D01*
X147670127Y-65443100D01*
X147689609Y-65546639D01*
X147750801Y-65641734D01*
X147844168Y-65705529D01*
X147955000Y-65727973D01*
X148463000Y-65727973D01*
X148566539Y-65708491D01*
X148661634Y-65647299D01*
X148725429Y-65553932D01*
X148747873Y-65443100D01*
X148747873Y-64300100D01*
X148728391Y-64196561D01*
X148667199Y-64101466D01*
X148573832Y-64037671D01*
X148564600Y-64035801D01*
X148564600Y-63978294D01*
X153631803Y-58911091D01*
X153631792Y-58924240D01*
X153726332Y-59153044D01*
X153901235Y-59328253D01*
X154129874Y-59423192D01*
X154377440Y-59423408D01*
X154606244Y-59328868D01*
X154702480Y-59232800D01*
X155150127Y-59232800D01*
X155150127Y-59590000D01*
X155169609Y-59693539D01*
X155200021Y-59740800D01*
X153936700Y-59740800D01*
X153800617Y-59767868D01*
X153685253Y-59844953D01*
X149514979Y-64015227D01*
X149225000Y-64015227D01*
X149121461Y-64034709D01*
X149026366Y-64095901D01*
X148962571Y-64189268D01*
X148940127Y-64300100D01*
X148940127Y-65443100D01*
X148959609Y-65546639D01*
X149020801Y-65641734D01*
X149114168Y-65705529D01*
X149225000Y-65727973D01*
X149733000Y-65727973D01*
X149836539Y-65708491D01*
X149931634Y-65647299D01*
X149995429Y-65553932D01*
X150017873Y-65443100D01*
X150017873Y-64518121D01*
X150210127Y-64325867D01*
X150210127Y-65443100D01*
X150229609Y-65546639D01*
X150290801Y-65641734D01*
X150384168Y-65705529D01*
X150495000Y-65727973D01*
X151003000Y-65727973D01*
X151106539Y-65708491D01*
X151201634Y-65647299D01*
X151265429Y-65553932D01*
X151287873Y-65443100D01*
X151287873Y-65227200D01*
X153706633Y-65227200D01*
X153842716Y-65200132D01*
X153958080Y-65123047D01*
X155150127Y-63931000D01*
X155150127Y-64990000D01*
X155169609Y-65093539D01*
X155230801Y-65188634D01*
X155324168Y-65252429D01*
X155435000Y-65274873D01*
X155658715Y-65274873D01*
X155566690Y-65366898D01*
X154030678Y-65366898D01*
X153894595Y-65393966D01*
X153779231Y-65471051D01*
X152544483Y-66705799D01*
X150781001Y-66705799D01*
X150644918Y-66732867D01*
X150529554Y-66809952D01*
X149934873Y-67404633D01*
X149934873Y-67290000D01*
X149915391Y-67186461D01*
X149854199Y-67091366D01*
X149760832Y-67027571D01*
X149650000Y-67005127D01*
X148350000Y-67005127D01*
X148246461Y-67024609D01*
X148151366Y-67085801D01*
X148087571Y-67179168D01*
X148065127Y-67290000D01*
X148065127Y-67618200D01*
X147384873Y-67618200D01*
X147384873Y-67300000D01*
X147365391Y-67196461D01*
X147304199Y-67101366D01*
X147210832Y-67037571D01*
X147100000Y-67015127D01*
X145800000Y-67015127D01*
X145696461Y-67034609D01*
X145601366Y-67095801D01*
X145537571Y-67189168D01*
X145515127Y-67300000D01*
X145515127Y-68800000D01*
X145534609Y-68903539D01*
X145595801Y-68998634D01*
X145689168Y-69062429D01*
X145800000Y-69084873D01*
X147100000Y-69084873D01*
X147203539Y-69065391D01*
X147298634Y-69004199D01*
X147362429Y-68910832D01*
X147384873Y-68800000D01*
X147384873Y-68481800D01*
X148065127Y-68481800D01*
X148065127Y-68790000D01*
X148084609Y-68893539D01*
X148145801Y-68988634D01*
X148239168Y-69052429D01*
X148350000Y-69074873D01*
X149650000Y-69074873D01*
X149753539Y-69055391D01*
X149848634Y-68994199D01*
X149912429Y-68900832D01*
X149934873Y-68790000D01*
X149934873Y-68369250D01*
X149938483Y-68368532D01*
X150053847Y-68291447D01*
X150615127Y-67730167D01*
X150615127Y-68790000D01*
X150634609Y-68893539D01*
X150695801Y-68988634D01*
X150789168Y-69052429D01*
X150900000Y-69074873D01*
X152200000Y-69074873D01*
X152303539Y-69055391D01*
X152398634Y-68994199D01*
X152462429Y-68900832D01*
X152484873Y-68790000D01*
X152484873Y-68471800D01*
X153135127Y-68471800D01*
X153135127Y-68800000D01*
X153154609Y-68903539D01*
X153215801Y-68998634D01*
X153309168Y-69062429D01*
X153420000Y-69084873D01*
X154720000Y-69084873D01*
X154823539Y-69065391D01*
X154918634Y-69004199D01*
X154982429Y-68910832D01*
X155004873Y-68800000D01*
X155004873Y-67300000D01*
X154985391Y-67196461D01*
X154924199Y-67101366D01*
X154830832Y-67037571D01*
X154720000Y-67015127D01*
X154425600Y-67015127D01*
X154425600Y-66916406D01*
X154428240Y-66916408D01*
X154657044Y-66821868D01*
X154832253Y-66646965D01*
X154927192Y-66418326D01*
X154927408Y-66170760D01*
X154889121Y-66078098D01*
X155713984Y-66078098D01*
X155850067Y-66051030D01*
X155965431Y-65973945D01*
X156264400Y-65674976D01*
X156264400Y-67015127D01*
X155970000Y-67015127D01*
X155866461Y-67034609D01*
X155771366Y-67095801D01*
X155707571Y-67189168D01*
X155685127Y-67300000D01*
X155685127Y-68800000D01*
X155704609Y-68903539D01*
X155765801Y-68998634D01*
X155859168Y-69062429D01*
X155970000Y-69084873D01*
X157270000Y-69084873D01*
X157373539Y-69065391D01*
X157468634Y-69004199D01*
X157532429Y-68910832D01*
X157554873Y-68800000D01*
X157554873Y-68481800D01*
X158235127Y-68481800D01*
X158235127Y-68800000D01*
X158254609Y-68903539D01*
X158315801Y-68998634D01*
X158409168Y-69062429D01*
X158520000Y-69084873D01*
X159820000Y-69084873D01*
X159923539Y-69065391D01*
X160018634Y-69004199D01*
X160082429Y-68910832D01*
X160104873Y-68800000D01*
X160104873Y-67300000D01*
X160085391Y-67196461D01*
X160024199Y-67101366D01*
X159930832Y-67037571D01*
X159820000Y-67015127D01*
X158520000Y-67015127D01*
X158416461Y-67034609D01*
X158321366Y-67095801D01*
X158257571Y-67189168D01*
X158235127Y-67300000D01*
X158235127Y-67618200D01*
X157554873Y-67618200D01*
X157554873Y-67300000D01*
X157535391Y-67196461D01*
X157474199Y-67101366D01*
X157380832Y-67037571D01*
X157270000Y-67015127D01*
X156975600Y-67015127D01*
X156975600Y-65274873D01*
X157305000Y-65274873D01*
X157408539Y-65255391D01*
X157503634Y-65194199D01*
X157567429Y-65100832D01*
X157589873Y-64990000D01*
X157589873Y-63500000D01*
X157690127Y-63500000D01*
X157690127Y-64990000D01*
X157709609Y-65093539D01*
X157770801Y-65188634D01*
X157864168Y-65252429D01*
X157919400Y-65263614D01*
X157919400Y-65656505D01*
X157904102Y-65671804D01*
X157661560Y-65671592D01*
X157432756Y-65766132D01*
X157257547Y-65941035D01*
X157162608Y-66169674D01*
X157162392Y-66417240D01*
X157256932Y-66646044D01*
X157431835Y-66821253D01*
X157660474Y-66916192D01*
X157908040Y-66916408D01*
X158136844Y-66821868D01*
X158312053Y-66646965D01*
X158406992Y-66418326D01*
X158407205Y-66174490D01*
X158526447Y-66055248D01*
X158586436Y-65965468D01*
X158603532Y-65939882D01*
X158630600Y-65803800D01*
X158630600Y-65264411D01*
X158678539Y-65255391D01*
X158773634Y-65194199D01*
X158837429Y-65100832D01*
X158859873Y-64990000D01*
X158859873Y-63607767D01*
X158960127Y-63708021D01*
X158960127Y-64990000D01*
X158979609Y-65093539D01*
X159040801Y-65188634D01*
X159134168Y-65252429D01*
X159245000Y-65274873D01*
X159845000Y-65274873D01*
X159948539Y-65255391D01*
X160043634Y-65194199D01*
X160107429Y-65100832D01*
X160129873Y-64990000D01*
X160129873Y-63616999D01*
X160230127Y-63616999D01*
X160230127Y-64990000D01*
X160249609Y-65093539D01*
X160310801Y-65188634D01*
X160404168Y-65252429D01*
X160515000Y-65274873D01*
X161115000Y-65274873D01*
X161200799Y-65258729D01*
X161200799Y-66983999D01*
X161206991Y-67015127D01*
X161070000Y-67015127D01*
X160966461Y-67034609D01*
X160871366Y-67095801D01*
X160807571Y-67189168D01*
X160785127Y-67300000D01*
X160785127Y-68800000D01*
X160804609Y-68903539D01*
X160865801Y-68998634D01*
X160959168Y-69062429D01*
X161070000Y-69084873D01*
X162370000Y-69084873D01*
X162473539Y-69065391D01*
X162568634Y-69004199D01*
X162632429Y-68910832D01*
X162654873Y-68800000D01*
X162654873Y-68481800D01*
X163345127Y-68481800D01*
X163345127Y-68780000D01*
X163364609Y-68883539D01*
X163425801Y-68978634D01*
X163519168Y-69042429D01*
X163630000Y-69064873D01*
X164930000Y-69064873D01*
X165033539Y-69045391D01*
X165128634Y-68984199D01*
X165192429Y-68890832D01*
X165214873Y-68780000D01*
X165214873Y-67280000D01*
X165865127Y-67280000D01*
X165865127Y-68780000D01*
X165884609Y-68883539D01*
X165945801Y-68978634D01*
X166039168Y-69042429D01*
X166150000Y-69064873D01*
X167450000Y-69064873D01*
X167553539Y-69045391D01*
X167648634Y-68984199D01*
X167712429Y-68890832D01*
X167734873Y-68780000D01*
X167734873Y-68461800D01*
X168385127Y-68461800D01*
X168385127Y-68790000D01*
X168404609Y-68893539D01*
X168465801Y-68988634D01*
X168559168Y-69052429D01*
X168670000Y-69074873D01*
X169970000Y-69074873D01*
X170073539Y-69055391D01*
X170168634Y-68994199D01*
X170232429Y-68900832D01*
X170254873Y-68790000D01*
X170254873Y-67290000D01*
X170235391Y-67186461D01*
X170174199Y-67091366D01*
X170080832Y-67027571D01*
X169970000Y-67005127D01*
X168670000Y-67005127D01*
X168566461Y-67024609D01*
X168471366Y-67085801D01*
X168407571Y-67179168D01*
X168385127Y-67290000D01*
X168385127Y-67598200D01*
X167734873Y-67598200D01*
X167734873Y-67280000D01*
X167715391Y-67176461D01*
X167654199Y-67081366D01*
X167560832Y-67017571D01*
X167450000Y-66995127D01*
X167171115Y-66995127D01*
X167329053Y-66837465D01*
X167423992Y-66608826D01*
X167424208Y-66361260D01*
X167329668Y-66132456D01*
X167154765Y-65957247D01*
X166926126Y-65862308D01*
X166678560Y-65862092D01*
X166449756Y-65956632D01*
X166274547Y-66131535D01*
X166179608Y-66360174D01*
X166179392Y-66607740D01*
X166273932Y-66836544D01*
X166432238Y-66995127D01*
X166150000Y-66995127D01*
X166046461Y-67014609D01*
X165951366Y-67075801D01*
X165887571Y-67169168D01*
X165865127Y-67280000D01*
X165214873Y-67280000D01*
X165195391Y-67176461D01*
X165134199Y-67081366D01*
X165040832Y-67017571D01*
X164930000Y-66995127D01*
X163630000Y-66995127D01*
X163526461Y-67014609D01*
X163431366Y-67075801D01*
X163367571Y-67169168D01*
X163345127Y-67280000D01*
X163345127Y-67618200D01*
X162654873Y-67618200D01*
X162654873Y-67300000D01*
X162635391Y-67196461D01*
X162574199Y-67101366D01*
X162480832Y-67037571D01*
X162370000Y-67015127D01*
X162049250Y-67015127D01*
X162048532Y-67011517D01*
X161971447Y-66896153D01*
X161911999Y-66836705D01*
X161911999Y-65274873D01*
X162385000Y-65274873D01*
X162488539Y-65255391D01*
X162583634Y-65194199D01*
X162647429Y-65100832D01*
X162669873Y-64990000D01*
X162669873Y-63490000D01*
X162770127Y-63490000D01*
X162770127Y-64990000D01*
X162789609Y-65093539D01*
X162850801Y-65188634D01*
X162944168Y-65252429D01*
X163055000Y-65274873D01*
X163655000Y-65274873D01*
X163758539Y-65255391D01*
X163853634Y-65194199D01*
X163917429Y-65100832D01*
X163939873Y-64990000D01*
X163939873Y-64424150D01*
X164096400Y-64424150D01*
X164096400Y-65035471D01*
X164131202Y-65119491D01*
X164195508Y-65183797D01*
X164279528Y-65218600D01*
X164440850Y-65218600D01*
X164498000Y-65161450D01*
X164498000Y-64367000D01*
X164752000Y-64367000D01*
X164752000Y-65161450D01*
X164809150Y-65218600D01*
X164970472Y-65218600D01*
X165054492Y-65183797D01*
X165118798Y-65119491D01*
X165153600Y-65035471D01*
X165153600Y-64424150D01*
X165096450Y-64367000D01*
X164752000Y-64367000D01*
X164498000Y-64367000D01*
X164153550Y-64367000D01*
X164096400Y-64424150D01*
X163939873Y-64424150D01*
X163939873Y-63490000D01*
X163931318Y-63444529D01*
X164096400Y-63444529D01*
X164096400Y-64055850D01*
X164153550Y-64113000D01*
X164498000Y-64113000D01*
X164498000Y-63318550D01*
X164752000Y-63318550D01*
X164752000Y-64113000D01*
X165096450Y-64113000D01*
X165153600Y-64055850D01*
X165153600Y-63444529D01*
X165118798Y-63360509D01*
X165054492Y-63296203D01*
X164970472Y-63261400D01*
X164809150Y-63261400D01*
X164752000Y-63318550D01*
X164498000Y-63318550D01*
X164440850Y-63261400D01*
X164279528Y-63261400D01*
X164195508Y-63296203D01*
X164131202Y-63360509D01*
X164096400Y-63444529D01*
X163931318Y-63444529D01*
X163920391Y-63386461D01*
X163859199Y-63291366D01*
X163765832Y-63227571D01*
X163655000Y-63205127D01*
X163055000Y-63205127D01*
X162951461Y-63224609D01*
X162856366Y-63285801D01*
X162792571Y-63379168D01*
X162770127Y-63490000D01*
X162669873Y-63490000D01*
X162650391Y-63386461D01*
X162589199Y-63291366D01*
X162495832Y-63227571D01*
X162385000Y-63205127D01*
X161785000Y-63205127D01*
X161750916Y-63211540D01*
X161549328Y-63009952D01*
X161433964Y-62932867D01*
X161297881Y-62905799D01*
X159673960Y-62905799D01*
X159356303Y-62588142D01*
X159240939Y-62511057D01*
X159104856Y-62483989D01*
X156597138Y-62483989D01*
X157371805Y-61709322D01*
X162190212Y-61709322D01*
X162326295Y-61682254D01*
X162441659Y-61605169D01*
X162578815Y-61468013D01*
X164197554Y-61468013D01*
X164333637Y-61440945D01*
X164449001Y-61363860D01*
X169886258Y-55926603D01*
X169963343Y-55811238D01*
X169963762Y-55809132D01*
X171271448Y-54501447D01*
X171271450Y-54501444D01*
X171389565Y-54383329D01*
X171437797Y-54415556D01*
X171870000Y-54501526D01*
X172302203Y-54415556D01*
X172668606Y-54170732D01*
X172913430Y-53804329D01*
X172999400Y-53372126D01*
X172999400Y-53327874D01*
X172913430Y-52895671D01*
X172668606Y-52529268D01*
X172302203Y-52284444D01*
X171870000Y-52198474D01*
X171437797Y-52284444D01*
X171071394Y-52529268D01*
X170826570Y-52895671D01*
X170740600Y-53327874D01*
X170740600Y-53372126D01*
X170826570Y-53804329D01*
X170881127Y-53885979D01*
X170768556Y-53998550D01*
X170768553Y-53998552D01*
X169685600Y-55081506D01*
X169685600Y-54430793D01*
X169762203Y-54415556D01*
X170128606Y-54170732D01*
X170373430Y-53804329D01*
X170459400Y-53372126D01*
X170459400Y-53327874D01*
X170373430Y-52895671D01*
X170128606Y-52529268D01*
X169762203Y-52284444D01*
X169330000Y-52198474D01*
X168897797Y-52284444D01*
X168531394Y-52529268D01*
X168286570Y-52895671D01*
X168200600Y-53327874D01*
X168200600Y-53372126D01*
X168286570Y-53804329D01*
X168531394Y-54170732D01*
X168897797Y-54415556D01*
X168974400Y-54430793D01*
X168974400Y-55401606D01*
X165209873Y-59166133D01*
X165209873Y-58090000D01*
X165190391Y-57986461D01*
X165129199Y-57891366D01*
X165035832Y-57827571D01*
X164925000Y-57805127D01*
X164325000Y-57805127D01*
X164221461Y-57824609D01*
X164126366Y-57885801D01*
X164062571Y-57979168D01*
X164040127Y-58090000D01*
X164040127Y-59590000D01*
X164059609Y-59693539D01*
X164120801Y-59788634D01*
X164214168Y-59852429D01*
X164325000Y-59874873D01*
X164501133Y-59874873D01*
X163924004Y-60452002D01*
X162695892Y-60452002D01*
X163273021Y-59874873D01*
X163655000Y-59874873D01*
X163758539Y-59855391D01*
X163853634Y-59794199D01*
X163917429Y-59700832D01*
X163939873Y-59590000D01*
X163939873Y-58090000D01*
X163920391Y-57986461D01*
X163859199Y-57891366D01*
X163765832Y-57827571D01*
X163655000Y-57805127D01*
X163055000Y-57805127D01*
X162951461Y-57824609D01*
X162856366Y-57885801D01*
X162792571Y-57979168D01*
X162770127Y-58090000D01*
X162770127Y-59371979D01*
X162669873Y-59472233D01*
X162669873Y-58090000D01*
X162650391Y-57986461D01*
X162589199Y-57891366D01*
X162495832Y-57827571D01*
X162440600Y-57816386D01*
X162440600Y-57315891D01*
X162506529Y-57343200D01*
X163117850Y-57343200D01*
X163175000Y-57286050D01*
X163175000Y-56616600D01*
X163429000Y-56616600D01*
X163429000Y-57286050D01*
X163486150Y-57343200D01*
X164097471Y-57343200D01*
X164181491Y-57308398D01*
X164245797Y-57244092D01*
X164280600Y-57160072D01*
X164280600Y-56673750D01*
X164223450Y-56616600D01*
X163429000Y-56616600D01*
X163175000Y-56616600D01*
X163155000Y-56616600D01*
X163155000Y-56362600D01*
X163175000Y-56362600D01*
X163175000Y-55693150D01*
X163429000Y-55693150D01*
X163429000Y-56362600D01*
X164223450Y-56362600D01*
X164280600Y-56305450D01*
X164280600Y-55819128D01*
X164245797Y-55735108D01*
X164181491Y-55670802D01*
X164097471Y-55636000D01*
X163486150Y-55636000D01*
X163429000Y-55693150D01*
X163175000Y-55693150D01*
X163117850Y-55636000D01*
X162506529Y-55636000D01*
X162440600Y-55663309D01*
X162440600Y-55148670D01*
X162413532Y-55012588D01*
X162336447Y-54897223D01*
X161163002Y-53723778D01*
X161163002Y-52500000D01*
X163115127Y-52500000D01*
X163115127Y-54200000D01*
X163134609Y-54303539D01*
X163195801Y-54398634D01*
X163289168Y-54462429D01*
X163400000Y-54484873D01*
X165100000Y-54484873D01*
X165203539Y-54465391D01*
X165298634Y-54404199D01*
X165362429Y-54310832D01*
X165384873Y-54200000D01*
X165384873Y-53327874D01*
X165660600Y-53327874D01*
X165660600Y-53372126D01*
X165746570Y-53804329D01*
X165991394Y-54170732D01*
X166357797Y-54415556D01*
X166790000Y-54501526D01*
X167222203Y-54415556D01*
X167588606Y-54170732D01*
X167833430Y-53804329D01*
X167919400Y-53372126D01*
X167919400Y-53327874D01*
X167833430Y-52895671D01*
X167588606Y-52529268D01*
X167222203Y-52284444D01*
X166790000Y-52198474D01*
X166357797Y-52284444D01*
X165991394Y-52529268D01*
X165746570Y-52895671D01*
X165660600Y-53327874D01*
X165384873Y-53327874D01*
X165384873Y-52500000D01*
X165365391Y-52396461D01*
X165304199Y-52301366D01*
X165210832Y-52237571D01*
X165100000Y-52215127D01*
X163400000Y-52215127D01*
X163296461Y-52234609D01*
X163201366Y-52295801D01*
X163137571Y-52389168D01*
X163115127Y-52500000D01*
X161163002Y-52500000D01*
X161163002Y-51821078D01*
X161135934Y-51684996D01*
X161058850Y-51569631D01*
X159745658Y-50256440D01*
X159630294Y-50179355D01*
X159494211Y-50152287D01*
X148832113Y-50152287D01*
X148696030Y-50179355D01*
X148580666Y-50256440D01*
X146500407Y-52336699D01*
X146422203Y-52284444D01*
X145990000Y-52198474D01*
X145557797Y-52284444D01*
X145191394Y-52529268D01*
X144946570Y-52895671D01*
X144860600Y-53327874D01*
X144860600Y-53372126D01*
X144946570Y-53804329D01*
X145191394Y-54170732D01*
X145313400Y-54252254D01*
X145313400Y-57684344D01*
X145311461Y-57684709D01*
X145216366Y-57745901D01*
X145152571Y-57839268D01*
X145130127Y-57950100D01*
X145130127Y-59093100D01*
X145149609Y-59196639D01*
X145210801Y-59291734D01*
X145291816Y-59347089D01*
X144774258Y-59347089D01*
X144851634Y-59297299D01*
X144915429Y-59203932D01*
X144937873Y-59093100D01*
X144937873Y-57950100D01*
X144918391Y-57846561D01*
X144857199Y-57751466D01*
X144763832Y-57687671D01*
X144754600Y-57685801D01*
X144754600Y-54299000D01*
X144727532Y-54162918D01*
X144650447Y-54047553D01*
X144584873Y-53981979D01*
X144584873Y-52500000D01*
X144565391Y-52396461D01*
X144504199Y-52301366D01*
X144410832Y-52237571D01*
X144300000Y-52215127D01*
X142600000Y-52215127D01*
X142496461Y-52234609D01*
X142401366Y-52295801D01*
X142337571Y-52389168D01*
X142315127Y-52500000D01*
X142315127Y-54200000D01*
X142334609Y-54303539D01*
X142395801Y-54398634D01*
X142489168Y-54462429D01*
X142600000Y-54484873D01*
X144043400Y-54484873D01*
X144043400Y-57684344D01*
X144041461Y-57684709D01*
X143946366Y-57745901D01*
X143882571Y-57839268D01*
X143860127Y-57950100D01*
X143860127Y-59093100D01*
X143879609Y-59196639D01*
X143940801Y-59291734D01*
X144021816Y-59347089D01*
X140225911Y-59347089D01*
X140060668Y-59379958D01*
X139991637Y-59426083D01*
X139920582Y-59473560D01*
X137934873Y-61459269D01*
X137934873Y-61300000D01*
X137915391Y-61196461D01*
X137854199Y-61101366D01*
X137760832Y-61037571D01*
X137650000Y-61015127D01*
X136350000Y-61015127D01*
X136246461Y-61034609D01*
X136151366Y-61095801D01*
X136087571Y-61189168D01*
X136065127Y-61300000D01*
X136065127Y-61720750D01*
X136061517Y-61721468D01*
X135946153Y-61798553D01*
X133454153Y-64290553D01*
X133377068Y-64405917D01*
X133360055Y-64491447D01*
X133350000Y-64542000D01*
X126953600Y-64542000D01*
X126953600Y-62198034D01*
X127564442Y-62198034D01*
X127724158Y-62583647D01*
X128098224Y-62996911D01*
X128601965Y-63235568D01*
X128823000Y-63215804D01*
X128823000Y-61977000D01*
X129077000Y-61977000D01*
X129077000Y-63215804D01*
X129298035Y-63235568D01*
X129801776Y-62996911D01*
X130175842Y-62583647D01*
X130335558Y-62198034D01*
X130315557Y-61977000D01*
X129077000Y-61977000D01*
X128823000Y-61977000D01*
X127584443Y-61977000D01*
X127564442Y-62198034D01*
X126953600Y-62198034D01*
X126953600Y-61501966D01*
X127564442Y-61501966D01*
X127584443Y-61723000D01*
X128823000Y-61723000D01*
X128823000Y-60484196D01*
X129077000Y-60484196D01*
X129077000Y-61723000D01*
X130315557Y-61723000D01*
X130335558Y-61501966D01*
X130175842Y-61116353D01*
X129801776Y-60703089D01*
X129298035Y-60464432D01*
X129077000Y-60484196D01*
X128823000Y-60484196D01*
X128601965Y-60464432D01*
X128098224Y-60703089D01*
X127724158Y-61116353D01*
X127564442Y-61501966D01*
X126953600Y-61501966D01*
X126953600Y-58705750D01*
X142646400Y-58705750D01*
X142646400Y-59138572D01*
X142681203Y-59222592D01*
X142745509Y-59286898D01*
X142829529Y-59321700D01*
X142944850Y-59321700D01*
X143002000Y-59264550D01*
X143002000Y-58648600D01*
X143256000Y-58648600D01*
X143256000Y-59264550D01*
X143313150Y-59321700D01*
X143428471Y-59321700D01*
X143512491Y-59286898D01*
X143576797Y-59222592D01*
X143611600Y-59138572D01*
X143611600Y-58705750D01*
X143554450Y-58648600D01*
X143256000Y-58648600D01*
X143002000Y-58648600D01*
X142703550Y-58648600D01*
X142646400Y-58705750D01*
X126953600Y-58705750D01*
X126953600Y-57904628D01*
X142646400Y-57904628D01*
X142646400Y-58337450D01*
X142703550Y-58394600D01*
X143002000Y-58394600D01*
X143002000Y-57778650D01*
X143256000Y-57778650D01*
X143256000Y-58394600D01*
X143554450Y-58394600D01*
X143611600Y-58337450D01*
X143611600Y-57904628D01*
X143576797Y-57820608D01*
X143512491Y-57756302D01*
X143428471Y-57721500D01*
X143313150Y-57721500D01*
X143256000Y-57778650D01*
X143002000Y-57778650D01*
X142944850Y-57721500D01*
X142829529Y-57721500D01*
X142745509Y-57756302D01*
X142681203Y-57820608D01*
X142646400Y-57904628D01*
X126953600Y-57904628D01*
X126953600Y-55102882D01*
X134820335Y-55102882D01*
X135052682Y-55665204D01*
X135482533Y-56095806D01*
X136044449Y-56329134D01*
X136652882Y-56329665D01*
X137215204Y-56097318D01*
X137645806Y-55667467D01*
X137879134Y-55105551D01*
X137879665Y-54497118D01*
X137647318Y-53934796D01*
X137217467Y-53504194D01*
X136655551Y-53270866D01*
X136047118Y-53270335D01*
X135484796Y-53502682D01*
X135054194Y-53932533D01*
X134820866Y-54494449D01*
X134820335Y-55102882D01*
X126953600Y-55102882D01*
X126953600Y-53211463D01*
X132918142Y-53211463D01*
X133069770Y-53389961D01*
X133622808Y-53590349D01*
X134210434Y-53563845D01*
X134630230Y-53389961D01*
X134781858Y-53211463D01*
X133850000Y-52279605D01*
X132918142Y-53211463D01*
X126953600Y-53211463D01*
X126953600Y-51872808D01*
X132359651Y-51872808D01*
X132386155Y-52460434D01*
X132560039Y-52880230D01*
X132738537Y-53031858D01*
X133670395Y-52100000D01*
X134029605Y-52100000D01*
X134961463Y-53031858D01*
X135139961Y-52880230D01*
X135312923Y-52402882D01*
X137320335Y-52402882D01*
X137552682Y-52965204D01*
X137982533Y-53395806D01*
X138544449Y-53629134D01*
X139152882Y-53629665D01*
X139715204Y-53397318D01*
X140145806Y-52967467D01*
X140379134Y-52405551D01*
X140379665Y-51797118D01*
X140147318Y-51234796D01*
X139717467Y-50804194D01*
X139155551Y-50570866D01*
X138547118Y-50570335D01*
X137984796Y-50802682D01*
X137554194Y-51232533D01*
X137320866Y-51794449D01*
X137320335Y-52402882D01*
X135312923Y-52402882D01*
X135340349Y-52327192D01*
X135313845Y-51739566D01*
X135139961Y-51319770D01*
X134961463Y-51168142D01*
X134029605Y-52100000D01*
X133670395Y-52100000D01*
X132738537Y-51168142D01*
X132560039Y-51319770D01*
X132359651Y-51872808D01*
X126953600Y-51872808D01*
X126953600Y-50988537D01*
X132918142Y-50988537D01*
X133850000Y-51920395D01*
X134781858Y-50988537D01*
X134630230Y-50810039D01*
X134077192Y-50609651D01*
X133489566Y-50636155D01*
X133069770Y-50810039D01*
X132918142Y-50988537D01*
X126953600Y-50988537D01*
X126953600Y-49703600D01*
X173346400Y-49703600D01*
X173346400Y-80546400D01*
G36*
X142018984Y-75272657D02*
X142299663Y-75389205D01*
X140218868Y-77470000D01*
X139569658Y-77470000D01*
X141109546Y-75930112D01*
X141350846Y-75930323D01*
X141612336Y-75822277D01*
X141812574Y-75622388D01*
X141921076Y-75361087D01*
X141921239Y-75174741D01*
X142018984Y-75272657D01*
X142018984Y-75272657D01*
G37*
X142018984Y-75272657D02*
X142299663Y-75389205D01*
X140218868Y-77470000D01*
X139569658Y-77470000D01*
X141109546Y-75930112D01*
X141350846Y-75930323D01*
X141612336Y-75822277D01*
X141812574Y-75622388D01*
X141921076Y-75361087D01*
X141921239Y-75174741D01*
X142018984Y-75272657D01*
G36*
X140606723Y-74351336D02*
X140806612Y-74551574D01*
X140884571Y-74583946D01*
X140807664Y-74615723D01*
X140607426Y-74815612D01*
X140575054Y-74893571D01*
X140543277Y-74816664D01*
X140343388Y-74616426D01*
X140265429Y-74584054D01*
X140342336Y-74552277D01*
X140542574Y-74352388D01*
X140574946Y-74274429D01*
X140606723Y-74351336D01*
X140606723Y-74351336D01*
G37*
X140606723Y-74351336D02*
X140806612Y-74551574D01*
X140884571Y-74583946D01*
X140807664Y-74615723D01*
X140607426Y-74815612D01*
X140575054Y-74893571D01*
X140543277Y-74816664D01*
X140343388Y-74616426D01*
X140265429Y-74584054D01*
X140342336Y-74552277D01*
X140542574Y-74352388D01*
X140574946Y-74274429D01*
X140606723Y-74351336D01*
G36*
X156922448Y-61152891D02*
X153559339Y-64516000D01*
X151287873Y-64516000D01*
X151287873Y-64300100D01*
X151268391Y-64196561D01*
X151207199Y-64101466D01*
X151113832Y-64037671D01*
X151003000Y-64015227D01*
X150520767Y-64015227D01*
X154083994Y-60452000D01*
X156221557Y-60452000D01*
X156922448Y-61152891D01*
X156922448Y-61152891D01*
G37*
X156922448Y-61152891D02*
X153559339Y-64516000D01*
X151287873Y-64516000D01*
X151287873Y-64300100D01*
X151268391Y-64196561D01*
X151207199Y-64101466D01*
X151113832Y-64037671D01*
X151003000Y-64015227D01*
X150520767Y-64015227D01*
X154083994Y-60452000D01*
X156221557Y-60452000D01*
X156922448Y-61152891D01*
G36*
X155351394Y-54170732D02*
X155717797Y-54415556D01*
X156150000Y-54501526D01*
X156572775Y-54417431D01*
X146974979Y-64015227D01*
X146710767Y-64015227D01*
X150517846Y-60208148D01*
X150594931Y-60092784D01*
X150621999Y-59956701D01*
X150621999Y-59377973D01*
X151003000Y-59377973D01*
X151106539Y-59358491D01*
X151201634Y-59297299D01*
X151265429Y-59203932D01*
X151287873Y-59093100D01*
X151287873Y-58168121D01*
X155322846Y-54133148D01*
X155324564Y-54130578D01*
X155351394Y-54170732D01*
X155351394Y-54170732D01*
G37*
X155351394Y-54170732D02*
X155717797Y-54415556D01*
X156150000Y-54501526D01*
X156572775Y-54417431D01*
X146974979Y-64015227D01*
X146710767Y-64015227D01*
X150517846Y-60208148D01*
X150594931Y-60092784D01*
X150621999Y-59956701D01*
X150621999Y-59377973D01*
X151003000Y-59377973D01*
X151106539Y-59358491D01*
X151201634Y-59297299D01*
X151265429Y-59203932D01*
X151287873Y-59093100D01*
X151287873Y-58168121D01*
X155322846Y-54133148D01*
X155324564Y-54130578D01*
X155351394Y-54170732D01*
G36*
X157969661Y-56108667D02*
X158213498Y-56108880D01*
X159189400Y-57084782D01*
X159189400Y-57815589D01*
X159141461Y-57824609D01*
X159046366Y-57885801D01*
X158982571Y-57979168D01*
X158960127Y-58090000D01*
X158960127Y-59590000D01*
X158979609Y-59693539D01*
X159040801Y-59788634D01*
X159134168Y-59852429D01*
X159245000Y-59874873D01*
X159845000Y-59874873D01*
X159948539Y-59855391D01*
X160043634Y-59794199D01*
X160107429Y-59700832D01*
X160129873Y-59590000D01*
X160129873Y-58090000D01*
X160110391Y-57986461D01*
X160049199Y-57891366D01*
X159955832Y-57827571D01*
X159900600Y-57816386D01*
X159900600Y-57349310D01*
X159941168Y-57377029D01*
X160052000Y-57399473D01*
X160383200Y-57399473D01*
X160383200Y-57842794D01*
X160316366Y-57885801D01*
X160252571Y-57979168D01*
X160230127Y-58090000D01*
X160230127Y-59590000D01*
X160249609Y-59693539D01*
X160310801Y-59788634D01*
X160404168Y-59852429D01*
X160515000Y-59874873D01*
X161115000Y-59874873D01*
X161218539Y-59855391D01*
X161313634Y-59794199D01*
X161377429Y-59700832D01*
X161399873Y-59590000D01*
X161399873Y-58090000D01*
X161380391Y-57986461D01*
X161319199Y-57891366D01*
X161246800Y-57841898D01*
X161246800Y-57399473D01*
X161552000Y-57399473D01*
X161655539Y-57379991D01*
X161729400Y-57332463D01*
X161729400Y-57815589D01*
X161681461Y-57824609D01*
X161586366Y-57885801D01*
X161522571Y-57979168D01*
X161500127Y-58090000D01*
X161500127Y-59590000D01*
X161519609Y-59693539D01*
X161580801Y-59788634D01*
X161674168Y-59852429D01*
X161785000Y-59874873D01*
X162267233Y-59874873D01*
X161753606Y-60388500D01*
X158817773Y-60388500D01*
X158876892Y-60246126D01*
X158877108Y-59998560D01*
X158785495Y-59776840D01*
X158837429Y-59700832D01*
X158859873Y-59590000D01*
X158859873Y-58090000D01*
X158840391Y-57986461D01*
X158779199Y-57891366D01*
X158685832Y-57827571D01*
X158630600Y-57816386D01*
X158630600Y-57196634D01*
X158603532Y-57060552D01*
X158526447Y-56945187D01*
X157760816Y-56179556D01*
X157760954Y-56022004D01*
X157969661Y-56108667D01*
X157969661Y-56108667D01*
G37*
X157969661Y-56108667D02*
X158213498Y-56108880D01*
X159189400Y-57084782D01*
X159189400Y-57815589D01*
X159141461Y-57824609D01*
X159046366Y-57885801D01*
X158982571Y-57979168D01*
X158960127Y-58090000D01*
X158960127Y-59590000D01*
X158979609Y-59693539D01*
X159040801Y-59788634D01*
X159134168Y-59852429D01*
X159245000Y-59874873D01*
X159845000Y-59874873D01*
X159948539Y-59855391D01*
X160043634Y-59794199D01*
X160107429Y-59700832D01*
X160129873Y-59590000D01*
X160129873Y-58090000D01*
X160110391Y-57986461D01*
X160049199Y-57891366D01*
X159955832Y-57827571D01*
X159900600Y-57816386D01*
X159900600Y-57349310D01*
X159941168Y-57377029D01*
X160052000Y-57399473D01*
X160383200Y-57399473D01*
X160383200Y-57842794D01*
X160316366Y-57885801D01*
X160252571Y-57979168D01*
X160230127Y-58090000D01*
X160230127Y-59590000D01*
X160249609Y-59693539D01*
X160310801Y-59788634D01*
X160404168Y-59852429D01*
X160515000Y-59874873D01*
X161115000Y-59874873D01*
X161218539Y-59855391D01*
X161313634Y-59794199D01*
X161377429Y-59700832D01*
X161399873Y-59590000D01*
X161399873Y-58090000D01*
X161380391Y-57986461D01*
X161319199Y-57891366D01*
X161246800Y-57841898D01*
X161246800Y-57399473D01*
X161552000Y-57399473D01*
X161655539Y-57379991D01*
X161729400Y-57332463D01*
X161729400Y-57815589D01*
X161681461Y-57824609D01*
X161586366Y-57885801D01*
X161522571Y-57979168D01*
X161500127Y-58090000D01*
X161500127Y-59590000D01*
X161519609Y-59693539D01*
X161580801Y-59788634D01*
X161674168Y-59852429D01*
X161785000Y-59874873D01*
X162267233Y-59874873D01*
X161753606Y-60388500D01*
X158817773Y-60388500D01*
X158876892Y-60246126D01*
X158877108Y-59998560D01*
X158785495Y-59776840D01*
X158837429Y-59700832D01*
X158859873Y-59590000D01*
X158859873Y-58090000D01*
X158840391Y-57986461D01*
X158779199Y-57891366D01*
X158685832Y-57827571D01*
X158630600Y-57816386D01*
X158630600Y-57196634D01*
X158603532Y-57060552D01*
X158526447Y-56945187D01*
X157760816Y-56179556D01*
X157760954Y-56022004D01*
X157969661Y-56108667D01*
G36*
X156516212Y-56183494D02*
X156610752Y-56412298D01*
X156785655Y-56587507D01*
X157014294Y-56682446D01*
X157258131Y-56682659D01*
X157919400Y-57343928D01*
X157919400Y-57815589D01*
X157871461Y-57824609D01*
X157776366Y-57885801D01*
X157712571Y-57979168D01*
X157690127Y-58090000D01*
X157690127Y-59539266D01*
X157589873Y-59439012D01*
X157589873Y-58090000D01*
X157570391Y-57986461D01*
X157509199Y-57891366D01*
X157415832Y-57827571D01*
X157305000Y-57805127D01*
X156705000Y-57805127D01*
X156601461Y-57824609D01*
X156506366Y-57885801D01*
X156442571Y-57979168D01*
X156420127Y-58090000D01*
X156420127Y-59213715D01*
X156319873Y-59113461D01*
X156319873Y-58090000D01*
X156300391Y-57986461D01*
X156239199Y-57891366D01*
X156145832Y-57827571D01*
X156035000Y-57805127D01*
X155435000Y-57805127D01*
X155331461Y-57824609D01*
X155236366Y-57885801D01*
X155172571Y-57979168D01*
X155150127Y-58090000D01*
X155150127Y-58369200D01*
X154702451Y-58369200D01*
X154607165Y-58273747D01*
X154378526Y-58178808D01*
X154364099Y-58178795D01*
X156516349Y-56026545D01*
X156516212Y-56183494D01*
X156516212Y-56183494D01*
G37*
X156516212Y-56183494D02*
X156610752Y-56412298D01*
X156785655Y-56587507D01*
X157014294Y-56682446D01*
X157258131Y-56682659D01*
X157919400Y-57343928D01*
X157919400Y-57815589D01*
X157871461Y-57824609D01*
X157776366Y-57885801D01*
X157712571Y-57979168D01*
X157690127Y-58090000D01*
X157690127Y-59539266D01*
X157589873Y-59439012D01*
X157589873Y-58090000D01*
X157570391Y-57986461D01*
X157509199Y-57891366D01*
X157415832Y-57827571D01*
X157305000Y-57805127D01*
X156705000Y-57805127D01*
X156601461Y-57824609D01*
X156506366Y-57885801D01*
X156442571Y-57979168D01*
X156420127Y-58090000D01*
X156420127Y-59213715D01*
X156319873Y-59113461D01*
X156319873Y-58090000D01*
X156300391Y-57986461D01*
X156239199Y-57891366D01*
X156145832Y-57827571D01*
X156035000Y-57805127D01*
X155435000Y-57805127D01*
X155331461Y-57824609D01*
X155236366Y-57885801D01*
X155172571Y-57979168D01*
X155150127Y-58090000D01*
X155150127Y-58369200D01*
X154702451Y-58369200D01*
X154607165Y-58273747D01*
X154378526Y-58178808D01*
X154364099Y-58178795D01*
X156516349Y-56026545D01*
X156516212Y-56183494D01*
G36*
X158829756Y-50945232D02*
X158657187Y-51117500D01*
X153890570Y-51117500D01*
X153754487Y-51144568D01*
X153639123Y-51221653D01*
X152279952Y-52580824D01*
X152202867Y-52696188D01*
X152175799Y-52832271D01*
X152175799Y-53209223D01*
X152113430Y-52895671D01*
X151868606Y-52529268D01*
X151502203Y-52284444D01*
X151070000Y-52198474D01*
X150637797Y-52284444D01*
X150271394Y-52529268D01*
X150026570Y-52895671D01*
X149940600Y-53327874D01*
X149940600Y-53372126D01*
X150026570Y-53804329D01*
X150061100Y-53856006D01*
X148744952Y-55172154D01*
X148667867Y-55287518D01*
X148656115Y-55346600D01*
X148640799Y-55423601D01*
X148640799Y-57733428D01*
X148573832Y-57687671D01*
X148463000Y-57665227D01*
X147955000Y-57665227D01*
X147851461Y-57684709D01*
X147756366Y-57745901D01*
X147692571Y-57839268D01*
X147670127Y-57950100D01*
X147670127Y-58767316D01*
X147477873Y-58959570D01*
X147477873Y-57950100D01*
X147458391Y-57846561D01*
X147397199Y-57751466D01*
X147303832Y-57687671D01*
X147294600Y-57685801D01*
X147294600Y-55088294D01*
X148019593Y-54363301D01*
X148097797Y-54415556D01*
X148530000Y-54501526D01*
X148962203Y-54415556D01*
X149328606Y-54170732D01*
X149573430Y-53804329D01*
X149659400Y-53372126D01*
X149659400Y-53327874D01*
X149573430Y-52895671D01*
X149328606Y-52529268D01*
X148962203Y-52284444D01*
X148530000Y-52198474D01*
X148097797Y-52284444D01*
X147731394Y-52529268D01*
X147486570Y-52895671D01*
X147400600Y-53327874D01*
X147400600Y-53372126D01*
X147486570Y-53804329D01*
X147521100Y-53856006D01*
X146687553Y-54689553D01*
X146610468Y-54804917D01*
X146607143Y-54821633D01*
X146583400Y-54941000D01*
X146583400Y-57684344D01*
X146581461Y-57684709D01*
X146486366Y-57745901D01*
X146422571Y-57839268D01*
X146400127Y-57950100D01*
X146400127Y-59093100D01*
X146419609Y-59196639D01*
X146480801Y-59291734D01*
X146561816Y-59347089D01*
X146044258Y-59347089D01*
X146121634Y-59297299D01*
X146185429Y-59203932D01*
X146207873Y-59093100D01*
X146207873Y-57950100D01*
X146188391Y-57846561D01*
X146127199Y-57751466D01*
X146033832Y-57687671D01*
X146024600Y-57685801D01*
X146024600Y-54494644D01*
X146422203Y-54415556D01*
X146788606Y-54170732D01*
X147033430Y-53804329D01*
X147119400Y-53372126D01*
X147119400Y-53327874D01*
X147033430Y-52895671D01*
X146998900Y-52843994D01*
X148979407Y-50863487D01*
X159027594Y-50863487D01*
X158829756Y-50945232D01*
X158829756Y-50945232D01*
G37*
X158829756Y-50945232D02*
X158657187Y-51117500D01*
X153890570Y-51117500D01*
X153754487Y-51144568D01*
X153639123Y-51221653D01*
X152279952Y-52580824D01*
X152202867Y-52696188D01*
X152175799Y-52832271D01*
X152175799Y-53209223D01*
X152113430Y-52895671D01*
X151868606Y-52529268D01*
X151502203Y-52284444D01*
X151070000Y-52198474D01*
X150637797Y-52284444D01*
X150271394Y-52529268D01*
X150026570Y-52895671D01*
X149940600Y-53327874D01*
X149940600Y-53372126D01*
X150026570Y-53804329D01*
X150061100Y-53856006D01*
X148744952Y-55172154D01*
X148667867Y-55287518D01*
X148656115Y-55346600D01*
X148640799Y-55423601D01*
X148640799Y-57733428D01*
X148573832Y-57687671D01*
X148463000Y-57665227D01*
X147955000Y-57665227D01*
X147851461Y-57684709D01*
X147756366Y-57745901D01*
X147692571Y-57839268D01*
X147670127Y-57950100D01*
X147670127Y-58767316D01*
X147477873Y-58959570D01*
X147477873Y-57950100D01*
X147458391Y-57846561D01*
X147397199Y-57751466D01*
X147303832Y-57687671D01*
X147294600Y-57685801D01*
X147294600Y-55088294D01*
X148019593Y-54363301D01*
X148097797Y-54415556D01*
X148530000Y-54501526D01*
X148962203Y-54415556D01*
X149328606Y-54170732D01*
X149573430Y-53804329D01*
X149659400Y-53372126D01*
X149659400Y-53327874D01*
X149573430Y-52895671D01*
X149328606Y-52529268D01*
X148962203Y-52284444D01*
X148530000Y-52198474D01*
X148097797Y-52284444D01*
X147731394Y-52529268D01*
X147486570Y-52895671D01*
X147400600Y-53327874D01*
X147400600Y-53372126D01*
X147486570Y-53804329D01*
X147521100Y-53856006D01*
X146687553Y-54689553D01*
X146610468Y-54804917D01*
X146607143Y-54821633D01*
X146583400Y-54941000D01*
X146583400Y-57684344D01*
X146581461Y-57684709D01*
X146486366Y-57745901D01*
X146422571Y-57839268D01*
X146400127Y-57950100D01*
X146400127Y-59093100D01*
X146419609Y-59196639D01*
X146480801Y-59291734D01*
X146561816Y-59347089D01*
X146044258Y-59347089D01*
X146121634Y-59297299D01*
X146185429Y-59203932D01*
X146207873Y-59093100D01*
X146207873Y-57950100D01*
X146188391Y-57846561D01*
X146127199Y-57751466D01*
X146033832Y-57687671D01*
X146024600Y-57685801D01*
X146024600Y-54494644D01*
X146422203Y-54415556D01*
X146788606Y-54170732D01*
X147033430Y-53804329D01*
X147119400Y-53372126D01*
X147119400Y-53327874D01*
X147033430Y-52895671D01*
X146998900Y-52843994D01*
X148979407Y-50863487D01*
X159027594Y-50863487D01*
X158829756Y-50945232D01*
G36*
X153177797Y-54415556D02*
X153610000Y-54501526D01*
X154032775Y-54417431D01*
X150784979Y-57665227D01*
X150621999Y-57665227D01*
X150621999Y-56840895D01*
X153099593Y-54363301D01*
X153177797Y-54415556D01*
X153177797Y-54415556D01*
G37*
X153177797Y-54415556D02*
X153610000Y-54501526D01*
X154032775Y-54417431D01*
X150784979Y-57665227D01*
X150621999Y-57665227D01*
X150621999Y-56840895D01*
X153099593Y-54363301D01*
X153177797Y-54415556D01*
G36*
X159789571Y-55753768D02*
X159767127Y-55864600D01*
X159767127Y-56656721D01*
X159079339Y-55968933D01*
X159165340Y-55969008D01*
X159394144Y-55874468D01*
X159566713Y-55702200D01*
X159824806Y-55702200D01*
X159789571Y-55753768D01*
X159789571Y-55753768D01*
G37*
X159789571Y-55753768D02*
X159767127Y-55864600D01*
X159767127Y-56656721D01*
X159079339Y-55968933D01*
X159165340Y-55969008D01*
X159394144Y-55874468D01*
X159566713Y-55702200D01*
X159824806Y-55702200D01*
X159789571Y-55753768D01*
G36*
X150637797Y-54415556D02*
X151021548Y-54491888D01*
X149351999Y-56161437D01*
X149351999Y-55570895D01*
X150559593Y-54363301D01*
X150637797Y-54415556D01*
X150637797Y-54415556D01*
G37*
X150637797Y-54415556D02*
X151021548Y-54491888D01*
X149351999Y-56161437D01*
X149351999Y-55570895D01*
X150559593Y-54363301D01*
X150637797Y-54415556D01*
G36*
X159870235Y-52635353D02*
X160098874Y-52730292D01*
X160346440Y-52730508D01*
X160451802Y-52686973D01*
X160451802Y-53871072D01*
X160478870Y-54007155D01*
X160555955Y-54122519D01*
X161729400Y-55295964D01*
X161729400Y-55647655D01*
X161662832Y-55602171D01*
X161552000Y-55579727D01*
X161131250Y-55579727D01*
X161130532Y-55576118D01*
X161070634Y-55486475D01*
X161053447Y-55460752D01*
X160687847Y-55095153D01*
X160572483Y-55018068D01*
X160436400Y-54991000D01*
X159566418Y-54991000D01*
X159395065Y-54819347D01*
X159166426Y-54724408D01*
X158918860Y-54724192D01*
X158690056Y-54818732D01*
X158514847Y-54993635D01*
X158504993Y-55017365D01*
X158446952Y-54959222D01*
X158218313Y-54864283D01*
X157970747Y-54864067D01*
X157741943Y-54958607D01*
X157566734Y-55133510D01*
X157471795Y-55362149D01*
X157471653Y-55524725D01*
X157262946Y-55438062D01*
X157104970Y-55437924D01*
X158179593Y-54363301D01*
X158257797Y-54415556D01*
X158690000Y-54501526D01*
X159122203Y-54415556D01*
X159488606Y-54170732D01*
X159733430Y-53804329D01*
X159819400Y-53372126D01*
X159819400Y-53327874D01*
X159733430Y-52895671D01*
X159488606Y-52529268D01*
X159390477Y-52463700D01*
X159698882Y-52463700D01*
X159870235Y-52635353D01*
X159870235Y-52635353D01*
G37*
X159870235Y-52635353D02*
X160098874Y-52730292D01*
X160346440Y-52730508D01*
X160451802Y-52686973D01*
X160451802Y-53871072D01*
X160478870Y-54007155D01*
X160555955Y-54122519D01*
X161729400Y-55295964D01*
X161729400Y-55647655D01*
X161662832Y-55602171D01*
X161552000Y-55579727D01*
X161131250Y-55579727D01*
X161130532Y-55576118D01*
X161070634Y-55486475D01*
X161053447Y-55460752D01*
X160687847Y-55095153D01*
X160572483Y-55018068D01*
X160436400Y-54991000D01*
X159566418Y-54991000D01*
X159395065Y-54819347D01*
X159166426Y-54724408D01*
X158918860Y-54724192D01*
X158690056Y-54818732D01*
X158514847Y-54993635D01*
X158504993Y-55017365D01*
X158446952Y-54959222D01*
X158218313Y-54864283D01*
X157970747Y-54864067D01*
X157741943Y-54958607D01*
X157566734Y-55133510D01*
X157471795Y-55362149D01*
X157471653Y-55524725D01*
X157262946Y-55438062D01*
X157104970Y-55437924D01*
X158179593Y-54363301D01*
X158257797Y-54415556D01*
X158690000Y-54501526D01*
X159122203Y-54415556D01*
X159488606Y-54170732D01*
X159733430Y-53804329D01*
X159819400Y-53372126D01*
X159819400Y-53327874D01*
X159733430Y-52895671D01*
X159488606Y-52529268D01*
X159390477Y-52463700D01*
X159698882Y-52463700D01*
X159870235Y-52635353D01*
G36*
X157891394Y-52529268D02*
X157646570Y-52895671D01*
X157560600Y-53327874D01*
X157560600Y-53372126D01*
X157646570Y-53804329D01*
X157681100Y-53856006D01*
X157352531Y-54184575D01*
X157342302Y-54133148D01*
X157328531Y-54063916D01*
X157251446Y-53948552D01*
X157158900Y-53856006D01*
X157193430Y-53804329D01*
X157279400Y-53372126D01*
X157279400Y-53327874D01*
X157193430Y-52895671D01*
X156948606Y-52529268D01*
X156850477Y-52463700D01*
X157989523Y-52463700D01*
X157891394Y-52529268D01*
X157891394Y-52529268D01*
G37*
X157891394Y-52529268D02*
X157646570Y-52895671D01*
X157560600Y-53327874D01*
X157560600Y-53372126D01*
X157646570Y-53804329D01*
X157681100Y-53856006D01*
X157352531Y-54184575D01*
X157342302Y-54133148D01*
X157328531Y-54063916D01*
X157251446Y-53948552D01*
X157158900Y-53856006D01*
X157193430Y-53804329D01*
X157279400Y-53372126D01*
X157279400Y-53327874D01*
X157193430Y-52895671D01*
X156948606Y-52529268D01*
X156850477Y-52463700D01*
X157989523Y-52463700D01*
X157891394Y-52529268D01*
G36*
X155544123Y-51856653D02*
X154819952Y-52580824D01*
X154742867Y-52696188D01*
X154715799Y-52832271D01*
X154715799Y-53209223D01*
X154653430Y-52895671D01*
X154408606Y-52529268D01*
X154042203Y-52284444D01*
X153658452Y-52208112D01*
X154037864Y-51828700D01*
X155585957Y-51828700D01*
X155544123Y-51856653D01*
X155544123Y-51856653D01*
G37*
X155544123Y-51856653D02*
X154819952Y-52580824D01*
X154742867Y-52696188D01*
X154715799Y-52832271D01*
X154715799Y-53209223D01*
X154653430Y-52895671D01*
X154408606Y-52529268D01*
X154042203Y-52284444D01*
X153658452Y-52208112D01*
X154037864Y-51828700D01*
X155585957Y-51828700D01*
X155544123Y-51856653D01*
M02*
