G04 #@! TF.FileFunction,Copper,L2,Bot,Signal*
%FSLAX46Y46*%
G04 Gerber Fmt 4.6, Leading zero omitted, Abs format (unit mm)*
G04 Created by KiCad (PCBNEW 4.0.7) date 01/22/18 19:47:42*
%MOMM*%
%LPD*%
G01*
G04 APERTURE LIST*
%ADD10C,0.100000*%
%ADD11C,0.508000*%
%ADD12R,2.400000X2.400000*%
%ADD13O,2.400000X2.400000*%
%ADD14R,1.700000X1.700000*%
%ADD15O,1.700000X1.700000*%
%ADD16C,2.500000*%
%ADD17C,0.685800*%
%ADD18C,1.219200*%
%ADD19C,0.304800*%
%ADD20C,0.152400*%
%ADD21C,0.254000*%
G04 APERTURE END LIST*
D10*
D11*
X135737600Y-74574400D03*
X154952700Y-59601100D03*
X143903700Y-61582300D03*
X173139100Y-78193900D03*
X170599100Y-78193900D03*
X168059100Y-78193900D03*
X165519100Y-78193900D03*
X162979100Y-78193900D03*
X160439100Y-78193900D03*
X157899100Y-78193900D03*
X155359100Y-78193900D03*
X152819100Y-78193900D03*
X150279100Y-78193900D03*
X147739100Y-78193900D03*
X145199100Y-78193900D03*
X142659100Y-78193900D03*
X140131800Y-78536800D03*
X137591800Y-78536800D03*
X135039100Y-78193900D03*
X132499100Y-78193900D03*
X129959100Y-78193900D03*
X127419100Y-78193900D03*
X173139100Y-75653900D03*
X170611800Y-74942700D03*
X168071800Y-74942700D03*
X165531800Y-74942700D03*
X162991800Y-74942700D03*
X160451800Y-74942700D03*
X157911800Y-74942700D03*
X155371800Y-74942700D03*
X152831800Y-74942700D03*
X150291800Y-74942700D03*
X147751800Y-74942700D03*
X145211800Y-74942700D03*
X140893800Y-76403200D03*
X140576300Y-74523600D03*
X135991600Y-72402700D03*
X132499100Y-75653900D03*
X129959100Y-75653900D03*
X127419100Y-75653900D03*
X173139100Y-73113900D03*
X170599100Y-73113900D03*
X168059100Y-73113900D03*
X142633700Y-72377300D03*
X140119100Y-73113900D03*
X137363200Y-74587100D03*
X132499100Y-73113900D03*
X129959100Y-73113900D03*
X127419100Y-73113900D03*
X173139100Y-70573900D03*
X170599100Y-70573900D03*
X168059100Y-70573900D03*
X165519100Y-70573900D03*
X162979100Y-70573900D03*
X160439100Y-70573900D03*
X157899100Y-70573900D03*
X155359100Y-70573900D03*
X152819100Y-70573900D03*
X150279100Y-70573900D03*
X147739100Y-70573900D03*
X145199100Y-70573900D03*
X140119100Y-70573900D03*
X137579100Y-70573900D03*
X132499100Y-70573900D03*
X129959100Y-70573900D03*
X127419100Y-70573900D03*
X173139100Y-68033900D03*
X170599100Y-68033900D03*
X168046400Y-69253100D03*
X165506400Y-69253100D03*
X162966400Y-69253100D03*
X160426400Y-69253100D03*
X157886400Y-69253100D03*
X155346400Y-69253100D03*
X152806400Y-69253100D03*
X150266400Y-69253100D03*
X147726400Y-69253100D03*
X143827500Y-69240400D03*
X142659100Y-68033900D03*
X137579100Y-68033900D03*
X135877300Y-68605400D03*
X132499100Y-68033900D03*
X173139100Y-65493900D03*
X170599100Y-65493900D03*
X168059100Y-65493900D03*
X165519100Y-65493900D03*
X162458400Y-65963800D03*
X160147000Y-65938400D03*
X157365700Y-65468500D03*
X154622500Y-64922400D03*
X152819100Y-65493900D03*
X149885400Y-66230500D03*
X140119100Y-65493900D03*
X135039100Y-65493900D03*
X173139100Y-62953900D03*
X170599100Y-62953900D03*
X168059100Y-62953900D03*
X165519100Y-62953900D03*
X162979100Y-62953900D03*
X161264600Y-62090300D03*
X157873700Y-62293500D03*
X155625800Y-61391800D03*
X153136600Y-63220600D03*
X146380200Y-62890400D03*
X142659100Y-62953900D03*
X140119100Y-62953900D03*
X136931400Y-63411100D03*
X132499100Y-62953900D03*
X129959100Y-62953900D03*
X127419100Y-62953900D03*
X173139100Y-60413900D03*
X170599100Y-60413900D03*
X168059100Y-60413900D03*
X166281100Y-60413900D03*
X163626800Y-60147200D03*
X160299400Y-60032900D03*
X150914100Y-59778900D03*
X148856700Y-60413900D03*
X145199100Y-60413900D03*
X142659100Y-60413900D03*
X135039100Y-60413900D03*
X132499100Y-60413900D03*
X129959100Y-60413900D03*
X127419100Y-60413900D03*
X173139100Y-57873900D03*
X170599100Y-57873900D03*
X168440100Y-57886600D03*
X165519100Y-57873900D03*
X160121600Y-57581800D03*
X154978100Y-58140600D03*
X152019000Y-58445400D03*
X150787100Y-57086500D03*
X147916900Y-56845200D03*
X144983200Y-56870600D03*
X142455900Y-56857900D03*
X140119100Y-57873900D03*
X137579100Y-57873900D03*
X135039100Y-57873900D03*
X132499100Y-57873900D03*
X129959100Y-57873900D03*
X127419100Y-57873900D03*
X173139100Y-55333900D03*
X168059100Y-55333900D03*
X165519100Y-55333900D03*
X162979100Y-55333900D03*
X159524700Y-56070500D03*
X156324300Y-56769000D03*
X155295600Y-54889400D03*
X153466800Y-56705500D03*
X149542500Y-55714900D03*
X147739100Y-55333900D03*
X144983200Y-55206900D03*
X142659100Y-55333900D03*
X140119100Y-55333900D03*
X154647900Y-52108100D03*
X157429200Y-52641500D03*
X132499100Y-55333900D03*
X129959100Y-55333900D03*
X127419100Y-55333900D03*
X173139100Y-52793900D03*
X170599100Y-52793900D03*
X168059100Y-52793900D03*
X162979100Y-52793900D03*
X159969200Y-54292500D03*
X129959100Y-52793900D03*
X127419100Y-52793900D03*
X173139100Y-50253900D03*
X170599100Y-50253900D03*
X168059100Y-50253900D03*
X165519100Y-50253900D03*
X162979100Y-50253900D03*
X160439100Y-50253900D03*
X158089600Y-49936400D03*
X155371800Y-49936400D03*
X152831800Y-49923700D03*
X150139400Y-49923700D03*
X147739100Y-50253900D03*
X145199100Y-50253900D03*
X142659100Y-50253900D03*
X140119100Y-50253900D03*
X137579100Y-50253900D03*
X135039100Y-50253900D03*
X132499100Y-50253900D03*
X129959100Y-50253900D03*
D12*
X128950000Y-66850000D03*
D13*
X128950000Y-61850000D03*
D14*
X143450000Y-53350000D03*
D15*
X145990000Y-53350000D03*
X148530000Y-53350000D03*
X151070000Y-53350000D03*
X153610000Y-53350000D03*
X156150000Y-53350000D03*
X158690000Y-53350000D03*
D16*
X136350000Y-54800000D03*
X138850000Y-52100000D03*
X133850000Y-52100000D03*
D14*
X164250000Y-53350000D03*
D15*
X166790000Y-53350000D03*
X169330000Y-53350000D03*
X171870000Y-53350000D03*
D14*
X169320000Y-73710000D03*
D15*
X169320000Y-76250000D03*
X166780000Y-73710000D03*
X166780000Y-76250000D03*
X164240000Y-73710000D03*
X164240000Y-76250000D03*
X161700000Y-73710000D03*
X161700000Y-76250000D03*
X159160000Y-73710000D03*
X159160000Y-76250000D03*
X156620000Y-73710000D03*
X156620000Y-76250000D03*
X154080000Y-73710000D03*
X154080000Y-76250000D03*
X151540000Y-73710000D03*
X151540000Y-76250000D03*
X149000000Y-73710000D03*
X149000000Y-76250000D03*
X146460000Y-73710000D03*
X146460000Y-76250000D03*
D11*
X127419100Y-50253900D03*
D17*
X154254200Y-58801000D03*
X143497300Y-63614300D03*
X159042100Y-55346600D03*
X159181800Y-51473100D03*
X160223200Y-52108100D03*
X157138620Y-56060254D03*
X158093987Y-55486475D03*
X158254700Y-60121800D03*
X166801800Y-66484500D03*
X157784800Y-66294000D03*
X154305000Y-66294000D03*
D18*
X161700000Y-73710000D02*
X163312001Y-72097999D01*
X163312001Y-72097999D02*
X165167999Y-72097999D01*
X165167999Y-72097999D02*
X165930001Y-72860001D01*
X165930001Y-72860001D02*
X166780000Y-73710000D01*
X156620000Y-73710000D02*
X158232001Y-72097999D01*
X158232001Y-72097999D02*
X160087999Y-72097999D01*
X160087999Y-72097999D02*
X160850001Y-72860001D01*
X160850001Y-72860001D02*
X161700000Y-73710000D01*
X151540000Y-73710000D02*
X153152001Y-72097999D01*
X153152001Y-72097999D02*
X155007999Y-72097999D01*
X155007999Y-72097999D02*
X155770001Y-72860001D01*
X155770001Y-72860001D02*
X156620000Y-73710000D01*
X146460000Y-73710000D02*
X148072001Y-72097999D01*
X148072001Y-72097999D02*
X149927999Y-72097999D01*
X149927999Y-72097999D02*
X150690001Y-72860001D01*
X150690001Y-72860001D02*
X151540000Y-73710000D01*
X128950000Y-66850000D02*
X139600000Y-66850000D01*
X139600000Y-66850000D02*
X146460000Y-73710000D01*
X138850000Y-52100000D02*
X138850000Y-59369200D01*
X138850000Y-59369200D02*
X131369200Y-66850000D01*
X131369200Y-66850000D02*
X128950000Y-66850000D01*
D19*
X143497300Y-63614300D02*
X149440900Y-63614300D01*
X149440900Y-63614300D02*
X154254200Y-58801000D01*
D20*
X152267236Y-57518302D02*
X156870398Y-57518302D01*
X156870398Y-57518302D02*
X159042100Y-55346600D01*
X145852100Y-54749700D02*
X149498634Y-54749700D01*
X144452400Y-53350000D02*
X145852100Y-54749700D01*
X143450000Y-53350000D02*
X144452400Y-53350000D01*
X149498634Y-54749700D02*
X152267236Y-57518302D01*
X159181800Y-51473100D02*
X164863100Y-51473100D01*
X164863100Y-51473100D02*
X166790000Y-53400000D01*
X160223200Y-52108100D02*
X163960500Y-52108100D01*
X163960500Y-52108100D02*
X164250000Y-52397600D01*
X164250000Y-52397600D02*
X164250000Y-53400000D01*
X148530000Y-53350000D02*
X151240254Y-56060254D01*
X156653687Y-56060254D02*
X157138620Y-56060254D01*
X151240254Y-56060254D02*
X156653687Y-56060254D01*
X157609054Y-55486475D02*
X158093987Y-55486475D01*
X153206475Y-55486475D02*
X157609054Y-55486475D01*
X151070000Y-53350000D02*
X153206475Y-55486475D01*
X158254700Y-60121800D02*
X158597599Y-60464699D01*
X158597599Y-60464699D02*
X158597599Y-60596261D01*
X158597599Y-60596261D02*
X164485838Y-66484500D01*
X166801800Y-66484500D02*
X164485838Y-66484500D01*
X154305000Y-66294000D02*
X157784800Y-66294000D01*
D21*
G36*
X173346400Y-80546400D02*
X126953600Y-80546400D01*
X126953600Y-76606892D01*
X145018514Y-76606892D01*
X145264817Y-77131358D01*
X145693076Y-77521645D01*
X146103110Y-77691476D01*
X146333000Y-77570155D01*
X146333000Y-76377000D01*
X146587000Y-76377000D01*
X146587000Y-77570155D01*
X146816890Y-77691476D01*
X147226924Y-77521645D01*
X147655183Y-77131358D01*
X147730000Y-76972046D01*
X147804817Y-77131358D01*
X148233076Y-77521645D01*
X148643110Y-77691476D01*
X148873000Y-77570155D01*
X148873000Y-76377000D01*
X149127000Y-76377000D01*
X149127000Y-77570155D01*
X149356890Y-77691476D01*
X149766924Y-77521645D01*
X150195183Y-77131358D01*
X150270000Y-76972046D01*
X150344817Y-77131358D01*
X150773076Y-77521645D01*
X151183110Y-77691476D01*
X151413000Y-77570155D01*
X151413000Y-76377000D01*
X151667000Y-76377000D01*
X151667000Y-77570155D01*
X151896890Y-77691476D01*
X152306924Y-77521645D01*
X152735183Y-77131358D01*
X152810000Y-76972046D01*
X152884817Y-77131358D01*
X153313076Y-77521645D01*
X153723110Y-77691476D01*
X153953000Y-77570155D01*
X153953000Y-76377000D01*
X154207000Y-76377000D01*
X154207000Y-77570155D01*
X154436890Y-77691476D01*
X154846924Y-77521645D01*
X155275183Y-77131358D01*
X155350000Y-76972046D01*
X155424817Y-77131358D01*
X155853076Y-77521645D01*
X156263110Y-77691476D01*
X156493000Y-77570155D01*
X156493000Y-76377000D01*
X156747000Y-76377000D01*
X156747000Y-77570155D01*
X156976890Y-77691476D01*
X157386924Y-77521645D01*
X157815183Y-77131358D01*
X157890000Y-76972046D01*
X157964817Y-77131358D01*
X158393076Y-77521645D01*
X158803110Y-77691476D01*
X159033000Y-77570155D01*
X159033000Y-76377000D01*
X159287000Y-76377000D01*
X159287000Y-77570155D01*
X159516890Y-77691476D01*
X159926924Y-77521645D01*
X160355183Y-77131358D01*
X160430000Y-76972046D01*
X160504817Y-77131358D01*
X160933076Y-77521645D01*
X161343110Y-77691476D01*
X161573000Y-77570155D01*
X161573000Y-76377000D01*
X161827000Y-76377000D01*
X161827000Y-77570155D01*
X162056890Y-77691476D01*
X162466924Y-77521645D01*
X162895183Y-77131358D01*
X162970000Y-76972046D01*
X163044817Y-77131358D01*
X163473076Y-77521645D01*
X163883110Y-77691476D01*
X164113000Y-77570155D01*
X164113000Y-76377000D01*
X164367000Y-76377000D01*
X164367000Y-77570155D01*
X164596890Y-77691476D01*
X165006924Y-77521645D01*
X165435183Y-77131358D01*
X165510000Y-76972046D01*
X165584817Y-77131358D01*
X166013076Y-77521645D01*
X166423110Y-77691476D01*
X166653000Y-77570155D01*
X166653000Y-76377000D01*
X166907000Y-76377000D01*
X166907000Y-77570155D01*
X167136890Y-77691476D01*
X167546924Y-77521645D01*
X167975183Y-77131358D01*
X168050000Y-76972046D01*
X168124817Y-77131358D01*
X168553076Y-77521645D01*
X168963110Y-77691476D01*
X169193000Y-77570155D01*
X169193000Y-76377000D01*
X169447000Y-76377000D01*
X169447000Y-77570155D01*
X169676890Y-77691476D01*
X170086924Y-77521645D01*
X170515183Y-77131358D01*
X170761486Y-76606892D01*
X170640819Y-76377000D01*
X169447000Y-76377000D01*
X169193000Y-76377000D01*
X166907000Y-76377000D01*
X166653000Y-76377000D01*
X164367000Y-76377000D01*
X164113000Y-76377000D01*
X161827000Y-76377000D01*
X161573000Y-76377000D01*
X159287000Y-76377000D01*
X159033000Y-76377000D01*
X156747000Y-76377000D01*
X156493000Y-76377000D01*
X154207000Y-76377000D01*
X153953000Y-76377000D01*
X151667000Y-76377000D01*
X151413000Y-76377000D01*
X149127000Y-76377000D01*
X148873000Y-76377000D01*
X146587000Y-76377000D01*
X146333000Y-76377000D01*
X145139181Y-76377000D01*
X145018514Y-76606892D01*
X126953600Y-76606892D01*
X126953600Y-75760967D01*
X136587059Y-75760967D01*
X136710540Y-76059813D01*
X136938984Y-76288657D01*
X137237615Y-76412659D01*
X137560967Y-76412941D01*
X137859813Y-76289460D01*
X138088657Y-76061016D01*
X138212659Y-75762385D01*
X138212941Y-75439033D01*
X138089460Y-75140187D01*
X137861016Y-74911343D01*
X137562385Y-74787341D01*
X137239033Y-74787059D01*
X136940187Y-74910540D01*
X136711343Y-75138984D01*
X136587341Y-75437615D01*
X136587059Y-75760967D01*
X126953600Y-75760967D01*
X126953600Y-74744967D01*
X141667059Y-74744967D01*
X141790540Y-75043813D01*
X142018984Y-75272657D01*
X142317615Y-75396659D01*
X142640967Y-75396941D01*
X142939813Y-75273460D01*
X143168657Y-75045016D01*
X143292659Y-74746385D01*
X143292941Y-74423033D01*
X143169460Y-74124187D01*
X142941016Y-73895343D01*
X142642385Y-73771341D01*
X142319033Y-73771059D01*
X142020187Y-73894540D01*
X141791343Y-74122984D01*
X141667341Y-74421615D01*
X141667059Y-74744967D01*
X126953600Y-74744967D01*
X126953600Y-73728967D01*
X136587059Y-73728967D01*
X136710540Y-74027813D01*
X136938984Y-74256657D01*
X137237615Y-74380659D01*
X137560967Y-74380941D01*
X137859813Y-74257460D01*
X138088657Y-74029016D01*
X138212659Y-73730385D01*
X138212941Y-73407033D01*
X138089460Y-73108187D01*
X137861016Y-72879343D01*
X137562385Y-72755341D01*
X137239033Y-72755059D01*
X136940187Y-72878540D01*
X136711343Y-73106984D01*
X136587341Y-73405615D01*
X136587059Y-73728967D01*
X126953600Y-73728967D01*
X126953600Y-65650000D01*
X127465127Y-65650000D01*
X127465127Y-68050000D01*
X127484609Y-68153539D01*
X127545801Y-68248634D01*
X127639168Y-68312429D01*
X127750000Y-68334873D01*
X130150000Y-68334873D01*
X130253539Y-68315391D01*
X130348634Y-68254199D01*
X130412429Y-68160832D01*
X130434873Y-68050000D01*
X130434873Y-67739000D01*
X139231764Y-67739000D01*
X145356848Y-73864084D01*
X145416570Y-74164329D01*
X145661394Y-74530732D01*
X146027797Y-74775556D01*
X146332998Y-74836264D01*
X146332998Y-74929844D01*
X146103110Y-74808524D01*
X145693076Y-74978355D01*
X145264817Y-75368642D01*
X145018514Y-75893108D01*
X145139181Y-76123000D01*
X146333000Y-76123000D01*
X146333000Y-76103000D01*
X146587000Y-76103000D01*
X146587000Y-76123000D01*
X148873000Y-76123000D01*
X148873000Y-76103000D01*
X149127000Y-76103000D01*
X149127000Y-76123000D01*
X151413000Y-76123000D01*
X151413000Y-76103000D01*
X151667000Y-76103000D01*
X151667000Y-76123000D01*
X153953000Y-76123000D01*
X153953000Y-76103000D01*
X154207000Y-76103000D01*
X154207000Y-76123000D01*
X156493000Y-76123000D01*
X156493000Y-76103000D01*
X156747000Y-76103000D01*
X156747000Y-76123000D01*
X159033000Y-76123000D01*
X159033000Y-76103000D01*
X159287000Y-76103000D01*
X159287000Y-76123000D01*
X161573000Y-76123000D01*
X161573000Y-76103000D01*
X161827000Y-76103000D01*
X161827000Y-76123000D01*
X164113000Y-76123000D01*
X164113000Y-76103000D01*
X164367000Y-76103000D01*
X164367000Y-76123000D01*
X166653000Y-76123000D01*
X166653000Y-76103000D01*
X166907000Y-76103000D01*
X166907000Y-76123000D01*
X169193000Y-76123000D01*
X169193000Y-76103000D01*
X169447000Y-76103000D01*
X169447000Y-76123000D01*
X170640819Y-76123000D01*
X170761486Y-75893108D01*
X170515183Y-75368642D01*
X170086924Y-74978355D01*
X169764650Y-74844873D01*
X170170000Y-74844873D01*
X170273539Y-74825391D01*
X170368634Y-74764199D01*
X170432429Y-74670832D01*
X170454873Y-74560000D01*
X170454873Y-72860000D01*
X170435391Y-72756461D01*
X170374199Y-72661366D01*
X170280832Y-72597571D01*
X170170000Y-72575127D01*
X168470000Y-72575127D01*
X168366461Y-72594609D01*
X168271366Y-72655801D01*
X168207571Y-72749168D01*
X168185127Y-72860000D01*
X168185127Y-74560000D01*
X168204609Y-74663539D01*
X168265801Y-74758634D01*
X168359168Y-74822429D01*
X168470000Y-74844873D01*
X168875350Y-74844873D01*
X168553076Y-74978355D01*
X168124817Y-75368642D01*
X168050000Y-75527954D01*
X167975183Y-75368642D01*
X167546924Y-74978355D01*
X167136890Y-74808524D01*
X166907002Y-74929844D01*
X166907002Y-74836264D01*
X167212203Y-74775556D01*
X167578606Y-74530732D01*
X167823430Y-74164329D01*
X167909400Y-73732126D01*
X167909400Y-73687874D01*
X167823430Y-73255671D01*
X167578606Y-72889268D01*
X167212203Y-72644444D01*
X166911958Y-72584722D01*
X165796617Y-71469381D01*
X165508205Y-71276670D01*
X165167999Y-71208999D01*
X163312001Y-71208999D01*
X162971796Y-71276669D01*
X162683383Y-71469381D01*
X161700000Y-72452764D01*
X160716617Y-71469381D01*
X160428205Y-71276670D01*
X160087999Y-71208999D01*
X158232001Y-71208999D01*
X157891796Y-71276669D01*
X157603383Y-71469381D01*
X156620000Y-72452764D01*
X155636617Y-71469381D01*
X155348205Y-71276670D01*
X155007999Y-71208999D01*
X153152001Y-71208999D01*
X152811796Y-71276669D01*
X152523383Y-71469381D01*
X151540000Y-72452764D01*
X150556617Y-71469381D01*
X150268205Y-71276670D01*
X149927999Y-71208999D01*
X148072001Y-71208999D01*
X147731796Y-71276669D01*
X147443383Y-71469381D01*
X146460000Y-72452764D01*
X140424476Y-66417240D01*
X153682592Y-66417240D01*
X153777132Y-66646044D01*
X153952035Y-66821253D01*
X154180674Y-66916192D01*
X154428240Y-66916408D01*
X154657044Y-66821868D01*
X154829613Y-66649600D01*
X157260482Y-66649600D01*
X157431835Y-66821253D01*
X157660474Y-66916192D01*
X157908040Y-66916408D01*
X158136844Y-66821868D01*
X158312053Y-66646965D01*
X158406992Y-66418326D01*
X158407208Y-66170760D01*
X158312668Y-65941956D01*
X158137765Y-65766747D01*
X157909126Y-65671808D01*
X157661560Y-65671592D01*
X157432756Y-65766132D01*
X157260187Y-65938400D01*
X154829318Y-65938400D01*
X154657965Y-65766747D01*
X154429326Y-65671808D01*
X154181760Y-65671592D01*
X153952956Y-65766132D01*
X153777747Y-65941035D01*
X153682808Y-66169674D01*
X153682592Y-66417240D01*
X140424476Y-66417240D01*
X140228618Y-66221382D01*
X140152857Y-66170760D01*
X139940206Y-66028671D01*
X139600000Y-65961000D01*
X133515436Y-65961000D01*
X135738896Y-63737540D01*
X142874892Y-63737540D01*
X142969432Y-63966344D01*
X143144335Y-64141553D01*
X143372974Y-64236492D01*
X143620540Y-64236708D01*
X143849344Y-64142168D01*
X143945580Y-64046100D01*
X149440900Y-64046100D01*
X149606143Y-64013231D01*
X149746229Y-63919629D01*
X153420818Y-60245040D01*
X157632292Y-60245040D01*
X157726832Y-60473844D01*
X157901735Y-60649053D01*
X158130374Y-60743992D01*
X158276936Y-60744120D01*
X158346152Y-60847708D01*
X164234391Y-66735947D01*
X164349756Y-66813032D01*
X164485838Y-66840100D01*
X166277482Y-66840100D01*
X166448835Y-67011753D01*
X166677474Y-67106692D01*
X166925040Y-67106908D01*
X167153844Y-67012368D01*
X167329053Y-66837465D01*
X167423992Y-66608826D01*
X167424208Y-66361260D01*
X167329668Y-66132456D01*
X167154765Y-65957247D01*
X166926126Y-65862308D01*
X166678560Y-65862092D01*
X166449756Y-65956632D01*
X166277187Y-66128900D01*
X164633132Y-66128900D01*
X158949293Y-60445061D01*
X158926131Y-60328617D01*
X158874638Y-60251553D01*
X158876892Y-60246126D01*
X158877108Y-59998560D01*
X158782568Y-59769756D01*
X158607665Y-59594547D01*
X158379026Y-59499608D01*
X158131460Y-59499392D01*
X157902656Y-59593932D01*
X157727447Y-59768835D01*
X157632508Y-59997474D01*
X157632292Y-60245040D01*
X153420818Y-60245040D01*
X154242568Y-59423290D01*
X154377440Y-59423408D01*
X154606244Y-59328868D01*
X154781453Y-59153965D01*
X154876392Y-58925326D01*
X154876608Y-58677760D01*
X154782068Y-58448956D01*
X154607165Y-58273747D01*
X154378526Y-58178808D01*
X154130960Y-58178592D01*
X153902156Y-58273132D01*
X153726947Y-58448035D01*
X153632008Y-58676674D01*
X153631889Y-58812653D01*
X149262042Y-63182500D01*
X143945551Y-63182500D01*
X143850265Y-63087047D01*
X143621626Y-62992108D01*
X143374060Y-62991892D01*
X143145256Y-63086432D01*
X142970047Y-63261335D01*
X142875108Y-63489974D01*
X142874892Y-63737540D01*
X135738896Y-63737540D01*
X139478618Y-59997818D01*
X139486704Y-59985717D01*
X139671329Y-59709406D01*
X139739000Y-59369200D01*
X139739000Y-53373564D01*
X140145806Y-52967467D01*
X140339915Y-52500000D01*
X142315127Y-52500000D01*
X142315127Y-54200000D01*
X142334609Y-54303539D01*
X142395801Y-54398634D01*
X142489168Y-54462429D01*
X142600000Y-54484873D01*
X144300000Y-54484873D01*
X144403539Y-54465391D01*
X144498634Y-54404199D01*
X144562429Y-54310832D01*
X144584873Y-54200000D01*
X144584873Y-53985367D01*
X145600653Y-55001147D01*
X145716017Y-55078232D01*
X145852100Y-55105300D01*
X149351340Y-55105300D01*
X152015788Y-57769749D01*
X152092873Y-57821255D01*
X152131154Y-57846834D01*
X152267236Y-57873902D01*
X156870398Y-57873902D01*
X157006481Y-57846834D01*
X157121845Y-57769749D01*
X158922798Y-55968796D01*
X159165340Y-55969008D01*
X159394144Y-55874468D01*
X159569353Y-55699565D01*
X159664292Y-55470926D01*
X159664508Y-55223360D01*
X159569968Y-54994556D01*
X159395065Y-54819347D01*
X159166426Y-54724408D01*
X158918860Y-54724192D01*
X158690056Y-54818732D01*
X158514847Y-54993635D01*
X158504993Y-55017365D01*
X158446952Y-54959222D01*
X158218313Y-54864283D01*
X157970747Y-54864067D01*
X157741943Y-54958607D01*
X157569374Y-55130875D01*
X153353769Y-55130875D01*
X152078900Y-53856006D01*
X152113430Y-53804329D01*
X152199400Y-53372126D01*
X152199400Y-53327874D01*
X152480600Y-53327874D01*
X152480600Y-53372126D01*
X152566570Y-53804329D01*
X152811394Y-54170732D01*
X153177797Y-54415556D01*
X153610000Y-54501526D01*
X154042203Y-54415556D01*
X154408606Y-54170732D01*
X154653430Y-53804329D01*
X154739400Y-53372126D01*
X154739400Y-53327874D01*
X155020600Y-53327874D01*
X155020600Y-53372126D01*
X155106570Y-53804329D01*
X155351394Y-54170732D01*
X155717797Y-54415556D01*
X156150000Y-54501526D01*
X156582203Y-54415556D01*
X156948606Y-54170732D01*
X157193430Y-53804329D01*
X157279400Y-53372126D01*
X157279400Y-53327874D01*
X157560600Y-53327874D01*
X157560600Y-53372126D01*
X157646570Y-53804329D01*
X157891394Y-54170732D01*
X158257797Y-54415556D01*
X158690000Y-54501526D01*
X159122203Y-54415556D01*
X159488606Y-54170732D01*
X159733430Y-53804329D01*
X159819400Y-53372126D01*
X159819400Y-53327874D01*
X159733430Y-52895671D01*
X159488606Y-52529268D01*
X159122203Y-52284444D01*
X158690000Y-52198474D01*
X158257797Y-52284444D01*
X157891394Y-52529268D01*
X157646570Y-52895671D01*
X157560600Y-53327874D01*
X157279400Y-53327874D01*
X157193430Y-52895671D01*
X156948606Y-52529268D01*
X156582203Y-52284444D01*
X156150000Y-52198474D01*
X155717797Y-52284444D01*
X155351394Y-52529268D01*
X155106570Y-52895671D01*
X155020600Y-53327874D01*
X154739400Y-53327874D01*
X154653430Y-52895671D01*
X154408606Y-52529268D01*
X154042203Y-52284444D01*
X153610000Y-52198474D01*
X153177797Y-52284444D01*
X152811394Y-52529268D01*
X152566570Y-52895671D01*
X152480600Y-53327874D01*
X152199400Y-53327874D01*
X152113430Y-52895671D01*
X151868606Y-52529268D01*
X151502203Y-52284444D01*
X151070000Y-52198474D01*
X150637797Y-52284444D01*
X150271394Y-52529268D01*
X150026570Y-52895671D01*
X149940600Y-53327874D01*
X149940600Y-53372126D01*
X150026570Y-53804329D01*
X150271394Y-54170732D01*
X150637797Y-54415556D01*
X151070000Y-54501526D01*
X151502203Y-54415556D01*
X151580407Y-54363301D01*
X152921760Y-55704654D01*
X151387548Y-55704654D01*
X149538900Y-53856006D01*
X149573430Y-53804329D01*
X149659400Y-53372126D01*
X149659400Y-53327874D01*
X149573430Y-52895671D01*
X149328606Y-52529268D01*
X148962203Y-52284444D01*
X148530000Y-52198474D01*
X148097797Y-52284444D01*
X147731394Y-52529268D01*
X147486570Y-52895671D01*
X147400600Y-53327874D01*
X147400600Y-53372126D01*
X147486570Y-53804329D01*
X147731394Y-54170732D01*
X148065686Y-54394100D01*
X146454314Y-54394100D01*
X146788606Y-54170732D01*
X147033430Y-53804329D01*
X147119400Y-53372126D01*
X147119400Y-53327874D01*
X147033430Y-52895671D01*
X146788606Y-52529268D01*
X146422203Y-52284444D01*
X145990000Y-52198474D01*
X145557797Y-52284444D01*
X145191394Y-52529268D01*
X144946570Y-52895671D01*
X144872640Y-53267346D01*
X144703847Y-53098553D01*
X144588483Y-53021468D01*
X144584873Y-53020750D01*
X144584873Y-52500000D01*
X144565391Y-52396461D01*
X144504199Y-52301366D01*
X144410832Y-52237571D01*
X144300000Y-52215127D01*
X142600000Y-52215127D01*
X142496461Y-52234609D01*
X142401366Y-52295801D01*
X142337571Y-52389168D01*
X142315127Y-52500000D01*
X140339915Y-52500000D01*
X140379134Y-52405551D01*
X140379665Y-51797118D01*
X140296706Y-51596340D01*
X158559392Y-51596340D01*
X158653932Y-51825144D01*
X158828835Y-52000353D01*
X159057474Y-52095292D01*
X159305040Y-52095508D01*
X159533844Y-52000968D01*
X159636364Y-51898627D01*
X159601008Y-51983774D01*
X159600792Y-52231340D01*
X159695332Y-52460144D01*
X159870235Y-52635353D01*
X160098874Y-52730292D01*
X160346440Y-52730508D01*
X160575244Y-52635968D01*
X160747813Y-52463700D01*
X163122478Y-52463700D01*
X163115127Y-52500000D01*
X163115127Y-54200000D01*
X163134609Y-54303539D01*
X163195801Y-54398634D01*
X163289168Y-54462429D01*
X163400000Y-54484873D01*
X165100000Y-54484873D01*
X165203539Y-54465391D01*
X165298634Y-54404199D01*
X165362429Y-54310832D01*
X165384873Y-54200000D01*
X165384873Y-52500000D01*
X165384355Y-52497249D01*
X165761073Y-52873967D01*
X165746570Y-52895671D01*
X165660600Y-53327874D01*
X165660600Y-53372126D01*
X165746570Y-53804329D01*
X165991394Y-54170732D01*
X166357797Y-54415556D01*
X166790000Y-54501526D01*
X167222203Y-54415556D01*
X167588606Y-54170732D01*
X167833430Y-53804329D01*
X167919400Y-53372126D01*
X167919400Y-53327874D01*
X168200600Y-53327874D01*
X168200600Y-53372126D01*
X168286570Y-53804329D01*
X168531394Y-54170732D01*
X168897797Y-54415556D01*
X169330000Y-54501526D01*
X169762203Y-54415556D01*
X170128606Y-54170732D01*
X170373430Y-53804329D01*
X170459400Y-53372126D01*
X170459400Y-53327874D01*
X170740600Y-53327874D01*
X170740600Y-53372126D01*
X170826570Y-53804329D01*
X171071394Y-54170732D01*
X171437797Y-54415556D01*
X171870000Y-54501526D01*
X172302203Y-54415556D01*
X172668606Y-54170732D01*
X172913430Y-53804329D01*
X172999400Y-53372126D01*
X172999400Y-53327874D01*
X172913430Y-52895671D01*
X172668606Y-52529268D01*
X172302203Y-52284444D01*
X171870000Y-52198474D01*
X171437797Y-52284444D01*
X171071394Y-52529268D01*
X170826570Y-52895671D01*
X170740600Y-53327874D01*
X170459400Y-53327874D01*
X170373430Y-52895671D01*
X170128606Y-52529268D01*
X169762203Y-52284444D01*
X169330000Y-52198474D01*
X168897797Y-52284444D01*
X168531394Y-52529268D01*
X168286570Y-52895671D01*
X168200600Y-53327874D01*
X167919400Y-53327874D01*
X167833430Y-52895671D01*
X167588606Y-52529268D01*
X167222203Y-52284444D01*
X166790000Y-52198474D01*
X166357797Y-52284444D01*
X166249620Y-52356726D01*
X165114547Y-51221653D01*
X164999183Y-51144568D01*
X164863100Y-51117500D01*
X159706118Y-51117500D01*
X159534765Y-50945847D01*
X159306126Y-50850908D01*
X159058560Y-50850692D01*
X158829756Y-50945232D01*
X158654547Y-51120135D01*
X158559608Y-51348774D01*
X158559392Y-51596340D01*
X140296706Y-51596340D01*
X140147318Y-51234796D01*
X139717467Y-50804194D01*
X139155551Y-50570866D01*
X138547118Y-50570335D01*
X137984796Y-50802682D01*
X137554194Y-51232533D01*
X137320866Y-51794449D01*
X137320335Y-52402882D01*
X137552682Y-52965204D01*
X137961000Y-53374235D01*
X137961000Y-59000964D01*
X131000964Y-65961000D01*
X130434873Y-65961000D01*
X130434873Y-65650000D01*
X130415391Y-65546461D01*
X130354199Y-65451366D01*
X130260832Y-65387571D01*
X130150000Y-65365127D01*
X127750000Y-65365127D01*
X127646461Y-65384609D01*
X127551366Y-65445801D01*
X127487571Y-65539168D01*
X127465127Y-65650000D01*
X126953600Y-65650000D01*
X126953600Y-62261805D01*
X127161805Y-62261805D01*
X127394358Y-62823258D01*
X127885224Y-63344492D01*
X128538193Y-63638203D01*
X128823000Y-63521858D01*
X128823000Y-61977000D01*
X129077000Y-61977000D01*
X129077000Y-63521858D01*
X129361807Y-63638203D01*
X130014776Y-63344492D01*
X130505642Y-62823258D01*
X130738195Y-62261805D01*
X130621432Y-61977000D01*
X129077000Y-61977000D01*
X128823000Y-61977000D01*
X127278568Y-61977000D01*
X127161805Y-62261805D01*
X126953600Y-62261805D01*
X126953600Y-61438195D01*
X127161805Y-61438195D01*
X127278568Y-61723000D01*
X128823000Y-61723000D01*
X128823000Y-60178142D01*
X129077000Y-60178142D01*
X129077000Y-61723000D01*
X130621432Y-61723000D01*
X130738195Y-61438195D01*
X130505642Y-60876742D01*
X130014776Y-60355508D01*
X129361807Y-60061797D01*
X129077000Y-60178142D01*
X128823000Y-60178142D01*
X128538193Y-60061797D01*
X127885224Y-60355508D01*
X127394358Y-60876742D01*
X127161805Y-61438195D01*
X126953600Y-61438195D01*
X126953600Y-55102882D01*
X134820335Y-55102882D01*
X135052682Y-55665204D01*
X135482533Y-56095806D01*
X136044449Y-56329134D01*
X136652882Y-56329665D01*
X137215204Y-56097318D01*
X137645806Y-55667467D01*
X137879134Y-55105551D01*
X137879665Y-54497118D01*
X137647318Y-53934796D01*
X137217467Y-53504194D01*
X136655551Y-53270866D01*
X136047118Y-53270335D01*
X135484796Y-53502682D01*
X135054194Y-53932533D01*
X134820866Y-54494449D01*
X134820335Y-55102882D01*
X126953600Y-55102882D01*
X126953600Y-53433320D01*
X132696285Y-53433320D01*
X132825533Y-53726123D01*
X133525806Y-53994388D01*
X134275435Y-53974250D01*
X134874467Y-53726123D01*
X135003715Y-53433320D01*
X133850000Y-52279605D01*
X132696285Y-53433320D01*
X126953600Y-53433320D01*
X126953600Y-51775806D01*
X131955612Y-51775806D01*
X131975750Y-52525435D01*
X132223877Y-53124467D01*
X132516680Y-53253715D01*
X133670395Y-52100000D01*
X134029605Y-52100000D01*
X135183320Y-53253715D01*
X135476123Y-53124467D01*
X135744388Y-52424194D01*
X135724250Y-51674565D01*
X135476123Y-51075533D01*
X135183320Y-50946285D01*
X134029605Y-52100000D01*
X133670395Y-52100000D01*
X132516680Y-50946285D01*
X132223877Y-51075533D01*
X131955612Y-51775806D01*
X126953600Y-51775806D01*
X126953600Y-50766680D01*
X132696285Y-50766680D01*
X133850000Y-51920395D01*
X135003715Y-50766680D01*
X134874467Y-50473877D01*
X134174194Y-50205612D01*
X133424565Y-50225750D01*
X132825533Y-50473877D01*
X132696285Y-50766680D01*
X126953600Y-50766680D01*
X126953600Y-49703600D01*
X173346400Y-49703600D01*
X173346400Y-80546400D01*
X173346400Y-80546400D01*
G37*
X173346400Y-80546400D02*
X126953600Y-80546400D01*
X126953600Y-76606892D01*
X145018514Y-76606892D01*
X145264817Y-77131358D01*
X145693076Y-77521645D01*
X146103110Y-77691476D01*
X146333000Y-77570155D01*
X146333000Y-76377000D01*
X146587000Y-76377000D01*
X146587000Y-77570155D01*
X146816890Y-77691476D01*
X147226924Y-77521645D01*
X147655183Y-77131358D01*
X147730000Y-76972046D01*
X147804817Y-77131358D01*
X148233076Y-77521645D01*
X148643110Y-77691476D01*
X148873000Y-77570155D01*
X148873000Y-76377000D01*
X149127000Y-76377000D01*
X149127000Y-77570155D01*
X149356890Y-77691476D01*
X149766924Y-77521645D01*
X150195183Y-77131358D01*
X150270000Y-76972046D01*
X150344817Y-77131358D01*
X150773076Y-77521645D01*
X151183110Y-77691476D01*
X151413000Y-77570155D01*
X151413000Y-76377000D01*
X151667000Y-76377000D01*
X151667000Y-77570155D01*
X151896890Y-77691476D01*
X152306924Y-77521645D01*
X152735183Y-77131358D01*
X152810000Y-76972046D01*
X152884817Y-77131358D01*
X153313076Y-77521645D01*
X153723110Y-77691476D01*
X153953000Y-77570155D01*
X153953000Y-76377000D01*
X154207000Y-76377000D01*
X154207000Y-77570155D01*
X154436890Y-77691476D01*
X154846924Y-77521645D01*
X155275183Y-77131358D01*
X155350000Y-76972046D01*
X155424817Y-77131358D01*
X155853076Y-77521645D01*
X156263110Y-77691476D01*
X156493000Y-77570155D01*
X156493000Y-76377000D01*
X156747000Y-76377000D01*
X156747000Y-77570155D01*
X156976890Y-77691476D01*
X157386924Y-77521645D01*
X157815183Y-77131358D01*
X157890000Y-76972046D01*
X157964817Y-77131358D01*
X158393076Y-77521645D01*
X158803110Y-77691476D01*
X159033000Y-77570155D01*
X159033000Y-76377000D01*
X159287000Y-76377000D01*
X159287000Y-77570155D01*
X159516890Y-77691476D01*
X159926924Y-77521645D01*
X160355183Y-77131358D01*
X160430000Y-76972046D01*
X160504817Y-77131358D01*
X160933076Y-77521645D01*
X161343110Y-77691476D01*
X161573000Y-77570155D01*
X161573000Y-76377000D01*
X161827000Y-76377000D01*
X161827000Y-77570155D01*
X162056890Y-77691476D01*
X162466924Y-77521645D01*
X162895183Y-77131358D01*
X162970000Y-76972046D01*
X163044817Y-77131358D01*
X163473076Y-77521645D01*
X163883110Y-77691476D01*
X164113000Y-77570155D01*
X164113000Y-76377000D01*
X164367000Y-76377000D01*
X164367000Y-77570155D01*
X164596890Y-77691476D01*
X165006924Y-77521645D01*
X165435183Y-77131358D01*
X165510000Y-76972046D01*
X165584817Y-77131358D01*
X166013076Y-77521645D01*
X166423110Y-77691476D01*
X166653000Y-77570155D01*
X166653000Y-76377000D01*
X166907000Y-76377000D01*
X166907000Y-77570155D01*
X167136890Y-77691476D01*
X167546924Y-77521645D01*
X167975183Y-77131358D01*
X168050000Y-76972046D01*
X168124817Y-77131358D01*
X168553076Y-77521645D01*
X168963110Y-77691476D01*
X169193000Y-77570155D01*
X169193000Y-76377000D01*
X169447000Y-76377000D01*
X169447000Y-77570155D01*
X169676890Y-77691476D01*
X170086924Y-77521645D01*
X170515183Y-77131358D01*
X170761486Y-76606892D01*
X170640819Y-76377000D01*
X169447000Y-76377000D01*
X169193000Y-76377000D01*
X166907000Y-76377000D01*
X166653000Y-76377000D01*
X164367000Y-76377000D01*
X164113000Y-76377000D01*
X161827000Y-76377000D01*
X161573000Y-76377000D01*
X159287000Y-76377000D01*
X159033000Y-76377000D01*
X156747000Y-76377000D01*
X156493000Y-76377000D01*
X154207000Y-76377000D01*
X153953000Y-76377000D01*
X151667000Y-76377000D01*
X151413000Y-76377000D01*
X149127000Y-76377000D01*
X148873000Y-76377000D01*
X146587000Y-76377000D01*
X146333000Y-76377000D01*
X145139181Y-76377000D01*
X145018514Y-76606892D01*
X126953600Y-76606892D01*
X126953600Y-75760967D01*
X136587059Y-75760967D01*
X136710540Y-76059813D01*
X136938984Y-76288657D01*
X137237615Y-76412659D01*
X137560967Y-76412941D01*
X137859813Y-76289460D01*
X138088657Y-76061016D01*
X138212659Y-75762385D01*
X138212941Y-75439033D01*
X138089460Y-75140187D01*
X137861016Y-74911343D01*
X137562385Y-74787341D01*
X137239033Y-74787059D01*
X136940187Y-74910540D01*
X136711343Y-75138984D01*
X136587341Y-75437615D01*
X136587059Y-75760967D01*
X126953600Y-75760967D01*
X126953600Y-74744967D01*
X141667059Y-74744967D01*
X141790540Y-75043813D01*
X142018984Y-75272657D01*
X142317615Y-75396659D01*
X142640967Y-75396941D01*
X142939813Y-75273460D01*
X143168657Y-75045016D01*
X143292659Y-74746385D01*
X143292941Y-74423033D01*
X143169460Y-74124187D01*
X142941016Y-73895343D01*
X142642385Y-73771341D01*
X142319033Y-73771059D01*
X142020187Y-73894540D01*
X141791343Y-74122984D01*
X141667341Y-74421615D01*
X141667059Y-74744967D01*
X126953600Y-74744967D01*
X126953600Y-73728967D01*
X136587059Y-73728967D01*
X136710540Y-74027813D01*
X136938984Y-74256657D01*
X137237615Y-74380659D01*
X137560967Y-74380941D01*
X137859813Y-74257460D01*
X138088657Y-74029016D01*
X138212659Y-73730385D01*
X138212941Y-73407033D01*
X138089460Y-73108187D01*
X137861016Y-72879343D01*
X137562385Y-72755341D01*
X137239033Y-72755059D01*
X136940187Y-72878540D01*
X136711343Y-73106984D01*
X136587341Y-73405615D01*
X136587059Y-73728967D01*
X126953600Y-73728967D01*
X126953600Y-65650000D01*
X127465127Y-65650000D01*
X127465127Y-68050000D01*
X127484609Y-68153539D01*
X127545801Y-68248634D01*
X127639168Y-68312429D01*
X127750000Y-68334873D01*
X130150000Y-68334873D01*
X130253539Y-68315391D01*
X130348634Y-68254199D01*
X130412429Y-68160832D01*
X130434873Y-68050000D01*
X130434873Y-67739000D01*
X139231764Y-67739000D01*
X145356848Y-73864084D01*
X145416570Y-74164329D01*
X145661394Y-74530732D01*
X146027797Y-74775556D01*
X146332998Y-74836264D01*
X146332998Y-74929844D01*
X146103110Y-74808524D01*
X145693076Y-74978355D01*
X145264817Y-75368642D01*
X145018514Y-75893108D01*
X145139181Y-76123000D01*
X146333000Y-76123000D01*
X146333000Y-76103000D01*
X146587000Y-76103000D01*
X146587000Y-76123000D01*
X148873000Y-76123000D01*
X148873000Y-76103000D01*
X149127000Y-76103000D01*
X149127000Y-76123000D01*
X151413000Y-76123000D01*
X151413000Y-76103000D01*
X151667000Y-76103000D01*
X151667000Y-76123000D01*
X153953000Y-76123000D01*
X153953000Y-76103000D01*
X154207000Y-76103000D01*
X154207000Y-76123000D01*
X156493000Y-76123000D01*
X156493000Y-76103000D01*
X156747000Y-76103000D01*
X156747000Y-76123000D01*
X159033000Y-76123000D01*
X159033000Y-76103000D01*
X159287000Y-76103000D01*
X159287000Y-76123000D01*
X161573000Y-76123000D01*
X161573000Y-76103000D01*
X161827000Y-76103000D01*
X161827000Y-76123000D01*
X164113000Y-76123000D01*
X164113000Y-76103000D01*
X164367000Y-76103000D01*
X164367000Y-76123000D01*
X166653000Y-76123000D01*
X166653000Y-76103000D01*
X166907000Y-76103000D01*
X166907000Y-76123000D01*
X169193000Y-76123000D01*
X169193000Y-76103000D01*
X169447000Y-76103000D01*
X169447000Y-76123000D01*
X170640819Y-76123000D01*
X170761486Y-75893108D01*
X170515183Y-75368642D01*
X170086924Y-74978355D01*
X169764650Y-74844873D01*
X170170000Y-74844873D01*
X170273539Y-74825391D01*
X170368634Y-74764199D01*
X170432429Y-74670832D01*
X170454873Y-74560000D01*
X170454873Y-72860000D01*
X170435391Y-72756461D01*
X170374199Y-72661366D01*
X170280832Y-72597571D01*
X170170000Y-72575127D01*
X168470000Y-72575127D01*
X168366461Y-72594609D01*
X168271366Y-72655801D01*
X168207571Y-72749168D01*
X168185127Y-72860000D01*
X168185127Y-74560000D01*
X168204609Y-74663539D01*
X168265801Y-74758634D01*
X168359168Y-74822429D01*
X168470000Y-74844873D01*
X168875350Y-74844873D01*
X168553076Y-74978355D01*
X168124817Y-75368642D01*
X168050000Y-75527954D01*
X167975183Y-75368642D01*
X167546924Y-74978355D01*
X167136890Y-74808524D01*
X166907002Y-74929844D01*
X166907002Y-74836264D01*
X167212203Y-74775556D01*
X167578606Y-74530732D01*
X167823430Y-74164329D01*
X167909400Y-73732126D01*
X167909400Y-73687874D01*
X167823430Y-73255671D01*
X167578606Y-72889268D01*
X167212203Y-72644444D01*
X166911958Y-72584722D01*
X165796617Y-71469381D01*
X165508205Y-71276670D01*
X165167999Y-71208999D01*
X163312001Y-71208999D01*
X162971796Y-71276669D01*
X162683383Y-71469381D01*
X161700000Y-72452764D01*
X160716617Y-71469381D01*
X160428205Y-71276670D01*
X160087999Y-71208999D01*
X158232001Y-71208999D01*
X157891796Y-71276669D01*
X157603383Y-71469381D01*
X156620000Y-72452764D01*
X155636617Y-71469381D01*
X155348205Y-71276670D01*
X155007999Y-71208999D01*
X153152001Y-71208999D01*
X152811796Y-71276669D01*
X152523383Y-71469381D01*
X151540000Y-72452764D01*
X150556617Y-71469381D01*
X150268205Y-71276670D01*
X149927999Y-71208999D01*
X148072001Y-71208999D01*
X147731796Y-71276669D01*
X147443383Y-71469381D01*
X146460000Y-72452764D01*
X140424476Y-66417240D01*
X153682592Y-66417240D01*
X153777132Y-66646044D01*
X153952035Y-66821253D01*
X154180674Y-66916192D01*
X154428240Y-66916408D01*
X154657044Y-66821868D01*
X154829613Y-66649600D01*
X157260482Y-66649600D01*
X157431835Y-66821253D01*
X157660474Y-66916192D01*
X157908040Y-66916408D01*
X158136844Y-66821868D01*
X158312053Y-66646965D01*
X158406992Y-66418326D01*
X158407208Y-66170760D01*
X158312668Y-65941956D01*
X158137765Y-65766747D01*
X157909126Y-65671808D01*
X157661560Y-65671592D01*
X157432756Y-65766132D01*
X157260187Y-65938400D01*
X154829318Y-65938400D01*
X154657965Y-65766747D01*
X154429326Y-65671808D01*
X154181760Y-65671592D01*
X153952956Y-65766132D01*
X153777747Y-65941035D01*
X153682808Y-66169674D01*
X153682592Y-66417240D01*
X140424476Y-66417240D01*
X140228618Y-66221382D01*
X140152857Y-66170760D01*
X139940206Y-66028671D01*
X139600000Y-65961000D01*
X133515436Y-65961000D01*
X135738896Y-63737540D01*
X142874892Y-63737540D01*
X142969432Y-63966344D01*
X143144335Y-64141553D01*
X143372974Y-64236492D01*
X143620540Y-64236708D01*
X143849344Y-64142168D01*
X143945580Y-64046100D01*
X149440900Y-64046100D01*
X149606143Y-64013231D01*
X149746229Y-63919629D01*
X153420818Y-60245040D01*
X157632292Y-60245040D01*
X157726832Y-60473844D01*
X157901735Y-60649053D01*
X158130374Y-60743992D01*
X158276936Y-60744120D01*
X158346152Y-60847708D01*
X164234391Y-66735947D01*
X164349756Y-66813032D01*
X164485838Y-66840100D01*
X166277482Y-66840100D01*
X166448835Y-67011753D01*
X166677474Y-67106692D01*
X166925040Y-67106908D01*
X167153844Y-67012368D01*
X167329053Y-66837465D01*
X167423992Y-66608826D01*
X167424208Y-66361260D01*
X167329668Y-66132456D01*
X167154765Y-65957247D01*
X166926126Y-65862308D01*
X166678560Y-65862092D01*
X166449756Y-65956632D01*
X166277187Y-66128900D01*
X164633132Y-66128900D01*
X158949293Y-60445061D01*
X158926131Y-60328617D01*
X158874638Y-60251553D01*
X158876892Y-60246126D01*
X158877108Y-59998560D01*
X158782568Y-59769756D01*
X158607665Y-59594547D01*
X158379026Y-59499608D01*
X158131460Y-59499392D01*
X157902656Y-59593932D01*
X157727447Y-59768835D01*
X157632508Y-59997474D01*
X157632292Y-60245040D01*
X153420818Y-60245040D01*
X154242568Y-59423290D01*
X154377440Y-59423408D01*
X154606244Y-59328868D01*
X154781453Y-59153965D01*
X154876392Y-58925326D01*
X154876608Y-58677760D01*
X154782068Y-58448956D01*
X154607165Y-58273747D01*
X154378526Y-58178808D01*
X154130960Y-58178592D01*
X153902156Y-58273132D01*
X153726947Y-58448035D01*
X153632008Y-58676674D01*
X153631889Y-58812653D01*
X149262042Y-63182500D01*
X143945551Y-63182500D01*
X143850265Y-63087047D01*
X143621626Y-62992108D01*
X143374060Y-62991892D01*
X143145256Y-63086432D01*
X142970047Y-63261335D01*
X142875108Y-63489974D01*
X142874892Y-63737540D01*
X135738896Y-63737540D01*
X139478618Y-59997818D01*
X139486704Y-59985717D01*
X139671329Y-59709406D01*
X139739000Y-59369200D01*
X139739000Y-53373564D01*
X140145806Y-52967467D01*
X140339915Y-52500000D01*
X142315127Y-52500000D01*
X142315127Y-54200000D01*
X142334609Y-54303539D01*
X142395801Y-54398634D01*
X142489168Y-54462429D01*
X142600000Y-54484873D01*
X144300000Y-54484873D01*
X144403539Y-54465391D01*
X144498634Y-54404199D01*
X144562429Y-54310832D01*
X144584873Y-54200000D01*
X144584873Y-53985367D01*
X145600653Y-55001147D01*
X145716017Y-55078232D01*
X145852100Y-55105300D01*
X149351340Y-55105300D01*
X152015788Y-57769749D01*
X152092873Y-57821255D01*
X152131154Y-57846834D01*
X152267236Y-57873902D01*
X156870398Y-57873902D01*
X157006481Y-57846834D01*
X157121845Y-57769749D01*
X158922798Y-55968796D01*
X159165340Y-55969008D01*
X159394144Y-55874468D01*
X159569353Y-55699565D01*
X159664292Y-55470926D01*
X159664508Y-55223360D01*
X159569968Y-54994556D01*
X159395065Y-54819347D01*
X159166426Y-54724408D01*
X158918860Y-54724192D01*
X158690056Y-54818732D01*
X158514847Y-54993635D01*
X158504993Y-55017365D01*
X158446952Y-54959222D01*
X158218313Y-54864283D01*
X157970747Y-54864067D01*
X157741943Y-54958607D01*
X157569374Y-55130875D01*
X153353769Y-55130875D01*
X152078900Y-53856006D01*
X152113430Y-53804329D01*
X152199400Y-53372126D01*
X152199400Y-53327874D01*
X152480600Y-53327874D01*
X152480600Y-53372126D01*
X152566570Y-53804329D01*
X152811394Y-54170732D01*
X153177797Y-54415556D01*
X153610000Y-54501526D01*
X154042203Y-54415556D01*
X154408606Y-54170732D01*
X154653430Y-53804329D01*
X154739400Y-53372126D01*
X154739400Y-53327874D01*
X155020600Y-53327874D01*
X155020600Y-53372126D01*
X155106570Y-53804329D01*
X155351394Y-54170732D01*
X155717797Y-54415556D01*
X156150000Y-54501526D01*
X156582203Y-54415556D01*
X156948606Y-54170732D01*
X157193430Y-53804329D01*
X157279400Y-53372126D01*
X157279400Y-53327874D01*
X157560600Y-53327874D01*
X157560600Y-53372126D01*
X157646570Y-53804329D01*
X157891394Y-54170732D01*
X158257797Y-54415556D01*
X158690000Y-54501526D01*
X159122203Y-54415556D01*
X159488606Y-54170732D01*
X159733430Y-53804329D01*
X159819400Y-53372126D01*
X159819400Y-53327874D01*
X159733430Y-52895671D01*
X159488606Y-52529268D01*
X159122203Y-52284444D01*
X158690000Y-52198474D01*
X158257797Y-52284444D01*
X157891394Y-52529268D01*
X157646570Y-52895671D01*
X157560600Y-53327874D01*
X157279400Y-53327874D01*
X157193430Y-52895671D01*
X156948606Y-52529268D01*
X156582203Y-52284444D01*
X156150000Y-52198474D01*
X155717797Y-52284444D01*
X155351394Y-52529268D01*
X155106570Y-52895671D01*
X155020600Y-53327874D01*
X154739400Y-53327874D01*
X154653430Y-52895671D01*
X154408606Y-52529268D01*
X154042203Y-52284444D01*
X153610000Y-52198474D01*
X153177797Y-52284444D01*
X152811394Y-52529268D01*
X152566570Y-52895671D01*
X152480600Y-53327874D01*
X152199400Y-53327874D01*
X152113430Y-52895671D01*
X151868606Y-52529268D01*
X151502203Y-52284444D01*
X151070000Y-52198474D01*
X150637797Y-52284444D01*
X150271394Y-52529268D01*
X150026570Y-52895671D01*
X149940600Y-53327874D01*
X149940600Y-53372126D01*
X150026570Y-53804329D01*
X150271394Y-54170732D01*
X150637797Y-54415556D01*
X151070000Y-54501526D01*
X151502203Y-54415556D01*
X151580407Y-54363301D01*
X152921760Y-55704654D01*
X151387548Y-55704654D01*
X149538900Y-53856006D01*
X149573430Y-53804329D01*
X149659400Y-53372126D01*
X149659400Y-53327874D01*
X149573430Y-52895671D01*
X149328606Y-52529268D01*
X148962203Y-52284444D01*
X148530000Y-52198474D01*
X148097797Y-52284444D01*
X147731394Y-52529268D01*
X147486570Y-52895671D01*
X147400600Y-53327874D01*
X147400600Y-53372126D01*
X147486570Y-53804329D01*
X147731394Y-54170732D01*
X148065686Y-54394100D01*
X146454314Y-54394100D01*
X146788606Y-54170732D01*
X147033430Y-53804329D01*
X147119400Y-53372126D01*
X147119400Y-53327874D01*
X147033430Y-52895671D01*
X146788606Y-52529268D01*
X146422203Y-52284444D01*
X145990000Y-52198474D01*
X145557797Y-52284444D01*
X145191394Y-52529268D01*
X144946570Y-52895671D01*
X144872640Y-53267346D01*
X144703847Y-53098553D01*
X144588483Y-53021468D01*
X144584873Y-53020750D01*
X144584873Y-52500000D01*
X144565391Y-52396461D01*
X144504199Y-52301366D01*
X144410832Y-52237571D01*
X144300000Y-52215127D01*
X142600000Y-52215127D01*
X142496461Y-52234609D01*
X142401366Y-52295801D01*
X142337571Y-52389168D01*
X142315127Y-52500000D01*
X140339915Y-52500000D01*
X140379134Y-52405551D01*
X140379665Y-51797118D01*
X140296706Y-51596340D01*
X158559392Y-51596340D01*
X158653932Y-51825144D01*
X158828835Y-52000353D01*
X159057474Y-52095292D01*
X159305040Y-52095508D01*
X159533844Y-52000968D01*
X159636364Y-51898627D01*
X159601008Y-51983774D01*
X159600792Y-52231340D01*
X159695332Y-52460144D01*
X159870235Y-52635353D01*
X160098874Y-52730292D01*
X160346440Y-52730508D01*
X160575244Y-52635968D01*
X160747813Y-52463700D01*
X163122478Y-52463700D01*
X163115127Y-52500000D01*
X163115127Y-54200000D01*
X163134609Y-54303539D01*
X163195801Y-54398634D01*
X163289168Y-54462429D01*
X163400000Y-54484873D01*
X165100000Y-54484873D01*
X165203539Y-54465391D01*
X165298634Y-54404199D01*
X165362429Y-54310832D01*
X165384873Y-54200000D01*
X165384873Y-52500000D01*
X165384355Y-52497249D01*
X165761073Y-52873967D01*
X165746570Y-52895671D01*
X165660600Y-53327874D01*
X165660600Y-53372126D01*
X165746570Y-53804329D01*
X165991394Y-54170732D01*
X166357797Y-54415556D01*
X166790000Y-54501526D01*
X167222203Y-54415556D01*
X167588606Y-54170732D01*
X167833430Y-53804329D01*
X167919400Y-53372126D01*
X167919400Y-53327874D01*
X168200600Y-53327874D01*
X168200600Y-53372126D01*
X168286570Y-53804329D01*
X168531394Y-54170732D01*
X168897797Y-54415556D01*
X169330000Y-54501526D01*
X169762203Y-54415556D01*
X170128606Y-54170732D01*
X170373430Y-53804329D01*
X170459400Y-53372126D01*
X170459400Y-53327874D01*
X170740600Y-53327874D01*
X170740600Y-53372126D01*
X170826570Y-53804329D01*
X171071394Y-54170732D01*
X171437797Y-54415556D01*
X171870000Y-54501526D01*
X172302203Y-54415556D01*
X172668606Y-54170732D01*
X172913430Y-53804329D01*
X172999400Y-53372126D01*
X172999400Y-53327874D01*
X172913430Y-52895671D01*
X172668606Y-52529268D01*
X172302203Y-52284444D01*
X171870000Y-52198474D01*
X171437797Y-52284444D01*
X171071394Y-52529268D01*
X170826570Y-52895671D01*
X170740600Y-53327874D01*
X170459400Y-53327874D01*
X170373430Y-52895671D01*
X170128606Y-52529268D01*
X169762203Y-52284444D01*
X169330000Y-52198474D01*
X168897797Y-52284444D01*
X168531394Y-52529268D01*
X168286570Y-52895671D01*
X168200600Y-53327874D01*
X167919400Y-53327874D01*
X167833430Y-52895671D01*
X167588606Y-52529268D01*
X167222203Y-52284444D01*
X166790000Y-52198474D01*
X166357797Y-52284444D01*
X166249620Y-52356726D01*
X165114547Y-51221653D01*
X164999183Y-51144568D01*
X164863100Y-51117500D01*
X159706118Y-51117500D01*
X159534765Y-50945847D01*
X159306126Y-50850908D01*
X159058560Y-50850692D01*
X158829756Y-50945232D01*
X158654547Y-51120135D01*
X158559608Y-51348774D01*
X158559392Y-51596340D01*
X140296706Y-51596340D01*
X140147318Y-51234796D01*
X139717467Y-50804194D01*
X139155551Y-50570866D01*
X138547118Y-50570335D01*
X137984796Y-50802682D01*
X137554194Y-51232533D01*
X137320866Y-51794449D01*
X137320335Y-52402882D01*
X137552682Y-52965204D01*
X137961000Y-53374235D01*
X137961000Y-59000964D01*
X131000964Y-65961000D01*
X130434873Y-65961000D01*
X130434873Y-65650000D01*
X130415391Y-65546461D01*
X130354199Y-65451366D01*
X130260832Y-65387571D01*
X130150000Y-65365127D01*
X127750000Y-65365127D01*
X127646461Y-65384609D01*
X127551366Y-65445801D01*
X127487571Y-65539168D01*
X127465127Y-65650000D01*
X126953600Y-65650000D01*
X126953600Y-62261805D01*
X127161805Y-62261805D01*
X127394358Y-62823258D01*
X127885224Y-63344492D01*
X128538193Y-63638203D01*
X128823000Y-63521858D01*
X128823000Y-61977000D01*
X129077000Y-61977000D01*
X129077000Y-63521858D01*
X129361807Y-63638203D01*
X130014776Y-63344492D01*
X130505642Y-62823258D01*
X130738195Y-62261805D01*
X130621432Y-61977000D01*
X129077000Y-61977000D01*
X128823000Y-61977000D01*
X127278568Y-61977000D01*
X127161805Y-62261805D01*
X126953600Y-62261805D01*
X126953600Y-61438195D01*
X127161805Y-61438195D01*
X127278568Y-61723000D01*
X128823000Y-61723000D01*
X128823000Y-60178142D01*
X129077000Y-60178142D01*
X129077000Y-61723000D01*
X130621432Y-61723000D01*
X130738195Y-61438195D01*
X130505642Y-60876742D01*
X130014776Y-60355508D01*
X129361807Y-60061797D01*
X129077000Y-60178142D01*
X128823000Y-60178142D01*
X128538193Y-60061797D01*
X127885224Y-60355508D01*
X127394358Y-60876742D01*
X127161805Y-61438195D01*
X126953600Y-61438195D01*
X126953600Y-55102882D01*
X134820335Y-55102882D01*
X135052682Y-55665204D01*
X135482533Y-56095806D01*
X136044449Y-56329134D01*
X136652882Y-56329665D01*
X137215204Y-56097318D01*
X137645806Y-55667467D01*
X137879134Y-55105551D01*
X137879665Y-54497118D01*
X137647318Y-53934796D01*
X137217467Y-53504194D01*
X136655551Y-53270866D01*
X136047118Y-53270335D01*
X135484796Y-53502682D01*
X135054194Y-53932533D01*
X134820866Y-54494449D01*
X134820335Y-55102882D01*
X126953600Y-55102882D01*
X126953600Y-53433320D01*
X132696285Y-53433320D01*
X132825533Y-53726123D01*
X133525806Y-53994388D01*
X134275435Y-53974250D01*
X134874467Y-53726123D01*
X135003715Y-53433320D01*
X133850000Y-52279605D01*
X132696285Y-53433320D01*
X126953600Y-53433320D01*
X126953600Y-51775806D01*
X131955612Y-51775806D01*
X131975750Y-52525435D01*
X132223877Y-53124467D01*
X132516680Y-53253715D01*
X133670395Y-52100000D01*
X134029605Y-52100000D01*
X135183320Y-53253715D01*
X135476123Y-53124467D01*
X135744388Y-52424194D01*
X135724250Y-51674565D01*
X135476123Y-51075533D01*
X135183320Y-50946285D01*
X134029605Y-52100000D01*
X133670395Y-52100000D01*
X132516680Y-50946285D01*
X132223877Y-51075533D01*
X131955612Y-51775806D01*
X126953600Y-51775806D01*
X126953600Y-50766680D01*
X132696285Y-50766680D01*
X133850000Y-51920395D01*
X135003715Y-50766680D01*
X134874467Y-50473877D01*
X134174194Y-50205612D01*
X133424565Y-50225750D01*
X132825533Y-50473877D01*
X132696285Y-50766680D01*
X126953600Y-50766680D01*
X126953600Y-49703600D01*
X173346400Y-49703600D01*
X173346400Y-80546400D01*
G36*
X163110600Y-73687874D02*
X163110600Y-73732126D01*
X163196570Y-74164329D01*
X163441394Y-74530732D01*
X163807797Y-74775556D01*
X164112998Y-74836264D01*
X164112998Y-74929844D01*
X163883110Y-74808524D01*
X163473076Y-74978355D01*
X163044817Y-75368642D01*
X162970000Y-75527954D01*
X162895183Y-75368642D01*
X162466924Y-74978355D01*
X162056890Y-74808524D01*
X161827002Y-74929844D01*
X161827002Y-74836264D01*
X162132203Y-74775556D01*
X162498606Y-74530732D01*
X162743430Y-74164329D01*
X162803152Y-73864084D01*
X163143187Y-73524049D01*
X163110600Y-73687874D01*
X163110600Y-73687874D01*
G37*
X163110600Y-73687874D02*
X163110600Y-73732126D01*
X163196570Y-74164329D01*
X163441394Y-74530732D01*
X163807797Y-74775556D01*
X164112998Y-74836264D01*
X164112998Y-74929844D01*
X163883110Y-74808524D01*
X163473076Y-74978355D01*
X163044817Y-75368642D01*
X162970000Y-75527954D01*
X162895183Y-75368642D01*
X162466924Y-74978355D01*
X162056890Y-74808524D01*
X161827002Y-74929844D01*
X161827002Y-74836264D01*
X162132203Y-74775556D01*
X162498606Y-74530732D01*
X162743430Y-74164329D01*
X162803152Y-73864084D01*
X163143187Y-73524049D01*
X163110600Y-73687874D01*
G36*
X165676848Y-73864084D02*
X165736570Y-74164329D01*
X165981394Y-74530732D01*
X166347797Y-74775556D01*
X166652998Y-74836264D01*
X166652998Y-74929844D01*
X166423110Y-74808524D01*
X166013076Y-74978355D01*
X165584817Y-75368642D01*
X165510000Y-75527954D01*
X165435183Y-75368642D01*
X165006924Y-74978355D01*
X164596890Y-74808524D01*
X164367002Y-74929844D01*
X164367002Y-74836264D01*
X164672203Y-74775556D01*
X165038606Y-74530732D01*
X165283430Y-74164329D01*
X165369400Y-73732126D01*
X165369400Y-73687874D01*
X165336813Y-73524049D01*
X165676848Y-73864084D01*
X165676848Y-73864084D01*
G37*
X165676848Y-73864084D02*
X165736570Y-74164329D01*
X165981394Y-74530732D01*
X166347797Y-74775556D01*
X166652998Y-74836264D01*
X166652998Y-74929844D01*
X166423110Y-74808524D01*
X166013076Y-74978355D01*
X165584817Y-75368642D01*
X165510000Y-75527954D01*
X165435183Y-75368642D01*
X165006924Y-74978355D01*
X164596890Y-74808524D01*
X164367002Y-74929844D01*
X164367002Y-74836264D01*
X164672203Y-74775556D01*
X165038606Y-74530732D01*
X165283430Y-74164329D01*
X165369400Y-73732126D01*
X165369400Y-73687874D01*
X165336813Y-73524049D01*
X165676848Y-73864084D01*
G36*
X150436848Y-73864084D02*
X150496570Y-74164329D01*
X150741394Y-74530732D01*
X151107797Y-74775556D01*
X151412998Y-74836264D01*
X151412998Y-74929844D01*
X151183110Y-74808524D01*
X150773076Y-74978355D01*
X150344817Y-75368642D01*
X150270000Y-75527954D01*
X150195183Y-75368642D01*
X149766924Y-74978355D01*
X149356890Y-74808524D01*
X149127002Y-74929844D01*
X149127002Y-74836264D01*
X149432203Y-74775556D01*
X149798606Y-74530732D01*
X150043430Y-74164329D01*
X150129400Y-73732126D01*
X150129400Y-73687874D01*
X150096813Y-73524049D01*
X150436848Y-73864084D01*
X150436848Y-73864084D01*
G37*
X150436848Y-73864084D02*
X150496570Y-74164329D01*
X150741394Y-74530732D01*
X151107797Y-74775556D01*
X151412998Y-74836264D01*
X151412998Y-74929844D01*
X151183110Y-74808524D01*
X150773076Y-74978355D01*
X150344817Y-75368642D01*
X150270000Y-75527954D01*
X150195183Y-75368642D01*
X149766924Y-74978355D01*
X149356890Y-74808524D01*
X149127002Y-74929844D01*
X149127002Y-74836264D01*
X149432203Y-74775556D01*
X149798606Y-74530732D01*
X150043430Y-74164329D01*
X150129400Y-73732126D01*
X150129400Y-73687874D01*
X150096813Y-73524049D01*
X150436848Y-73864084D01*
G36*
X158030600Y-73687874D02*
X158030600Y-73732126D01*
X158116570Y-74164329D01*
X158361394Y-74530732D01*
X158727797Y-74775556D01*
X159032998Y-74836264D01*
X159032998Y-74929844D01*
X158803110Y-74808524D01*
X158393076Y-74978355D01*
X157964817Y-75368642D01*
X157890000Y-75527954D01*
X157815183Y-75368642D01*
X157386924Y-74978355D01*
X156976890Y-74808524D01*
X156747002Y-74929844D01*
X156747002Y-74836264D01*
X157052203Y-74775556D01*
X157418606Y-74530732D01*
X157663430Y-74164329D01*
X157723152Y-73864084D01*
X158063187Y-73524049D01*
X158030600Y-73687874D01*
X158030600Y-73687874D01*
G37*
X158030600Y-73687874D02*
X158030600Y-73732126D01*
X158116570Y-74164329D01*
X158361394Y-74530732D01*
X158727797Y-74775556D01*
X159032998Y-74836264D01*
X159032998Y-74929844D01*
X158803110Y-74808524D01*
X158393076Y-74978355D01*
X157964817Y-75368642D01*
X157890000Y-75527954D01*
X157815183Y-75368642D01*
X157386924Y-74978355D01*
X156976890Y-74808524D01*
X156747002Y-74929844D01*
X156747002Y-74836264D01*
X157052203Y-74775556D01*
X157418606Y-74530732D01*
X157663430Y-74164329D01*
X157723152Y-73864084D01*
X158063187Y-73524049D01*
X158030600Y-73687874D01*
G36*
X147870600Y-73687874D02*
X147870600Y-73732126D01*
X147956570Y-74164329D01*
X148201394Y-74530732D01*
X148567797Y-74775556D01*
X148872998Y-74836264D01*
X148872998Y-74929844D01*
X148643110Y-74808524D01*
X148233076Y-74978355D01*
X147804817Y-75368642D01*
X147730000Y-75527954D01*
X147655183Y-75368642D01*
X147226924Y-74978355D01*
X146816890Y-74808524D01*
X146587002Y-74929844D01*
X146587002Y-74836264D01*
X146892203Y-74775556D01*
X147258606Y-74530732D01*
X147503430Y-74164329D01*
X147563152Y-73864084D01*
X147903187Y-73524049D01*
X147870600Y-73687874D01*
X147870600Y-73687874D01*
G37*
X147870600Y-73687874D02*
X147870600Y-73732126D01*
X147956570Y-74164329D01*
X148201394Y-74530732D01*
X148567797Y-74775556D01*
X148872998Y-74836264D01*
X148872998Y-74929844D01*
X148643110Y-74808524D01*
X148233076Y-74978355D01*
X147804817Y-75368642D01*
X147730000Y-75527954D01*
X147655183Y-75368642D01*
X147226924Y-74978355D01*
X146816890Y-74808524D01*
X146587002Y-74929844D01*
X146587002Y-74836264D01*
X146892203Y-74775556D01*
X147258606Y-74530732D01*
X147503430Y-74164329D01*
X147563152Y-73864084D01*
X147903187Y-73524049D01*
X147870600Y-73687874D01*
G36*
X155516848Y-73864084D02*
X155576570Y-74164329D01*
X155821394Y-74530732D01*
X156187797Y-74775556D01*
X156492998Y-74836264D01*
X156492998Y-74929844D01*
X156263110Y-74808524D01*
X155853076Y-74978355D01*
X155424817Y-75368642D01*
X155350000Y-75527954D01*
X155275183Y-75368642D01*
X154846924Y-74978355D01*
X154436890Y-74808524D01*
X154207002Y-74929844D01*
X154207002Y-74836264D01*
X154512203Y-74775556D01*
X154878606Y-74530732D01*
X155123430Y-74164329D01*
X155209400Y-73732126D01*
X155209400Y-73687874D01*
X155176813Y-73524049D01*
X155516848Y-73864084D01*
X155516848Y-73864084D01*
G37*
X155516848Y-73864084D02*
X155576570Y-74164329D01*
X155821394Y-74530732D01*
X156187797Y-74775556D01*
X156492998Y-74836264D01*
X156492998Y-74929844D01*
X156263110Y-74808524D01*
X155853076Y-74978355D01*
X155424817Y-75368642D01*
X155350000Y-75527954D01*
X155275183Y-75368642D01*
X154846924Y-74978355D01*
X154436890Y-74808524D01*
X154207002Y-74929844D01*
X154207002Y-74836264D01*
X154512203Y-74775556D01*
X154878606Y-74530732D01*
X155123430Y-74164329D01*
X155209400Y-73732126D01*
X155209400Y-73687874D01*
X155176813Y-73524049D01*
X155516848Y-73864084D01*
G36*
X152950600Y-73687874D02*
X152950600Y-73732126D01*
X153036570Y-74164329D01*
X153281394Y-74530732D01*
X153647797Y-74775556D01*
X153952998Y-74836264D01*
X153952998Y-74929844D01*
X153723110Y-74808524D01*
X153313076Y-74978355D01*
X152884817Y-75368642D01*
X152810000Y-75527954D01*
X152735183Y-75368642D01*
X152306924Y-74978355D01*
X151896890Y-74808524D01*
X151667002Y-74929844D01*
X151667002Y-74836264D01*
X151972203Y-74775556D01*
X152338606Y-74530732D01*
X152583430Y-74164329D01*
X152643152Y-73864084D01*
X152983187Y-73524049D01*
X152950600Y-73687874D01*
X152950600Y-73687874D01*
G37*
X152950600Y-73687874D02*
X152950600Y-73732126D01*
X153036570Y-74164329D01*
X153281394Y-74530732D01*
X153647797Y-74775556D01*
X153952998Y-74836264D01*
X153952998Y-74929844D01*
X153723110Y-74808524D01*
X153313076Y-74978355D01*
X152884817Y-75368642D01*
X152810000Y-75527954D01*
X152735183Y-75368642D01*
X152306924Y-74978355D01*
X151896890Y-74808524D01*
X151667002Y-74929844D01*
X151667002Y-74836264D01*
X151972203Y-74775556D01*
X152338606Y-74530732D01*
X152583430Y-74164329D01*
X152643152Y-73864084D01*
X152983187Y-73524049D01*
X152950600Y-73687874D01*
G36*
X160596848Y-73864084D02*
X160656570Y-74164329D01*
X160901394Y-74530732D01*
X161267797Y-74775556D01*
X161572998Y-74836264D01*
X161572998Y-74929844D01*
X161343110Y-74808524D01*
X160933076Y-74978355D01*
X160504817Y-75368642D01*
X160430000Y-75527954D01*
X160355183Y-75368642D01*
X159926924Y-74978355D01*
X159516890Y-74808524D01*
X159287002Y-74929844D01*
X159287002Y-74836264D01*
X159592203Y-74775556D01*
X159958606Y-74530732D01*
X160203430Y-74164329D01*
X160289400Y-73732126D01*
X160289400Y-73687874D01*
X160256813Y-73524049D01*
X160596848Y-73864084D01*
X160596848Y-73864084D01*
G37*
X160596848Y-73864084D02*
X160656570Y-74164329D01*
X160901394Y-74530732D01*
X161267797Y-74775556D01*
X161572998Y-74836264D01*
X161572998Y-74929844D01*
X161343110Y-74808524D01*
X160933076Y-74978355D01*
X160504817Y-75368642D01*
X160430000Y-75527954D01*
X160355183Y-75368642D01*
X159926924Y-74978355D01*
X159516890Y-74808524D01*
X159287002Y-74929844D01*
X159287002Y-74836264D01*
X159592203Y-74775556D01*
X159958606Y-74530732D01*
X160203430Y-74164329D01*
X160289400Y-73732126D01*
X160289400Y-73687874D01*
X160256813Y-73524049D01*
X160596848Y-73864084D01*
G36*
X156785655Y-56587507D02*
X157014294Y-56682446D01*
X157203195Y-56682611D01*
X156723104Y-57162702D01*
X152414531Y-57162702D01*
X151667683Y-56415854D01*
X156614302Y-56415854D01*
X156785655Y-56587507D01*
X156785655Y-56587507D01*
G37*
X156785655Y-56587507D02*
X157014294Y-56682446D01*
X157203195Y-56682611D01*
X156723104Y-57162702D01*
X152414531Y-57162702D01*
X151667683Y-56415854D01*
X156614302Y-56415854D01*
X156785655Y-56587507D01*
M02*
