G04 #@! TF.FileFunction,Legend,Bot*
%FSLAX46Y46*%
G04 Gerber Fmt 4.6, Leading zero omitted, Abs format (unit mm)*
G04 Created by KiCad (PCBNEW 4.0.7) date 01/22/18 19:47:42*
%MOMM*%
%LPD*%
G01*
G04 APERTURE LIST*
%ADD10C,0.100000*%
%ADD11C,0.120000*%
%ADD12C,0.010000*%
%ADD13C,0.127000*%
G04 APERTURE END LIST*
D10*
G36*
X156228418Y-67617178D02*
X156822076Y-67615038D01*
X157006945Y-67614800D01*
X157647217Y-67612832D01*
X158137453Y-67606165D01*
X158496914Y-67593656D01*
X158744861Y-67574161D01*
X158900554Y-67546535D01*
X158983252Y-67509635D01*
X158996670Y-67496631D01*
X159068142Y-67329396D01*
X159098474Y-67191467D01*
X158644748Y-67191467D01*
X157051371Y-67191467D01*
X156530909Y-67187411D01*
X156081332Y-67176050D01*
X155727665Y-67158595D01*
X155494937Y-67136253D01*
X155408926Y-67112075D01*
X155378092Y-67000627D01*
X155331619Y-66758352D01*
X155276095Y-66422293D01*
X155224485Y-66074908D01*
X155162536Y-65446440D01*
X155134245Y-64718851D01*
X155138497Y-63948937D01*
X155174179Y-63193492D01*
X155240176Y-62509314D01*
X155302237Y-62111467D01*
X155406859Y-61561133D01*
X157028143Y-61538166D01*
X158649426Y-61515199D01*
X158740198Y-62088499D01*
X158792928Y-62424413D01*
X158840002Y-62729224D01*
X158868091Y-62915800D01*
X158885739Y-63155969D01*
X158892161Y-63527325D01*
X158888617Y-63992183D01*
X158876364Y-64512857D01*
X158856660Y-65051662D01*
X158830761Y-65570912D01*
X158799926Y-66032922D01*
X158765412Y-66400006D01*
X158747306Y-66535300D01*
X158644748Y-67191467D01*
X159098474Y-67191467D01*
X159136166Y-67020075D01*
X159198037Y-66595913D01*
X159251051Y-66084156D01*
X159292504Y-65512049D01*
X159319692Y-64906839D01*
X159329910Y-64295769D01*
X159329483Y-64143467D01*
X159324260Y-63658469D01*
X159316201Y-63219689D01*
X159306183Y-62860954D01*
X159295080Y-62616092D01*
X159287816Y-62534800D01*
X159204236Y-62028228D01*
X159121708Y-61620439D01*
X159045632Y-61335262D01*
X158985674Y-61201300D01*
X158907849Y-61164265D01*
X158732790Y-61136106D01*
X158445075Y-61115998D01*
X158029284Y-61103117D01*
X157469996Y-61096637D01*
X157006945Y-61095467D01*
X156390599Y-61096418D01*
X155922164Y-61100377D01*
X155580224Y-61109000D01*
X155343362Y-61123944D01*
X155190160Y-61146866D01*
X155099203Y-61179422D01*
X155049073Y-61223268D01*
X155033597Y-61248112D01*
X154940179Y-61514000D01*
X154860175Y-61919561D01*
X154794830Y-62435573D01*
X154745389Y-63032815D01*
X154713099Y-63682064D01*
X154699204Y-64354098D01*
X154704950Y-65019696D01*
X154731582Y-65649634D01*
X154780346Y-66214691D01*
X154811783Y-66452993D01*
X154863423Y-66818458D01*
X154908352Y-67098562D01*
X154967847Y-67304566D01*
X155063182Y-67447729D01*
X155215632Y-67539312D01*
X155446471Y-67590575D01*
X155776975Y-67612777D01*
X156228418Y-67617178D01*
X156228418Y-67617178D01*
X156228418Y-67617178D01*
G37*
X156228418Y-67617178D02*
X156822076Y-67615038D01*
X157006945Y-67614800D01*
X157647217Y-67612832D01*
X158137453Y-67606165D01*
X158496914Y-67593656D01*
X158744861Y-67574161D01*
X158900554Y-67546535D01*
X158983252Y-67509635D01*
X158996670Y-67496631D01*
X159068142Y-67329396D01*
X159098474Y-67191467D01*
X158644748Y-67191467D01*
X157051371Y-67191467D01*
X156530909Y-67187411D01*
X156081332Y-67176050D01*
X155727665Y-67158595D01*
X155494937Y-67136253D01*
X155408926Y-67112075D01*
X155378092Y-67000627D01*
X155331619Y-66758352D01*
X155276095Y-66422293D01*
X155224485Y-66074908D01*
X155162536Y-65446440D01*
X155134245Y-64718851D01*
X155138497Y-63948937D01*
X155174179Y-63193492D01*
X155240176Y-62509314D01*
X155302237Y-62111467D01*
X155406859Y-61561133D01*
X157028143Y-61538166D01*
X158649426Y-61515199D01*
X158740198Y-62088499D01*
X158792928Y-62424413D01*
X158840002Y-62729224D01*
X158868091Y-62915800D01*
X158885739Y-63155969D01*
X158892161Y-63527325D01*
X158888617Y-63992183D01*
X158876364Y-64512857D01*
X158856660Y-65051662D01*
X158830761Y-65570912D01*
X158799926Y-66032922D01*
X158765412Y-66400006D01*
X158747306Y-66535300D01*
X158644748Y-67191467D01*
X159098474Y-67191467D01*
X159136166Y-67020075D01*
X159198037Y-66595913D01*
X159251051Y-66084156D01*
X159292504Y-65512049D01*
X159319692Y-64906839D01*
X159329910Y-64295769D01*
X159329483Y-64143467D01*
X159324260Y-63658469D01*
X159316201Y-63219689D01*
X159306183Y-62860954D01*
X159295080Y-62616092D01*
X159287816Y-62534800D01*
X159204236Y-62028228D01*
X159121708Y-61620439D01*
X159045632Y-61335262D01*
X158985674Y-61201300D01*
X158907849Y-61164265D01*
X158732790Y-61136106D01*
X158445075Y-61115998D01*
X158029284Y-61103117D01*
X157469996Y-61096637D01*
X157006945Y-61095467D01*
X156390599Y-61096418D01*
X155922164Y-61100377D01*
X155580224Y-61109000D01*
X155343362Y-61123944D01*
X155190160Y-61146866D01*
X155099203Y-61179422D01*
X155049073Y-61223268D01*
X155033597Y-61248112D01*
X154940179Y-61514000D01*
X154860175Y-61919561D01*
X154794830Y-62435573D01*
X154745389Y-63032815D01*
X154713099Y-63682064D01*
X154699204Y-64354098D01*
X154704950Y-65019696D01*
X154731582Y-65649634D01*
X154780346Y-66214691D01*
X154811783Y-66452993D01*
X154863423Y-66818458D01*
X154908352Y-67098562D01*
X154967847Y-67304566D01*
X155063182Y-67447729D01*
X155215632Y-67539312D01*
X155446471Y-67590575D01*
X155776975Y-67612777D01*
X156228418Y-67617178D01*
X156228418Y-67617178D01*
G36*
X157373396Y-64655470D02*
X157756950Y-64607989D01*
X158106481Y-64443247D01*
X158375811Y-64168961D01*
X158449168Y-64027703D01*
X158499105Y-63839367D01*
X158530878Y-63568515D01*
X158549742Y-63179711D01*
X158555393Y-62958133D01*
X158559691Y-62561739D01*
X158555729Y-62223447D01*
X158544450Y-61981670D01*
X158528953Y-61878633D01*
X158411885Y-61789771D01*
X158233760Y-61781684D01*
X158079596Y-61849494D01*
X158039391Y-61906725D01*
X158017378Y-62045527D01*
X158000077Y-62309599D01*
X157989813Y-62654893D01*
X157988000Y-62880391D01*
X157972429Y-63361935D01*
X157918481Y-63698471D01*
X157815299Y-63912072D01*
X157652028Y-64024813D01*
X157417811Y-64058767D01*
X157408455Y-64058800D01*
X157144492Y-63992302D01*
X156957644Y-63787658D01*
X156842320Y-63437142D01*
X156812904Y-63235724D01*
X156777063Y-62960161D01*
X156731056Y-62813493D01*
X156653255Y-62755673D01*
X156548666Y-62746467D01*
X156434268Y-62757431D01*
X156367955Y-62815764D01*
X156333166Y-62959624D01*
X156313341Y-63227169D01*
X156309817Y-63296800D01*
X156313844Y-63713080D01*
X156378245Y-64012780D01*
X156420786Y-64107079D01*
X156665094Y-64403742D01*
X156996037Y-64586963D01*
X157373396Y-64655470D01*
X157373396Y-64655470D01*
X157373396Y-64655470D01*
G37*
X157373396Y-64655470D02*
X157756950Y-64607989D01*
X158106481Y-64443247D01*
X158375811Y-64168961D01*
X158449168Y-64027703D01*
X158499105Y-63839367D01*
X158530878Y-63568515D01*
X158549742Y-63179711D01*
X158555393Y-62958133D01*
X158559691Y-62561739D01*
X158555729Y-62223447D01*
X158544450Y-61981670D01*
X158528953Y-61878633D01*
X158411885Y-61789771D01*
X158233760Y-61781684D01*
X158079596Y-61849494D01*
X158039391Y-61906725D01*
X158017378Y-62045527D01*
X158000077Y-62309599D01*
X157989813Y-62654893D01*
X157988000Y-62880391D01*
X157972429Y-63361935D01*
X157918481Y-63698471D01*
X157815299Y-63912072D01*
X157652028Y-64024813D01*
X157417811Y-64058767D01*
X157408455Y-64058800D01*
X157144492Y-63992302D01*
X156957644Y-63787658D01*
X156842320Y-63437142D01*
X156812904Y-63235724D01*
X156777063Y-62960161D01*
X156731056Y-62813493D01*
X156653255Y-62755673D01*
X156548666Y-62746467D01*
X156434268Y-62757431D01*
X156367955Y-62815764D01*
X156333166Y-62959624D01*
X156313341Y-63227169D01*
X156309817Y-63296800D01*
X156313844Y-63713080D01*
X156378245Y-64012780D01*
X156420786Y-64107079D01*
X156665094Y-64403742D01*
X156996037Y-64586963D01*
X157373396Y-64655470D01*
X157373396Y-64655470D01*
G36*
X157464399Y-66851868D02*
X157987157Y-66831938D01*
X158350069Y-66771139D01*
X158551846Y-66670094D01*
X158591203Y-66529424D01*
X158479066Y-66361733D01*
X158333488Y-66308482D01*
X158026882Y-66274486D01*
X157566537Y-66260476D01*
X157467050Y-66260133D01*
X157069735Y-66251564D01*
X156717407Y-66228430D01*
X156455877Y-66194590D01*
X156350124Y-66166041D01*
X156180654Y-66022475D01*
X156033565Y-65788128D01*
X156014284Y-65742708D01*
X155903786Y-65521638D01*
X155777972Y-65426807D01*
X155672685Y-65413467D01*
X155496243Y-65477439D01*
X155412667Y-65645369D01*
X155419481Y-65881275D01*
X155514205Y-66149174D01*
X155694361Y-66413084D01*
X155745255Y-66467078D01*
X155921985Y-66618360D01*
X156121797Y-66725016D01*
X156377186Y-66794317D01*
X156720649Y-66833537D01*
X157184682Y-66849949D01*
X157464399Y-66851868D01*
X157464399Y-66851868D01*
X157464399Y-66851868D01*
G37*
X157464399Y-66851868D02*
X157987157Y-66831938D01*
X158350069Y-66771139D01*
X158551846Y-66670094D01*
X158591203Y-66529424D01*
X158479066Y-66361733D01*
X158333488Y-66308482D01*
X158026882Y-66274486D01*
X157566537Y-66260476D01*
X157467050Y-66260133D01*
X157069735Y-66251564D01*
X156717407Y-66228430D01*
X156455877Y-66194590D01*
X156350124Y-66166041D01*
X156180654Y-66022475D01*
X156033565Y-65788128D01*
X156014284Y-65742708D01*
X155903786Y-65521638D01*
X155777972Y-65426807D01*
X155672685Y-65413467D01*
X155496243Y-65477439D01*
X155412667Y-65645369D01*
X155419481Y-65881275D01*
X155514205Y-66149174D01*
X155694361Y-66413084D01*
X155745255Y-66467078D01*
X155921985Y-66618360D01*
X156121797Y-66725016D01*
X156377186Y-66794317D01*
X156720649Y-66833537D01*
X157184682Y-66849949D01*
X157464399Y-66851868D01*
X157464399Y-66851868D01*
G36*
X157098520Y-65507999D02*
X157395519Y-65483974D01*
X157605327Y-65432017D01*
X157679951Y-65371133D01*
X157710023Y-65179105D01*
X157613621Y-65058657D01*
X157376874Y-64999911D01*
X157144909Y-64990133D01*
X156649412Y-64955054D01*
X156299937Y-64847785D01*
X156087931Y-64665279D01*
X156052336Y-64600935D01*
X156009401Y-64423494D01*
X155976319Y-64128386D01*
X155958058Y-63767208D01*
X155956000Y-63600567D01*
X155961548Y-63208942D01*
X155983080Y-62944146D01*
X156027927Y-62763898D01*
X156103422Y-62625914D01*
X156131478Y-62588551D01*
X156360739Y-62409554D01*
X156623950Y-62372002D01*
X156870950Y-62479186D01*
X156930854Y-62536112D01*
X157045454Y-62759006D01*
X157116508Y-63108442D01*
X157124644Y-63192279D01*
X157181077Y-63556648D01*
X157278606Y-63757448D01*
X157418155Y-63795608D01*
X157600647Y-63672057D01*
X157600952Y-63671752D01*
X157698949Y-63474653D01*
X157716715Y-63152023D01*
X157654860Y-62691921D01*
X157651719Y-62675551D01*
X157505080Y-62295802D01*
X157253501Y-62017356D01*
X156930686Y-61844296D01*
X156570335Y-61780701D01*
X156206151Y-61830654D01*
X155871837Y-61998235D01*
X155601094Y-62287526D01*
X155527569Y-62418328D01*
X155448187Y-62601660D01*
X155397824Y-62785089D01*
X155371875Y-63010137D01*
X155365734Y-63318328D01*
X155374796Y-63751184D01*
X155375852Y-63786291D01*
X155398266Y-64279286D01*
X155438823Y-64637235D01*
X155509716Y-64894323D01*
X155623137Y-65084732D01*
X155791277Y-65242645D01*
X155930171Y-65340425D01*
X156130154Y-65420305D01*
X156421259Y-65475382D01*
X156758907Y-65504874D01*
X157098520Y-65507999D01*
X157098520Y-65507999D01*
X157098520Y-65507999D01*
G37*
X157098520Y-65507999D02*
X157395519Y-65483974D01*
X157605327Y-65432017D01*
X157679951Y-65371133D01*
X157710023Y-65179105D01*
X157613621Y-65058657D01*
X157376874Y-64999911D01*
X157144909Y-64990133D01*
X156649412Y-64955054D01*
X156299937Y-64847785D01*
X156087931Y-64665279D01*
X156052336Y-64600935D01*
X156009401Y-64423494D01*
X155976319Y-64128386D01*
X155958058Y-63767208D01*
X155956000Y-63600567D01*
X155961548Y-63208942D01*
X155983080Y-62944146D01*
X156027927Y-62763898D01*
X156103422Y-62625914D01*
X156131478Y-62588551D01*
X156360739Y-62409554D01*
X156623950Y-62372002D01*
X156870950Y-62479186D01*
X156930854Y-62536112D01*
X157045454Y-62759006D01*
X157116508Y-63108442D01*
X157124644Y-63192279D01*
X157181077Y-63556648D01*
X157278606Y-63757448D01*
X157418155Y-63795608D01*
X157600647Y-63672057D01*
X157600952Y-63671752D01*
X157698949Y-63474653D01*
X157716715Y-63152023D01*
X157654860Y-62691921D01*
X157651719Y-62675551D01*
X157505080Y-62295802D01*
X157253501Y-62017356D01*
X156930686Y-61844296D01*
X156570335Y-61780701D01*
X156206151Y-61830654D01*
X155871837Y-61998235D01*
X155601094Y-62287526D01*
X155527569Y-62418328D01*
X155448187Y-62601660D01*
X155397824Y-62785089D01*
X155371875Y-63010137D01*
X155365734Y-63318328D01*
X155374796Y-63751184D01*
X155375852Y-63786291D01*
X155398266Y-64279286D01*
X155438823Y-64637235D01*
X155509716Y-64894323D01*
X155623137Y-65084732D01*
X155791277Y-65242645D01*
X155930171Y-65340425D01*
X156130154Y-65420305D01*
X156421259Y-65475382D01*
X156758907Y-65504874D01*
X157098520Y-65507999D01*
X157098520Y-65507999D01*
D11*
X130330000Y-61850000D02*
X132390000Y-61850000D01*
X133010000Y-66810000D02*
X134810000Y-66810000D01*
X133910000Y-67710000D02*
X133910000Y-65910000D01*
X132390000Y-70850000D02*
X132390000Y-57850000D01*
X153510000Y-70850000D02*
X153510000Y-57850000D01*
X132390000Y-70850000D02*
X134190000Y-70850000D01*
X134200000Y-70850000D02*
X135100000Y-69950000D01*
X135100000Y-69950000D02*
X136000000Y-70850000D01*
X135990000Y-70850000D02*
X153510000Y-70850000D01*
X132390000Y-57850000D02*
X134190000Y-57850000D01*
X134180000Y-57850000D02*
X135080000Y-58750000D01*
X135080000Y-58750000D02*
X135980000Y-57850000D01*
X135990000Y-57850000D02*
X153510000Y-57850000D01*
X130330000Y-66850000D02*
X132390000Y-66850000D01*
D12*
G36*
X171890266Y-58051729D02*
X171890667Y-58091211D01*
X171893459Y-58206900D01*
X171901750Y-58303789D01*
X171916432Y-58385181D01*
X171938393Y-58454377D01*
X171968522Y-58514680D01*
X172007710Y-58569392D01*
X172024732Y-58588933D01*
X172064563Y-58621350D01*
X172118613Y-58650580D01*
X172178523Y-58673109D01*
X172235939Y-58685421D01*
X172257156Y-58686700D01*
X172315969Y-58678683D01*
X172380213Y-58657201D01*
X172441021Y-58626101D01*
X172489530Y-58589234D01*
X172495382Y-58583246D01*
X172536521Y-58532521D01*
X172568635Y-58476975D01*
X172592565Y-58413404D01*
X172609153Y-58338606D01*
X172619241Y-58249378D01*
X172623669Y-58142518D01*
X172624045Y-58093572D01*
X172623745Y-58031338D01*
X172622492Y-57987572D01*
X172619754Y-57958169D01*
X172615001Y-57939021D01*
X172607701Y-57926023D01*
X172601467Y-57919055D01*
X172593894Y-57912474D01*
X172584124Y-57907312D01*
X172569540Y-57903397D01*
X172547526Y-57900557D01*
X172515464Y-57898620D01*
X172470736Y-57897416D01*
X172410726Y-57896772D01*
X172332817Y-57896517D01*
X172257156Y-57896478D01*
X172156241Y-57896230D01*
X172075627Y-57896283D01*
X172037022Y-57897243D01*
X172037022Y-58043233D01*
X172477289Y-58043233D01*
X172477204Y-58136366D01*
X172475596Y-58192407D01*
X172471456Y-58251101D01*
X172465664Y-58300072D01*
X172465426Y-58301562D01*
X172446290Y-58380708D01*
X172416487Y-58442098D01*
X172374078Y-58488795D01*
X172328161Y-58518465D01*
X172277226Y-58536747D01*
X172229400Y-58535329D01*
X172178133Y-58514112D01*
X172125099Y-58472611D01*
X172085800Y-58415102D01*
X172059531Y-58340350D01*
X172050235Y-58290392D01*
X172043707Y-58233684D01*
X172038982Y-58173581D01*
X172037017Y-58122461D01*
X172037008Y-58119433D01*
X172037022Y-58043233D01*
X172037022Y-57897243D01*
X172013051Y-57897840D01*
X171966255Y-57902102D01*
X171932978Y-57910270D01*
X171910959Y-57923544D01*
X171897939Y-57943126D01*
X171891657Y-57970217D01*
X171889853Y-58006018D01*
X171890266Y-58051729D01*
X171890266Y-58051729D01*
G37*
X171890266Y-58051729D02*
X171890667Y-58091211D01*
X171893459Y-58206900D01*
X171901750Y-58303789D01*
X171916432Y-58385181D01*
X171938393Y-58454377D01*
X171968522Y-58514680D01*
X172007710Y-58569392D01*
X172024732Y-58588933D01*
X172064563Y-58621350D01*
X172118613Y-58650580D01*
X172178523Y-58673109D01*
X172235939Y-58685421D01*
X172257156Y-58686700D01*
X172315969Y-58678683D01*
X172380213Y-58657201D01*
X172441021Y-58626101D01*
X172489530Y-58589234D01*
X172495382Y-58583246D01*
X172536521Y-58532521D01*
X172568635Y-58476975D01*
X172592565Y-58413404D01*
X172609153Y-58338606D01*
X172619241Y-58249378D01*
X172623669Y-58142518D01*
X172624045Y-58093572D01*
X172623745Y-58031338D01*
X172622492Y-57987572D01*
X172619754Y-57958169D01*
X172615001Y-57939021D01*
X172607701Y-57926023D01*
X172601467Y-57919055D01*
X172593894Y-57912474D01*
X172584124Y-57907312D01*
X172569540Y-57903397D01*
X172547526Y-57900557D01*
X172515464Y-57898620D01*
X172470736Y-57897416D01*
X172410726Y-57896772D01*
X172332817Y-57896517D01*
X172257156Y-57896478D01*
X172156241Y-57896230D01*
X172075627Y-57896283D01*
X172037022Y-57897243D01*
X172037022Y-58043233D01*
X172477289Y-58043233D01*
X172477204Y-58136366D01*
X172475596Y-58192407D01*
X172471456Y-58251101D01*
X172465664Y-58300072D01*
X172465426Y-58301562D01*
X172446290Y-58380708D01*
X172416487Y-58442098D01*
X172374078Y-58488795D01*
X172328161Y-58518465D01*
X172277226Y-58536747D01*
X172229400Y-58535329D01*
X172178133Y-58514112D01*
X172125099Y-58472611D01*
X172085800Y-58415102D01*
X172059531Y-58340350D01*
X172050235Y-58290392D01*
X172043707Y-58233684D01*
X172038982Y-58173581D01*
X172037017Y-58122461D01*
X172037008Y-58119433D01*
X172037022Y-58043233D01*
X172037022Y-57897243D01*
X172013051Y-57897840D01*
X171966255Y-57902102D01*
X171932978Y-57910270D01*
X171910959Y-57923544D01*
X171897939Y-57943126D01*
X171891657Y-57970217D01*
X171889853Y-58006018D01*
X171890266Y-58051729D01*
G36*
X171890346Y-59460306D02*
X171890718Y-59529714D01*
X171891585Y-59582103D01*
X171893146Y-59620253D01*
X171895603Y-59646941D01*
X171899157Y-59664947D01*
X171904010Y-59677051D01*
X171910361Y-59686031D01*
X171913284Y-59689282D01*
X171944342Y-59709057D01*
X171980028Y-59712618D01*
X172011710Y-59699609D01*
X172018113Y-59693594D01*
X172024321Y-59683865D01*
X172029110Y-59668199D01*
X172032714Y-59643692D01*
X172035364Y-59607439D01*
X172037295Y-59556535D01*
X172038739Y-59488074D01*
X172039618Y-59425483D01*
X172042667Y-59177766D01*
X172107578Y-59174381D01*
X172172489Y-59170995D01*
X172172489Y-59339142D01*
X172173119Y-59412141D01*
X172175753Y-59465583D01*
X172181509Y-59502472D01*
X172191504Y-59525812D01*
X172206856Y-59538606D01*
X172228682Y-59543858D01*
X172248938Y-59544655D01*
X172273792Y-59542177D01*
X172292106Y-59532823D01*
X172304837Y-59513717D01*
X172312941Y-59481982D01*
X172317376Y-59434741D01*
X172319099Y-59369117D01*
X172319245Y-59333299D01*
X172319245Y-59172122D01*
X172477289Y-59172122D01*
X172477289Y-59420478D01*
X172477402Y-59501887D01*
X172477912Y-59563758D01*
X172479070Y-59609132D01*
X172481130Y-59641046D01*
X172484346Y-59662541D01*
X172488972Y-59676657D01*
X172495259Y-59686432D01*
X172499867Y-59691411D01*
X172526760Y-59708490D01*
X172550667Y-59713989D01*
X172579867Y-59706137D01*
X172601467Y-59691411D01*
X172608266Y-59683554D01*
X172613546Y-59673412D01*
X172617498Y-59658256D01*
X172620313Y-59635359D01*
X172622182Y-59601991D01*
X172623298Y-59555425D01*
X172623851Y-59492933D01*
X172624033Y-59411786D01*
X172624045Y-59369678D01*
X172623965Y-59279502D01*
X172623598Y-59209176D01*
X172622752Y-59155971D01*
X172621236Y-59117160D01*
X172618859Y-59090013D01*
X172615429Y-59071802D01*
X172610754Y-59059800D01*
X172604644Y-59051278D01*
X172601467Y-59047944D01*
X172593870Y-59041345D01*
X172584070Y-59036173D01*
X172569439Y-59032254D01*
X172547352Y-59029416D01*
X172515182Y-59027485D01*
X172470303Y-59026288D01*
X172410089Y-59025652D01*
X172331913Y-59025403D01*
X172259123Y-59025366D01*
X172165907Y-59025400D01*
X172092631Y-59025635D01*
X172036658Y-59026270D01*
X171995351Y-59027506D01*
X171966072Y-59029544D01*
X171946184Y-59032583D01*
X171933050Y-59036823D01*
X171924032Y-59042465D01*
X171916493Y-59049709D01*
X171914812Y-59051494D01*
X171907372Y-59060155D01*
X171901609Y-59070218D01*
X171897312Y-59084475D01*
X171894264Y-59105717D01*
X171892251Y-59136736D01*
X171891060Y-59180323D01*
X171890475Y-59239269D01*
X171890283Y-59316366D01*
X171890267Y-59371099D01*
X171890346Y-59460306D01*
X171890346Y-59460306D01*
G37*
X171890346Y-59460306D02*
X171890718Y-59529714D01*
X171891585Y-59582103D01*
X171893146Y-59620253D01*
X171895603Y-59646941D01*
X171899157Y-59664947D01*
X171904010Y-59677051D01*
X171910361Y-59686031D01*
X171913284Y-59689282D01*
X171944342Y-59709057D01*
X171980028Y-59712618D01*
X172011710Y-59699609D01*
X172018113Y-59693594D01*
X172024321Y-59683865D01*
X172029110Y-59668199D01*
X172032714Y-59643692D01*
X172035364Y-59607439D01*
X172037295Y-59556535D01*
X172038739Y-59488074D01*
X172039618Y-59425483D01*
X172042667Y-59177766D01*
X172107578Y-59174381D01*
X172172489Y-59170995D01*
X172172489Y-59339142D01*
X172173119Y-59412141D01*
X172175753Y-59465583D01*
X172181509Y-59502472D01*
X172191504Y-59525812D01*
X172206856Y-59538606D01*
X172228682Y-59543858D01*
X172248938Y-59544655D01*
X172273792Y-59542177D01*
X172292106Y-59532823D01*
X172304837Y-59513717D01*
X172312941Y-59481982D01*
X172317376Y-59434741D01*
X172319099Y-59369117D01*
X172319245Y-59333299D01*
X172319245Y-59172122D01*
X172477289Y-59172122D01*
X172477289Y-59420478D01*
X172477402Y-59501887D01*
X172477912Y-59563758D01*
X172479070Y-59609132D01*
X172481130Y-59641046D01*
X172484346Y-59662541D01*
X172488972Y-59676657D01*
X172495259Y-59686432D01*
X172499867Y-59691411D01*
X172526760Y-59708490D01*
X172550667Y-59713989D01*
X172579867Y-59706137D01*
X172601467Y-59691411D01*
X172608266Y-59683554D01*
X172613546Y-59673412D01*
X172617498Y-59658256D01*
X172620313Y-59635359D01*
X172622182Y-59601991D01*
X172623298Y-59555425D01*
X172623851Y-59492933D01*
X172624033Y-59411786D01*
X172624045Y-59369678D01*
X172623965Y-59279502D01*
X172623598Y-59209176D01*
X172622752Y-59155971D01*
X172621236Y-59117160D01*
X172618859Y-59090013D01*
X172615429Y-59071802D01*
X172610754Y-59059800D01*
X172604644Y-59051278D01*
X172601467Y-59047944D01*
X172593870Y-59041345D01*
X172584070Y-59036173D01*
X172569439Y-59032254D01*
X172547352Y-59029416D01*
X172515182Y-59027485D01*
X172470303Y-59026288D01*
X172410089Y-59025652D01*
X172331913Y-59025403D01*
X172259123Y-59025366D01*
X172165907Y-59025400D01*
X172092631Y-59025635D01*
X172036658Y-59026270D01*
X171995351Y-59027506D01*
X171966072Y-59029544D01*
X171946184Y-59032583D01*
X171933050Y-59036823D01*
X171924032Y-59042465D01*
X171916493Y-59049709D01*
X171914812Y-59051494D01*
X171907372Y-59060155D01*
X171901609Y-59070218D01*
X171897312Y-59084475D01*
X171894264Y-59105717D01*
X171892251Y-59136736D01*
X171891060Y-59180323D01*
X171890475Y-59239269D01*
X171890283Y-59316366D01*
X171890267Y-59371099D01*
X171890346Y-59460306D01*
G36*
X171891551Y-60481397D02*
X171896781Y-60556212D01*
X171904950Y-60625794D01*
X171915750Y-60686098D01*
X171928873Y-60733080D01*
X171944013Y-60762694D01*
X171948469Y-60767240D01*
X171983050Y-60783046D01*
X172018551Y-60778253D01*
X172048925Y-60753736D01*
X172049796Y-60752566D01*
X172059154Y-60738146D01*
X172064076Y-60723092D01*
X172064673Y-60702095D01*
X172061061Y-60669843D01*
X172053354Y-60621027D01*
X172052705Y-60617100D01*
X172043769Y-60544361D01*
X172039361Y-60465883D01*
X172039319Y-60387173D01*
X172043479Y-60313739D01*
X172051679Y-60251089D01*
X172063757Y-60204730D01*
X172064971Y-60201684D01*
X172083815Y-60168052D01*
X172102885Y-60156236D01*
X172121639Y-60165486D01*
X172139537Y-60195053D01*
X172156037Y-60244189D01*
X172170596Y-60312143D01*
X172177606Y-60357455D01*
X172191089Y-60451644D01*
X172203414Y-60526556D01*
X172215649Y-60585383D01*
X172228861Y-60631315D01*
X172244117Y-60667545D01*
X172262485Y-60697262D01*
X172285031Y-60723658D01*
X172307171Y-60744870D01*
X172338019Y-60770035D01*
X172364545Y-60782419D01*
X172397226Y-60786292D01*
X172409195Y-60786433D01*
X172448912Y-60783524D01*
X172478459Y-60771898D01*
X172504686Y-60751777D01*
X172544776Y-60710884D01*
X172575349Y-60665283D01*
X172597403Y-60611587D01*
X172611935Y-60546408D01*
X172619941Y-60466356D01*
X172622418Y-60368043D01*
X172622377Y-60351811D01*
X172621018Y-60286251D01*
X172617930Y-60221234D01*
X172613556Y-60163848D01*
X172608340Y-60121178D01*
X172607741Y-60117728D01*
X172597691Y-60075304D01*
X172584996Y-60039320D01*
X172573390Y-60018950D01*
X172542772Y-59999993D01*
X172507118Y-59998673D01*
X172475344Y-60015015D01*
X172471751Y-60018671D01*
X172461076Y-60033785D01*
X172456476Y-60052685D01*
X172457259Y-60081938D01*
X172461327Y-60117449D01*
X172464962Y-60157130D01*
X172468028Y-60212755D01*
X172470253Y-60277694D01*
X172471364Y-60345315D01*
X172471437Y-60363100D01*
X172471164Y-60430972D01*
X172469846Y-60480646D01*
X172467027Y-60516490D01*
X172462250Y-60542876D01*
X172455057Y-60564174D01*
X172449067Y-60576974D01*
X172432433Y-60605100D01*
X172417368Y-60623032D01*
X172413097Y-60625653D01*
X172395463Y-60620124D01*
X172378392Y-60593840D01*
X172362658Y-60548622D01*
X172349038Y-60486292D01*
X172346004Y-60467929D01*
X172330938Y-60372010D01*
X172318346Y-60295459D01*
X172307311Y-60235320D01*
X172296920Y-60188640D01*
X172286256Y-60152463D01*
X172274405Y-60123835D01*
X172260451Y-60099802D01*
X172243481Y-60077408D01*
X172222578Y-60053698D01*
X172215249Y-60045720D01*
X172187899Y-60017747D01*
X172166229Y-60002940D01*
X172141432Y-59997148D01*
X172110183Y-59996211D01*
X172048905Y-60006525D01*
X171996840Y-60037348D01*
X171954158Y-60088505D01*
X171921025Y-60159817D01*
X171906164Y-60210700D01*
X171896566Y-60266000D01*
X171891136Y-60332247D01*
X171889567Y-60405394D01*
X171891551Y-60481397D01*
X171891551Y-60481397D01*
G37*
X171891551Y-60481397D02*
X171896781Y-60556212D01*
X171904950Y-60625794D01*
X171915750Y-60686098D01*
X171928873Y-60733080D01*
X171944013Y-60762694D01*
X171948469Y-60767240D01*
X171983050Y-60783046D01*
X172018551Y-60778253D01*
X172048925Y-60753736D01*
X172049796Y-60752566D01*
X172059154Y-60738146D01*
X172064076Y-60723092D01*
X172064673Y-60702095D01*
X172061061Y-60669843D01*
X172053354Y-60621027D01*
X172052705Y-60617100D01*
X172043769Y-60544361D01*
X172039361Y-60465883D01*
X172039319Y-60387173D01*
X172043479Y-60313739D01*
X172051679Y-60251089D01*
X172063757Y-60204730D01*
X172064971Y-60201684D01*
X172083815Y-60168052D01*
X172102885Y-60156236D01*
X172121639Y-60165486D01*
X172139537Y-60195053D01*
X172156037Y-60244189D01*
X172170596Y-60312143D01*
X172177606Y-60357455D01*
X172191089Y-60451644D01*
X172203414Y-60526556D01*
X172215649Y-60585383D01*
X172228861Y-60631315D01*
X172244117Y-60667545D01*
X172262485Y-60697262D01*
X172285031Y-60723658D01*
X172307171Y-60744870D01*
X172338019Y-60770035D01*
X172364545Y-60782419D01*
X172397226Y-60786292D01*
X172409195Y-60786433D01*
X172448912Y-60783524D01*
X172478459Y-60771898D01*
X172504686Y-60751777D01*
X172544776Y-60710884D01*
X172575349Y-60665283D01*
X172597403Y-60611587D01*
X172611935Y-60546408D01*
X172619941Y-60466356D01*
X172622418Y-60368043D01*
X172622377Y-60351811D01*
X172621018Y-60286251D01*
X172617930Y-60221234D01*
X172613556Y-60163848D01*
X172608340Y-60121178D01*
X172607741Y-60117728D01*
X172597691Y-60075304D01*
X172584996Y-60039320D01*
X172573390Y-60018950D01*
X172542772Y-59999993D01*
X172507118Y-59998673D01*
X172475344Y-60015015D01*
X172471751Y-60018671D01*
X172461076Y-60033785D01*
X172456476Y-60052685D01*
X172457259Y-60081938D01*
X172461327Y-60117449D01*
X172464962Y-60157130D01*
X172468028Y-60212755D01*
X172470253Y-60277694D01*
X172471364Y-60345315D01*
X172471437Y-60363100D01*
X172471164Y-60430972D01*
X172469846Y-60480646D01*
X172467027Y-60516490D01*
X172462250Y-60542876D01*
X172455057Y-60564174D01*
X172449067Y-60576974D01*
X172432433Y-60605100D01*
X172417368Y-60623032D01*
X172413097Y-60625653D01*
X172395463Y-60620124D01*
X172378392Y-60593840D01*
X172362658Y-60548622D01*
X172349038Y-60486292D01*
X172346004Y-60467929D01*
X172330938Y-60372010D01*
X172318346Y-60295459D01*
X172307311Y-60235320D01*
X172296920Y-60188640D01*
X172286256Y-60152463D01*
X172274405Y-60123835D01*
X172260451Y-60099802D01*
X172243481Y-60077408D01*
X172222578Y-60053698D01*
X172215249Y-60045720D01*
X172187899Y-60017747D01*
X172166229Y-60002940D01*
X172141432Y-59997148D01*
X172110183Y-59996211D01*
X172048905Y-60006525D01*
X171996840Y-60037348D01*
X171954158Y-60088505D01*
X171921025Y-60159817D01*
X171906164Y-60210700D01*
X171896566Y-60266000D01*
X171891136Y-60332247D01*
X171889567Y-60405394D01*
X171891551Y-60481397D01*
G36*
X171912845Y-61249278D02*
X171920418Y-61255858D01*
X171930187Y-61261021D01*
X171944771Y-61264936D01*
X171966785Y-61267776D01*
X171998848Y-61269713D01*
X172043575Y-61270917D01*
X172103585Y-61271561D01*
X172181494Y-61271816D01*
X172257156Y-61271855D01*
X172351002Y-61271786D01*
X172424889Y-61271462D01*
X172481432Y-61270714D01*
X172523249Y-61269368D01*
X172552957Y-61267254D01*
X172573173Y-61264200D01*
X172586514Y-61260034D01*
X172595598Y-61254584D01*
X172601467Y-61249278D01*
X172621147Y-61216274D01*
X172619381Y-61181109D01*
X172597917Y-61149645D01*
X172589537Y-61142416D01*
X172579814Y-61136766D01*
X172566061Y-61132501D01*
X172545589Y-61129427D01*
X172515712Y-61127348D01*
X172473741Y-61126070D01*
X172416989Y-61125399D01*
X172342767Y-61125141D01*
X172258737Y-61125100D01*
X171945685Y-61125100D01*
X171917976Y-61152809D01*
X171894663Y-61186963D01*
X171893823Y-61220094D01*
X171912845Y-61249278D01*
X171912845Y-61249278D01*
G37*
X171912845Y-61249278D02*
X171920418Y-61255858D01*
X171930187Y-61261021D01*
X171944771Y-61264936D01*
X171966785Y-61267776D01*
X171998848Y-61269713D01*
X172043575Y-61270917D01*
X172103585Y-61271561D01*
X172181494Y-61271816D01*
X172257156Y-61271855D01*
X172351002Y-61271786D01*
X172424889Y-61271462D01*
X172481432Y-61270714D01*
X172523249Y-61269368D01*
X172552957Y-61267254D01*
X172573173Y-61264200D01*
X172586514Y-61260034D01*
X172595598Y-61254584D01*
X172601467Y-61249278D01*
X172621147Y-61216274D01*
X172619381Y-61181109D01*
X172597917Y-61149645D01*
X172589537Y-61142416D01*
X172579814Y-61136766D01*
X172566061Y-61132501D01*
X172545589Y-61129427D01*
X172515712Y-61127348D01*
X172473741Y-61126070D01*
X172416989Y-61125399D01*
X172342767Y-61125141D01*
X172258737Y-61125100D01*
X171945685Y-61125100D01*
X171917976Y-61152809D01*
X171894663Y-61186963D01*
X171893823Y-61220094D01*
X171912845Y-61249278D01*
G36*
X171895799Y-62223019D02*
X171907295Y-62291535D01*
X171925167Y-62344157D01*
X171948699Y-62378392D01*
X171962124Y-62387721D01*
X171993348Y-62397207D01*
X172021595Y-62390823D01*
X172048382Y-62370670D01*
X172060913Y-62339355D01*
X172059896Y-62293917D01*
X172053106Y-62258774D01*
X172040171Y-62180681D01*
X172038942Y-62100874D01*
X172049441Y-62011545D01*
X172053890Y-61986871D01*
X172077308Y-61903809D01*
X172112145Y-61838827D01*
X172157804Y-61792639D01*
X172213694Y-61765955D01*
X172242588Y-61760437D01*
X172301212Y-61764049D01*
X172353079Y-61787371D01*
X172397178Y-61828276D01*
X172432499Y-61884641D01*
X172458029Y-61954340D01*
X172472759Y-62035248D01*
X172475678Y-62125240D01*
X172465775Y-62222190D01*
X172464841Y-62227664D01*
X172457659Y-62266225D01*
X172450721Y-62287606D01*
X172440427Y-62296873D01*
X172423176Y-62299094D01*
X172414041Y-62299144D01*
X172375689Y-62299144D01*
X172375689Y-62230669D01*
X172371547Y-62170200D01*
X172358347Y-62128935D01*
X172334930Y-62104925D01*
X172300136Y-62096223D01*
X172295594Y-62096117D01*
X172265854Y-62101208D01*
X172244619Y-62118667D01*
X172230566Y-62151161D01*
X172222373Y-62201357D01*
X172219361Y-62249977D01*
X172217633Y-62320644D01*
X172220270Y-62371902D01*
X172230000Y-62406861D01*
X172249553Y-62428630D01*
X172281656Y-62440320D01*
X172329038Y-62445040D01*
X172391271Y-62445900D01*
X172460735Y-62444491D01*
X172507986Y-62440252D01*
X172533212Y-62433164D01*
X172535188Y-62431789D01*
X172566708Y-62392872D01*
X172591670Y-62335814D01*
X172609540Y-62264231D01*
X172619786Y-62181742D01*
X172621873Y-62091961D01*
X172615268Y-61998508D01*
X172607156Y-61943544D01*
X172582754Y-61857334D01*
X172542862Y-61777208D01*
X172491087Y-61710123D01*
X172480739Y-61699927D01*
X172437235Y-61666798D01*
X172383318Y-61636906D01*
X172326792Y-61613743D01*
X172275459Y-61600802D01*
X172255744Y-61599242D01*
X172214619Y-61605882D01*
X172163452Y-61623532D01*
X172109594Y-61648803D01*
X172060395Y-61678311D01*
X172027534Y-61704381D01*
X171978652Y-61765335D01*
X171939745Y-61844131D01*
X171911694Y-61937943D01*
X171895379Y-62043950D01*
X171891392Y-62141100D01*
X171895799Y-62223019D01*
X171895799Y-62223019D01*
G37*
X171895799Y-62223019D02*
X171907295Y-62291535D01*
X171925167Y-62344157D01*
X171948699Y-62378392D01*
X171962124Y-62387721D01*
X171993348Y-62397207D01*
X172021595Y-62390823D01*
X172048382Y-62370670D01*
X172060913Y-62339355D01*
X172059896Y-62293917D01*
X172053106Y-62258774D01*
X172040171Y-62180681D01*
X172038942Y-62100874D01*
X172049441Y-62011545D01*
X172053890Y-61986871D01*
X172077308Y-61903809D01*
X172112145Y-61838827D01*
X172157804Y-61792639D01*
X172213694Y-61765955D01*
X172242588Y-61760437D01*
X172301212Y-61764049D01*
X172353079Y-61787371D01*
X172397178Y-61828276D01*
X172432499Y-61884641D01*
X172458029Y-61954340D01*
X172472759Y-62035248D01*
X172475678Y-62125240D01*
X172465775Y-62222190D01*
X172464841Y-62227664D01*
X172457659Y-62266225D01*
X172450721Y-62287606D01*
X172440427Y-62296873D01*
X172423176Y-62299094D01*
X172414041Y-62299144D01*
X172375689Y-62299144D01*
X172375689Y-62230669D01*
X172371547Y-62170200D01*
X172358347Y-62128935D01*
X172334930Y-62104925D01*
X172300136Y-62096223D01*
X172295594Y-62096117D01*
X172265854Y-62101208D01*
X172244619Y-62118667D01*
X172230566Y-62151161D01*
X172222373Y-62201357D01*
X172219361Y-62249977D01*
X172217633Y-62320644D01*
X172220270Y-62371902D01*
X172230000Y-62406861D01*
X172249553Y-62428630D01*
X172281656Y-62440320D01*
X172329038Y-62445040D01*
X172391271Y-62445900D01*
X172460735Y-62444491D01*
X172507986Y-62440252D01*
X172533212Y-62433164D01*
X172535188Y-62431789D01*
X172566708Y-62392872D01*
X172591670Y-62335814D01*
X172609540Y-62264231D01*
X172619786Y-62181742D01*
X172621873Y-62091961D01*
X172615268Y-61998508D01*
X172607156Y-61943544D01*
X172582754Y-61857334D01*
X172542862Y-61777208D01*
X172491087Y-61710123D01*
X172480739Y-61699927D01*
X172437235Y-61666798D01*
X172383318Y-61636906D01*
X172326792Y-61613743D01*
X172275459Y-61600802D01*
X172255744Y-61599242D01*
X172214619Y-61605882D01*
X172163452Y-61623532D01*
X172109594Y-61648803D01*
X172060395Y-61678311D01*
X172027534Y-61704381D01*
X171978652Y-61765335D01*
X171939745Y-61844131D01*
X171911694Y-61937943D01*
X171895379Y-62043950D01*
X171891392Y-62141100D01*
X171895799Y-62223019D01*
G36*
X171894648Y-62872986D02*
X171908473Y-62896552D01*
X171931081Y-62927365D01*
X171963538Y-62967022D01*
X172006908Y-63017120D01*
X172062258Y-63079257D01*
X172130651Y-63155028D01*
X172209284Y-63241766D01*
X172373078Y-63422389D01*
X172153229Y-63428033D01*
X172077551Y-63430071D01*
X172021194Y-63432037D01*
X171980906Y-63434366D01*
X171953435Y-63437494D01*
X171935529Y-63441855D01*
X171923937Y-63447884D01*
X171915408Y-63456016D01*
X171911823Y-63460328D01*
X171892870Y-63494859D01*
X171895641Y-63527717D01*
X171911833Y-63553782D01*
X171933399Y-63580433D01*
X172248351Y-63583748D01*
X172340979Y-63584665D01*
X172413744Y-63585132D01*
X172469361Y-63584987D01*
X172510542Y-63584068D01*
X172540003Y-63582213D01*
X172560455Y-63579261D01*
X172574613Y-63575050D01*
X172585191Y-63569418D01*
X172593674Y-63563173D01*
X172609407Y-63549661D01*
X172619836Y-63536217D01*
X172623839Y-63520976D01*
X172620294Y-63502074D01*
X172608079Y-63477645D01*
X172586071Y-63445827D01*
X172553149Y-63404752D01*
X172508191Y-63352558D01*
X172450075Y-63287378D01*
X172383299Y-63213544D01*
X172142658Y-62948255D01*
X172361789Y-62942611D01*
X172437328Y-62940569D01*
X172493554Y-62938598D01*
X172533724Y-62936261D01*
X172561096Y-62933119D01*
X172578928Y-62928736D01*
X172590479Y-62922676D01*
X172599007Y-62914500D01*
X172602482Y-62910316D01*
X172621572Y-62873335D01*
X172618693Y-62838392D01*
X172594300Y-62807964D01*
X172584486Y-62801003D01*
X172573026Y-62795577D01*
X172557168Y-62791497D01*
X172534163Y-62788571D01*
X172501262Y-62786608D01*
X172455716Y-62785417D01*
X172394773Y-62784808D01*
X172315686Y-62784589D01*
X172257156Y-62784566D01*
X172165607Y-62784640D01*
X172093887Y-62784987D01*
X172039245Y-62785799D01*
X171998932Y-62787267D01*
X171970198Y-62789581D01*
X171950293Y-62792933D01*
X171936468Y-62797512D01*
X171925972Y-62803511D01*
X171920011Y-62807964D01*
X171905891Y-62819250D01*
X171895229Y-62829799D01*
X171889092Y-62841207D01*
X171888543Y-62855070D01*
X171894648Y-62872986D01*
X171894648Y-62872986D01*
G37*
X171894648Y-62872986D02*
X171908473Y-62896552D01*
X171931081Y-62927365D01*
X171963538Y-62967022D01*
X172006908Y-63017120D01*
X172062258Y-63079257D01*
X172130651Y-63155028D01*
X172209284Y-63241766D01*
X172373078Y-63422389D01*
X172153229Y-63428033D01*
X172077551Y-63430071D01*
X172021194Y-63432037D01*
X171980906Y-63434366D01*
X171953435Y-63437494D01*
X171935529Y-63441855D01*
X171923937Y-63447884D01*
X171915408Y-63456016D01*
X171911823Y-63460328D01*
X171892870Y-63494859D01*
X171895641Y-63527717D01*
X171911833Y-63553782D01*
X171933399Y-63580433D01*
X172248351Y-63583748D01*
X172340979Y-63584665D01*
X172413744Y-63585132D01*
X172469361Y-63584987D01*
X172510542Y-63584068D01*
X172540003Y-63582213D01*
X172560455Y-63579261D01*
X172574613Y-63575050D01*
X172585191Y-63569418D01*
X172593674Y-63563173D01*
X172609407Y-63549661D01*
X172619836Y-63536217D01*
X172623839Y-63520976D01*
X172620294Y-63502074D01*
X172608079Y-63477645D01*
X172586071Y-63445827D01*
X172553149Y-63404752D01*
X172508191Y-63352558D01*
X172450075Y-63287378D01*
X172383299Y-63213544D01*
X172142658Y-62948255D01*
X172361789Y-62942611D01*
X172437328Y-62940569D01*
X172493554Y-62938598D01*
X172533724Y-62936261D01*
X172561096Y-62933119D01*
X172578928Y-62928736D01*
X172590479Y-62922676D01*
X172599007Y-62914500D01*
X172602482Y-62910316D01*
X172621572Y-62873335D01*
X172618693Y-62838392D01*
X172594300Y-62807964D01*
X172584486Y-62801003D01*
X172573026Y-62795577D01*
X172557168Y-62791497D01*
X172534163Y-62788571D01*
X172501262Y-62786608D01*
X172455716Y-62785417D01*
X172394773Y-62784808D01*
X172315686Y-62784589D01*
X172257156Y-62784566D01*
X172165607Y-62784640D01*
X172093887Y-62784987D01*
X172039245Y-62785799D01*
X171998932Y-62787267D01*
X171970198Y-62789581D01*
X171950293Y-62792933D01*
X171936468Y-62797512D01*
X171925972Y-62803511D01*
X171920011Y-62807964D01*
X171905891Y-62819250D01*
X171895229Y-62829799D01*
X171889092Y-62841207D01*
X171888543Y-62855070D01*
X171894648Y-62872986D01*
G36*
X171890460Y-64403443D02*
X171891374Y-64479801D01*
X171893511Y-64538317D01*
X171897375Y-64581355D01*
X171903467Y-64611283D01*
X171912290Y-64630468D01*
X171924346Y-64641276D01*
X171940139Y-64646073D01*
X171960170Y-64647227D01*
X171962535Y-64647233D01*
X171985192Y-64646231D01*
X172002703Y-64641496D01*
X172015774Y-64630433D01*
X172025113Y-64610448D01*
X172031427Y-64578946D01*
X172035422Y-64533332D01*
X172037806Y-64471013D01*
X172039286Y-64389393D01*
X172039614Y-64364377D01*
X172042667Y-64122300D01*
X172107578Y-64118914D01*
X172172489Y-64115529D01*
X172172489Y-64283676D01*
X172172731Y-64349366D01*
X172173756Y-64396272D01*
X172176011Y-64428183D01*
X172179942Y-64448891D01*
X172185998Y-64462184D01*
X172194624Y-64471855D01*
X172194693Y-64471917D01*
X172228312Y-64489456D01*
X172264648Y-64488822D01*
X172295623Y-64470414D01*
X172298807Y-64466771D01*
X172307012Y-64453841D01*
X172312721Y-64436124D01*
X172316362Y-64409670D01*
X172318367Y-64370532D01*
X172319164Y-64314762D01*
X172319245Y-64279094D01*
X172319245Y-64116655D01*
X172477289Y-64116655D01*
X172477289Y-64363261D01*
X172477431Y-64444680D01*
X172478014Y-64506510D01*
X172479268Y-64551737D01*
X172481427Y-64583348D01*
X172484723Y-64604331D01*
X172489389Y-64617673D01*
X172495657Y-64626361D01*
X172497933Y-64628550D01*
X172529480Y-64644714D01*
X172565368Y-64645897D01*
X172596485Y-64632636D01*
X172606471Y-64622143D01*
X172611969Y-64611229D01*
X172616222Y-64594317D01*
X172619380Y-64568733D01*
X172621592Y-64531801D01*
X172623006Y-64480846D01*
X172623772Y-64413194D01*
X172624038Y-64326169D01*
X172624045Y-64306494D01*
X172623987Y-64218011D01*
X172623667Y-64149327D01*
X172622867Y-64097664D01*
X172621367Y-64060245D01*
X172618949Y-64034290D01*
X172615394Y-64017022D01*
X172610482Y-64005662D01*
X172603995Y-63997432D01*
X172599338Y-63992917D01*
X172591089Y-63986121D01*
X172580869Y-63980812D01*
X172566000Y-63976806D01*
X172543802Y-63973921D01*
X172511593Y-63971974D01*
X172466696Y-63970781D01*
X172406428Y-63970161D01*
X172328111Y-63969929D01*
X172262194Y-63969900D01*
X172169828Y-63969971D01*
X172097317Y-63970308D01*
X172041937Y-63971098D01*
X172000965Y-63972526D01*
X171971678Y-63974779D01*
X171951353Y-63978043D01*
X171937266Y-63982504D01*
X171926695Y-63988348D01*
X171920011Y-63993297D01*
X171890267Y-64016694D01*
X171890267Y-64306874D01*
X171890460Y-64403443D01*
X171890460Y-64403443D01*
G37*
X171890460Y-64403443D02*
X171891374Y-64479801D01*
X171893511Y-64538317D01*
X171897375Y-64581355D01*
X171903467Y-64611283D01*
X171912290Y-64630468D01*
X171924346Y-64641276D01*
X171940139Y-64646073D01*
X171960170Y-64647227D01*
X171962535Y-64647233D01*
X171985192Y-64646231D01*
X172002703Y-64641496D01*
X172015774Y-64630433D01*
X172025113Y-64610448D01*
X172031427Y-64578946D01*
X172035422Y-64533332D01*
X172037806Y-64471013D01*
X172039286Y-64389393D01*
X172039614Y-64364377D01*
X172042667Y-64122300D01*
X172107578Y-64118914D01*
X172172489Y-64115529D01*
X172172489Y-64283676D01*
X172172731Y-64349366D01*
X172173756Y-64396272D01*
X172176011Y-64428183D01*
X172179942Y-64448891D01*
X172185998Y-64462184D01*
X172194624Y-64471855D01*
X172194693Y-64471917D01*
X172228312Y-64489456D01*
X172264648Y-64488822D01*
X172295623Y-64470414D01*
X172298807Y-64466771D01*
X172307012Y-64453841D01*
X172312721Y-64436124D01*
X172316362Y-64409670D01*
X172318367Y-64370532D01*
X172319164Y-64314762D01*
X172319245Y-64279094D01*
X172319245Y-64116655D01*
X172477289Y-64116655D01*
X172477289Y-64363261D01*
X172477431Y-64444680D01*
X172478014Y-64506510D01*
X172479268Y-64551737D01*
X172481427Y-64583348D01*
X172484723Y-64604331D01*
X172489389Y-64617673D01*
X172495657Y-64626361D01*
X172497933Y-64628550D01*
X172529480Y-64644714D01*
X172565368Y-64645897D01*
X172596485Y-64632636D01*
X172606471Y-64622143D01*
X172611969Y-64611229D01*
X172616222Y-64594317D01*
X172619380Y-64568733D01*
X172621592Y-64531801D01*
X172623006Y-64480846D01*
X172623772Y-64413194D01*
X172624038Y-64326169D01*
X172624045Y-64306494D01*
X172623987Y-64218011D01*
X172623667Y-64149327D01*
X172622867Y-64097664D01*
X172621367Y-64060245D01*
X172618949Y-64034290D01*
X172615394Y-64017022D01*
X172610482Y-64005662D01*
X172603995Y-63997432D01*
X172599338Y-63992917D01*
X172591089Y-63986121D01*
X172580869Y-63980812D01*
X172566000Y-63976806D01*
X172543802Y-63973921D01*
X172511593Y-63971974D01*
X172466696Y-63970781D01*
X172406428Y-63970161D01*
X172328111Y-63969929D01*
X172262194Y-63969900D01*
X172169828Y-63969971D01*
X172097317Y-63970308D01*
X172041937Y-63971098D01*
X172000965Y-63972526D01*
X171971678Y-63974779D01*
X171951353Y-63978043D01*
X171937266Y-63982504D01*
X171926695Y-63988348D01*
X171920011Y-63993297D01*
X171890267Y-64016694D01*
X171890267Y-64306874D01*
X171890460Y-64403443D01*
G36*
X171890475Y-65191409D02*
X171894836Y-65320388D01*
X171908061Y-65430091D01*
X171930941Y-65522326D01*
X171964270Y-65598902D01*
X172008838Y-65661627D01*
X172065436Y-65712312D01*
X172134858Y-65752763D01*
X172136551Y-65753559D01*
X172198683Y-65777701D01*
X172253709Y-65786303D01*
X172309087Y-65779331D01*
X172372273Y-65756754D01*
X172381889Y-65752472D01*
X172438166Y-65723272D01*
X172481651Y-65690456D01*
X172518617Y-65648102D01*
X172555335Y-65590290D01*
X172557252Y-65586931D01*
X172581427Y-65536604D01*
X172599482Y-65479721D01*
X172612039Y-65412627D01*
X172619722Y-65331665D01*
X172623153Y-65233182D01*
X172623451Y-65198386D01*
X172624045Y-65032694D01*
X172594300Y-65009297D01*
X172584519Y-65002357D01*
X172573097Y-64996942D01*
X172557295Y-64992865D01*
X172534375Y-64989937D01*
X172501596Y-64987967D01*
X172477289Y-64987325D01*
X172477289Y-65143944D01*
X172477289Y-65237826D01*
X172475683Y-65292764D01*
X172471455Y-65349160D01*
X172465492Y-65395445D01*
X172464990Y-65398239D01*
X172442936Y-65480448D01*
X172409800Y-65544214D01*
X172364047Y-65591552D01*
X172304139Y-65624482D01*
X172288261Y-65630208D01*
X172263533Y-65635821D01*
X172239102Y-65633391D01*
X172206600Y-65621567D01*
X172190634Y-65614440D01*
X172148206Y-65591100D01*
X172118440Y-65562980D01*
X172097711Y-65532040D01*
X172070737Y-65470066D01*
X172051198Y-65390751D01*
X172039946Y-65298353D01*
X172037470Y-65231433D01*
X172037022Y-65143944D01*
X172477289Y-65143944D01*
X172477289Y-64987325D01*
X172456221Y-64986768D01*
X172395511Y-64986150D01*
X172316726Y-64985925D01*
X172255120Y-64985900D01*
X171945685Y-64985900D01*
X171917976Y-65013609D01*
X171906744Y-65025906D01*
X171899053Y-65039203D01*
X171894240Y-65057772D01*
X171891646Y-65085886D01*
X171890610Y-65127817D01*
X171890470Y-65187837D01*
X171890475Y-65191409D01*
X171890475Y-65191409D01*
G37*
X171890475Y-65191409D02*
X171894836Y-65320388D01*
X171908061Y-65430091D01*
X171930941Y-65522326D01*
X171964270Y-65598902D01*
X172008838Y-65661627D01*
X172065436Y-65712312D01*
X172134858Y-65752763D01*
X172136551Y-65753559D01*
X172198683Y-65777701D01*
X172253709Y-65786303D01*
X172309087Y-65779331D01*
X172372273Y-65756754D01*
X172381889Y-65752472D01*
X172438166Y-65723272D01*
X172481651Y-65690456D01*
X172518617Y-65648102D01*
X172555335Y-65590290D01*
X172557252Y-65586931D01*
X172581427Y-65536604D01*
X172599482Y-65479721D01*
X172612039Y-65412627D01*
X172619722Y-65331665D01*
X172623153Y-65233182D01*
X172623451Y-65198386D01*
X172624045Y-65032694D01*
X172594300Y-65009297D01*
X172584519Y-65002357D01*
X172573097Y-64996942D01*
X172557295Y-64992865D01*
X172534375Y-64989937D01*
X172501596Y-64987967D01*
X172477289Y-64987325D01*
X172477289Y-65143944D01*
X172477289Y-65237826D01*
X172475683Y-65292764D01*
X172471455Y-65349160D01*
X172465492Y-65395445D01*
X172464990Y-65398239D01*
X172442936Y-65480448D01*
X172409800Y-65544214D01*
X172364047Y-65591552D01*
X172304139Y-65624482D01*
X172288261Y-65630208D01*
X172263533Y-65635821D01*
X172239102Y-65633391D01*
X172206600Y-65621567D01*
X172190634Y-65614440D01*
X172148206Y-65591100D01*
X172118440Y-65562980D01*
X172097711Y-65532040D01*
X172070737Y-65470066D01*
X172051198Y-65390751D01*
X172039946Y-65298353D01*
X172037470Y-65231433D01*
X172037022Y-65143944D01*
X172477289Y-65143944D01*
X172477289Y-64987325D01*
X172456221Y-64986768D01*
X172395511Y-64986150D01*
X172316726Y-64985925D01*
X172255120Y-64985900D01*
X171945685Y-64985900D01*
X171917976Y-65013609D01*
X171906744Y-65025906D01*
X171899053Y-65039203D01*
X171894240Y-65057772D01*
X171891646Y-65085886D01*
X171890610Y-65127817D01*
X171890470Y-65187837D01*
X171890475Y-65191409D01*
G36*
X171892234Y-67917765D02*
X171899235Y-67937355D01*
X171899577Y-67938110D01*
X171919878Y-67964713D01*
X171940761Y-67979370D01*
X171950552Y-67982238D01*
X171963561Y-67982096D01*
X171982095Y-67978061D01*
X172008457Y-67969246D01*
X172044952Y-67954769D01*
X172093887Y-67933745D01*
X172157565Y-67905288D01*
X172238293Y-67868515D01*
X172282416Y-67848275D01*
X172361185Y-67811725D01*
X172433623Y-67777415D01*
X172497080Y-67746652D01*
X172548908Y-67720748D01*
X172586459Y-67701010D01*
X172607084Y-67688750D01*
X172609933Y-67686324D01*
X172622502Y-67655283D01*
X172620819Y-67620221D01*
X172605532Y-67592100D01*
X172604289Y-67590954D01*
X172587354Y-67579768D01*
X172554370Y-67561004D01*
X172509580Y-67536975D01*
X172457232Y-67509997D01*
X172437942Y-67500301D01*
X172291350Y-67427114D01*
X172450593Y-67347340D01*
X172505615Y-67318867D01*
X172553332Y-67292450D01*
X172590093Y-67270248D01*
X172612244Y-67254419D01*
X172616941Y-67249054D01*
X172623302Y-67207357D01*
X172609933Y-67172949D01*
X172595646Y-67162828D01*
X172563892Y-67145314D01*
X172517797Y-67121835D01*
X172460485Y-67093820D01*
X172395080Y-67062699D01*
X172324707Y-67029899D01*
X172252491Y-66996850D01*
X172181555Y-66964981D01*
X172115025Y-66935719D01*
X172056026Y-66910495D01*
X172007681Y-66890736D01*
X171973115Y-66877872D01*
X171955453Y-66873331D01*
X171954813Y-66873377D01*
X171932588Y-66884426D01*
X171909953Y-66906510D01*
X171908968Y-66907810D01*
X171893625Y-66934953D01*
X171893774Y-66960058D01*
X171896666Y-66969468D01*
X171902918Y-66980934D01*
X171915214Y-66993110D01*
X171936108Y-67007457D01*
X171968149Y-67025436D01*
X172013888Y-67048507D01*
X172075877Y-67078130D01*
X172133098Y-67104845D01*
X172199426Y-67135580D01*
X172259074Y-67163121D01*
X172308925Y-67186038D01*
X172345864Y-67202898D01*
X172366773Y-67212273D01*
X172370045Y-67213640D01*
X172364697Y-67219789D01*
X172342309Y-67233922D01*
X172306146Y-67254157D01*
X172259477Y-67278615D01*
X172240222Y-67288348D01*
X172175204Y-67321317D01*
X172127854Y-67346743D01*
X172095419Y-67366712D01*
X172075146Y-67383310D01*
X172064282Y-67398624D01*
X172060075Y-67414740D01*
X172059600Y-67425243D01*
X172061242Y-67443770D01*
X172068031Y-67460004D01*
X172082766Y-67476135D01*
X172108244Y-67494351D01*
X172147261Y-67516839D01*
X172202614Y-67545789D01*
X172234103Y-67561762D01*
X172284287Y-67587670D01*
X172325904Y-67610267D01*
X172355442Y-67627558D01*
X172369389Y-67637550D01*
X172369970Y-67638909D01*
X172358993Y-67645361D01*
X172330490Y-67659808D01*
X172287444Y-67680803D01*
X172232838Y-67706897D01*
X172169654Y-67736646D01*
X172138271Y-67751280D01*
X172057278Y-67789350D01*
X171994956Y-67820005D01*
X171949271Y-67844837D01*
X171918189Y-67865437D01*
X171899678Y-67883398D01*
X171891704Y-67900310D01*
X171892234Y-67917765D01*
X171892234Y-67917765D01*
G37*
X171892234Y-67917765D02*
X171899235Y-67937355D01*
X171899577Y-67938110D01*
X171919878Y-67964713D01*
X171940761Y-67979370D01*
X171950552Y-67982238D01*
X171963561Y-67982096D01*
X171982095Y-67978061D01*
X172008457Y-67969246D01*
X172044952Y-67954769D01*
X172093887Y-67933745D01*
X172157565Y-67905288D01*
X172238293Y-67868515D01*
X172282416Y-67848275D01*
X172361185Y-67811725D01*
X172433623Y-67777415D01*
X172497080Y-67746652D01*
X172548908Y-67720748D01*
X172586459Y-67701010D01*
X172607084Y-67688750D01*
X172609933Y-67686324D01*
X172622502Y-67655283D01*
X172620819Y-67620221D01*
X172605532Y-67592100D01*
X172604289Y-67590954D01*
X172587354Y-67579768D01*
X172554370Y-67561004D01*
X172509580Y-67536975D01*
X172457232Y-67509997D01*
X172437942Y-67500301D01*
X172291350Y-67427114D01*
X172450593Y-67347340D01*
X172505615Y-67318867D01*
X172553332Y-67292450D01*
X172590093Y-67270248D01*
X172612244Y-67254419D01*
X172616941Y-67249054D01*
X172623302Y-67207357D01*
X172609933Y-67172949D01*
X172595646Y-67162828D01*
X172563892Y-67145314D01*
X172517797Y-67121835D01*
X172460485Y-67093820D01*
X172395080Y-67062699D01*
X172324707Y-67029899D01*
X172252491Y-66996850D01*
X172181555Y-66964981D01*
X172115025Y-66935719D01*
X172056026Y-66910495D01*
X172007681Y-66890736D01*
X171973115Y-66877872D01*
X171955453Y-66873331D01*
X171954813Y-66873377D01*
X171932588Y-66884426D01*
X171909953Y-66906510D01*
X171908968Y-66907810D01*
X171893625Y-66934953D01*
X171893774Y-66960058D01*
X171896666Y-66969468D01*
X171902918Y-66980934D01*
X171915214Y-66993110D01*
X171936108Y-67007457D01*
X171968149Y-67025436D01*
X172013888Y-67048507D01*
X172075877Y-67078130D01*
X172133098Y-67104845D01*
X172199426Y-67135580D01*
X172259074Y-67163121D01*
X172308925Y-67186038D01*
X172345864Y-67202898D01*
X172366773Y-67212273D01*
X172370045Y-67213640D01*
X172364697Y-67219789D01*
X172342309Y-67233922D01*
X172306146Y-67254157D01*
X172259477Y-67278615D01*
X172240222Y-67288348D01*
X172175204Y-67321317D01*
X172127854Y-67346743D01*
X172095419Y-67366712D01*
X172075146Y-67383310D01*
X172064282Y-67398624D01*
X172060075Y-67414740D01*
X172059600Y-67425243D01*
X172061242Y-67443770D01*
X172068031Y-67460004D01*
X172082766Y-67476135D01*
X172108244Y-67494351D01*
X172147261Y-67516839D01*
X172202614Y-67545789D01*
X172234103Y-67561762D01*
X172284287Y-67587670D01*
X172325904Y-67610267D01*
X172355442Y-67627558D01*
X172369389Y-67637550D01*
X172369970Y-67638909D01*
X172358993Y-67645361D01*
X172330490Y-67659808D01*
X172287444Y-67680803D01*
X172232838Y-67706897D01*
X172169654Y-67736646D01*
X172138271Y-67751280D01*
X172057278Y-67789350D01*
X171994956Y-67820005D01*
X171949271Y-67844837D01*
X171918189Y-67865437D01*
X171899678Y-67883398D01*
X171891704Y-67900310D01*
X171892234Y-67917765D01*
G36*
X171897077Y-68361714D02*
X171911847Y-68385427D01*
X171933427Y-68412078D01*
X172254973Y-68412078D01*
X172349030Y-68411993D01*
X172423132Y-68411629D01*
X172479904Y-68410824D01*
X172521968Y-68409413D01*
X172551948Y-68407233D01*
X172572467Y-68404121D01*
X172586149Y-68399914D01*
X172595616Y-68394448D01*
X172600282Y-68390572D01*
X172620775Y-68359134D01*
X172619939Y-68323333D01*
X172602464Y-68291973D01*
X172580884Y-68265322D01*
X171933427Y-68265322D01*
X171911847Y-68291973D01*
X171896149Y-68317694D01*
X171890267Y-68338700D01*
X171897077Y-68361714D01*
X171897077Y-68361714D01*
G37*
X171897077Y-68361714D02*
X171911847Y-68385427D01*
X171933427Y-68412078D01*
X172254973Y-68412078D01*
X172349030Y-68411993D01*
X172423132Y-68411629D01*
X172479904Y-68410824D01*
X172521968Y-68409413D01*
X172551948Y-68407233D01*
X172572467Y-68404121D01*
X172586149Y-68399914D01*
X172595616Y-68394448D01*
X172600282Y-68390572D01*
X172620775Y-68359134D01*
X172619939Y-68323333D01*
X172602464Y-68291973D01*
X172580884Y-68265322D01*
X171933427Y-68265322D01*
X171911847Y-68291973D01*
X171896149Y-68317694D01*
X171890267Y-68338700D01*
X171897077Y-68361714D01*
G36*
X171890363Y-69136165D02*
X171890742Y-69214872D01*
X171891533Y-69275963D01*
X171892870Y-69321917D01*
X171894883Y-69355214D01*
X171897706Y-69378336D01*
X171901469Y-69393762D01*
X171906305Y-69403971D01*
X171910022Y-69408913D01*
X171942558Y-69434557D01*
X171976338Y-69437659D01*
X172007026Y-69421811D01*
X172019289Y-69411448D01*
X172027650Y-69400296D01*
X172032857Y-69384135D01*
X172035657Y-69358742D01*
X172036796Y-69319898D01*
X172037021Y-69263380D01*
X172037022Y-69252280D01*
X172037022Y-69106344D01*
X172307956Y-69106344D01*
X172393354Y-69106248D01*
X172459064Y-69105811D01*
X172507974Y-69104812D01*
X172542973Y-69103028D01*
X172566949Y-69100237D01*
X172582793Y-69096217D01*
X172593391Y-69090745D01*
X172601467Y-69083766D01*
X172621312Y-69050834D01*
X172619748Y-69016454D01*
X172597106Y-68985276D01*
X172594300Y-68982986D01*
X172583692Y-68975529D01*
X172571281Y-68969847D01*
X172554050Y-68965701D01*
X172528984Y-68962850D01*
X172493067Y-68961054D01*
X172443283Y-68960072D01*
X172376617Y-68959664D01*
X172300789Y-68959589D01*
X172037022Y-68959589D01*
X172037022Y-68820227D01*
X172036618Y-68760422D01*
X172035040Y-68719018D01*
X172031747Y-68691848D01*
X172026192Y-68674746D01*
X172017831Y-68663543D01*
X172016378Y-68662183D01*
X171983139Y-68645825D01*
X171945562Y-68647272D01*
X171912845Y-68666078D01*
X171906498Y-68673350D01*
X171901466Y-68682727D01*
X171897596Y-68696709D01*
X171894737Y-68717796D01*
X171892735Y-68748489D01*
X171891439Y-68791289D01*
X171890698Y-68848695D01*
X171890358Y-68923210D01*
X171890268Y-69017333D01*
X171890267Y-69037360D01*
X171890363Y-69136165D01*
X171890363Y-69136165D01*
G37*
X171890363Y-69136165D02*
X171890742Y-69214872D01*
X171891533Y-69275963D01*
X171892870Y-69321917D01*
X171894883Y-69355214D01*
X171897706Y-69378336D01*
X171901469Y-69393762D01*
X171906305Y-69403971D01*
X171910022Y-69408913D01*
X171942558Y-69434557D01*
X171976338Y-69437659D01*
X172007026Y-69421811D01*
X172019289Y-69411448D01*
X172027650Y-69400296D01*
X172032857Y-69384135D01*
X172035657Y-69358742D01*
X172036796Y-69319898D01*
X172037021Y-69263380D01*
X172037022Y-69252280D01*
X172037022Y-69106344D01*
X172307956Y-69106344D01*
X172393354Y-69106248D01*
X172459064Y-69105811D01*
X172507974Y-69104812D01*
X172542973Y-69103028D01*
X172566949Y-69100237D01*
X172582793Y-69096217D01*
X172593391Y-69090745D01*
X172601467Y-69083766D01*
X172621312Y-69050834D01*
X172619748Y-69016454D01*
X172597106Y-68985276D01*
X172594300Y-68982986D01*
X172583692Y-68975529D01*
X172571281Y-68969847D01*
X172554050Y-68965701D01*
X172528984Y-68962850D01*
X172493067Y-68961054D01*
X172443283Y-68960072D01*
X172376617Y-68959664D01*
X172300789Y-68959589D01*
X172037022Y-68959589D01*
X172037022Y-68820227D01*
X172036618Y-68760422D01*
X172035040Y-68719018D01*
X172031747Y-68691848D01*
X172026192Y-68674746D01*
X172017831Y-68663543D01*
X172016378Y-68662183D01*
X171983139Y-68645825D01*
X171945562Y-68647272D01*
X171912845Y-68666078D01*
X171906498Y-68673350D01*
X171901466Y-68682727D01*
X171897596Y-68696709D01*
X171894737Y-68717796D01*
X171892735Y-68748489D01*
X171891439Y-68791289D01*
X171890698Y-68848695D01*
X171890358Y-68923210D01*
X171890268Y-69017333D01*
X171890267Y-69037360D01*
X171890363Y-69136165D01*
G36*
X171895733Y-70401923D02*
X171917976Y-70433302D01*
X171945685Y-70461011D01*
X172255120Y-70461011D01*
X172346999Y-70460938D01*
X172419040Y-70460595D01*
X172473980Y-70459792D01*
X172514560Y-70458341D01*
X172543517Y-70456052D01*
X172563591Y-70452736D01*
X172577521Y-70448205D01*
X172588045Y-70442269D01*
X172594300Y-70437614D01*
X172618873Y-70406883D01*
X172621541Y-70371596D01*
X172606471Y-70339345D01*
X172597574Y-70328688D01*
X172585757Y-70321564D01*
X172566726Y-70317267D01*
X172536192Y-70315091D01*
X172489862Y-70314328D01*
X172454071Y-70314255D01*
X172319245Y-70314255D01*
X172319245Y-69817544D01*
X172441900Y-69817544D01*
X172497987Y-69817031D01*
X172536533Y-69814976D01*
X172562561Y-69810608D01*
X172581097Y-69803156D01*
X172594300Y-69794147D01*
X172618804Y-69763244D01*
X172621706Y-69728296D01*
X172604289Y-69694838D01*
X172595159Y-69685704D01*
X172583055Y-69679252D01*
X172564201Y-69674997D01*
X172534820Y-69672452D01*
X172491137Y-69671129D01*
X172429375Y-69670543D01*
X172415200Y-69670475D01*
X172298831Y-69669991D01*
X172202927Y-69669741D01*
X172125377Y-69669823D01*
X172064069Y-69670331D01*
X172016890Y-69671362D01*
X171981730Y-69673013D01*
X171956476Y-69675379D01*
X171939017Y-69678557D01*
X171927241Y-69682644D01*
X171919035Y-69687734D01*
X171912845Y-69693366D01*
X171893044Y-69725228D01*
X171895733Y-69758457D01*
X171917976Y-69789835D01*
X171932326Y-69802533D01*
X171948178Y-69810626D01*
X171970754Y-69815142D01*
X172005278Y-69817106D01*
X172056976Y-69817544D01*
X172172489Y-69817544D01*
X172172489Y-70314255D01*
X172053956Y-70314255D01*
X171999348Y-70314762D01*
X171962475Y-70316798D01*
X171938507Y-70321135D01*
X171922615Y-70328547D01*
X171912845Y-70336833D01*
X171893044Y-70368694D01*
X171895733Y-70401923D01*
X171895733Y-70401923D01*
G37*
X171895733Y-70401923D02*
X171917976Y-70433302D01*
X171945685Y-70461011D01*
X172255120Y-70461011D01*
X172346999Y-70460938D01*
X172419040Y-70460595D01*
X172473980Y-70459792D01*
X172514560Y-70458341D01*
X172543517Y-70456052D01*
X172563591Y-70452736D01*
X172577521Y-70448205D01*
X172588045Y-70442269D01*
X172594300Y-70437614D01*
X172618873Y-70406883D01*
X172621541Y-70371596D01*
X172606471Y-70339345D01*
X172597574Y-70328688D01*
X172585757Y-70321564D01*
X172566726Y-70317267D01*
X172536192Y-70315091D01*
X172489862Y-70314328D01*
X172454071Y-70314255D01*
X172319245Y-70314255D01*
X172319245Y-69817544D01*
X172441900Y-69817544D01*
X172497987Y-69817031D01*
X172536533Y-69814976D01*
X172562561Y-69810608D01*
X172581097Y-69803156D01*
X172594300Y-69794147D01*
X172618804Y-69763244D01*
X172621706Y-69728296D01*
X172604289Y-69694838D01*
X172595159Y-69685704D01*
X172583055Y-69679252D01*
X172564201Y-69674997D01*
X172534820Y-69672452D01*
X172491137Y-69671129D01*
X172429375Y-69670543D01*
X172415200Y-69670475D01*
X172298831Y-69669991D01*
X172202927Y-69669741D01*
X172125377Y-69669823D01*
X172064069Y-69670331D01*
X172016890Y-69671362D01*
X171981730Y-69673013D01*
X171956476Y-69675379D01*
X171939017Y-69678557D01*
X171927241Y-69682644D01*
X171919035Y-69687734D01*
X171912845Y-69693366D01*
X171893044Y-69725228D01*
X171895733Y-69758457D01*
X171917976Y-69789835D01*
X171932326Y-69802533D01*
X171948178Y-69810626D01*
X171970754Y-69815142D01*
X172005278Y-69817106D01*
X172056976Y-69817544D01*
X172172489Y-69817544D01*
X172172489Y-70314255D01*
X172053956Y-70314255D01*
X171999348Y-70314762D01*
X171962475Y-70316798D01*
X171938507Y-70321135D01*
X171922615Y-70328547D01*
X171912845Y-70336833D01*
X171893044Y-70368694D01*
X171895733Y-70401923D01*
G36*
X167110254Y-61226700D02*
X167224193Y-61237565D01*
X167331816Y-61269182D01*
X167430815Y-61320085D01*
X167518884Y-61388807D01*
X167593716Y-61473881D01*
X167651584Y-61570868D01*
X167691205Y-61677136D01*
X167709773Y-61784150D01*
X167708634Y-61889800D01*
X167689130Y-61991975D01*
X167652606Y-62088566D01*
X167600405Y-62177462D01*
X167533873Y-62256554D01*
X167454352Y-62323731D01*
X167363187Y-62376883D01*
X167261723Y-62413901D01*
X167151302Y-62432673D01*
X167101406Y-62434611D01*
X167013467Y-62434611D01*
X167013467Y-62486540D01*
X167016311Y-62522847D01*
X167028111Y-62549745D01*
X167051849Y-62576851D01*
X167090231Y-62615233D01*
X169281802Y-62615233D01*
X169543939Y-62615224D01*
X169784441Y-62615192D01*
X170004248Y-62615128D01*
X170204301Y-62615024D01*
X170385544Y-62614873D01*
X170548916Y-62614666D01*
X170695360Y-62614394D01*
X170825817Y-62614050D01*
X170941229Y-62613626D01*
X171042538Y-62613113D01*
X171130684Y-62612503D01*
X171206610Y-62611788D01*
X171271257Y-62610960D01*
X171325567Y-62610011D01*
X171370480Y-62608933D01*
X171406940Y-62607717D01*
X171435887Y-62606355D01*
X171458263Y-62604839D01*
X171475009Y-62603162D01*
X171487068Y-62601314D01*
X171495380Y-62599287D01*
X171500887Y-62597075D01*
X171502737Y-62595992D01*
X171509749Y-62591829D01*
X171516196Y-62588295D01*
X171522100Y-62584465D01*
X171527486Y-62579418D01*
X171532378Y-62572229D01*
X171536798Y-62561977D01*
X171540772Y-62547736D01*
X171544321Y-62528586D01*
X171547470Y-62503601D01*
X171550242Y-62471860D01*
X171552661Y-62432438D01*
X171554751Y-62384414D01*
X171556535Y-62326863D01*
X171558037Y-62258863D01*
X171559280Y-62179490D01*
X171560289Y-62087821D01*
X171561085Y-61982934D01*
X171561694Y-61863904D01*
X171562139Y-61729810D01*
X171562443Y-61579727D01*
X171562630Y-61412733D01*
X171562724Y-61227904D01*
X171562748Y-61024317D01*
X171562725Y-60801050D01*
X171562680Y-60557178D01*
X171562637Y-60291779D01*
X171562632Y-60253396D01*
X171562589Y-59986418D01*
X171562518Y-59741098D01*
X171562413Y-59516517D01*
X171562266Y-59311755D01*
X171562069Y-59125894D01*
X171561816Y-58958012D01*
X171561500Y-58807192D01*
X171561113Y-58672513D01*
X171560647Y-58553056D01*
X171560097Y-58447901D01*
X171559453Y-58356129D01*
X171558711Y-58276821D01*
X171557861Y-58209057D01*
X171556897Y-58151918D01*
X171555811Y-58104483D01*
X171554597Y-58065834D01*
X171553247Y-58035051D01*
X171551755Y-58011215D01*
X171550111Y-57993406D01*
X171548311Y-57980705D01*
X171546345Y-57972192D01*
X171544677Y-57967834D01*
X171541106Y-57959372D01*
X171538470Y-57951603D01*
X171535834Y-57944498D01*
X171532262Y-57938027D01*
X171526821Y-57932161D01*
X171518575Y-57926871D01*
X171506590Y-57922126D01*
X171489931Y-57917898D01*
X171467663Y-57914157D01*
X171438852Y-57910873D01*
X171402563Y-57908017D01*
X171357861Y-57905560D01*
X171303811Y-57903471D01*
X171239479Y-57901722D01*
X171163930Y-57900283D01*
X171076230Y-57899124D01*
X170975443Y-57898217D01*
X170860634Y-57897531D01*
X170730870Y-57897037D01*
X170585215Y-57896705D01*
X170422735Y-57896507D01*
X170242495Y-57896413D01*
X170043560Y-57896392D01*
X169824996Y-57896415D01*
X169585868Y-57896454D01*
X169325240Y-57896478D01*
X169283089Y-57896478D01*
X169020192Y-57896464D01*
X168778932Y-57896439D01*
X168558365Y-57896429D01*
X168357552Y-57896458D01*
X168175549Y-57896552D01*
X168011416Y-57896738D01*
X167864211Y-57897041D01*
X167732992Y-57897486D01*
X167623067Y-57898066D01*
X167623067Y-58200903D01*
X167680911Y-58240693D01*
X167696679Y-58251864D01*
X167710641Y-58261934D01*
X167723984Y-58270962D01*
X167737893Y-58279003D01*
X167753556Y-58286114D01*
X167772158Y-58292353D01*
X167794886Y-58297775D01*
X167822927Y-58302438D01*
X167857467Y-58306399D01*
X167899692Y-58309715D01*
X167950789Y-58312441D01*
X168011944Y-58314636D01*
X168084344Y-58316355D01*
X168169175Y-58317656D01*
X168267622Y-58318595D01*
X168380874Y-58319230D01*
X168510116Y-58319616D01*
X168656534Y-58319812D01*
X168821316Y-58319873D01*
X169005647Y-58319857D01*
X169210713Y-58319820D01*
X169333333Y-58319811D01*
X169550282Y-58319835D01*
X169745842Y-58319869D01*
X169921199Y-58319857D01*
X170077541Y-58319742D01*
X170216057Y-58319470D01*
X170337934Y-58318982D01*
X170444360Y-58318224D01*
X170536522Y-58317138D01*
X170615609Y-58315669D01*
X170682808Y-58313760D01*
X170739307Y-58311356D01*
X170786293Y-58308399D01*
X170824955Y-58304834D01*
X170856480Y-58300605D01*
X170882055Y-58295654D01*
X170902870Y-58289927D01*
X170920111Y-58283367D01*
X170934965Y-58275917D01*
X170948622Y-58267521D01*
X170962269Y-58258124D01*
X170977093Y-58247668D01*
X170985983Y-58241577D01*
X171043600Y-58202804D01*
X171043600Y-58734368D01*
X171043565Y-58857617D01*
X171043415Y-58960113D01*
X171043078Y-59043680D01*
X171042486Y-59110144D01*
X171041567Y-59161329D01*
X171040251Y-59199059D01*
X171038469Y-59225160D01*
X171036151Y-59241456D01*
X171033226Y-59249772D01*
X171029624Y-59251932D01*
X171025275Y-59249761D01*
X171023845Y-59248565D01*
X170986773Y-59223415D01*
X170933972Y-59197517D01*
X170871970Y-59173908D01*
X170845557Y-59165639D01*
X170827616Y-59161022D01*
X170806555Y-59157121D01*
X170780289Y-59153852D01*
X170746732Y-59151134D01*
X170703799Y-59148885D01*
X170649404Y-59147023D01*
X170581462Y-59145464D01*
X170497888Y-59144128D01*
X170396595Y-59142931D01*
X170275500Y-59141792D01*
X170230800Y-59141415D01*
X170105649Y-59140398D01*
X170001282Y-59139640D01*
X169915907Y-59139197D01*
X169847733Y-59139130D01*
X169794965Y-59139495D01*
X169755814Y-59140352D01*
X169728485Y-59141759D01*
X169711186Y-59143775D01*
X169702126Y-59146457D01*
X169699512Y-59149864D01*
X169701551Y-59154056D01*
X169705867Y-59158529D01*
X169718802Y-59168884D01*
X169747876Y-59190942D01*
X169790959Y-59223143D01*
X169845918Y-59263926D01*
X169910623Y-59311730D01*
X169982942Y-59364995D01*
X170060744Y-59422160D01*
X170141898Y-59481663D01*
X170224272Y-59541945D01*
X170305736Y-59601445D01*
X170384157Y-59658602D01*
X170457404Y-59711855D01*
X170523347Y-59759643D01*
X170579854Y-59800407D01*
X170624793Y-59832584D01*
X170656034Y-59854615D01*
X170662666Y-59859183D01*
X170699569Y-59882104D01*
X170747559Y-59908912D01*
X170797097Y-59934311D01*
X170803777Y-59937532D01*
X170851972Y-59959210D01*
X170889534Y-59971796D01*
X170925360Y-59977526D01*
X170967400Y-59978644D01*
X171043600Y-59978010D01*
X171043600Y-61132449D01*
X170949869Y-61041285D01*
X170899975Y-60994488D01*
X170843495Y-60944201D01*
X170789226Y-60898156D01*
X170763873Y-60877731D01*
X170724328Y-60847293D01*
X170671116Y-60807238D01*
X170605867Y-60758739D01*
X170530211Y-60702965D01*
X170445777Y-60641089D01*
X170354194Y-60574281D01*
X170257092Y-60503713D01*
X170156101Y-60430555D01*
X170052850Y-60355979D01*
X169948968Y-60281156D01*
X169846085Y-60207257D01*
X169745831Y-60135454D01*
X169649836Y-60066916D01*
X169559727Y-60002816D01*
X169477136Y-59944325D01*
X169403692Y-59892614D01*
X169341024Y-59848853D01*
X169290761Y-59814215D01*
X169254534Y-59789870D01*
X169233971Y-59776989D01*
X169229868Y-59775231D01*
X169218542Y-59783190D01*
X169191362Y-59803985D01*
X169150029Y-59836253D01*
X169096244Y-59878630D01*
X169031706Y-59929753D01*
X168958118Y-59988259D01*
X168877178Y-60052786D01*
X168790588Y-60121969D01*
X168700048Y-60194447D01*
X168607260Y-60268854D01*
X168532902Y-60328583D01*
X168532902Y-61339589D01*
X168545859Y-61345498D01*
X168568108Y-61359828D01*
X168569591Y-61360875D01*
X168599744Y-61379662D01*
X168636575Y-61399309D01*
X168644711Y-61403208D01*
X168653140Y-61406744D01*
X168663259Y-61409870D01*
X168676460Y-61412614D01*
X168694138Y-61415008D01*
X168717684Y-61417081D01*
X168748493Y-61418865D01*
X168787957Y-61420388D01*
X168837469Y-61421681D01*
X168898423Y-61422774D01*
X168972211Y-61423697D01*
X169060228Y-61424481D01*
X169163865Y-61425155D01*
X169284516Y-61425750D01*
X169423574Y-61426295D01*
X169582432Y-61426821D01*
X169761289Y-61427355D01*
X169946407Y-61427894D01*
X170110345Y-61428328D01*
X170254503Y-61428591D01*
X170380279Y-61428616D01*
X170489071Y-61428335D01*
X170582277Y-61427681D01*
X170661297Y-61426586D01*
X170727528Y-61424982D01*
X170782370Y-61422803D01*
X170827221Y-61419981D01*
X170863478Y-61416449D01*
X170892541Y-61412139D01*
X170915809Y-61406983D01*
X170934679Y-61400915D01*
X170950551Y-61393867D01*
X170964822Y-61385771D01*
X170978891Y-61376560D01*
X170991358Y-61368060D01*
X171017652Y-61350924D01*
X171035237Y-61340778D01*
X171038457Y-61339589D01*
X171039534Y-61350496D01*
X171040535Y-61381689D01*
X171041435Y-61430877D01*
X171042210Y-61495767D01*
X171042837Y-61574070D01*
X171043291Y-61663493D01*
X171043549Y-61761744D01*
X171043600Y-61830655D01*
X171043380Y-61935648D01*
X171042748Y-62032490D01*
X171041749Y-62118993D01*
X171040427Y-62192968D01*
X171038826Y-62252226D01*
X171036991Y-62294580D01*
X171034965Y-62317840D01*
X171033693Y-62321722D01*
X171018791Y-62314024D01*
X171010760Y-62306026D01*
X170993634Y-62292854D01*
X170963383Y-62275615D01*
X170938822Y-62263693D01*
X170879911Y-62237055D01*
X169703045Y-62233980D01*
X168526178Y-62230905D01*
X168526178Y-61785247D01*
X168526342Y-61687430D01*
X168526811Y-61597036D01*
X168527547Y-61516470D01*
X168528516Y-61448138D01*
X168529680Y-61394444D01*
X168531003Y-61357795D01*
X168532449Y-61340596D01*
X168532902Y-61339589D01*
X168532902Y-60328583D01*
X168513922Y-60343830D01*
X168421737Y-60418010D01*
X168332404Y-60490031D01*
X168247624Y-60558531D01*
X168169098Y-60622145D01*
X168098526Y-60679512D01*
X168037609Y-60729267D01*
X167988047Y-60770048D01*
X167967378Y-60787212D01*
X167866716Y-60873504D01*
X167783459Y-60950103D01*
X167715638Y-61018917D01*
X167661289Y-61081852D01*
X167653922Y-61091233D01*
X167623317Y-61130744D01*
X167623067Y-59998984D01*
X167671044Y-60004273D01*
X167728388Y-60000970D01*
X167796663Y-59979439D01*
X167876412Y-59939465D01*
X167948695Y-59894157D01*
X167971340Y-59877939D01*
X168008896Y-59849886D01*
X168059221Y-59811670D01*
X168120173Y-59764963D01*
X168189611Y-59711439D01*
X168265394Y-59652769D01*
X168345380Y-59590625D01*
X168427428Y-59526679D01*
X168509396Y-59462605D01*
X168589143Y-59400073D01*
X168664527Y-59340757D01*
X168733407Y-59286329D01*
X168793642Y-59238461D01*
X168843089Y-59198825D01*
X168879608Y-59169094D01*
X168901058Y-59150939D01*
X168904356Y-59147880D01*
X168896349Y-59145021D01*
X168866055Y-59142807D01*
X168813756Y-59141243D01*
X168739731Y-59140333D01*
X168644263Y-59140080D01*
X168527634Y-59140487D01*
X168407645Y-59141396D01*
X168275533Y-59142718D01*
X168163794Y-59144243D01*
X168070225Y-59146219D01*
X167992619Y-59148894D01*
X167928774Y-59152518D01*
X167876483Y-59157339D01*
X167833544Y-59163606D01*
X167797751Y-59171568D01*
X167766900Y-59181473D01*
X167738786Y-59193569D01*
X167711205Y-59208107D01*
X167686166Y-59222789D01*
X167623067Y-59260786D01*
X167623067Y-58200903D01*
X167623067Y-57898066D01*
X167616817Y-57898099D01*
X167514744Y-57898905D01*
X167425833Y-57899930D01*
X167349141Y-57901200D01*
X167283727Y-57902740D01*
X167228649Y-57904576D01*
X167182965Y-57906733D01*
X167145734Y-57909237D01*
X167116013Y-57912113D01*
X167092862Y-57915387D01*
X167075339Y-57919085D01*
X167062501Y-57923231D01*
X167053408Y-57927853D01*
X167047118Y-57932974D01*
X167042688Y-57938622D01*
X167039178Y-57944821D01*
X167035645Y-57951596D01*
X167032076Y-57957592D01*
X167029500Y-57962825D01*
X167027172Y-57971001D01*
X167025078Y-57983214D01*
X167023207Y-58000559D01*
X167021547Y-58024131D01*
X167020084Y-58055023D01*
X167018808Y-58094332D01*
X167017704Y-58143150D01*
X167016761Y-58202573D01*
X167015967Y-58273696D01*
X167015309Y-58357612D01*
X167014775Y-58455417D01*
X167014353Y-58568206D01*
X167014029Y-58697071D01*
X167013792Y-58843109D01*
X167013630Y-59007414D01*
X167013530Y-59191080D01*
X167013480Y-59395203D01*
X167013467Y-59606347D01*
X167013467Y-61226700D01*
X167110254Y-61226700D01*
X167110254Y-61226700D01*
G37*
X167110254Y-61226700D02*
X167224193Y-61237565D01*
X167331816Y-61269182D01*
X167430815Y-61320085D01*
X167518884Y-61388807D01*
X167593716Y-61473881D01*
X167651584Y-61570868D01*
X167691205Y-61677136D01*
X167709773Y-61784150D01*
X167708634Y-61889800D01*
X167689130Y-61991975D01*
X167652606Y-62088566D01*
X167600405Y-62177462D01*
X167533873Y-62256554D01*
X167454352Y-62323731D01*
X167363187Y-62376883D01*
X167261723Y-62413901D01*
X167151302Y-62432673D01*
X167101406Y-62434611D01*
X167013467Y-62434611D01*
X167013467Y-62486540D01*
X167016311Y-62522847D01*
X167028111Y-62549745D01*
X167051849Y-62576851D01*
X167090231Y-62615233D01*
X169281802Y-62615233D01*
X169543939Y-62615224D01*
X169784441Y-62615192D01*
X170004248Y-62615128D01*
X170204301Y-62615024D01*
X170385544Y-62614873D01*
X170548916Y-62614666D01*
X170695360Y-62614394D01*
X170825817Y-62614050D01*
X170941229Y-62613626D01*
X171042538Y-62613113D01*
X171130684Y-62612503D01*
X171206610Y-62611788D01*
X171271257Y-62610960D01*
X171325567Y-62610011D01*
X171370480Y-62608933D01*
X171406940Y-62607717D01*
X171435887Y-62606355D01*
X171458263Y-62604839D01*
X171475009Y-62603162D01*
X171487068Y-62601314D01*
X171495380Y-62599287D01*
X171500887Y-62597075D01*
X171502737Y-62595992D01*
X171509749Y-62591829D01*
X171516196Y-62588295D01*
X171522100Y-62584465D01*
X171527486Y-62579418D01*
X171532378Y-62572229D01*
X171536798Y-62561977D01*
X171540772Y-62547736D01*
X171544321Y-62528586D01*
X171547470Y-62503601D01*
X171550242Y-62471860D01*
X171552661Y-62432438D01*
X171554751Y-62384414D01*
X171556535Y-62326863D01*
X171558037Y-62258863D01*
X171559280Y-62179490D01*
X171560289Y-62087821D01*
X171561085Y-61982934D01*
X171561694Y-61863904D01*
X171562139Y-61729810D01*
X171562443Y-61579727D01*
X171562630Y-61412733D01*
X171562724Y-61227904D01*
X171562748Y-61024317D01*
X171562725Y-60801050D01*
X171562680Y-60557178D01*
X171562637Y-60291779D01*
X171562632Y-60253396D01*
X171562589Y-59986418D01*
X171562518Y-59741098D01*
X171562413Y-59516517D01*
X171562266Y-59311755D01*
X171562069Y-59125894D01*
X171561816Y-58958012D01*
X171561500Y-58807192D01*
X171561113Y-58672513D01*
X171560647Y-58553056D01*
X171560097Y-58447901D01*
X171559453Y-58356129D01*
X171558711Y-58276821D01*
X171557861Y-58209057D01*
X171556897Y-58151918D01*
X171555811Y-58104483D01*
X171554597Y-58065834D01*
X171553247Y-58035051D01*
X171551755Y-58011215D01*
X171550111Y-57993406D01*
X171548311Y-57980705D01*
X171546345Y-57972192D01*
X171544677Y-57967834D01*
X171541106Y-57959372D01*
X171538470Y-57951603D01*
X171535834Y-57944498D01*
X171532262Y-57938027D01*
X171526821Y-57932161D01*
X171518575Y-57926871D01*
X171506590Y-57922126D01*
X171489931Y-57917898D01*
X171467663Y-57914157D01*
X171438852Y-57910873D01*
X171402563Y-57908017D01*
X171357861Y-57905560D01*
X171303811Y-57903471D01*
X171239479Y-57901722D01*
X171163930Y-57900283D01*
X171076230Y-57899124D01*
X170975443Y-57898217D01*
X170860634Y-57897531D01*
X170730870Y-57897037D01*
X170585215Y-57896705D01*
X170422735Y-57896507D01*
X170242495Y-57896413D01*
X170043560Y-57896392D01*
X169824996Y-57896415D01*
X169585868Y-57896454D01*
X169325240Y-57896478D01*
X169283089Y-57896478D01*
X169020192Y-57896464D01*
X168778932Y-57896439D01*
X168558365Y-57896429D01*
X168357552Y-57896458D01*
X168175549Y-57896552D01*
X168011416Y-57896738D01*
X167864211Y-57897041D01*
X167732992Y-57897486D01*
X167623067Y-57898066D01*
X167623067Y-58200903D01*
X167680911Y-58240693D01*
X167696679Y-58251864D01*
X167710641Y-58261934D01*
X167723984Y-58270962D01*
X167737893Y-58279003D01*
X167753556Y-58286114D01*
X167772158Y-58292353D01*
X167794886Y-58297775D01*
X167822927Y-58302438D01*
X167857467Y-58306399D01*
X167899692Y-58309715D01*
X167950789Y-58312441D01*
X168011944Y-58314636D01*
X168084344Y-58316355D01*
X168169175Y-58317656D01*
X168267622Y-58318595D01*
X168380874Y-58319230D01*
X168510116Y-58319616D01*
X168656534Y-58319812D01*
X168821316Y-58319873D01*
X169005647Y-58319857D01*
X169210713Y-58319820D01*
X169333333Y-58319811D01*
X169550282Y-58319835D01*
X169745842Y-58319869D01*
X169921199Y-58319857D01*
X170077541Y-58319742D01*
X170216057Y-58319470D01*
X170337934Y-58318982D01*
X170444360Y-58318224D01*
X170536522Y-58317138D01*
X170615609Y-58315669D01*
X170682808Y-58313760D01*
X170739307Y-58311356D01*
X170786293Y-58308399D01*
X170824955Y-58304834D01*
X170856480Y-58300605D01*
X170882055Y-58295654D01*
X170902870Y-58289927D01*
X170920111Y-58283367D01*
X170934965Y-58275917D01*
X170948622Y-58267521D01*
X170962269Y-58258124D01*
X170977093Y-58247668D01*
X170985983Y-58241577D01*
X171043600Y-58202804D01*
X171043600Y-58734368D01*
X171043565Y-58857617D01*
X171043415Y-58960113D01*
X171043078Y-59043680D01*
X171042486Y-59110144D01*
X171041567Y-59161329D01*
X171040251Y-59199059D01*
X171038469Y-59225160D01*
X171036151Y-59241456D01*
X171033226Y-59249772D01*
X171029624Y-59251932D01*
X171025275Y-59249761D01*
X171023845Y-59248565D01*
X170986773Y-59223415D01*
X170933972Y-59197517D01*
X170871970Y-59173908D01*
X170845557Y-59165639D01*
X170827616Y-59161022D01*
X170806555Y-59157121D01*
X170780289Y-59153852D01*
X170746732Y-59151134D01*
X170703799Y-59148885D01*
X170649404Y-59147023D01*
X170581462Y-59145464D01*
X170497888Y-59144128D01*
X170396595Y-59142931D01*
X170275500Y-59141792D01*
X170230800Y-59141415D01*
X170105649Y-59140398D01*
X170001282Y-59139640D01*
X169915907Y-59139197D01*
X169847733Y-59139130D01*
X169794965Y-59139495D01*
X169755814Y-59140352D01*
X169728485Y-59141759D01*
X169711186Y-59143775D01*
X169702126Y-59146457D01*
X169699512Y-59149864D01*
X169701551Y-59154056D01*
X169705867Y-59158529D01*
X169718802Y-59168884D01*
X169747876Y-59190942D01*
X169790959Y-59223143D01*
X169845918Y-59263926D01*
X169910623Y-59311730D01*
X169982942Y-59364995D01*
X170060744Y-59422160D01*
X170141898Y-59481663D01*
X170224272Y-59541945D01*
X170305736Y-59601445D01*
X170384157Y-59658602D01*
X170457404Y-59711855D01*
X170523347Y-59759643D01*
X170579854Y-59800407D01*
X170624793Y-59832584D01*
X170656034Y-59854615D01*
X170662666Y-59859183D01*
X170699569Y-59882104D01*
X170747559Y-59908912D01*
X170797097Y-59934311D01*
X170803777Y-59937532D01*
X170851972Y-59959210D01*
X170889534Y-59971796D01*
X170925360Y-59977526D01*
X170967400Y-59978644D01*
X171043600Y-59978010D01*
X171043600Y-61132449D01*
X170949869Y-61041285D01*
X170899975Y-60994488D01*
X170843495Y-60944201D01*
X170789226Y-60898156D01*
X170763873Y-60877731D01*
X170724328Y-60847293D01*
X170671116Y-60807238D01*
X170605867Y-60758739D01*
X170530211Y-60702965D01*
X170445777Y-60641089D01*
X170354194Y-60574281D01*
X170257092Y-60503713D01*
X170156101Y-60430555D01*
X170052850Y-60355979D01*
X169948968Y-60281156D01*
X169846085Y-60207257D01*
X169745831Y-60135454D01*
X169649836Y-60066916D01*
X169559727Y-60002816D01*
X169477136Y-59944325D01*
X169403692Y-59892614D01*
X169341024Y-59848853D01*
X169290761Y-59814215D01*
X169254534Y-59789870D01*
X169233971Y-59776989D01*
X169229868Y-59775231D01*
X169218542Y-59783190D01*
X169191362Y-59803985D01*
X169150029Y-59836253D01*
X169096244Y-59878630D01*
X169031706Y-59929753D01*
X168958118Y-59988259D01*
X168877178Y-60052786D01*
X168790588Y-60121969D01*
X168700048Y-60194447D01*
X168607260Y-60268854D01*
X168532902Y-60328583D01*
X168532902Y-61339589D01*
X168545859Y-61345498D01*
X168568108Y-61359828D01*
X168569591Y-61360875D01*
X168599744Y-61379662D01*
X168636575Y-61399309D01*
X168644711Y-61403208D01*
X168653140Y-61406744D01*
X168663259Y-61409870D01*
X168676460Y-61412614D01*
X168694138Y-61415008D01*
X168717684Y-61417081D01*
X168748493Y-61418865D01*
X168787957Y-61420388D01*
X168837469Y-61421681D01*
X168898423Y-61422774D01*
X168972211Y-61423697D01*
X169060228Y-61424481D01*
X169163865Y-61425155D01*
X169284516Y-61425750D01*
X169423574Y-61426295D01*
X169582432Y-61426821D01*
X169761289Y-61427355D01*
X169946407Y-61427894D01*
X170110345Y-61428328D01*
X170254503Y-61428591D01*
X170380279Y-61428616D01*
X170489071Y-61428335D01*
X170582277Y-61427681D01*
X170661297Y-61426586D01*
X170727528Y-61424982D01*
X170782370Y-61422803D01*
X170827221Y-61419981D01*
X170863478Y-61416449D01*
X170892541Y-61412139D01*
X170915809Y-61406983D01*
X170934679Y-61400915D01*
X170950551Y-61393867D01*
X170964822Y-61385771D01*
X170978891Y-61376560D01*
X170991358Y-61368060D01*
X171017652Y-61350924D01*
X171035237Y-61340778D01*
X171038457Y-61339589D01*
X171039534Y-61350496D01*
X171040535Y-61381689D01*
X171041435Y-61430877D01*
X171042210Y-61495767D01*
X171042837Y-61574070D01*
X171043291Y-61663493D01*
X171043549Y-61761744D01*
X171043600Y-61830655D01*
X171043380Y-61935648D01*
X171042748Y-62032490D01*
X171041749Y-62118993D01*
X171040427Y-62192968D01*
X171038826Y-62252226D01*
X171036991Y-62294580D01*
X171034965Y-62317840D01*
X171033693Y-62321722D01*
X171018791Y-62314024D01*
X171010760Y-62306026D01*
X170993634Y-62292854D01*
X170963383Y-62275615D01*
X170938822Y-62263693D01*
X170879911Y-62237055D01*
X169703045Y-62233980D01*
X168526178Y-62230905D01*
X168526178Y-61785247D01*
X168526342Y-61687430D01*
X168526811Y-61597036D01*
X168527547Y-61516470D01*
X168528516Y-61448138D01*
X168529680Y-61394444D01*
X168531003Y-61357795D01*
X168532449Y-61340596D01*
X168532902Y-61339589D01*
X168532902Y-60328583D01*
X168513922Y-60343830D01*
X168421737Y-60418010D01*
X168332404Y-60490031D01*
X168247624Y-60558531D01*
X168169098Y-60622145D01*
X168098526Y-60679512D01*
X168037609Y-60729267D01*
X167988047Y-60770048D01*
X167967378Y-60787212D01*
X167866716Y-60873504D01*
X167783459Y-60950103D01*
X167715638Y-61018917D01*
X167661289Y-61081852D01*
X167653922Y-61091233D01*
X167623317Y-61130744D01*
X167623067Y-59998984D01*
X167671044Y-60004273D01*
X167728388Y-60000970D01*
X167796663Y-59979439D01*
X167876412Y-59939465D01*
X167948695Y-59894157D01*
X167971340Y-59877939D01*
X168008896Y-59849886D01*
X168059221Y-59811670D01*
X168120173Y-59764963D01*
X168189611Y-59711439D01*
X168265394Y-59652769D01*
X168345380Y-59590625D01*
X168427428Y-59526679D01*
X168509396Y-59462605D01*
X168589143Y-59400073D01*
X168664527Y-59340757D01*
X168733407Y-59286329D01*
X168793642Y-59238461D01*
X168843089Y-59198825D01*
X168879608Y-59169094D01*
X168901058Y-59150939D01*
X168904356Y-59147880D01*
X168896349Y-59145021D01*
X168866055Y-59142807D01*
X168813756Y-59141243D01*
X168739731Y-59140333D01*
X168644263Y-59140080D01*
X168527634Y-59140487D01*
X168407645Y-59141396D01*
X168275533Y-59142718D01*
X168163794Y-59144243D01*
X168070225Y-59146219D01*
X167992619Y-59148894D01*
X167928774Y-59152518D01*
X167876483Y-59157339D01*
X167833544Y-59163606D01*
X167797751Y-59171568D01*
X167766900Y-59181473D01*
X167738786Y-59193569D01*
X167711205Y-59208107D01*
X167686166Y-59222789D01*
X167623067Y-59260786D01*
X167623067Y-58200903D01*
X167623067Y-57898066D01*
X167616817Y-57898099D01*
X167514744Y-57898905D01*
X167425833Y-57899930D01*
X167349141Y-57901200D01*
X167283727Y-57902740D01*
X167228649Y-57904576D01*
X167182965Y-57906733D01*
X167145734Y-57909237D01*
X167116013Y-57912113D01*
X167092862Y-57915387D01*
X167075339Y-57919085D01*
X167062501Y-57923231D01*
X167053408Y-57927853D01*
X167047118Y-57932974D01*
X167042688Y-57938622D01*
X167039178Y-57944821D01*
X167035645Y-57951596D01*
X167032076Y-57957592D01*
X167029500Y-57962825D01*
X167027172Y-57971001D01*
X167025078Y-57983214D01*
X167023207Y-58000559D01*
X167021547Y-58024131D01*
X167020084Y-58055023D01*
X167018808Y-58094332D01*
X167017704Y-58143150D01*
X167016761Y-58202573D01*
X167015967Y-58273696D01*
X167015309Y-58357612D01*
X167014775Y-58455417D01*
X167014353Y-58568206D01*
X167014029Y-58697071D01*
X167013792Y-58843109D01*
X167013630Y-59007414D01*
X167013530Y-59191080D01*
X167013480Y-59395203D01*
X167013467Y-59606347D01*
X167013467Y-61226700D01*
X167110254Y-61226700D01*
G36*
X167570271Y-64501529D02*
X167591445Y-64661670D01*
X167631585Y-64825610D01*
X167691089Y-64995413D01*
X167770354Y-65173143D01*
X167775899Y-65184410D01*
X167803925Y-65242105D01*
X167828002Y-65293652D01*
X167846449Y-65335291D01*
X167857586Y-65363262D01*
X167860133Y-65372833D01*
X167865141Y-65392050D01*
X167869347Y-65396661D01*
X167879780Y-65391558D01*
X167906068Y-65375518D01*
X167945457Y-65350388D01*
X167995191Y-65318014D01*
X168052515Y-65280243D01*
X168114676Y-65238922D01*
X168178918Y-65195898D01*
X168242485Y-65153017D01*
X168302625Y-65112126D01*
X168356580Y-65075071D01*
X168401597Y-65043700D01*
X168434921Y-65019859D01*
X168453797Y-65005394D01*
X168455987Y-65003409D01*
X168451338Y-64993291D01*
X168434162Y-64970950D01*
X168407640Y-64940380D01*
X168393164Y-64924636D01*
X168317882Y-64828147D01*
X168262441Y-64721436D01*
X168227341Y-64605932D01*
X168213080Y-64483062D01*
X168214251Y-64413661D01*
X168231412Y-64292523D01*
X168267294Y-64183305D01*
X168322159Y-64085682D01*
X168396270Y-63999328D01*
X168489888Y-63923915D01*
X168603276Y-63859118D01*
X168689867Y-63821701D01*
X168825566Y-63777848D01*
X168973050Y-63745528D01*
X169128514Y-63724657D01*
X169288156Y-63715151D01*
X169448173Y-63716927D01*
X169604761Y-63729903D01*
X169754118Y-63753994D01*
X169892440Y-63789118D01*
X170015924Y-63835192D01*
X170050178Y-63851473D01*
X170164264Y-63919720D01*
X170260757Y-64000179D01*
X170338870Y-64091670D01*
X170397817Y-64193011D01*
X170436812Y-64303020D01*
X170455068Y-64420515D01*
X170456411Y-64461983D01*
X170445490Y-64583541D01*
X170412674Y-64703978D01*
X170358639Y-64821766D01*
X170284065Y-64935377D01*
X170205739Y-65026785D01*
X170161208Y-65073315D01*
X170458471Y-65254583D01*
X170532633Y-65299680D01*
X170600846Y-65340919D01*
X170660659Y-65376835D01*
X170709620Y-65405966D01*
X170745279Y-65426850D01*
X170765184Y-65438024D01*
X170768279Y-65439475D01*
X170777918Y-65431246D01*
X170795199Y-65405667D01*
X170818483Y-65365973D01*
X170846134Y-65315397D01*
X170876515Y-65257174D01*
X170907990Y-65194537D01*
X170938922Y-65130721D01*
X170967673Y-65068960D01*
X170992608Y-65012488D01*
X171012089Y-64964538D01*
X171020518Y-64941086D01*
X171058333Y-64807321D01*
X171083336Y-64669427D01*
X171096340Y-64521722D01*
X171098668Y-64394933D01*
X171097573Y-64326978D01*
X171095475Y-64261377D01*
X171092634Y-64203947D01*
X171089306Y-64160503D01*
X171087622Y-64146398D01*
X171058787Y-64007384D01*
X171013668Y-63865857D01*
X170954950Y-63728375D01*
X170885320Y-63601494D01*
X170832641Y-63523989D01*
X170724439Y-63396581D01*
X170597871Y-63278278D01*
X170456066Y-63171272D01*
X170302151Y-63077752D01*
X170139253Y-62999910D01*
X170021956Y-62956056D01*
X169838328Y-62905808D01*
X169643781Y-62872309D01*
X169442525Y-62855549D01*
X169238768Y-62855516D01*
X169036721Y-62872201D01*
X168840592Y-62905593D01*
X168654591Y-62955680D01*
X168643003Y-62959497D01*
X168480950Y-63022381D01*
X168333032Y-63099128D01*
X168195065Y-63192342D01*
X168062861Y-63304627D01*
X168017599Y-63348492D01*
X167893657Y-63484634D01*
X167791115Y-63624591D01*
X167708856Y-63770511D01*
X167645764Y-63924542D01*
X167600723Y-64088832D01*
X167583233Y-64184389D01*
X167567666Y-64343123D01*
X167570271Y-64501529D01*
X167570271Y-64501529D01*
G37*
X167570271Y-64501529D02*
X167591445Y-64661670D01*
X167631585Y-64825610D01*
X167691089Y-64995413D01*
X167770354Y-65173143D01*
X167775899Y-65184410D01*
X167803925Y-65242105D01*
X167828002Y-65293652D01*
X167846449Y-65335291D01*
X167857586Y-65363262D01*
X167860133Y-65372833D01*
X167865141Y-65392050D01*
X167869347Y-65396661D01*
X167879780Y-65391558D01*
X167906068Y-65375518D01*
X167945457Y-65350388D01*
X167995191Y-65318014D01*
X168052515Y-65280243D01*
X168114676Y-65238922D01*
X168178918Y-65195898D01*
X168242485Y-65153017D01*
X168302625Y-65112126D01*
X168356580Y-65075071D01*
X168401597Y-65043700D01*
X168434921Y-65019859D01*
X168453797Y-65005394D01*
X168455987Y-65003409D01*
X168451338Y-64993291D01*
X168434162Y-64970950D01*
X168407640Y-64940380D01*
X168393164Y-64924636D01*
X168317882Y-64828147D01*
X168262441Y-64721436D01*
X168227341Y-64605932D01*
X168213080Y-64483062D01*
X168214251Y-64413661D01*
X168231412Y-64292523D01*
X168267294Y-64183305D01*
X168322159Y-64085682D01*
X168396270Y-63999328D01*
X168489888Y-63923915D01*
X168603276Y-63859118D01*
X168689867Y-63821701D01*
X168825566Y-63777848D01*
X168973050Y-63745528D01*
X169128514Y-63724657D01*
X169288156Y-63715151D01*
X169448173Y-63716927D01*
X169604761Y-63729903D01*
X169754118Y-63753994D01*
X169892440Y-63789118D01*
X170015924Y-63835192D01*
X170050178Y-63851473D01*
X170164264Y-63919720D01*
X170260757Y-64000179D01*
X170338870Y-64091670D01*
X170397817Y-64193011D01*
X170436812Y-64303020D01*
X170455068Y-64420515D01*
X170456411Y-64461983D01*
X170445490Y-64583541D01*
X170412674Y-64703978D01*
X170358639Y-64821766D01*
X170284065Y-64935377D01*
X170205739Y-65026785D01*
X170161208Y-65073315D01*
X170458471Y-65254583D01*
X170532633Y-65299680D01*
X170600846Y-65340919D01*
X170660659Y-65376835D01*
X170709620Y-65405966D01*
X170745279Y-65426850D01*
X170765184Y-65438024D01*
X170768279Y-65439475D01*
X170777918Y-65431246D01*
X170795199Y-65405667D01*
X170818483Y-65365973D01*
X170846134Y-65315397D01*
X170876515Y-65257174D01*
X170907990Y-65194537D01*
X170938922Y-65130721D01*
X170967673Y-65068960D01*
X170992608Y-65012488D01*
X171012089Y-64964538D01*
X171020518Y-64941086D01*
X171058333Y-64807321D01*
X171083336Y-64669427D01*
X171096340Y-64521722D01*
X171098668Y-64394933D01*
X171097573Y-64326978D01*
X171095475Y-64261377D01*
X171092634Y-64203947D01*
X171089306Y-64160503D01*
X171087622Y-64146398D01*
X171058787Y-64007384D01*
X171013668Y-63865857D01*
X170954950Y-63728375D01*
X170885320Y-63601494D01*
X170832641Y-63523989D01*
X170724439Y-63396581D01*
X170597871Y-63278278D01*
X170456066Y-63171272D01*
X170302151Y-63077752D01*
X170139253Y-62999910D01*
X170021956Y-62956056D01*
X169838328Y-62905808D01*
X169643781Y-62872309D01*
X169442525Y-62855549D01*
X169238768Y-62855516D01*
X169036721Y-62872201D01*
X168840592Y-62905593D01*
X168654591Y-62955680D01*
X168643003Y-62959497D01*
X168480950Y-63022381D01*
X168333032Y-63099128D01*
X168195065Y-63192342D01*
X168062861Y-63304627D01*
X168017599Y-63348492D01*
X167893657Y-63484634D01*
X167791115Y-63624591D01*
X167708856Y-63770511D01*
X167645764Y-63924542D01*
X167600723Y-64088832D01*
X167583233Y-64184389D01*
X167567666Y-64343123D01*
X167570271Y-64501529D01*
G36*
X168487752Y-66846674D02*
X168507767Y-66998592D01*
X168541402Y-67133856D01*
X168588925Y-67253339D01*
X168650605Y-67357915D01*
X168714165Y-67435524D01*
X168788299Y-67504365D01*
X168868071Y-67558106D01*
X168960291Y-67601010D01*
X169003361Y-67616484D01*
X169042342Y-67629344D01*
X169078489Y-67640546D01*
X169113634Y-67650220D01*
X169149610Y-67658496D01*
X169188250Y-67665503D01*
X169231385Y-67671372D01*
X169280849Y-67676231D01*
X169338473Y-67680210D01*
X169406091Y-67683440D01*
X169485534Y-67686049D01*
X169578636Y-67688167D01*
X169687227Y-67689924D01*
X169813142Y-67691449D01*
X169958212Y-67692872D01*
X170100978Y-67694125D01*
X170257168Y-67695451D01*
X170392439Y-67696656D01*
X170508446Y-67697866D01*
X170606845Y-67699206D01*
X170689293Y-67700800D01*
X170757446Y-67702775D01*
X170812960Y-67705256D01*
X170857492Y-67708369D01*
X170892698Y-67712238D01*
X170920234Y-67716989D01*
X170941756Y-67722748D01*
X170958922Y-67729639D01*
X170973386Y-67737789D01*
X170986806Y-67747323D01*
X171000838Y-67758366D01*
X171006271Y-67762666D01*
X171029110Y-67778486D01*
X171044663Y-67785522D01*
X171045122Y-67785544D01*
X171047321Y-67774667D01*
X171049347Y-67743682D01*
X171051142Y-67695057D01*
X171052651Y-67631263D01*
X171053816Y-67554769D01*
X171054580Y-67468044D01*
X171054886Y-67373557D01*
X171054889Y-67362650D01*
X171054889Y-66939757D01*
X170958822Y-66936495D01*
X170862756Y-66933233D01*
X170913743Y-66871144D01*
X170981257Y-66773814D01*
X171035949Y-66663913D01*
X171066178Y-66577449D01*
X171080866Y-66508378D01*
X171090859Y-66425025D01*
X171095846Y-66335259D01*
X171095513Y-66246945D01*
X171089551Y-66167951D01*
X171083838Y-66131722D01*
X171045976Y-65991703D01*
X170991132Y-65865278D01*
X170920124Y-65753360D01*
X170833768Y-65656862D01*
X170732879Y-65576700D01*
X170618276Y-65513787D01*
X170492184Y-65469412D01*
X170435601Y-65457078D01*
X170373402Y-65449468D01*
X170298563Y-65445839D01*
X170264667Y-65445345D01*
X170261482Y-65445410D01*
X170261482Y-66205348D01*
X170336533Y-66214641D01*
X170400360Y-66242828D01*
X170455998Y-66291297D01*
X170460411Y-66296354D01*
X170495237Y-66344648D01*
X170517820Y-66396357D01*
X170529740Y-66457089D01*
X170532583Y-66532452D01*
X170532178Y-66550559D01*
X170529525Y-66604378D01*
X170524109Y-66644408D01*
X170513945Y-66679424D01*
X170497050Y-66718203D01*
X170491872Y-66728845D01*
X170456044Y-66789496D01*
X170413412Y-66836315D01*
X170398173Y-66849052D01*
X170341662Y-66893722D01*
X170145786Y-66893722D01*
X170067139Y-66893186D01*
X170009188Y-66891496D01*
X169970075Y-66888528D01*
X169947941Y-66884157D01*
X169941474Y-66880072D01*
X169938311Y-66864147D01*
X169935688Y-66830364D01*
X169933855Y-66783440D01*
X169933057Y-66728093D01*
X169933042Y-66719206D01*
X169938296Y-66598430D01*
X169954463Y-66495760D01*
X169982161Y-66409206D01*
X170022008Y-66336781D01*
X170068958Y-66281851D01*
X170126845Y-66237304D01*
X170189893Y-66212580D01*
X170261482Y-66205348D01*
X170261482Y-65445410D01*
X170170912Y-65447278D01*
X170092012Y-65455622D01*
X170020790Y-65471868D01*
X169950064Y-65497505D01*
X169897693Y-65521501D01*
X169802396Y-65580120D01*
X169714370Y-65658217D01*
X169635217Y-65753415D01*
X169566540Y-65863338D01*
X169509941Y-65985610D01*
X169467021Y-66117855D01*
X169452082Y-66182522D01*
X169429977Y-66318704D01*
X169415394Y-66467149D01*
X169409013Y-66618605D01*
X169410645Y-66745164D01*
X169417424Y-66907050D01*
X169358445Y-66899630D01*
X169259292Y-66880338D01*
X169178572Y-66849204D01*
X169115666Y-66805369D01*
X169069956Y-66747971D01*
X169040822Y-66676148D01*
X169027647Y-66589041D01*
X169029811Y-66485786D01*
X169033812Y-66447811D01*
X169058980Y-66306620D01*
X169100014Y-66169807D01*
X169138015Y-66075278D01*
X169157390Y-66030118D01*
X169172960Y-65991685D01*
X169182605Y-65965334D01*
X169184652Y-65957646D01*
X169175574Y-65947902D01*
X169146605Y-65931183D01*
X169097417Y-65907332D01*
X169027684Y-65876193D01*
X168937079Y-65837607D01*
X168921289Y-65831010D01*
X168848972Y-65800953D01*
X168783625Y-65773974D01*
X168728106Y-65751236D01*
X168685272Y-65733906D01*
X168657981Y-65723148D01*
X168649142Y-65720041D01*
X168644387Y-65730040D01*
X168639110Y-65756317D01*
X168635431Y-65784589D01*
X168630674Y-65814746D01*
X168621228Y-65862533D01*
X168608020Y-65923712D01*
X168591976Y-65994046D01*
X168574020Y-66069294D01*
X168566997Y-66097855D01*
X168541409Y-66202916D01*
X168521347Y-66290580D01*
X168506169Y-66365168D01*
X168495235Y-66431003D01*
X168487904Y-66492407D01*
X168483535Y-66553702D01*
X168481487Y-66619210D01*
X168481089Y-66677228D01*
X168487752Y-66846674D01*
X168487752Y-66846674D01*
G37*
X168487752Y-66846674D02*
X168507767Y-66998592D01*
X168541402Y-67133856D01*
X168588925Y-67253339D01*
X168650605Y-67357915D01*
X168714165Y-67435524D01*
X168788299Y-67504365D01*
X168868071Y-67558106D01*
X168960291Y-67601010D01*
X169003361Y-67616484D01*
X169042342Y-67629344D01*
X169078489Y-67640546D01*
X169113634Y-67650220D01*
X169149610Y-67658496D01*
X169188250Y-67665503D01*
X169231385Y-67671372D01*
X169280849Y-67676231D01*
X169338473Y-67680210D01*
X169406091Y-67683440D01*
X169485534Y-67686049D01*
X169578636Y-67688167D01*
X169687227Y-67689924D01*
X169813142Y-67691449D01*
X169958212Y-67692872D01*
X170100978Y-67694125D01*
X170257168Y-67695451D01*
X170392439Y-67696656D01*
X170508446Y-67697866D01*
X170606845Y-67699206D01*
X170689293Y-67700800D01*
X170757446Y-67702775D01*
X170812960Y-67705256D01*
X170857492Y-67708369D01*
X170892698Y-67712238D01*
X170920234Y-67716989D01*
X170941756Y-67722748D01*
X170958922Y-67729639D01*
X170973386Y-67737789D01*
X170986806Y-67747323D01*
X171000838Y-67758366D01*
X171006271Y-67762666D01*
X171029110Y-67778486D01*
X171044663Y-67785522D01*
X171045122Y-67785544D01*
X171047321Y-67774667D01*
X171049347Y-67743682D01*
X171051142Y-67695057D01*
X171052651Y-67631263D01*
X171053816Y-67554769D01*
X171054580Y-67468044D01*
X171054886Y-67373557D01*
X171054889Y-67362650D01*
X171054889Y-66939757D01*
X170958822Y-66936495D01*
X170862756Y-66933233D01*
X170913743Y-66871144D01*
X170981257Y-66773814D01*
X171035949Y-66663913D01*
X171066178Y-66577449D01*
X171080866Y-66508378D01*
X171090859Y-66425025D01*
X171095846Y-66335259D01*
X171095513Y-66246945D01*
X171089551Y-66167951D01*
X171083838Y-66131722D01*
X171045976Y-65991703D01*
X170991132Y-65865278D01*
X170920124Y-65753360D01*
X170833768Y-65656862D01*
X170732879Y-65576700D01*
X170618276Y-65513787D01*
X170492184Y-65469412D01*
X170435601Y-65457078D01*
X170373402Y-65449468D01*
X170298563Y-65445839D01*
X170264667Y-65445345D01*
X170261482Y-65445410D01*
X170261482Y-66205348D01*
X170336533Y-66214641D01*
X170400360Y-66242828D01*
X170455998Y-66291297D01*
X170460411Y-66296354D01*
X170495237Y-66344648D01*
X170517820Y-66396357D01*
X170529740Y-66457089D01*
X170532583Y-66532452D01*
X170532178Y-66550559D01*
X170529525Y-66604378D01*
X170524109Y-66644408D01*
X170513945Y-66679424D01*
X170497050Y-66718203D01*
X170491872Y-66728845D01*
X170456044Y-66789496D01*
X170413412Y-66836315D01*
X170398173Y-66849052D01*
X170341662Y-66893722D01*
X170145786Y-66893722D01*
X170067139Y-66893186D01*
X170009188Y-66891496D01*
X169970075Y-66888528D01*
X169947941Y-66884157D01*
X169941474Y-66880072D01*
X169938311Y-66864147D01*
X169935688Y-66830364D01*
X169933855Y-66783440D01*
X169933057Y-66728093D01*
X169933042Y-66719206D01*
X169938296Y-66598430D01*
X169954463Y-66495760D01*
X169982161Y-66409206D01*
X170022008Y-66336781D01*
X170068958Y-66281851D01*
X170126845Y-66237304D01*
X170189893Y-66212580D01*
X170261482Y-66205348D01*
X170261482Y-65445410D01*
X170170912Y-65447278D01*
X170092012Y-65455622D01*
X170020790Y-65471868D01*
X169950064Y-65497505D01*
X169897693Y-65521501D01*
X169802396Y-65580120D01*
X169714370Y-65658217D01*
X169635217Y-65753415D01*
X169566540Y-65863338D01*
X169509941Y-65985610D01*
X169467021Y-66117855D01*
X169452082Y-66182522D01*
X169429977Y-66318704D01*
X169415394Y-66467149D01*
X169409013Y-66618605D01*
X169410645Y-66745164D01*
X169417424Y-66907050D01*
X169358445Y-66899630D01*
X169259292Y-66880338D01*
X169178572Y-66849204D01*
X169115666Y-66805369D01*
X169069956Y-66747971D01*
X169040822Y-66676148D01*
X169027647Y-66589041D01*
X169029811Y-66485786D01*
X169033812Y-66447811D01*
X169058980Y-66306620D01*
X169100014Y-66169807D01*
X169138015Y-66075278D01*
X169157390Y-66030118D01*
X169172960Y-65991685D01*
X169182605Y-65965334D01*
X169184652Y-65957646D01*
X169175574Y-65947902D01*
X169146605Y-65931183D01*
X169097417Y-65907332D01*
X169027684Y-65876193D01*
X168937079Y-65837607D01*
X168921289Y-65831010D01*
X168848972Y-65800953D01*
X168783625Y-65773974D01*
X168728106Y-65751236D01*
X168685272Y-65733906D01*
X168657981Y-65723148D01*
X168649142Y-65720041D01*
X168644387Y-65730040D01*
X168639110Y-65756317D01*
X168635431Y-65784589D01*
X168630674Y-65814746D01*
X168621228Y-65862533D01*
X168608020Y-65923712D01*
X168591976Y-65994046D01*
X168574020Y-66069294D01*
X168566997Y-66097855D01*
X168541409Y-66202916D01*
X168521347Y-66290580D01*
X168506169Y-66365168D01*
X168495235Y-66431003D01*
X168487904Y-66492407D01*
X168483535Y-66553702D01*
X168481487Y-66619210D01*
X168481089Y-66677228D01*
X168487752Y-66846674D01*
G36*
X169093445Y-70359607D02*
X169327862Y-70359626D01*
X169540803Y-70359652D01*
X169733368Y-70359725D01*
X169906659Y-70359882D01*
X170061776Y-70360164D01*
X170199820Y-70360609D01*
X170321892Y-70361256D01*
X170429094Y-70362145D01*
X170522526Y-70363313D01*
X170603290Y-70364801D01*
X170672486Y-70366646D01*
X170731215Y-70368889D01*
X170780579Y-70371569D01*
X170821678Y-70374723D01*
X170855613Y-70378392D01*
X170883486Y-70382613D01*
X170906398Y-70387427D01*
X170925449Y-70392873D01*
X170941740Y-70398988D01*
X170956373Y-70405812D01*
X170970449Y-70413385D01*
X170985068Y-70421745D01*
X170994174Y-70426939D01*
X171054889Y-70461204D01*
X171054889Y-69603055D01*
X170958933Y-69603055D01*
X170915570Y-69602324D01*
X170882405Y-69600372D01*
X170864624Y-69597563D01*
X170862978Y-69596321D01*
X170869862Y-69584899D01*
X170887705Y-69562184D01*
X170907079Y-69539485D01*
X170947814Y-69484900D01*
X170988817Y-69415421D01*
X171026323Y-69338370D01*
X171056564Y-69261065D01*
X171066212Y-69230213D01*
X171080778Y-69161716D01*
X171090739Y-69078864D01*
X171095783Y-68989471D01*
X171095596Y-68901348D01*
X171089866Y-68822307D01*
X171084058Y-68784611D01*
X171045997Y-68646514D01*
X170988273Y-68519213D01*
X170911411Y-68403392D01*
X170815939Y-68299737D01*
X170702379Y-68208933D01*
X170591581Y-68142131D01*
X170474825Y-68087264D01*
X170355476Y-68045263D01*
X170229483Y-68015267D01*
X170092794Y-67996411D01*
X169941358Y-67987832D01*
X169863911Y-67987106D01*
X169807134Y-67989200D01*
X169807134Y-68818317D01*
X169900202Y-68818524D01*
X169987892Y-68821437D01*
X170064972Y-68827100D01*
X170126209Y-68835555D01*
X170138550Y-68838138D01*
X170245833Y-68869940D01*
X170332858Y-68911598D01*
X170399842Y-68963463D01*
X170447005Y-69025881D01*
X170474565Y-69099200D01*
X170482741Y-69183769D01*
X170471751Y-69279935D01*
X170456029Y-69343411D01*
X170437839Y-69392554D01*
X170411991Y-69446683D01*
X170388289Y-69487344D01*
X170341921Y-69557900D01*
X169191730Y-69557900D01*
X169148162Y-69490492D01*
X169107240Y-69411967D01*
X169080589Y-69327781D01*
X169068665Y-69242657D01*
X169071922Y-69161316D01*
X169090815Y-69088480D01*
X169106384Y-69056526D01*
X169149381Y-68998601D01*
X169206153Y-68949644D01*
X169278775Y-68908490D01*
X169369321Y-68873974D01*
X169479866Y-68844933D01*
X169485733Y-68843652D01*
X169547988Y-68833481D01*
X169625794Y-68825839D01*
X169713920Y-68820770D01*
X169807134Y-68818317D01*
X169807134Y-67989200D01*
X169651095Y-67994957D01*
X169455259Y-68016902D01*
X169276532Y-68052886D01*
X169115045Y-68102859D01*
X168970926Y-68166768D01*
X168844306Y-68244562D01*
X168735315Y-68336189D01*
X168644083Y-68441597D01*
X168613132Y-68486762D01*
X168556985Y-68587711D01*
X168517374Y-68691001D01*
X168493214Y-68801089D01*
X168483419Y-68922430D01*
X168484465Y-69014936D01*
X168495431Y-69144590D01*
X168517246Y-69257184D01*
X168550914Y-69355975D01*
X168597436Y-69444221D01*
X168631648Y-69493086D01*
X168653562Y-69522453D01*
X168668533Y-69544143D01*
X168672933Y-69552353D01*
X168662104Y-69553968D01*
X168631451Y-69555259D01*
X168583726Y-69556238D01*
X168521679Y-69556917D01*
X168448062Y-69557310D01*
X168365627Y-69557430D01*
X168277125Y-69557288D01*
X168185307Y-69556897D01*
X168092924Y-69556271D01*
X168002728Y-69555420D01*
X167917471Y-69554360D01*
X167839903Y-69553101D01*
X167772776Y-69551656D01*
X167718841Y-69550038D01*
X167680850Y-69548261D01*
X167673867Y-69547769D01*
X167603451Y-69540192D01*
X167548302Y-69528631D01*
X167501181Y-69510892D01*
X167454847Y-69484782D01*
X167445267Y-69478515D01*
X167408578Y-69454083D01*
X167408578Y-70359411D01*
X169093445Y-70359607D01*
X169093445Y-70359607D01*
G37*
X169093445Y-70359607D02*
X169327862Y-70359626D01*
X169540803Y-70359652D01*
X169733368Y-70359725D01*
X169906659Y-70359882D01*
X170061776Y-70360164D01*
X170199820Y-70360609D01*
X170321892Y-70361256D01*
X170429094Y-70362145D01*
X170522526Y-70363313D01*
X170603290Y-70364801D01*
X170672486Y-70366646D01*
X170731215Y-70368889D01*
X170780579Y-70371569D01*
X170821678Y-70374723D01*
X170855613Y-70378392D01*
X170883486Y-70382613D01*
X170906398Y-70387427D01*
X170925449Y-70392873D01*
X170941740Y-70398988D01*
X170956373Y-70405812D01*
X170970449Y-70413385D01*
X170985068Y-70421745D01*
X170994174Y-70426939D01*
X171054889Y-70461204D01*
X171054889Y-69603055D01*
X170958933Y-69603055D01*
X170915570Y-69602324D01*
X170882405Y-69600372D01*
X170864624Y-69597563D01*
X170862978Y-69596321D01*
X170869862Y-69584899D01*
X170887705Y-69562184D01*
X170907079Y-69539485D01*
X170947814Y-69484900D01*
X170988817Y-69415421D01*
X171026323Y-69338370D01*
X171056564Y-69261065D01*
X171066212Y-69230213D01*
X171080778Y-69161716D01*
X171090739Y-69078864D01*
X171095783Y-68989471D01*
X171095596Y-68901348D01*
X171089866Y-68822307D01*
X171084058Y-68784611D01*
X171045997Y-68646514D01*
X170988273Y-68519213D01*
X170911411Y-68403392D01*
X170815939Y-68299737D01*
X170702379Y-68208933D01*
X170591581Y-68142131D01*
X170474825Y-68087264D01*
X170355476Y-68045263D01*
X170229483Y-68015267D01*
X170092794Y-67996411D01*
X169941358Y-67987832D01*
X169863911Y-67987106D01*
X169807134Y-67989200D01*
X169807134Y-68818317D01*
X169900202Y-68818524D01*
X169987892Y-68821437D01*
X170064972Y-68827100D01*
X170126209Y-68835555D01*
X170138550Y-68838138D01*
X170245833Y-68869940D01*
X170332858Y-68911598D01*
X170399842Y-68963463D01*
X170447005Y-69025881D01*
X170474565Y-69099200D01*
X170482741Y-69183769D01*
X170471751Y-69279935D01*
X170456029Y-69343411D01*
X170437839Y-69392554D01*
X170411991Y-69446683D01*
X170388289Y-69487344D01*
X170341921Y-69557900D01*
X169191730Y-69557900D01*
X169148162Y-69490492D01*
X169107240Y-69411967D01*
X169080589Y-69327781D01*
X169068665Y-69242657D01*
X169071922Y-69161316D01*
X169090815Y-69088480D01*
X169106384Y-69056526D01*
X169149381Y-68998601D01*
X169206153Y-68949644D01*
X169278775Y-68908490D01*
X169369321Y-68873974D01*
X169479866Y-68844933D01*
X169485733Y-68843652D01*
X169547988Y-68833481D01*
X169625794Y-68825839D01*
X169713920Y-68820770D01*
X169807134Y-68818317D01*
X169807134Y-67989200D01*
X169651095Y-67994957D01*
X169455259Y-68016902D01*
X169276532Y-68052886D01*
X169115045Y-68102859D01*
X168970926Y-68166768D01*
X168844306Y-68244562D01*
X168735315Y-68336189D01*
X168644083Y-68441597D01*
X168613132Y-68486762D01*
X168556985Y-68587711D01*
X168517374Y-68691001D01*
X168493214Y-68801089D01*
X168483419Y-68922430D01*
X168484465Y-69014936D01*
X168495431Y-69144590D01*
X168517246Y-69257184D01*
X168550914Y-69355975D01*
X168597436Y-69444221D01*
X168631648Y-69493086D01*
X168653562Y-69522453D01*
X168668533Y-69544143D01*
X168672933Y-69552353D01*
X168662104Y-69553968D01*
X168631451Y-69555259D01*
X168583726Y-69556238D01*
X168521679Y-69556917D01*
X168448062Y-69557310D01*
X168365627Y-69557430D01*
X168277125Y-69557288D01*
X168185307Y-69556897D01*
X168092924Y-69556271D01*
X168002728Y-69555420D01*
X167917471Y-69554360D01*
X167839903Y-69553101D01*
X167772776Y-69551656D01*
X167718841Y-69550038D01*
X167680850Y-69548261D01*
X167673867Y-69547769D01*
X167603451Y-69540192D01*
X167548302Y-69528631D01*
X167501181Y-69510892D01*
X167454847Y-69484782D01*
X167445267Y-69478515D01*
X167408578Y-69454083D01*
X167408578Y-70359411D01*
X169093445Y-70359607D01*
G36*
X166647771Y-61900057D02*
X166672009Y-61996332D01*
X166714841Y-62082916D01*
X166774619Y-62157727D01*
X166849694Y-62218682D01*
X166938420Y-62263701D01*
X167034730Y-62289964D01*
X167131995Y-62295814D01*
X167225854Y-62280960D01*
X167313711Y-62247260D01*
X167392970Y-62196572D01*
X167461036Y-62130755D01*
X167515312Y-62051666D01*
X167553202Y-61961166D01*
X167565626Y-61909900D01*
X167573147Y-61865402D01*
X167576119Y-61831101D01*
X167574294Y-61798140D01*
X167567425Y-61757666D01*
X167560450Y-61724569D01*
X167528941Y-61631153D01*
X167477817Y-61547481D01*
X167408629Y-61475435D01*
X167322928Y-61416900D01*
X167295689Y-61402952D01*
X167259322Y-61386514D01*
X167228782Y-61376206D01*
X167196650Y-61370640D01*
X167155507Y-61368431D01*
X167109422Y-61368152D01*
X167025065Y-61372239D01*
X166955786Y-61385654D01*
X166895161Y-61410844D01*
X166836767Y-61450254D01*
X166792502Y-61488802D01*
X166726684Y-61560694D01*
X166681253Y-61635787D01*
X166654050Y-61718538D01*
X166643776Y-61796172D01*
X166647771Y-61900057D01*
X166647771Y-61900057D01*
G37*
X166647771Y-61900057D02*
X166672009Y-61996332D01*
X166714841Y-62082916D01*
X166774619Y-62157727D01*
X166849694Y-62218682D01*
X166938420Y-62263701D01*
X167034730Y-62289964D01*
X167131995Y-62295814D01*
X167225854Y-62280960D01*
X167313711Y-62247260D01*
X167392970Y-62196572D01*
X167461036Y-62130755D01*
X167515312Y-62051666D01*
X167553202Y-61961166D01*
X167565626Y-61909900D01*
X167573147Y-61865402D01*
X167576119Y-61831101D01*
X167574294Y-61798140D01*
X167567425Y-61757666D01*
X167560450Y-61724569D01*
X167528941Y-61631153D01*
X167477817Y-61547481D01*
X167408629Y-61475435D01*
X167322928Y-61416900D01*
X167295689Y-61402952D01*
X167259322Y-61386514D01*
X167228782Y-61376206D01*
X167196650Y-61370640D01*
X167155507Y-61368431D01*
X167109422Y-61368152D01*
X167025065Y-61372239D01*
X166955786Y-61385654D01*
X166895161Y-61410844D01*
X166836767Y-61450254D01*
X166792502Y-61488802D01*
X166726684Y-61560694D01*
X166681253Y-61635787D01*
X166654050Y-61718538D01*
X166643776Y-61796172D01*
X166647771Y-61900057D01*
D13*
X129124529Y-63769723D02*
X129148719Y-63745533D01*
X129172910Y-63672961D01*
X129172910Y-63624580D01*
X129148719Y-63552009D01*
X129100338Y-63503628D01*
X129051957Y-63479437D01*
X128955195Y-63455247D01*
X128882624Y-63455247D01*
X128785862Y-63479437D01*
X128737481Y-63503628D01*
X128689100Y-63552009D01*
X128664910Y-63624580D01*
X128664910Y-63672961D01*
X128689100Y-63745533D01*
X128713290Y-63769723D01*
X129172910Y-64253533D02*
X129172910Y-63963247D01*
X129172910Y-64108390D02*
X128664910Y-64108390D01*
X128737481Y-64060009D01*
X128785862Y-64011628D01*
X128810052Y-63963247D01*
X128664910Y-64568009D02*
X128664910Y-64616390D01*
X128689100Y-64664771D01*
X128713290Y-64688962D01*
X128761671Y-64713152D01*
X128858433Y-64737343D01*
X128979386Y-64737343D01*
X129076148Y-64713152D01*
X129124529Y-64688962D01*
X129148719Y-64664771D01*
X129172910Y-64616390D01*
X129172910Y-64568009D01*
X129148719Y-64519628D01*
X129124529Y-64495438D01*
X129076148Y-64471247D01*
X128979386Y-64447057D01*
X128858433Y-64447057D01*
X128761671Y-64471247D01*
X128713290Y-64495438D01*
X128689100Y-64519628D01*
X128664910Y-64568009D01*
X129172910Y-65221153D02*
X129172910Y-64930867D01*
X129172910Y-65076010D02*
X128664910Y-65076010D01*
X128737481Y-65027629D01*
X128785862Y-64979248D01*
X128810052Y-64930867D01*
M02*
