G04 #@! TF.FileFunction,Soldermask,Top*
%FSLAX46Y46*%
G04 Gerber Fmt 4.6, Leading zero omitted, Abs format (unit mm)*
G04 Created by KiCad (PCBNEW 4.0.7) date 01/22/18 19:47:42*
%MOMM*%
%LPD*%
G01*
G04 APERTURE LIST*
%ADD10C,0.100000*%
%ADD11R,2.400000X2.400000*%
%ADD12O,2.400000X2.400000*%
%ADD13R,1.700000X1.700000*%
%ADD14O,1.700000X1.700000*%
%ADD15R,1.300000X1.500000*%
%ADD16R,1.500000X1.250000*%
%ADD17R,1.100000X1.100000*%
%ADD18C,0.863600*%
%ADD19C,1.066800*%
%ADD20C,2.500000*%
%ADD21R,0.600000X1.500000*%
%ADD22R,0.508000X1.143000*%
G04 APERTURE END LIST*
D10*
D11*
X128950000Y-66850000D03*
D12*
X128950000Y-61850000D03*
D13*
X143450000Y-53350000D03*
D14*
X145990000Y-53350000D03*
X148530000Y-53350000D03*
X151070000Y-53350000D03*
X153610000Y-53350000D03*
X156150000Y-53350000D03*
X158690000Y-53350000D03*
D15*
X154070000Y-68050000D03*
X154070000Y-70750000D03*
X159170000Y-68050000D03*
X159170000Y-70750000D03*
D16*
X137000000Y-66850000D03*
X139500000Y-66850000D03*
X160802000Y-56489600D03*
X163302000Y-56489600D03*
D17*
X134650000Y-66750000D03*
X131850000Y-66750000D03*
D18*
X138670000Y-75219000D03*
X138670000Y-73949000D03*
X139940000Y-73949000D03*
X139940000Y-75219000D03*
X141210000Y-75219000D03*
D19*
X142480000Y-74584000D03*
X137400000Y-73568000D03*
X137400000Y-75600000D03*
D18*
X141210000Y-73949000D03*
D20*
X136350000Y-54800000D03*
X138850000Y-52100000D03*
X133850000Y-52100000D03*
D13*
X164250000Y-53350000D03*
D14*
X166790000Y-53350000D03*
X169330000Y-53350000D03*
X171870000Y-53350000D03*
D13*
X169320000Y-73710000D03*
D14*
X169320000Y-76250000D03*
X166780000Y-73710000D03*
X166780000Y-76250000D03*
X164240000Y-73710000D03*
X164240000Y-76250000D03*
X161700000Y-73710000D03*
X161700000Y-76250000D03*
X159160000Y-73710000D03*
X159160000Y-76250000D03*
X156620000Y-73710000D03*
X156620000Y-76250000D03*
X154080000Y-73710000D03*
X154080000Y-76250000D03*
X151540000Y-73710000D03*
X151540000Y-76250000D03*
X149000000Y-73710000D03*
X149000000Y-76250000D03*
X146460000Y-73710000D03*
X146460000Y-76250000D03*
D15*
X137000000Y-62050000D03*
X137000000Y-64750000D03*
X169320000Y-68040000D03*
X169320000Y-70740000D03*
X166800000Y-68030000D03*
X166800000Y-70730000D03*
X164280000Y-68030000D03*
X164280000Y-70730000D03*
X161720000Y-68050000D03*
X161720000Y-70750000D03*
X156620000Y-68050000D03*
X156620000Y-70750000D03*
X151550000Y-68040000D03*
X151550000Y-70740000D03*
X149000000Y-68040000D03*
X149000000Y-70740000D03*
X146450000Y-68050000D03*
X146450000Y-70750000D03*
D21*
X155735000Y-64240000D03*
X157005000Y-64240000D03*
X158275000Y-64240000D03*
X159545000Y-64240000D03*
X160815000Y-64240000D03*
X162085000Y-64240000D03*
X163355000Y-64240000D03*
X164625000Y-64240000D03*
X164625000Y-58840000D03*
X163355000Y-58840000D03*
X162085000Y-58840000D03*
X160815000Y-58840000D03*
X159545000Y-58840000D03*
X158275000Y-58840000D03*
X157005000Y-58840000D03*
X155735000Y-58840000D03*
D22*
X143129000Y-64871600D03*
X144399000Y-64871600D03*
X145669000Y-64871600D03*
X146939000Y-64871600D03*
X148209000Y-64871600D03*
X149479000Y-64871600D03*
X150749000Y-64871600D03*
X150749000Y-58521600D03*
X149479000Y-58521600D03*
X146939000Y-58521600D03*
X145669000Y-58521600D03*
X144399000Y-58521600D03*
X143129000Y-58521600D03*
X148209000Y-58521600D03*
M02*
