M48
;DRILL file {KiCad 4.0.7} date 01/22/18 19:47:45
;FORMAT={2:4/ absolute / inch / suppress leading zeros}
FMAT,2
INCH,TZ
T1C0.010
T2C0.013
T3C0.039
T4C0.047
T5C0.067
T6C0.042
%
G90
G05
M72
T1
X50165Y-19785
X50165Y-20785
X50165Y-21785
X50165Y-22785
X50165Y-23785
X50165Y-24785
X50165Y-27785
X50165Y-28785
X50165Y-29785
X50165Y-30785
X51165Y-19785
X51165Y-20785
X51165Y-21785
X51165Y-22785
X51165Y-23785
X51165Y-24785
X51165Y-27785
X51165Y-28785
X51165Y-29785
X51165Y-30785
X52165Y-19785
X52165Y-21785
X52165Y-22785
X52165Y-23785
X52165Y-24785
X52165Y-26785
X52165Y-27785
X52165Y-28785
X52165Y-29785
X52165Y-30785
X53165Y-19785
X53165Y-22785
X53165Y-23785
X53165Y-25785
X53165Y-30785
X53440Y-29360
X53495Y-27010
X53540Y-28505
X53910Y-24965
X54080Y-29365
X54165Y-19785
X54165Y-22785
X54165Y-26785
X54165Y-27785
X54170Y-30920
X55165Y-19785
X55165Y-21785
X55165Y-22785
X55165Y-24785
X55165Y-25785
X55165Y-27785
X55165Y-28785
X55170Y-30920
X55345Y-29340
X55470Y-30080
X56085Y-22385
X56155Y-28495
X56165Y-19785
X56165Y-21785
X56165Y-23785
X56165Y-24785
X56165Y-26785
X56165Y-30785
X56625Y-27260
X56655Y-24245
X57080Y-21735
X57080Y-22390
X57165Y-19785
X57165Y-23785
X57165Y-27785
X57165Y-30785
X57170Y-29505
X57630Y-24760
X58160Y-27265
X58165Y-19785
X58165Y-21785
X58165Y-27785
X58165Y-30785
X58170Y-29505
X58235Y-22380
X58605Y-23785
X58875Y-21935
X59010Y-26075
X59110Y-19655
X59160Y-27265
X59165Y-27785
X59165Y-30785
X59170Y-29505
X59365Y-22475
X59415Y-23535
X59850Y-23010
X60160Y-27265
X60165Y-25785
X60165Y-27785
X60165Y-30785
X60170Y-19655
X60170Y-29505
X60290Y-24890
X60420Y-22325
X60875Y-25560
X60885Y-20515
X61005Y-23465
X61015Y-22890
X61140Y-21610
X61160Y-27265
X61165Y-27785
X61165Y-30785
X61170Y-19660
X61170Y-29505
X61270Y-24170
X61545Y-22350
X61955Y-25775
X61980Y-20725
X62155Y-24525
X62160Y-27265
X62165Y-27785
X62165Y-30785
X62170Y-29505
X62240Y-19660
X62805Y-22075
X62980Y-21375
X63040Y-22670
X63050Y-25960
X63110Y-23635
X63160Y-27265
X63165Y-19785
X63165Y-27785
X63165Y-30785
X63170Y-29505
X63490Y-24445
X63960Y-25970
X64160Y-27265
X64165Y-19785
X64165Y-20785
X64165Y-21785
X64165Y-24785
X64165Y-27785
X64165Y-30785
X64170Y-29505
X64420Y-23680
X65160Y-27265
X65165Y-19785
X65165Y-21785
X65165Y-22785
X65165Y-24785
X65165Y-25785
X65165Y-27785
X65165Y-30785
X65170Y-29505
X65465Y-23785
X66160Y-27265
X66165Y-19785
X66165Y-20785
X66165Y-21785
X66165Y-23785
X66165Y-24785
X66165Y-25785
X66165Y-27785
X66165Y-28785
X66165Y-30785
X66170Y-29505
X66315Y-22790
X67165Y-19785
X67165Y-20785
X67165Y-22785
X67165Y-23785
X67165Y-24785
X67165Y-25785
X67165Y-26785
X67165Y-27785
X67165Y-28785
X67165Y-30785
X67170Y-29505
X68165Y-19785
X68165Y-20785
X68165Y-21785
X68165Y-22785
X68165Y-23785
X68165Y-24785
X68165Y-25785
X68165Y-26785
X68165Y-27785
X68165Y-28785
X68165Y-29785
X68165Y-30785
T2
X56495Y-25045
X60730Y-23150
X60750Y-26100
X61866Y-22071
X62120Y-26100
X62242Y-21845
X62305Y-23670
X62615Y-21790
X62670Y-20265
X63080Y-20515
X65670Y-26175
T3
X56476Y-21004
X57476Y-21004
X57661Y-29020
X57661Y-30020
X58476Y-21004
X58661Y-29020
X58661Y-30020
X59476Y-21004
X59661Y-29020
X59661Y-30020
X60476Y-21004
X60661Y-29020
X60661Y-30020
X61476Y-21004
X61661Y-29020
X61661Y-30020
X62476Y-21004
X62661Y-29020
X62661Y-30020
X63661Y-29020
X63661Y-30020
X64661Y-29020
X64661Y-30020
X64665Y-21004
X65661Y-29020
X65661Y-30020
X65665Y-21004
X66661Y-29020
X66661Y-30020
X66665Y-21004
X67665Y-21004
T4
X50768Y-24350
X50768Y-26319
T5
X52697Y-20512
X53681Y-21575
X54665Y-20512
T6
X54094Y-28964
X54094Y-29764
X56094Y-29364
T0
M30
